<svg width="31" height="30" viewBox="0 0 31 30" fill="none" xmlns="http://www.w3.org/2000/svg">
<path d="M15.1545 2.9624C8.52704 2.9624 3.15454 8.3349 3.15454 14.9624C3.15454 21.5899 8.52704 26.9624 15.1545 26.9624C21.782 26.9624 27.1545 21.5899 27.1545 14.9624C27.1545 8.3349 21.782 2.9624 15.1545 2.9624ZM12.217 19.9362H9.78704V12.1162H12.217V19.9362ZM10.987 11.1562C10.2195 11.1562 9.72329 10.6124 9.72329 9.9399C9.72329 9.25365 10.2345 8.72615 11.0183 8.72615C11.802 8.72615 12.282 9.25365 12.297 9.9399C12.297 10.6124 11.802 11.1562 10.987 11.1562ZM21.092 19.9362H18.662V15.6024C18.662 14.5937 18.3095 13.9087 17.4308 13.9087C16.7595 13.9087 16.3608 14.3724 16.1845 14.8187C16.1195 14.9774 16.1033 15.2024 16.1033 15.4262V19.9349H13.672V14.6099C13.672 13.6337 13.6408 12.8174 13.6083 12.1149H15.7195L15.8308 13.2012H15.8795C16.1995 12.6912 16.9833 11.9387 18.2945 11.9387C19.8933 11.9387 21.092 13.0099 21.092 15.3124V19.9362Z" fill="#1A1A1A"/>
</svg>
