<svg width="60" height="60" viewBox="0 0 60 60" fill="none" xmlns="http://www.w3.org/2000/svg">
<path d="M48.9929 25.4195L30.2503 43.6895L11.5078 25.4195C11.173 25.0924 10.7234 24.9093 10.2553 24.9093C9.78724 24.9093 9.33771 25.0924 9.00285 25.4195C8.8407 25.5783 8.71189 25.768 8.62396 25.9772C8.53602 26.1865 8.49072 26.4112 8.49072 26.6382C8.49072 26.8652 8.53602 27.0899 8.62396 27.2992C8.71189 27.5085 8.8407 27.6981 9.00285 27.857L28.9416 47.297C29.2917 47.6383 29.7614 47.8293 30.2503 47.8293C30.7393 47.8293 31.2089 47.6383 31.5591 47.297L51.4979 27.8607C51.6611 27.7017 51.7909 27.5116 51.8795 27.3017C51.9682 27.0917 52.0138 26.8661 52.0138 26.6382C52.0138 26.4103 51.9682 26.1847 51.8795 25.9748C51.7909 25.7648 51.6611 25.5747 51.4979 25.4157C51.163 25.0886 50.7135 24.9055 50.2453 24.9055C49.7772 24.9055 49.3277 25.0886 48.9929 25.4157V25.4195Z" fill="url(#paint0_linear_2_1343)"/>
<path opacity="0.4" d="M48.9929 12.4007L30.2503 30.6707L11.5078 12.4007C11.173 12.0736 10.7234 11.8905 10.2553 11.8905C9.78724 11.8905 9.33771 12.0736 9.00285 12.4007C8.8407 12.5595 8.71189 12.7492 8.62396 12.9584C8.53602 13.1677 8.49072 13.3924 8.49072 13.6194C8.49072 13.8464 8.53602 14.0711 8.62396 14.2804C8.71189 14.4897 8.8407 14.6793 9.00285 14.8382L28.9416 34.2782C29.2917 34.6195 29.7614 34.8105 30.2503 34.8105C30.7393 34.8105 31.2089 34.6195 31.5591 34.2782L51.4979 14.8419C51.6611 14.6829 51.7909 14.4928 51.8795 14.2829C51.9682 14.0729 52.0138 13.8473 52.0138 13.6194C52.0138 13.3915 51.9682 13.1659 51.8795 12.956C51.7909 12.746 51.6611 12.5559 51.4979 12.3969C51.163 12.0698 50.7135 11.8867 50.2453 11.8867C49.7772 11.8867 49.3277 12.0698 48.9929 12.3969V12.4007Z" fill="url(#paint1_linear_2_1343)"/>
<defs>
<linearGradient id="paint0_linear_2_1343" x1="8.49072" y1="20.8893" x2="57.0998" y2="51.481" gradientUnits="userSpaceOnUse">
<stop stop-color="#51C3F6"/>
<stop stop-color="#33B6F0"/>
<stop offset="1" stop-color="#0094BB"/>
</linearGradient>
<linearGradient id="paint1_linear_2_1343" x1="8.49072" y1="7.87047" x2="57.0998" y2="38.4622" gradientUnits="userSpaceOnUse">
<stop stop-color="#51C3F6"/>
<stop stop-color="#33B6F0"/>
<stop offset="1" stop-color="#0094BB"/>
</linearGradient>
</defs>
</svg>
