<svg width="27" height="27" viewBox="0 0 27 27" fill="none" xmlns="http://www.w3.org/2000/svg">
<path d="M13.5 0C6.05681 0 0 6.0568 0 13.5C0 20.9432 6.05681 27 13.5 27C20.9432 27 27 20.9432 27 13.5C27 6.0568 20.9432 0 13.5 0ZM13.5 2.13158C19.7912 2.13158 24.8684 7.2088 24.8684 13.5C24.8684 19.7912 19.7912 24.8684 13.5 24.8684C7.20882 24.8684 2.13158 19.7912 2.13158 13.5C2.13158 7.2088 7.20882 2.13158 13.5 2.13158ZM13.5 3.90789C12.9114 3.90789 12.4342 4.38508 12.4342 4.97368V13.5C12.4342 13.8942 12.649 14.2371 12.9671 14.4215L19.7393 18.3293C20.249 18.6236 20.8994 18.4506 21.1936 17.9408C21.488 17.431 21.3149 16.7808 20.8051 16.4865L14.5658 12.8894V4.97368C14.5658 4.38508 14.0886 3.90789 13.5 3.90789Z" fill="#A5A5A5"/>
</svg>
