<svg width="18" height="18" viewBox="0 0 18 18" fill="none" xmlns="http://www.w3.org/2000/svg">
<path d="M9.85674 0.784228C10.4649 0.781895 11.073 0.788007 11.6809 0.802562L11.8426 0.808395C12.0292 0.815062 12.2134 0.823395 12.4359 0.833395C13.3226 0.875062 13.9276 1.01506 14.4584 1.2209C15.0084 1.43256 15.4717 1.71923 15.9351 2.18256C16.3587 2.5989 16.6866 3.10252 16.8959 3.65839C17.1017 4.18923 17.2417 4.79506 17.2834 5.68173C17.2934 5.90339 17.3017 6.08839 17.3084 6.27506L17.3134 6.43673C17.3282 7.04439 17.3346 7.65222 17.3326 8.26006L17.3334 8.88173V9.97339C17.3355 10.5815 17.3291 11.1896 17.3142 11.7976L17.3092 11.9592C17.3026 12.1459 17.2942 12.3301 17.2842 12.5526C17.2426 13.4392 17.1009 14.0442 16.8959 14.5751C16.6873 15.1315 16.3593 15.6356 15.9351 16.0517C15.5184 16.4753 15.0145 16.8032 14.4584 17.0126C13.9276 17.2184 13.3226 17.3584 12.4359 17.4001C12.2134 17.4101 12.0292 17.4184 11.8426 17.4251L11.6809 17.4301C11.073 17.4449 10.4649 17.4513 9.85674 17.4492L9.23507 17.4501H8.14424C7.53613 17.4521 6.92801 17.4457 6.32007 17.4309L6.15841 17.4259C5.96058 17.4187 5.7628 17.4104 5.56507 17.4009C4.67841 17.3592 4.07341 17.2176 3.54174 17.0126C2.98564 16.8037 2.48194 16.4757 2.06591 16.0517C1.64178 15.6353 1.31359 15.1314 1.10424 14.5751C0.898407 14.0442 0.758407 13.4392 0.716741 12.5526C0.70746 12.3548 0.699126 12.157 0.691741 11.9592L0.687574 11.7976C0.67221 11.1896 0.665265 10.5815 0.666741 9.97339V8.26006C0.664415 7.65223 0.670527 7.04439 0.685074 6.43673L0.690907 6.27506C0.697574 6.08839 0.705907 5.90339 0.715907 5.68173C0.757574 4.79423 0.897574 4.19006 1.10341 3.65839C1.31288 3.10225 1.64171 2.59877 2.06674 2.1834C2.48249 1.75902 2.98588 1.43054 3.54174 1.2209C4.07341 1.01506 4.67757 0.875062 5.56507 0.833395L6.15841 0.808395L6.32007 0.804229C6.92773 0.788873 7.53556 0.781927 8.14341 0.783395L9.85674 0.784228ZM9.00007 4.95089C8.448 4.94309 7.89987 5.04508 7.38755 5.25095C6.87524 5.45682 6.40895 5.76246 6.01578 6.15011C5.62261 6.53775 5.31041 6.99968 5.09731 7.50903C4.88422 8.01838 4.77448 8.56501 4.77448 9.11714C4.77448 9.66928 4.88422 10.2159 5.09731 10.7253C5.31041 11.2346 5.62261 11.6965 6.01578 12.0842C6.40895 12.4718 6.87524 12.7775 7.38755 12.9833C7.89987 13.1892 8.448 13.2912 9.00007 13.2834C10.1051 13.2834 11.165 12.8444 11.9464 12.063C12.7278 11.2816 13.1667 10.2218 13.1667 9.11673C13.1667 8.01166 12.7278 6.95185 11.9464 6.17045C11.165 5.38905 10.1051 4.95089 9.00007 4.95089ZM9.00007 6.61756C9.33216 6.61144 9.66214 6.67156 9.97074 6.7944C10.2793 6.91724 10.5604 7.10035 10.7974 7.33301C11.0344 7.56568 11.2227 7.84325 11.3513 8.14951C11.4798 8.45577 11.5461 8.78457 11.5461 9.11672C11.5462 9.44887 11.4801 9.77769 11.3516 10.084C11.2231 10.3903 11.0349 10.6679 10.798 10.9007C10.561 11.1334 10.2801 11.3166 9.97151 11.4396C9.66296 11.5625 9.333 11.6227 9.00091 11.6167C8.33787 11.6167 7.70198 11.3533 7.23314 10.8845C6.7643 10.4157 6.50091 9.77977 6.50091 9.11673C6.50091 8.45369 6.7643 7.8178 7.23314 7.34896C7.70198 6.88012 8.33787 6.61673 9.00091 6.61673L9.00007 6.61756ZM13.3751 3.70089C13.1062 3.71165 12.852 3.82602 12.6656 4.02004C12.4792 4.21405 12.3751 4.47267 12.3751 4.74173C12.3751 5.01078 12.4792 5.2694 12.6656 5.46342C12.852 5.65744 13.1062 5.7718 13.3751 5.78256C13.6513 5.78256 13.9163 5.67281 14.1116 5.47746C14.307 5.28211 14.4167 5.01716 14.4167 4.74089C14.4167 4.46463 14.307 4.19968 14.1116 4.00433C13.9163 3.80897 13.6513 3.69923 13.3751 3.69923V3.70089Z" fill="black"/>
</svg>
