<svg width="22" height="23" viewBox="0 0 22 23" fill="none" xmlns="http://www.w3.org/2000/svg">
<path d="M12.131 0.739635C12.9337 0.736554 13.7364 0.744622 14.5388 0.763834L14.7522 0.771534C14.9986 0.780333 15.2417 0.791333 15.5354 0.804532C16.7058 0.859531 17.5043 1.04432 18.205 1.31602C18.931 1.59541 19.5426 1.97379 20.1542 2.58537C20.7133 3.13492 21.1461 3.79967 21.4224 4.53341C21.6941 5.23408 21.8789 6.03375 21.9339 7.20411C21.9471 7.4967 21.9581 7.7409 21.9669 7.98729L21.9735 8.20068C21.993 9.00277 22.0015 9.80508 21.9988 10.6074L21.9999 11.428V12.8689C22.0026 13.6716 21.9942 14.4743 21.9746 15.2767L21.968 15.4901C21.9592 15.7365 21.9482 15.9796 21.935 16.2733C21.88 17.4437 21.693 18.2422 21.4224 18.9429C21.147 19.6774 20.7141 20.3427 20.1542 20.892C19.6041 21.4512 18.939 21.8839 18.205 22.1603C17.5043 22.432 16.7058 22.6168 15.5354 22.6718C15.2417 22.685 14.9986 22.696 14.7522 22.7048L14.5388 22.7114C13.7364 22.7309 12.9337 22.7394 12.131 22.7367L11.3105 22.7378H9.8706C9.06791 22.7405 8.26523 22.7321 7.46278 22.7125L7.24939 22.7059C6.98827 22.6964 6.72721 22.6854 6.46622 22.6729C5.29586 22.6179 4.49728 22.4309 3.79551 22.1603C3.06148 21.8846 2.39661 21.4517 1.84747 20.892C1.28764 20.3424 0.854452 19.6772 0.578115 18.9429C0.306424 18.2422 0.121631 17.4437 0.0666324 16.2733C0.054382 16.0123 0.0433823 15.7512 0.0336335 15.4901L0.0281339 15.2767C0.00785448 14.4743 -0.00131286 13.6716 0.000634679 12.8689V10.6074C-0.00243528 9.80509 0.00563197 9.00277 0.0248339 8.20068L0.0325336 7.98729C0.0413333 7.7409 0.0523329 7.4967 0.0655325 7.20411C0.120531 6.03265 0.305324 5.23518 0.577015 4.53341C0.853516 3.79931 1.28755 3.13474 1.84857 2.58647C2.39734 2.02632 3.06179 1.59274 3.79551 1.31602C4.49728 1.04432 5.29475 0.859531 6.46622 0.804532L7.24939 0.771534L7.46278 0.766034C8.26486 0.745765 9.06717 0.736597 9.8695 0.738535L12.131 0.739635ZM11.0003 6.23945C10.2715 6.22914 9.54804 6.36377 8.87181 6.63551C8.19557 6.90725 7.58009 7.31068 7.06112 7.82235C6.54216 8.33403 6.13007 8.94375 5.84879 9.61607C5.56752 10.2884 5.42267 11.0099 5.42267 11.7387C5.42267 12.4675 5.56752 13.189 5.84879 13.8614C6.13007 14.5337 6.54216 15.1434 7.06112 15.6551C7.58009 16.1667 8.19557 16.5702 8.87181 16.8419C9.54804 17.1137 10.2715 17.2483 11.0003 17.238C12.4589 17.238 13.8578 16.6585 14.8892 15.6271C15.9206 14.5957 16.5001 13.1968 16.5001 11.7382C16.5001 10.2795 15.9206 8.88062 14.8892 7.84921C13.8578 6.81779 12.4589 6.23945 11.0003 6.23945ZM11.0003 8.43937C11.4386 8.4313 11.8742 8.51065 12.2815 8.67279C12.6888 8.83494 13.0598 9.07663 13.3726 9.38374C13.6855 9.69085 13.9341 10.0572 14.1037 10.4615C14.2734 10.8657 14.3609 11.2997 14.3609 11.7382C14.361 12.1766 14.2737 12.6106 14.1042 13.0149C13.9346 13.4192 13.6862 13.7857 13.3734 14.0929C13.0606 14.4001 12.6898 14.6419 12.2825 14.8042C11.8752 14.9665 11.4397 15.046 11.0014 15.038C10.1262 15.038 9.28684 14.6904 8.66799 14.0715C8.04914 13.4527 7.70147 12.6133 7.70147 11.7382C7.70147 10.863 8.04914 10.0236 8.66799 9.40479C9.28684 8.78594 10.1262 8.43827 11.0014 8.43827L11.0003 8.43937ZM16.7751 4.5895C16.4202 4.60371 16.0846 4.75466 15.8386 5.01076C15.5925 5.26685 15.4551 5.60822 15.4551 5.96336C15.4551 6.3185 15.5925 6.65986 15.8386 6.91596C16.0846 7.17205 16.4202 7.32301 16.7751 7.33721C17.1397 7.33721 17.4895 7.19235 17.7473 6.9345C18.0052 6.67664 18.15 6.32692 18.15 5.96226C18.15 5.5976 18.0052 5.24787 17.7473 4.99002C17.4895 4.73216 17.1397 4.5873 16.7751 4.5873V4.5895Z" fill="black"/>
</svg>
