<svg width="18" height="18" viewBox="0 0 18 18" fill="none" xmlns="http://www.w3.org/2000/svg">
<path d="M9.85674 0.785449C10.4649 0.783116 11.073 0.789227 11.6809 0.803783L11.8426 0.809616C12.0292 0.816283 12.2134 0.824616 12.4359 0.834616C13.3226 0.876282 13.9276 1.01628 14.4584 1.22212C15.0084 1.43378 15.4717 1.72045 15.9351 2.18378C16.3587 2.60012 16.6866 3.10374 16.8959 3.65962C17.1017 4.19045 17.2417 4.79628 17.2834 5.68295C17.2934 5.90461 17.3017 6.08962 17.3084 6.27628L17.3134 6.43795C17.3282 7.04561 17.3346 7.65345 17.3326 8.26128L17.3334 8.88295V9.97462C17.3355 10.5827 17.3291 11.1908 17.3142 11.7988L17.3092 11.9604C17.3026 12.1471 17.2942 12.3313 17.2842 12.5538C17.2426 13.4404 17.1009 14.0454 16.8959 14.5763C16.6873 15.1327 16.3593 15.6368 15.9351 16.0529C15.5184 16.4765 15.0145 16.8044 14.4584 17.0138C13.9276 17.2196 13.3226 17.3596 12.4359 17.4013C12.2134 17.4113 12.0292 17.4196 11.8426 17.4263L11.6809 17.4313C11.073 17.4461 10.4649 17.4525 9.85674 17.4504L9.23507 17.4513H8.14424C7.53613 17.4533 6.92801 17.4469 6.32007 17.4321L6.15841 17.4271C5.96058 17.4199 5.7628 17.4116 5.56507 17.4021C4.67841 17.3604 4.07341 17.2188 3.54174 17.0138C2.98564 16.8049 2.48194 16.477 2.06591 16.0529C1.64178 15.6365 1.31359 15.1326 1.10424 14.5763C0.898407 14.0454 0.758407 13.4404 0.716741 12.5538C0.70746 12.356 0.699126 12.1583 0.691741 11.9604L0.687574 11.7988C0.67221 11.1909 0.665265 10.5827 0.666741 9.97462V8.26128C0.664415 7.65345 0.670527 7.04561 0.685074 6.43795L0.690907 6.27628C0.697574 6.08962 0.705907 5.90461 0.715907 5.68295C0.757574 4.79545 0.897574 4.19128 1.10341 3.65962C1.31288 3.10347 1.64171 2.59999 2.06674 2.18462C2.48249 1.76024 2.98588 1.43176 3.54174 1.22212C4.07341 1.01628 4.67757 0.876282 5.56507 0.834616L6.15841 0.809616L6.32007 0.805449C6.92773 0.790093 7.53556 0.783148 8.14341 0.784616L9.85674 0.785449ZM9.00007 4.95212C8.448 4.94431 7.89987 5.0463 7.38755 5.25217C6.87524 5.45804 6.40895 5.76368 6.01578 6.15133C5.62261 6.53897 5.31041 7.0009 5.09731 7.51025C4.88422 8.01961 4.77448 8.56623 4.77448 9.11837C4.77448 9.6705 4.88422 10.2171 5.09731 10.7265C5.31041 11.2358 5.62261 11.6978 6.01578 12.0854C6.40895 12.473 6.87524 12.7787 7.38755 12.9846C7.89987 13.1904 8.448 13.2924 9.00007 13.2846C10.1051 13.2846 11.165 12.8456 11.9464 12.0642C12.7278 11.2828 13.1667 10.223 13.1667 9.11795C13.1667 8.01288 12.7278 6.95307 11.9464 6.17167C11.165 5.39027 10.1051 4.95212 9.00007 4.95212ZM9.00007 6.61878C9.33216 6.61266 9.66214 6.67278 9.97074 6.79562C10.2793 6.91846 10.5604 7.10157 10.7974 7.33424C11.0344 7.56691 11.2227 7.84448 11.3513 8.15073C11.4798 8.45699 11.5461 8.7858 11.5461 9.11794C11.5462 9.45009 11.4801 9.77891 11.3516 10.0852C11.2231 10.3915 11.0349 10.6691 10.798 10.9019C10.561 11.1346 10.2801 11.3178 9.97151 11.4408C9.66296 11.5637 9.333 11.624 9.00091 11.6179C8.33787 11.6179 7.70198 11.3546 7.23314 10.8857C6.7643 10.4169 6.50091 9.78099 6.50091 9.11795C6.50091 8.45491 6.7643 7.81902 7.23314 7.35018C7.70198 6.88134 8.33787 6.61795 9.00091 6.61795L9.00007 6.61878ZM13.3751 3.70212C13.1062 3.71288 12.852 3.82724 12.6656 4.02126C12.4792 4.21528 12.3751 4.47389 12.3751 4.74295C12.3751 5.012 12.4792 5.27062 12.6656 5.46464C12.852 5.65866 13.1062 5.77302 13.3751 5.78378C13.6513 5.78378 13.9163 5.67404 14.1116 5.47868C14.307 5.28333 14.4167 5.01838 14.4167 4.74212C14.4167 4.46585 14.307 4.2009 14.1116 4.00555C13.9163 3.8102 13.6513 3.70045 13.3751 3.70045V3.70212Z" fill="black"/>
</svg>
