<svg width="31" height="30" viewBox="0 0 31 30" fill="none" xmlns="http://www.w3.org/2000/svg">
<path d="M16.13 4.00111C16.9327 3.99803 17.7354 4.0061 18.5379 4.02531L18.7513 4.03301C18.9977 4.04181 19.2407 4.05281 19.5344 4.06601C20.7048 4.12101 21.5034 4.3058 22.204 4.57749C22.93 4.85688 23.5416 5.23527 24.1532 5.84685C24.7124 6.39639 25.1452 7.06115 25.4214 7.79488C25.6931 8.49556 25.8779 9.29523 25.9329 10.4656C25.9461 10.7582 25.9571 11.0024 25.9659 11.2488L25.9725 11.4622C25.9921 12.2642 26.0005 13.0666 25.9978 13.8689L25.9989 14.6894V16.1304C26.0016 16.9331 25.9932 17.7358 25.9736 18.5382L25.967 18.7516C25.9582 18.998 25.9472 19.2411 25.934 19.5348C25.879 20.7051 25.692 21.5037 25.4214 22.2044C25.1461 22.9389 24.7132 23.6042 24.1532 24.1535C23.6032 24.7127 22.9381 25.1454 22.204 25.4218C21.5034 25.6935 20.7048 25.8783 19.5344 25.9333C19.2407 25.9465 18.9977 25.9575 18.7513 25.9663L18.5379 25.9729C17.7354 25.9924 16.9327 26.0009 16.13 25.9982L15.3095 25.9993H13.8696C13.0669 26.002 12.2643 25.9935 11.4618 25.974L11.2484 25.9674C10.9873 25.9579 10.7262 25.9469 10.4652 25.9344C9.29488 25.8794 8.49631 25.6924 7.79453 25.4218C7.06051 25.1461 6.39564 24.7132 5.8465 24.1535C5.28666 23.6039 4.85348 22.9387 4.57714 22.2044C4.30545 21.5037 4.12065 20.7051 4.06566 19.5348C4.05341 19.2738 4.04241 19.0127 4.03266 18.7516L4.02716 18.5382C4.00688 17.7358 3.99771 16.9331 3.99966 16.1304V13.8689C3.99659 13.0666 4.00466 12.2642 4.02386 11.4622L4.03156 11.2488C4.04036 11.0024 4.05136 10.7582 4.06456 10.4656C4.11955 9.29413 4.30435 8.49666 4.57604 7.79488C4.85254 7.06079 5.28657 6.39622 5.8476 5.84795C6.39636 5.28779 7.06081 4.85421 7.79453 4.57749C8.49631 4.3058 9.29378 4.12101 10.4652 4.06601L11.2484 4.03301L11.4618 4.02751C12.2639 4.00724 13.0662 3.99807 13.8685 4.00001L16.13 4.00111ZM14.9993 9.50092C14.2706 9.49062 13.5471 9.62524 12.8708 9.89698C12.1946 10.1687 11.5791 10.5722 11.0601 11.0838C10.5412 11.5955 10.1291 12.2052 9.84782 12.8775C9.56654 13.5499 9.42169 14.2714 9.42169 15.0002C9.42169 15.729 9.56654 16.4505 9.84782 17.1228C10.1291 17.7951 10.5412 18.4049 11.0601 18.9165C11.5791 19.4282 12.1946 19.8316 12.8708 20.1034C13.5471 20.3751 14.2706 20.5098 14.9993 20.4994C16.4579 20.4994 17.8568 19.92 18.8882 18.8886C19.9197 17.8572 20.4991 16.4583 20.4991 14.9996C20.4991 13.541 19.9197 12.1421 18.8882 11.1107C17.8568 10.0793 16.4579 9.50092 14.9993 9.50092ZM14.9993 11.7008C15.4376 11.6928 15.8732 11.7721 16.2805 11.9343C16.6878 12.0964 17.0588 12.3381 17.3717 12.6452C17.6845 12.9523 17.9331 13.3187 18.1028 13.723C18.2725 14.1272 18.3599 14.5612 18.36 14.9996C18.36 15.438 18.2727 15.8721 18.1032 16.2764C17.9336 16.6807 17.6852 17.0471 17.3724 17.3544C17.0597 17.6616 16.6888 17.9034 16.2815 18.0657C15.8743 18.228 15.4387 18.3075 15.0004 18.2995C14.1252 18.2995 13.2859 17.9519 12.667 17.333C12.0482 16.7142 11.7005 15.8748 11.7005 14.9996C11.7005 14.1245 12.0482 13.2851 12.667 12.6663C13.2859 12.0474 14.1252 11.6997 15.0004 11.6997L14.9993 11.7008ZM20.7741 7.85098C20.4192 7.86518 20.0836 8.01614 19.8376 8.27223C19.5915 8.52833 19.4541 8.86969 19.4541 9.22483C19.4541 9.57997 19.5915 9.92134 19.8376 10.1774C20.0836 10.4335 20.4192 10.5845 20.7741 10.5987C21.1388 10.5987 21.4885 10.4538 21.7463 10.196C22.0042 9.93812 22.149 9.58839 22.149 9.22373C22.149 8.85907 22.0042 8.50935 21.7463 8.25149C21.4885 7.99364 21.1388 7.84878 20.7741 7.84878V7.85098Z" fill="black"/>
</svg>
