<svg width="31" height="30" viewBox="0 0 31 30" fill="none" xmlns="http://www.w3.org/2000/svg">
<path d="M15.3077 2.90039C13.6914 2.90039 12.091 3.21874 10.5977 3.83726C9.1045 4.45578 7.74771 5.36236 6.60484 6.50523C4.2967 8.81337 3 11.9439 3 15.2081C3 20.6481 6.53231 25.2635 11.4185 26.9004C12.0338 26.9989 12.2308 26.6173 12.2308 26.285V24.205C8.82154 24.9435 8.09538 22.5558 8.09538 22.5558C7.52923 21.1281 6.72923 20.7465 6.72923 20.7465C5.60923 19.9835 6.81538 20.0081 6.81538 20.0081C8.04615 20.0942 8.69846 21.2758 8.69846 21.2758C9.76923 23.1465 11.5785 22.5927 12.28 22.2973C12.3908 21.4973 12.7108 20.9558 13.0554 20.6481C10.3231 20.3404 7.45538 19.2819 7.45538 14.5927C7.45538 13.2265 7.92308 12.1312 8.72308 11.2573C8.6 10.9496 8.16923 9.66962 8.84615 8.00808C8.84615 8.00808 9.88 7.67578 12.2308 9.26347C13.2031 8.9927 14.2615 8.85731 15.3077 8.85731C16.3538 8.85731 17.4123 8.9927 18.3846 9.26347C20.7354 7.67578 21.7692 8.00808 21.7692 8.00808C22.4462 9.66962 22.0154 10.9496 21.8923 11.2573C22.6923 12.1312 23.16 13.2265 23.16 14.5927C23.16 19.2942 20.28 20.3281 17.5354 20.6358C17.9785 21.0173 18.3846 21.7681 18.3846 22.9127V26.285C18.3846 26.6173 18.5815 27.0112 19.2092 26.9004C24.0954 25.2512 27.6154 20.6481 27.6154 15.2081C27.6154 13.5918 27.297 11.9914 26.6785 10.4981C26.06 9.00489 25.1534 7.64811 24.0105 6.50523C22.8677 5.36236 21.5109 4.45578 20.0176 3.83726C18.5244 3.21874 16.924 2.90039 15.3077 2.90039Z" fill="#1A1A1A"/>
</svg>
