<svg width="318" height="822" viewBox="0 0 318 822" fill="none" xmlns="http://www.w3.org/2000/svg">
<g style="mix-blend-mode:hard-light" opacity="0.3">
<g opacity="0.6549">
<path d="M256.493 407.853C257.09 405.295 255.498 402.737 252.937 402.141C250.377 401.545 247.817 403.136 247.221 405.695C246.624 408.253 248.216 410.81 250.777 411.406C253.337 412.003 255.896 410.412 256.493 407.853Z" fill="#0071BC"/>
</g>
<g opacity="0.4911">
<path d="M224.777 412.294C227.823 412.294 230.292 409.826 230.292 406.783C230.292 403.739 227.823 401.272 224.777 401.272C221.731 401.272 219.262 403.739 219.262 406.783C219.262 409.826 221.731 412.294 224.777 412.294Z" fill="#0071BC"/>
</g>
<g opacity="0.5946">
<path d="M203.564 408.73C204.647 405.484 202.892 401.976 199.643 400.894C196.395 399.813 192.885 401.567 191.802 404.812C190.719 408.058 192.475 411.566 195.723 412.648C198.971 413.729 202.482 411.975 203.564 408.73Z" fill="#0071BC"/>
</g>
<g opacity="0.303">
<path d="M173.979 410.171C175.853 408.298 175.853 405.263 173.979 403.391C172.106 401.519 169.068 401.519 167.194 403.391C165.321 405.263 165.321 408.298 167.194 410.171C169.068 412.043 172.106 412.043 173.979 410.171Z" fill="#0071BC"/>
</g>
<g opacity="0.9323">
<path d="M143.498 411.651C146.189 411.651 148.37 409.471 148.37 406.783C148.37 404.094 146.189 401.914 143.498 401.914C140.807 401.914 138.625 404.094 138.625 406.783C138.625 409.471 140.807 411.651 143.498 411.651Z" fill="#0071BC"/>
</g>
<g opacity="0.6636">
<path d="M121.618 408.043C122.3 405.157 120.511 402.265 117.623 401.583C114.734 400.902 111.84 402.689 111.158 405.575C110.476 408.462 112.264 411.354 115.153 412.035C118.041 412.717 120.936 410.93 121.618 408.043Z" fill="#0071BC"/>
</g>
<g opacity="0.3251">
<path d="M89.3089 412.745C92.6044 412.745 95.2759 410.076 95.2759 406.783C95.2759 403.49 92.6044 400.82 89.3089 400.82C86.0133 400.82 83.3418 403.49 83.3418 406.783C83.3418 410.076 86.0133 412.745 89.3089 412.745Z" fill="#0071BC"/>
</g>
<g opacity="0.3084">
<path d="M67.2112 407.987C67.8649 405.221 66.1507 402.45 63.3826 401.797C60.6145 401.143 57.8406 402.856 57.1869 405.622C56.5333 408.388 58.2474 411.16 61.0156 411.813C63.7837 412.466 66.5576 410.753 67.2112 407.987Z" fill="#0071BC"/>
</g>
<g opacity="0.2952">
<path d="M38.9994 410.657C41.1418 408.516 41.1418 405.045 38.9994 402.904C36.857 400.764 33.3834 400.764 31.241 402.904C29.0986 405.045 29.0986 408.516 31.241 410.657C33.3834 412.797 36.857 412.797 38.9994 410.657Z" fill="#0071BC"/>
</g>
<g opacity="0.4755">
<path d="M11.583 410.335C13.5473 408.372 13.5473 405.19 11.583 403.227C9.61876 401.265 6.43402 401.265 4.46974 403.227C2.50545 405.19 2.50545 408.372 4.46974 410.335C6.43402 412.298 9.61874 412.298 11.583 410.335Z" fill="#0071BC"/>
</g>
<g opacity="0.556">
<path d="M255.956 424.188C257.751 422.288 257.665 419.293 255.764 417.498C253.862 415.704 250.865 415.79 249.069 417.69C247.274 419.59 247.359 422.585 249.261 424.379C251.163 426.174 254.16 426.088 255.956 424.188Z" fill="#0071BC"/>
</g>
<g opacity="0.3307">
<path d="M227.344 427.268C229.551 426.251 230.514 423.64 229.496 421.435C228.478 419.231 225.865 418.268 223.658 419.285C221.452 420.302 220.489 422.914 221.507 425.118C222.524 427.323 225.138 428.285 227.344 427.268Z" fill="#0071BC"/>
</g>
<g opacity="0.5628">
<path d="M198.251 422.727C199.872 422.586 201.303 423.783 201.444 425.403C201.584 427.023 200.386 428.453 198.765 428.594C197.143 428.735 195.713 427.537 195.572 425.917C195.431 424.297 196.629 422.867 198.251 422.727Z" fill="#0071BC"/>
</g>
<g opacity="0.6615">
<path d="M171.548 434.114C174.912 434.097 177.626 431.359 177.61 427.998C177.594 424.636 174.854 421.924 171.489 421.94C168.125 421.956 165.411 424.695 165.427 428.056C165.443 431.418 168.184 434.13 171.548 434.114Z" fill="#0071BC"/>
</g>
<g opacity="0.4265">
<path d="M253.372 429.505C256.403 428.971 259.294 430.993 259.829 434.022C260.363 437.05 258.34 439.938 255.309 440.473C252.277 441.008 249.387 438.985 248.852 435.957C248.317 432.928 250.341 430.04 253.372 429.505Z" fill="#0071BC"/>
</g>
<g opacity="0.8902">
<path d="M226.585 433.603C229.947 433.011 233.157 435.256 233.75 438.617C234.343 441.977 232.095 445.184 228.733 445.777C225.37 446.369 222.16 444.123 221.567 440.763C220.974 437.403 223.222 434.196 226.585 433.603Z" fill="#0071BC"/>
</g>
<g opacity="0.7959">
<path d="M201.784 448.112C203.84 447.662 205.141 445.632 204.691 443.578C204.24 441.524 202.208 440.223 200.153 440.674C198.097 441.124 196.795 443.154 197.246 445.208C197.697 447.262 199.729 448.563 201.784 448.112Z" fill="#0071BC"/>
</g>
<g opacity="0.8692">
<path d="M174.761 453.343C177.108 453.089 178.805 450.982 178.551 448.636C178.297 446.291 176.188 444.595 173.841 444.849C171.493 445.103 169.796 447.21 170.05 449.555C170.304 451.901 172.413 453.597 174.761 453.343Z" fill="#0071BC"/>
</g>
<g opacity="0.4441">
<path d="M146.595 448.026C149.784 447.463 152.824 449.593 153.387 452.779C153.951 455.965 151.82 459.002 148.631 459.566C145.442 460.129 142.403 458 141.839 454.813C141.275 451.627 143.406 448.586 146.595 448.026Z" fill="#0071BC"/>
</g>
<g opacity="0.3416">
<path d="M260.204 452.042C261.986 450.494 262.176 447.796 260.628 446.015C259.079 444.234 256.379 444.045 254.597 445.592C252.814 447.139 252.624 449.837 254.173 451.618C255.721 453.399 258.421 453.589 260.204 452.042Z" fill="#0071BC"/>
</g>
<g opacity="0.6944">
<path d="M230.462 452.936C232.063 452.51 233.705 453.459 234.136 455.054C234.563 456.653 233.613 458.294 232.017 458.725C230.416 459.152 228.774 458.203 228.343 456.608C227.916 455.008 228.865 453.367 230.462 452.936Z" fill="#0071BC"/>
</g>
<g opacity="0.6881">
<path d="M210.484 464.069C211.172 461.087 209.31 458.114 206.326 457.427C203.342 456.74 200.366 458.6 199.679 461.581C198.991 464.563 200.853 467.537 203.837 468.224C206.821 468.911 209.797 467.05 210.484 464.069Z" fill="#0071BC"/>
</g>
<g opacity="0.3491">
<path d="M183.796 472.684C185.361 469.975 184.432 466.511 181.721 464.946C179.01 463.382 175.543 464.31 173.978 467.019C172.412 469.728 173.341 473.193 176.052 474.757C178.764 476.321 182.23 475.393 183.796 472.684Z" fill="#0071BC"/>
</g>
<g opacity="0.3092">
<path d="M156.707 479.158C157.979 476.956 157.224 474.141 155.02 472.87C152.817 471.599 149.999 472.353 148.727 474.555C147.455 476.756 148.21 479.572 150.413 480.843C152.617 482.114 155.434 481.36 156.707 479.158Z" fill="#0071BC"/>
</g>
<g opacity="0.2777">
<path d="M73.4855 495.133C74.999 494.727 76.554 495.626 76.9604 497.139C77.3667 498.651 76.4669 500.205 74.9534 500.611C73.4398 501.017 71.8848 500.118 71.4785 498.605C71.0721 497.093 71.9719 495.539 73.4855 495.133Z" fill="#0071BC"/>
</g>
<g opacity="0.8588">
<path d="M46.9217 500.673C49.248 500.051 51.6365 501.431 52.2626 503.751C52.8846 506.076 51.5038 508.462 49.1817 509.088C46.8595 509.714 44.4669 508.33 43.8408 506.009C43.2146 503.689 44.5954 501.294 46.9217 500.673Z" fill="#0071BC"/>
</g>
<g opacity="0.8124">
<path d="M27.6752 512.675C28.113 509.467 25.8651 506.511 22.6544 506.074C19.4436 505.637 16.4859 507.883 16.0481 511.091C15.6103 514.299 17.8582 517.255 21.0689 517.692C24.2797 518.129 27.2374 515.883 27.6752 512.675Z" fill="#0071BC"/>
</g>
<g opacity="0.8599">
<path d="M266.218 464.565C267.43 462.052 266.375 459.033 263.86 457.822C261.346 456.61 258.325 457.664 257.112 460.177C255.899 462.689 256.954 465.708 259.469 466.92C261.983 468.132 265.005 467.077 266.218 464.565Z" fill="#0071BC"/>
</g>
<g opacity="0.5837">
<path d="M238.423 477.277C241.559 476.073 243.125 472.556 241.92 469.422C240.715 466.289 237.195 464.724 234.059 465.929C230.923 467.133 229.357 470.649 230.562 473.783C231.768 476.917 235.287 478.481 238.423 477.277Z" fill="#0071BC"/>
</g>
<g opacity="0.8968">
<path d="M209.455 477.287C211.428 476.57 213.61 477.586 214.327 479.558C215.044 481.53 214.028 483.71 212.055 484.426C210.081 485.143 207.9 484.128 207.182 482.156C206.465 480.188 207.481 478.004 209.455 477.287Z" fill="#0071BC"/>
</g>
<g opacity="0.5971">
<path d="M184.048 486.693C185.939 486.005 188.033 486.979 188.722 488.868C189.41 490.758 188.435 492.85 186.545 493.538C184.654 494.226 182.56 493.252 181.871 491.362C181.183 489.473 182.157 487.381 184.048 486.693Z" fill="#0071BC"/>
</g>
<g opacity="0.3731">
<path d="M158.061 494.503C160.752 493.525 163.733 494.909 164.712 497.602C165.691 500.292 164.306 503.271 161.61 504.248C158.919 505.226 155.938 503.842 154.959 501.149C153.98 498.46 155.37 495.485 158.061 494.503Z" fill="#0071BC"/>
</g>
<g opacity="0.6047">
<path d="M135.891 513.251C138.452 512.403 139.84 509.642 138.991 507.083C138.143 504.524 135.379 503.137 132.818 503.985C130.258 504.833 128.869 507.594 129.718 510.153C130.566 512.712 133.33 514.099 135.891 513.251Z" fill="#0071BC"/>
</g>
<g opacity="0.9816">
<path d="M107.231 513.256C109.794 512.324 112.626 513.646 113.559 516.207C114.492 518.767 113.169 521.597 110.606 522.529C108.044 523.462 105.212 522.14 104.279 519.579C103.346 517.023 104.668 514.189 107.231 513.256Z" fill="#0071BC"/>
</g>
<g opacity="0.9009">
<path d="M81.8823 522.832C84.2708 521.962 86.9122 523.192 87.783 525.579C88.6538 527.966 87.4223 530.605 85.0338 531.475C82.6453 532.345 80.0039 531.115 79.1331 528.728C78.2623 526.341 79.4938 523.702 81.8823 522.832Z" fill="#0071BC"/>
</g>
<g opacity="0.5695">
<path d="M56.8446 533.236C58.5986 532.598 60.5393 533.501 61.1779 535.254C61.8165 537.006 60.9125 538.946 59.1584 539.584C57.4044 540.222 55.4638 539.319 54.8252 537.566C54.1824 535.817 55.0864 533.878 56.8446 533.236Z" fill="#0071BC"/>
</g>
<g opacity="0.4318">
<path d="M35.8113 547.187C36.6543 545.381 35.8721 543.233 34.0643 542.391C32.2565 541.549 30.1076 542.33 29.2646 544.137C28.4216 545.943 29.2038 548.09 31.0116 548.933C32.8195 549.775 34.9683 548.993 35.8113 547.187Z" fill="#0071BC"/>
</g>
<g opacity="0.8608">
<path d="M265.526 472.054C267.392 471.184 269.611 471.992 270.481 473.857C271.352 475.721 270.544 477.938 268.678 478.808C266.812 479.678 264.593 478.87 263.722 477.006C262.852 475.141 263.66 472.924 265.526 472.054Z" fill="#0071BC"/>
</g>
<g opacity="0.7281">
<path d="M240.132 481.696C242.993 480.362 246.393 481.601 247.728 484.46C249.064 487.319 247.824 490.716 244.963 492.05C242.101 493.385 238.701 492.146 237.366 489.287C236.031 486.428 237.27 483.03 240.132 481.696Z" fill="#0071BC"/>
</g>
<g opacity="0.8028">
<path d="M221.817 502.224C223.98 500.105 224.014 496.634 221.893 494.473C219.772 492.311 216.299 492.277 214.135 494.396C211.972 496.516 211.938 499.986 214.059 502.148C216.18 504.31 219.654 504.344 221.817 502.224Z" fill="#0071BC"/>
</g>
<g opacity="0.8115">
<path d="M191.591 505.798C193.776 504.779 196.376 505.724 197.396 507.907C198.416 510.091 197.471 512.689 195.285 513.708C193.1 514.727 190.5 513.783 189.48 511.599C188.46 509.415 189.405 506.817 191.591 505.798Z" fill="#0071BC"/>
</g>
<g opacity="0.6716">
<path d="M169.264 525.457C171.607 525.249 173.337 523.182 173.128 520.841C172.92 518.5 170.851 516.771 168.509 516.98C166.166 517.188 164.436 519.255 164.644 521.596C164.853 523.937 166.921 525.666 169.264 525.457Z" fill="#0071BC"/>
</g>
<g opacity="0.6425">
<path d="M141.748 527.108C144.804 525.683 148.437 527.004 149.859 530.058C151.285 533.112 149.963 536.741 146.906 538.163C143.85 539.584 140.218 538.266 138.796 535.213C137.373 532.159 138.692 528.533 141.748 527.108Z" fill="#0071BC"/>
</g>
<g opacity="0.7989">
<path d="M122.679 548.908C125.35 547.302 126.211 543.836 124.603 541.168C122.996 538.5 119.528 537.639 116.857 539.246C114.187 540.852 113.326 544.317 114.933 546.986C116.541 549.654 120.009 550.515 122.679 548.908Z" fill="#0071BC"/>
</g>
<g opacity="0.8836">
<path d="M93.5924 552.035C95.5206 551.136 97.8096 551.968 98.7053 553.895C99.601 555.822 98.7716 558.109 96.8434 559.004C94.9152 559.903 92.6263 559.07 91.7306 557.144C90.8307 555.221 91.6642 552.934 93.5924 552.035Z" fill="#0071BC"/>
</g>
<g opacity="0.7026">
<path d="M69.3926 564.237C70.8978 563.537 72.6892 564.187 73.39 565.692C74.0908 567.196 73.4397 568.986 71.9345 569.686C70.4292 570.386 68.6379 569.736 67.9371 568.231C67.2363 566.727 67.8873 564.937 69.3926 564.237Z" fill="#0071BC"/>
</g>
<g opacity="0.3922">
<path d="M46.1092 581.287C47.7032 581.287 48.9953 579.996 48.9953 578.404C48.9953 576.811 47.7032 575.52 46.1092 575.52C44.5153 575.52 43.2231 576.811 43.2231 578.404C43.2231 579.996 44.5153 581.287 46.1092 581.287Z" fill="#0071BC"/>
</g>
<g opacity="0.6544">
<path d="M278.317 491.302C280.126 488.73 279.506 485.178 276.932 483.37C274.358 481.562 270.804 482.181 268.994 484.754C267.185 487.326 267.805 490.877 270.379 492.685C272.953 494.493 276.507 493.874 278.317 491.302Z" fill="#0071BC"/>
</g>
<g opacity="0.3347">
<path d="M255.821 503.027C256.628 499.92 254.762 496.746 251.652 495.94C248.542 495.133 245.366 496.998 244.559 500.105C243.751 503.213 245.618 506.386 248.728 507.193C251.838 508 255.013 506.135 255.821 503.027Z" fill="#0071BC"/>
</g>
<g opacity="0.576">
<path d="M225.009 512.109C226.647 511.164 228.741 511.723 229.69 513.36C230.636 514.997 230.076 517.089 228.438 518.038C226.8 518.983 224.706 518.423 223.756 516.787C222.811 515.146 223.371 513.053 225.009 512.109Z" fill="#0071BC"/>
</g>
<g opacity="0.9735">
<path d="M206.251 531.182C207.684 529.54 207.512 527.048 205.868 525.617C204.224 524.186 201.73 524.357 200.298 526C198.866 527.643 199.038 530.134 200.682 531.565C202.325 532.996 204.819 532.825 206.251 531.182Z" fill="#0071BC"/>
</g>
<g opacity="0.3205">
<path d="M178.363 539.667C179.731 538.875 181.486 539.343 182.278 540.715C183.07 542.082 182.601 543.835 181.228 544.626C179.86 545.418 178.106 544.949 177.314 543.578C176.526 542.206 176.995 540.458 178.363 539.667Z" fill="#0071BC"/>
</g>
<g opacity="0.3882">
<path d="M154.76 552.959C156.265 552.089 158.189 552.607 159.06 554.111C159.931 555.615 159.413 557.537 157.907 558.407C156.402 559.278 154.478 558.76 153.607 557.255C152.736 555.751 153.255 553.825 154.76 552.959Z" fill="#0071BC"/>
</g>
<g opacity="0.7164">
<path d="M130.73 565.517C132.775 564.337 135.391 565.037 136.573 567.08C137.755 569.122 137.054 571.737 135.01 572.918C132.965 574.099 130.349 573.398 129.167 571.356C127.985 569.309 128.686 566.698 130.73 565.517Z" fill="#0071BC"/>
</g>
<g opacity="0.9018">
<path d="M106.907 578.433C109.296 577.057 112.348 577.873 113.729 580.26C115.105 582.646 114.288 585.696 111.9 587.076C109.511 588.451 106.46 587.635 105.079 585.248C103.698 582.862 104.519 579.812 106.907 578.433Z" fill="#0071BC"/>
</g>
<g opacity="0.5992">
<path d="M90.0479 596.832C90.3551 594.576 88.7736 592.498 86.5157 592.191C84.2577 591.884 82.1783 593.464 81.8711 595.72C81.5639 597.977 83.1454 600.054 85.4033 600.361C87.6613 600.668 89.7407 599.088 90.0479 596.832Z" fill="#0071BC"/>
</g>
<g opacity="0.6904">
<path d="M64.2472 613.432C66.25 612.457 67.0819 610.043 66.1052 608.042C65.1285 606.041 62.7132 605.209 60.7104 606.185C58.7076 607.161 57.8757 609.575 58.8524 611.576C59.8291 613.577 62.2444 614.408 64.2472 613.432Z" fill="#0071BC"/>
</g>
<g opacity="0.6563">
<path d="M278.053 495.361C280.591 493.583 284.091 494.201 285.865 496.737C287.644 499.272 287.026 502.765 284.489 504.543C281.951 506.32 278.455 505.703 276.676 503.167C274.897 500.631 275.515 497.134 278.053 495.361Z" fill="#0071BC"/>
</g>
<g opacity="0.9423">
<path d="M263.55 516.967C264.375 514.48 263.027 511.796 260.538 510.971C258.049 510.146 255.363 511.493 254.537 513.98C253.712 516.467 255.06 519.151 257.549 519.976C260.038 520.801 262.724 519.454 263.55 516.967Z" fill="#0071BC"/>
</g>
<g opacity="0.4128">
<path d="M238.964 533.755C240.47 532.602 240.755 530.449 239.602 528.945C238.448 527.441 236.293 527.156 234.788 528.308C233.283 529.461 232.997 531.614 234.151 533.118C235.304 534.622 237.459 534.907 238.964 533.755Z" fill="#0071BC"/>
</g>
<g opacity="0.6862">
<path d="M212.723 543.727C214.273 542.642 216.413 543.019 217.504 544.568C218.59 546.118 218.213 548.256 216.662 549.346C215.111 550.431 212.971 550.054 211.881 548.505C210.79 546.951 211.168 544.813 212.723 543.727Z" fill="#0071BC"/>
</g>
<g opacity="0.445">
<path d="M190.625 559.398C192.097 558.366 194.129 558.722 195.161 560.197C196.194 561.668 195.837 563.699 194.361 564.73C192.885 565.762 190.857 565.401 189.825 563.931C188.796 562.46 189.153 560.429 190.625 559.398Z" fill="#0071BC"/>
</g>
<g opacity="0.9642">
<path d="M167.748 573.949C169.763 572.541 172.537 573.029 173.947 575.043C175.357 577.057 174.867 579.829 172.852 581.238C170.837 582.646 168.063 582.157 166.653 580.144C165.247 578.13 165.736 575.358 167.748 573.949Z" fill="#0071BC"/>
</g>
<g opacity="0.5133">
<path d="M148.109 598.449C151.054 598.449 153.442 596.064 153.442 593.121C153.442 590.178 151.054 587.792 148.109 587.792C145.164 587.792 142.776 590.178 142.776 593.121C142.776 596.064 145.164 598.449 148.109 598.449Z" fill="#0071BC"/>
</g>
<g opacity="0.6819">
<path d="M123.726 605.526C125.451 604.321 127.832 604.739 129.038 606.463C130.245 608.187 129.826 610.565 128.101 611.771C126.376 612.976 123.996 612.558 122.789 610.834C121.583 609.111 122.001 606.732 123.726 605.526Z" fill="#0071BC"/>
</g>
<g opacity="0.4557">
<path d="M287.649 508.508C289.133 507.265 291.348 507.456 292.592 508.939C293.836 510.422 293.645 512.635 292.16 513.878C290.676 515.121 288.462 514.93 287.218 513.447C285.969 511.964 286.164 509.751 287.649 508.508Z" fill="#0071BC"/>
</g>
<g opacity="0.8655">
<path d="M266.206 525.09C268.143 523.466 271.033 523.719 272.658 525.653C274.284 527.588 274.031 530.476 272.094 532.101C270.158 533.725 267.268 533.472 265.642 531.537C264.017 529.602 264.27 526.714 266.206 525.09Z" fill="#0071BC"/>
</g>
<g opacity="0.6244">
<path d="M250.765 548.028C251.888 546.712 251.73 544.735 250.412 543.613C249.095 542.491 247.116 542.648 245.993 543.965C244.87 545.282 245.028 547.259 246.346 548.381C247.664 549.503 249.642 549.345 250.765 548.028Z" fill="#0071BC"/>
</g>
<g opacity="0.3584">
<path d="M232.529 563.615C232.661 560.904 230.568 558.6 227.855 558.469C225.143 558.337 222.837 560.428 222.705 563.138C222.573 565.849 224.666 568.153 227.378 568.285C230.091 568.417 232.397 566.326 232.529 563.615Z" fill="#0071BC"/>
</g>
<g opacity="0.9928">
<path d="M203.969 577.326C205.889 575.714 208.75 575.967 210.363 577.886C211.976 579.804 211.723 582.663 209.803 584.275C207.883 585.887 205.022 585.634 203.409 583.715C201.796 581.797 202.049 578.938 203.969 577.326Z" fill="#0071BC"/>
</g>
<g opacity="0.8476">
<path d="M186.37 604.089C189.61 603.949 192.123 601.211 191.983 597.974C191.843 594.737 189.103 592.226 185.863 592.366C182.623 592.506 180.11 595.244 180.25 598.481C180.39 601.718 183.13 604.229 186.37 604.089Z" fill="#0071BC"/>
</g>
<g opacity="0.4021">
<path d="M163.526 613.407C164.741 612.388 166.553 612.545 167.573 613.759C168.593 614.973 168.436 616.784 167.221 617.803C166.006 618.823 164.194 618.665 163.174 617.451C162.154 616.233 162.311 614.422 163.526 613.407Z" fill="#0071BC"/>
</g>
<g opacity="0.6926">
<path d="M148.171 637.038C150.383 635.067 150.577 631.678 148.605 629.468C146.633 627.258 143.241 627.064 141.029 629.034C138.817 631.005 138.623 634.394 140.595 636.604C142.567 638.814 145.959 639.009 148.171 637.038Z" fill="#0071BC"/>
</g>
<g opacity="0.2959">
<path d="M299.483 526.325C302.071 526.325 304.169 524.229 304.169 521.643C304.169 519.057 302.071 516.961 299.483 516.961C296.895 516.961 294.797 519.057 294.797 521.643C294.797 524.229 296.895 526.325 299.483 526.325Z" fill="#0071BC"/>
</g>
<g opacity="0.9479">
<path d="M280.325 545.745C283.067 545.745 285.289 543.525 285.289 540.785C285.289 538.046 283.067 535.826 280.325 535.826C277.584 535.826 275.362 538.046 275.362 540.785C275.362 543.525 277.584 545.745 280.325 545.745Z" fill="#0071BC"/>
</g>
<g opacity="0.2918">
<path d="M261.168 563.479C263.131 563.479 264.722 561.889 264.722 559.928C264.722 557.967 263.131 556.377 261.168 556.377C259.205 556.377 257.614 557.967 257.614 559.928C257.614 561.889 259.205 563.479 261.168 563.479Z" fill="#0071BC"/>
</g>
<g opacity="0.5926">
<path d="M242.011 582.29C243.79 582.29 245.232 580.849 245.232 579.071C245.232 577.292 243.79 575.851 242.011 575.851C240.231 575.851 238.789 577.292 238.789 579.071C238.789 580.849 240.231 582.29 242.011 582.29Z" fill="#0071BC"/>
</g>
<g opacity="0.5999">
<path d="M220.647 596.009C221.866 594.791 223.84 594.791 225.059 596.009C226.278 597.227 226.278 599.2 225.059 600.418C223.84 601.636 221.866 601.636 220.647 600.418C219.428 599.2 219.428 597.227 220.647 596.009Z" fill="#0071BC"/>
</g>
<g opacity="0.3273">
<path d="M201.452 615.114C202.692 613.875 204.703 613.875 205.939 615.114C207.178 616.353 207.178 618.363 205.939 619.597C204.699 620.836 202.688 620.836 201.452 619.597C200.212 618.359 200.212 616.353 201.452 615.114Z" fill="#0071BC"/>
</g>
<g opacity="0.4609">
<path d="M184.537 641.98C187.567 641.98 190.023 639.526 190.023 636.499C190.023 633.471 187.567 631.017 184.537 631.017C181.507 631.017 179.051 633.471 179.051 636.499C179.051 639.526 181.507 641.98 184.537 641.98Z" fill="#0071BC"/>
</g>
<g opacity="0.5433">
<path d="M165.38 661.458C168.595 661.458 171.202 658.854 171.202 655.641C171.202 652.428 168.595 649.824 165.38 649.824C162.165 649.824 159.558 652.428 159.558 655.641C159.558 658.854 162.165 661.458 165.38 661.458Z" fill="#0071BC"/>
</g>
<g opacity="0.4533">
<path d="M146.222 679.126C148.622 679.126 150.568 677.182 150.568 674.784C150.568 672.386 148.622 670.442 146.222 670.442C143.822 670.442 141.876 672.386 141.876 674.784C141.876 677.182 143.822 679.126 146.222 679.126Z" fill="#0071BC"/>
</g>
<g opacity="0.6587">
<path d="M124.494 691.362C125.912 689.945 128.209 689.945 129.627 691.362C131.045 692.779 131.045 695.074 129.627 696.491C128.209 697.908 125.912 697.908 124.494 696.491C123.08 695.074 123.08 692.779 124.494 691.362Z" fill="#0071BC"/>
</g>
<g opacity="0.6853">
<path d="M314.341 535.615C316.775 533.183 316.775 529.24 314.341 526.808C311.907 524.376 307.961 524.376 305.527 526.808C303.093 529.24 303.093 533.183 305.527 535.615C307.961 538.047 311.907 538.047 314.341 535.615Z" fill="#0071BC"/>
</g>
<g opacity="0.3653">
<path d="M292.89 556.271C295.283 556.06 297.052 553.95 296.841 551.559C296.629 549.168 294.518 547.401 292.125 547.612C289.732 547.823 287.964 549.932 288.175 552.323C288.386 554.715 290.497 556.482 292.89 556.271Z" fill="#0071BC"/>
</g>
<g opacity="0.6578">
<path d="M279.538 573.841C280.162 571.416 278.701 568.945 276.275 568.321C273.848 567.697 271.375 569.157 270.751 571.582C270.126 574.006 271.587 576.477 274.014 577.101C276.44 577.725 278.913 576.265 279.538 573.841Z" fill="#0071BC"/>
</g>
<g opacity="0.3744">
<path d="M254.832 591.033C256.159 589.454 258.514 589.247 260.094 590.573C261.674 591.899 261.881 594.252 260.554 595.831C259.227 597.409 256.872 597.617 255.292 596.291C253.712 594.965 253.505 592.611 254.832 591.033Z" fill="#0071BC"/>
</g>
<g opacity="0.4761">
<path d="M237.735 612.04C238.913 610.635 241.007 610.453 242.409 611.63C243.814 612.806 243.997 614.899 242.819 616.299C241.641 617.7 239.547 617.886 238.146 616.709C236.74 615.533 236.558 613.44 237.735 612.04Z" fill="#0071BC"/>
</g>
<g opacity="0.8584">
<path d="M219.867 632.393C221.256 630.739 223.723 630.524 225.378 631.912C227.032 633.3 227.248 635.765 225.859 637.418C224.47 639.072 222.002 639.287 220.348 637.899C218.693 636.511 218.478 634.05 219.867 632.393Z" fill="#0071BC"/>
</g>
<g opacity="0.7157">
<path d="M208.447 658.983C210.281 657.348 210.441 654.538 208.805 652.705C207.169 650.873 204.357 650.712 202.523 652.347C200.689 653.981 200.528 656.792 202.164 658.624C203.8 660.457 206.613 660.617 208.447 658.983Z" fill="#0071BC"/>
</g>
<g opacity="0.7255">
<path d="M191.546 679.2C193.09 677.252 192.762 674.422 190.813 672.879C188.863 671.336 186.031 671.664 184.486 673.612C182.942 675.559 183.27 678.389 185.22 679.933C187.169 681.476 190.001 681.148 191.546 679.2Z" fill="#0071BC"/>
</g>
<g opacity="0.5461">
<path d="M166.727 693.86C168.531 691.714 171.732 691.432 173.88 693.235C176.028 695.037 176.31 698.236 174.507 700.382C172.703 702.528 169.502 702.81 167.354 701.008C165.206 699.209 164.924 696.006 166.727 693.86Z" fill="#0071BC"/>
</g>
<g opacity="0.3497">
<path d="M153.201 723.071C156.08 723.071 158.414 720.74 158.414 717.863C158.414 714.987 156.08 712.655 153.201 712.655C150.322 712.655 147.989 714.987 147.989 717.863C147.989 720.74 150.322 723.071 153.201 723.071Z" fill="#0071BC"/>
</g>
<g opacity="0.4346">
<path d="M316.36 536.459C318.23 533.791 321.908 533.145 324.575 535.013C327.245 536.882 327.892 540.557 326.022 543.222C324.152 545.89 320.473 546.536 317.807 544.668C315.137 542.803 314.49 539.128 316.36 536.459Z" fill="#0071BC"/>
</g>
<g opacity="0.9487">
<path d="M301.316 558.983C302.991 556.593 306.292 556.008 308.689 557.686C311.081 559.36 311.666 562.659 309.987 565.053C308.311 567.444 305.011 568.028 302.614 566.35C300.221 564.676 299.636 561.378 301.316 558.983Z" fill="#0071BC"/>
</g>
<g opacity="0.6949">
<path d="M294.143 588.039C296.263 585.797 296.164 582.262 293.92 580.143C291.677 578.024 288.139 578.124 286.019 580.365C283.898 582.607 283.998 586.142 286.241 588.261C288.485 590.38 292.022 590.28 294.143 588.039Z" fill="#0071BC"/>
</g>
<g opacity="0.882">
<path d="M277.403 610.05C279.434 608.478 279.806 605.558 278.232 603.528C276.659 601.498 273.737 601.127 271.705 602.699C269.674 604.271 269.302 607.191 270.876 609.221C272.449 611.251 275.371 611.622 277.403 610.05Z" fill="#0071BC"/>
</g>
<g opacity="0.8284">
<path d="M259.683 633.419C262.383 633.067 264.287 630.595 263.935 627.897C263.582 625.199 261.108 623.297 258.408 623.648C255.708 624 253.804 626.473 254.157 629.171C254.509 631.869 256.983 633.77 259.683 633.419Z" fill="#0071BC"/>
</g>
<g opacity="0.8211">
<path d="M244.482 656.531C247.689 655.967 249.83 652.911 249.265 649.706C248.7 646.502 245.641 644.362 242.434 644.927C239.227 645.492 237.086 648.547 237.651 651.752C238.216 654.956 241.275 657.096 244.482 656.531Z" fill="#0071BC"/>
</g>
<g opacity="0.4566">
<path d="M224.669 670.603C225.938 668.793 228.434 668.353 230.246 669.621C232.058 670.889 232.498 673.383 231.229 675.194C229.96 677.005 227.464 677.444 225.652 676.176C223.84 674.908 223.4 672.414 224.669 670.603Z" fill="#0071BC"/>
</g>
<g opacity="0.4346">
<path d="M208.684 692.468C210.127 690.413 212.963 689.911 215.02 691.353C217.076 692.795 217.578 695.629 216.135 697.684C214.692 699.74 211.856 700.241 209.799 698.799C207.742 697.357 207.24 694.523 208.684 692.468Z" fill="#0071BC"/>
</g>
<g opacity="0.9311">
<path d="M197.624 721.738C200.103 721.302 201.758 718.94 201.321 716.463C200.884 713.987 198.521 712.333 196.042 712.769C193.564 713.206 191.908 715.568 192.345 718.044C192.782 720.521 195.146 722.175 197.624 721.738Z" fill="#0071BC"/>
</g>
<g opacity="0.3307">
<path d="M181.328 743.817C183.756 743.817 185.724 741.851 185.724 739.425C185.724 737 183.756 735.033 181.328 735.033C178.901 735.033 176.933 737 176.933 739.425C176.933 741.851 178.901 743.817 181.328 743.817Z" fill="#0071BC"/>
</g>
<g opacity="0.935">
<path d="M316.895 569.338C317.757 567.842 319.669 567.332 321.166 568.194C322.663 569.056 323.173 570.966 322.311 572.462C321.448 573.958 319.536 574.467 318.039 573.605C316.547 572.744 316.032 570.834 316.895 569.338Z" fill="#0071BC"/>
</g>
<g opacity="0.7684">
<path d="M301.656 591.808C303.057 589.379 306.167 588.547 308.597 589.947C311.027 591.348 311.861 594.455 310.459 596.883C309.058 599.311 305.948 600.144 303.518 598.744C301.088 597.339 300.254 594.236 301.656 591.808Z" fill="#0071BC"/>
</g>
<g opacity="0.7411">
<path d="M289.307 615.943C290.327 614.174 292.591 613.569 294.362 614.588C296.133 615.608 296.738 617.87 295.718 619.639C294.698 621.408 292.434 622.013 290.663 620.994C288.888 619.971 288.283 617.712 289.307 615.943Z" fill="#0071BC"/>
</g>
<g opacity="0.8928">
<path d="M274.661 638.753C276.034 636.378 279.073 635.562 281.449 636.934C283.825 638.305 284.642 641.342 283.27 643.717C281.897 646.091 278.858 646.907 276.482 645.536C274.106 644.164 273.289 641.127 274.661 638.753Z" fill="#0071BC"/>
</g>
<g opacity="0.6117">
<path d="M260.351 661.757C261.968 658.96 265.543 658.003 268.342 659.619C271.141 661.231 272.099 664.807 270.482 667.603C268.869 670.4 265.29 671.357 262.491 669.741C259.696 668.13 258.738 664.554 260.351 661.757Z" fill="#0071BC"/>
</g>
<g opacity="0.8309">
<path d="M257.925 688.283C258 684.925 255.337 682.142 251.976 682.066C248.615 681.991 245.829 684.653 245.754 688.011C245.679 691.369 248.342 694.153 251.703 694.228C255.064 694.303 257.85 691.642 257.925 688.283Z" fill="#0071BC"/>
</g>
<g opacity="0.5126">
<path d="M240.306 717.012C243.323 715.895 244.863 712.546 243.746 709.531C242.629 706.517 239.277 704.978 236.259 706.094C233.242 707.211 231.702 710.56 232.82 713.575C233.937 716.59 237.289 718.129 240.306 717.012Z" fill="#0071BC"/>
</g>
<g opacity="0.3504">
<path d="M227.964 738.661C229.971 736.898 230.167 733.842 228.403 731.837C226.638 729.831 223.58 729.635 221.573 731.398C219.566 733.162 219.37 736.217 221.134 738.222C222.899 740.228 225.957 740.424 227.964 738.661Z" fill="#0071BC"/>
</g>
<g opacity="0.9376">
<path d="M215.701 762.611C218.003 760.156 217.879 756.303 215.424 754.004C212.969 751.706 209.113 751.832 206.811 754.287C204.509 756.741 204.633 760.595 207.088 762.893C209.542 765.192 213.399 765.066 215.701 762.611Z" fill="#0071BC"/>
</g>
<g opacity="0.8729">
<path d="M326.615 607.757C329.208 605.67 329.616 601.877 327.527 599.286C325.438 596.695 321.642 596.287 319.049 598.375C316.457 600.462 316.048 604.255 318.137 606.846C320.226 609.437 324.022 609.845 326.615 607.757Z" fill="#0071BC"/>
</g>
<g opacity="0.675">
<path d="M311.866 631.882C314.232 631.603 315.923 629.461 315.644 627.098C315.365 624.734 313.222 623.044 310.856 623.323C308.491 623.601 306.8 625.743 307.079 628.107C307.358 630.47 309.501 632.16 311.866 631.882Z" fill="#0071BC"/>
</g>
<g opacity="0.4297">
<path d="M294.42 649.575C295.838 646.534 299.454 645.221 302.498 646.638C305.541 648.055 306.856 651.668 305.438 654.709C304.02 657.75 300.404 659.064 297.36 657.647C294.316 656.23 293.002 652.617 294.42 649.575Z" fill="#0071BC"/>
</g>
<g opacity="0.3924">
<path d="M285.832 675.443C286.516 673.98 288.254 673.35 289.718 674.03C291.181 674.709 291.812 676.45 291.132 677.912C290.447 679.375 288.71 680.005 287.246 679.325C285.782 678.641 285.148 676.905 285.832 675.443Z" fill="#0071BC"/>
</g>
<g opacity="0.4692">
<path d="M277.624 706.788C280.721 706.44 282.95 703.649 282.602 700.555C282.254 697.46 279.462 695.233 276.364 695.58C273.267 695.928 271.038 698.718 271.386 701.813C271.734 704.908 274.527 707.135 277.624 706.788Z" fill="#0071BC"/>
</g>
<g opacity="0.8303">
<path d="M267.478 731.383C270.576 730.322 272.227 726.952 271.165 723.857C270.104 720.761 266.732 719.112 263.633 720.173C260.535 721.233 258.885 724.603 259.946 727.699C261.008 730.794 264.38 732.444 267.478 731.383Z" fill="#0071BC"/>
</g>
<g opacity="0.8451">
<path d="M321.777 664.962C323.866 664.957 325.555 663.261 325.55 661.174C325.545 659.087 323.848 657.399 321.759 657.404C319.671 657.409 317.982 659.105 317.986 661.192C317.991 663.279 319.689 664.966 321.777 664.962Z" fill="#0071BC"/>
</g>
<g opacity="0.5428">
<path d="M311.048 18.3551C313.151 17.3597 314.048 14.8496 313.052 12.7485C312.055 10.6475 309.543 9.75109 307.441 10.7464C305.338 11.7417 304.441 14.2518 305.437 16.3529C306.433 18.454 308.945 19.3504 311.048 18.3551Z" fill="#0071BC"/>
</g>
<g opacity="0.5736">
<path d="M316.261 46.5197C319.483 46.5197 322.095 43.9096 322.095 40.6899C322.095 37.4702 319.483 34.8601 316.261 34.8601C313.038 34.8601 310.426 37.4702 310.426 40.6899C310.426 43.9096 313.038 46.5197 316.261 46.5197Z" fill="#0071BC"/>
</g>
<g opacity="0.4393">
<path d="M269.598 27.3151C268.424 24.0956 270.087 20.5364 273.309 19.3638C276.531 18.1912 280.093 19.8528 281.267 23.0722C282.44 26.2916 280.777 29.8508 277.555 31.0234C274.334 32.1919 270.772 30.5345 269.598 27.3151Z" fill="#0071BC"/>
</g>
<g opacity="0.3679">
<path d="M286.472 54.3575C288.534 53.3796 289.413 50.9159 288.435 48.8546C287.456 46.7933 284.991 45.9149 282.928 46.8928C280.865 47.8706 279.986 50.3344 280.964 52.3957C281.943 54.457 284.409 55.3353 286.472 54.3575Z" fill="#0071BC"/>
</g>
<g opacity="0.4881">
<path d="M290.908 77.1853C290.294 75.4948 291.165 73.6303 292.853 73.017C294.545 72.4038 296.411 73.2739 297.024 74.9603C297.638 76.6508 296.767 78.5154 295.08 79.1286C293.392 79.7418 291.522 78.8717 290.908 77.1853Z" fill="#0071BC"/>
</g>
<g opacity="0.8911">
<path d="M304.074 105.461C306.25 104.993 307.634 102.851 307.166 100.676C306.698 98.5018 304.554 97.1185 302.378 97.5865C300.202 98.0545 298.817 100.197 299.286 102.371C299.754 104.545 301.898 105.929 304.074 105.461Z" fill="#0071BC"/>
</g>
<g opacity="0.3321">
<path d="M309.514 128.038C308.913 126.389 309.763 124.57 311.413 123.969C313.063 123.368 314.884 124.217 315.485 125.866C316.086 127.516 315.236 129.335 313.586 129.935C311.936 130.532 310.115 129.683 309.514 128.038Z" fill="#0071BC"/>
</g>
<g opacity="0.8535">
<path d="M326.455 153.254C326.926 150.665 325.208 148.184 322.617 147.713C320.026 147.241 317.544 148.958 317.072 151.547C316.6 154.136 318.318 156.617 320.909 157.088C323.5 157.56 325.983 155.843 326.455 153.254Z" fill="#0071BC"/>
</g>
<g opacity="0.6016">
<path d="M248.612 65.8572C247.189 62.8117 248.508 59.1904 251.556 57.7692C254.604 56.348 258.228 57.6656 259.65 60.711C261.072 63.7564 259.754 67.3778 256.706 68.799C253.654 70.2202 250.03 68.9026 248.612 65.8572Z" fill="#0071BC"/>
</g>
<g opacity="0.755">
<path d="M270.848 89.734C271.908 86.8246 270.406 83.6076 267.494 82.5487C264.583 81.4898 261.363 82.99 260.304 85.8995C259.244 88.8089 260.745 92.0259 263.657 93.0848C266.569 94.1436 269.788 92.6435 270.848 89.734Z" fill="#0071BC"/>
</g>
<g opacity="0.5839">
<path d="M274.421 113.573C273.749 112.135 274.371 110.424 275.814 109.753C277.253 109.081 278.966 109.703 279.637 111.145C280.309 112.583 279.687 114.294 278.244 114.965C276.805 115.632 275.093 115.011 274.421 113.573Z" fill="#0071BC"/>
</g>
<g opacity="0.9278">
<path d="M293.303 140.213C295.141 137.546 294.468 133.896 291.8 132.059C289.131 130.222 285.478 130.894 283.639 133.561C281.801 136.227 282.474 139.878 285.142 141.715C287.811 143.552 291.465 142.879 293.303 140.213Z" fill="#0071BC"/>
</g>
<g opacity="0.7651">
<path d="M299.931 165.863C302.382 165.863 304.368 163.878 304.368 161.43C304.368 158.981 302.382 156.996 299.931 156.996C297.481 156.996 295.494 158.981 295.494 161.43C295.494 163.878 297.481 165.863 299.931 165.863Z" fill="#0071BC"/>
</g>
<g opacity="0.5887">
<path d="M316.347 187.749C317.327 185.01 315.899 181.996 313.159 181.017C310.418 180.037 307.402 181.464 306.422 184.202C305.441 186.941 306.869 189.955 309.61 190.934C312.35 191.914 315.367 190.487 316.347 187.749Z" fill="#0071BC"/>
</g>
<g opacity="0.4343">
<path d="M247.637 127.884C246.285 125.547 247.09 122.56 249.429 121.209C251.767 119.858 254.757 120.662 256.109 122.999C257.461 125.336 256.656 128.323 254.317 129.674C251.979 131.021 248.985 130.221 247.637 127.884Z" fill="#0071BC"/>
</g>
<g opacity="0.5858">
<path d="M269.546 150.806C270.603 148.524 269.609 145.818 267.325 144.761C265.042 143.704 262.333 144.697 261.275 146.979C260.218 149.261 261.212 151.968 263.496 153.025C265.779 154.082 268.488 153.088 269.546 150.806Z" fill="#0071BC"/>
</g>
<g opacity="0.8185">
<path d="M274.91 174.672C273.616 172.434 274.383 169.571 276.623 168.283C278.862 166.99 281.727 167.757 283.017 169.994C284.31 172.231 283.543 175.095 281.304 176.383C279.065 177.676 276.204 176.909 274.91 174.672Z" fill="#0071BC"/>
</g>
<g opacity="0.5565">
<path d="M295.878 198.879C297.594 197.026 297.483 194.135 295.629 192.42C293.775 190.705 290.881 190.817 289.165 192.67C287.449 194.522 287.561 197.414 289.415 199.128C291.269 200.843 294.163 200.731 295.878 198.879Z" fill="#0071BC"/>
</g>
<g opacity="0.4786">
<path d="M310.512 219.899C310.896 217.437 309.21 215.13 306.745 214.746C304.281 214.362 301.972 216.047 301.588 218.51C301.204 220.972 302.89 223.279 305.355 223.663C307.819 224.047 310.128 222.362 310.512 219.899Z" fill="#0071BC"/>
</g>
<g opacity="0.946">
<path d="M325.282 244.179C326.13 241.044 324.274 237.816 321.137 236.969C318 236.121 314.769 237.976 313.921 241.111C313.074 244.246 314.929 247.474 318.067 248.321C321.204 249.168 324.435 247.314 325.282 244.179Z" fill="#0071BC"/>
</g>
<g opacity="0.6425">
<path d="M185.276 74.5612C185.507 72.3881 183.932 70.4388 181.757 70.2074C179.582 69.9759 177.631 71.55 177.4 73.7231C177.168 75.8963 178.744 77.8456 180.918 78.077C183.093 78.3084 185.044 76.7344 185.276 74.5612Z" fill="#0071BC"/>
</g>
<g opacity="0.7295">
<path d="M217.801 119.821C218.536 116.851 216.722 113.848 213.749 113.114C210.777 112.379 207.771 114.192 207.037 117.162C206.302 120.132 208.116 123.135 211.088 123.87C214.061 124.604 217.066 122.791 217.801 119.821Z" fill="#0071BC"/>
</g>
<g opacity="0.8905">
<path d="M225.619 142.303C224.719 141.015 225.03 139.241 226.319 138.342C227.609 137.443 229.384 137.754 230.284 139.043C231.183 140.331 230.872 142.105 229.583 143.004C228.293 143.903 226.518 143.588 225.619 142.303Z" fill="#0071BC"/>
</g>
<g opacity="0.6985">
<path d="M240.012 165.279C238.668 163.36 239.132 160.713 241.052 159.37C242.972 158.028 245.622 158.492 246.966 160.41C248.309 162.329 247.845 164.976 245.925 166.319C244.005 167.666 241.355 167.201 240.012 165.279Z" fill="#0071BC"/>
</g>
<g opacity="0.3001">
<path d="M256.648 186.692C255.727 185.379 256.047 183.564 257.361 182.644C258.676 181.724 260.492 182.043 261.412 183.357C262.333 184.67 262.014 186.485 260.699 187.405C259.381 188.325 257.569 188.005 256.648 186.692Z" fill="#0071BC"/>
</g>
<g opacity="0.8387">
<path d="M271.879 209.083C270.838 207.6 271.199 205.549 272.687 204.509C274.172 203.469 276.224 203.829 277.265 205.317C278.306 206.804 277.945 208.851 276.457 209.891C274.968 210.927 272.92 210.567 271.879 209.083Z" fill="#0071BC"/>
</g>
<g opacity="0.4292">
<path d="M287.259 231.371C286.156 229.796 286.537 227.629 288.113 226.527C289.689 225.425 291.858 225.806 292.961 227.38C294.064 228.955 293.682 231.122 292.106 232.224C290.531 233.326 288.362 232.945 287.259 231.371Z" fill="#0071BC"/>
</g>
<g opacity="0.5482">
<path d="M306.285 254.795C308.077 254.449 309.249 252.718 308.904 250.927C308.558 249.136 306.824 247.964 305.032 248.31C303.24 248.656 302.068 250.388 302.413 252.178C302.759 253.969 304.493 255.141 306.285 254.795Z" fill="#0071BC"/>
</g>
<g opacity="0.7317">
<path d="M324.169 276.557C325.733 274.904 325.66 272.298 324.006 270.735C322.352 269.172 319.743 269.245 318.179 270.898C316.615 272.551 316.688 275.157 318.343 276.72C319.997 278.283 322.605 278.21 324.169 276.557Z" fill="#0071BC"/>
</g>
<g opacity="0.7733">
<path d="M156.909 100.055C159.313 98.0117 159.603 94.4081 157.558 92.0065C155.513 89.6049 151.906 89.3147 149.503 91.3584C147.099 93.4021 146.809 97.0057 148.854 99.4073C150.899 101.809 154.506 102.099 156.909 100.055Z" fill="#0071BC"/>
</g>
<g opacity="0.7119">
<path d="M175.47 119.078C176.921 116.394 175.92 113.043 173.235 111.593C170.549 110.143 167.196 111.143 165.744 113.826C164.293 116.509 165.294 119.86 167.979 121.311C170.665 122.761 174.018 121.761 175.47 119.078Z" fill="#0071BC"/>
</g>
<g opacity="0.6987">
<path d="M194.056 137.727C194.349 134.406 191.892 131.476 188.569 131.183C185.245 130.89 182.313 133.345 182.019 136.666C181.726 139.987 184.183 142.917 187.506 143.21C190.83 143.503 193.762 141.048 194.056 137.727Z" fill="#0071BC"/>
</g>
<g opacity="0.944">
<path d="M205.449 162.13C207.774 162.13 209.658 160.247 209.658 157.924C209.658 155.601 207.774 153.719 205.449 153.719C203.125 153.719 201.24 155.601 201.24 157.924C201.24 160.247 203.125 162.13 205.449 162.13Z" fill="#0071BC"/>
</g>
<g opacity="0.3623">
<path d="M220.493 180.647C219.394 179.337 219.564 177.39 220.875 176.292C222.185 175.194 224.134 175.364 225.233 176.673C226.332 177.983 226.162 179.93 224.851 181.028C223.541 182.126 221.592 181.956 220.493 180.647Z" fill="#0071BC"/>
</g>
<g opacity="0.726">
<path d="M237.893 201.401C236.785 200.084 236.96 198.124 238.278 197.017C239.597 195.911 241.558 196.085 242.665 197.403C243.772 198.72 243.598 200.68 242.28 201.787C240.961 202.889 239 202.715 237.893 201.401Z" fill="#0071BC"/>
</g>
<g opacity="0.4483">
<path d="M255.23 222.205C254.09 220.846 254.268 218.82 255.628 217.681C256.988 216.541 259.016 216.719 260.156 218.078C261.297 219.437 261.118 221.464 259.758 222.603C258.398 223.738 256.37 223.564 255.23 222.205Z" fill="#0071BC"/>
</g>
<g opacity="0.3315">
<path d="M270.37 244.853C268.172 242.239 268.516 238.336 271.133 236.14C273.749 233.944 277.655 234.288 279.853 236.902C282.051 239.517 281.707 243.42 279.09 245.616C276.469 247.812 272.563 247.468 270.37 244.853Z" fill="#0071BC"/>
</g>
<g opacity="0.6517">
<path d="M289.979 263.751C288.797 262.347 288.984 260.25 290.39 259.073C291.795 257.897 293.894 258.079 295.071 259.484C296.253 260.888 296.066 262.985 294.661 264.162C293.255 265.338 291.157 265.156 289.979 263.751Z" fill="#0071BC"/>
</g>
<g opacity="0.6721">
<path d="M313.037 284.705C314.328 283 313.99 280.573 312.284 279.284C310.578 277.994 308.149 278.331 306.859 280.036C305.569 281.741 305.906 284.168 307.612 285.457C309.318 286.746 311.747 286.409 313.037 284.705Z" fill="#0071BC"/>
</g>
<g opacity="0.9118">
<path d="M146.222 143.501C148.829 143.501 150.941 141.39 150.941 138.786C150.941 136.182 148.829 134.071 146.222 134.071C143.616 134.071 141.503 136.182 141.503 138.786C141.503 141.39 143.616 143.501 146.222 143.501Z" fill="#0071BC"/>
</g>
<g opacity="0.8383">
<path d="M165.38 162.15C167.713 162.15 169.605 160.26 169.605 157.928C169.605 155.596 167.713 153.706 165.38 153.706C163.046 153.706 161.154 155.596 161.154 157.928C161.154 160.26 163.046 162.15 165.38 162.15Z" fill="#0071BC"/>
</g>
<g opacity="0.5113">
<path d="M184.538 181.243C186.844 181.243 188.713 179.375 188.713 177.071C188.713 174.767 186.844 172.898 184.538 172.898C182.231 172.898 180.362 174.767 180.362 177.071C180.362 179.375 182.231 181.243 184.538 181.243Z" fill="#0071BC"/>
</g>
<g opacity="0.2866">
<path d="M203.695 202.28C207.048 202.28 209.766 199.564 209.766 196.214C209.766 192.864 207.048 190.148 203.695 190.148C200.342 190.148 197.625 192.864 197.625 196.214C197.625 199.564 200.342 202.28 203.695 202.28Z" fill="#0071BC"/>
</g>
<g opacity="0.3894">
<path d="M222.853 218.19C224.419 218.19 225.689 216.922 225.689 215.356C225.689 213.791 224.419 212.522 222.853 212.522C221.286 212.522 220.017 213.791 220.017 215.356C220.017 216.922 221.286 218.19 222.853 218.19Z" fill="#0071BC"/>
</g>
<g opacity="0.7829">
<path d="M239.854 236.653C238.664 235.464 238.664 233.533 239.854 232.344C241.044 231.155 242.976 231.155 244.167 232.344C245.357 233.533 245.357 235.464 244.167 236.653C242.976 237.847 241.044 237.847 239.854 236.653Z" fill="#0071BC"/>
</g>
<g opacity="0.4981">
<path d="M258.514 256.293C257.05 254.831 257.05 252.457 258.514 250.994C259.978 249.531 262.354 249.531 263.817 250.994C265.281 252.457 265.281 254.831 263.817 256.293C262.354 257.756 259.982 257.756 258.514 256.293Z" fill="#0071BC"/>
</g>
<g opacity="0.8989">
<path d="M277.709 275.399C276.266 273.957 276.266 271.616 277.709 270.17C279.152 268.728 281.495 268.728 282.942 270.17C284.385 271.612 284.385 273.953 282.942 275.399C281.495 276.841 279.156 276.841 277.709 275.399Z" fill="#0071BC"/>
</g>
<g opacity="0.5562">
<path d="M299.483 297.442C302.531 297.442 305.002 294.973 305.002 291.927C305.002 288.881 302.531 286.412 299.483 286.412C296.435 286.412 293.964 288.881 293.964 291.927C293.964 294.973 296.435 297.442 299.483 297.442Z" fill="#0071BC"/>
</g>
<g opacity="0.7791">
<path d="M121.375 166.124C119.738 164.753 119.522 162.312 120.899 160.675C122.271 159.039 124.714 158.823 126.352 160.199C127.989 161.57 128.205 164.011 126.828 165.648C125.456 167.284 123.013 167.5 121.375 166.124Z" fill="#0071BC"/>
</g>
<g opacity="0.3866">
<path d="M148.112 183.419C149.687 181.49 149.4 178.651 147.47 177.076C145.539 175.502 142.697 175.79 141.122 177.718C139.546 179.647 139.834 182.487 141.764 184.061C143.694 185.635 146.536 185.348 148.112 183.419Z" fill="#0071BC"/>
</g>
<g opacity="0.7418">
<path d="M162.589 201.281C160.756 199.744 160.516 197.013 162.054 195.178C163.592 193.346 166.325 193.106 168.162 194.643C169.995 196.18 170.235 198.911 168.697 200.747C167.154 202.582 164.422 202.822 162.589 201.281Z" fill="#0071BC"/>
</g>
<g opacity="0.4415">
<path d="M184.305 217.54C183.103 216.533 182.949 214.743 183.957 213.546C184.964 212.348 186.756 212.191 187.954 213.198C189.157 214.204 189.31 215.994 188.303 217.192C187.295 218.389 185.508 218.547 184.305 217.54Z" fill="#0071BC"/>
</g>
<g opacity="0.3505">
<path d="M212.103 234.767C213.216 231.887 211.782 228.651 208.9 227.539C206.018 226.427 202.779 227.86 201.666 230.74C200.553 233.62 201.988 236.856 204.87 237.968C207.752 239.08 210.99 237.647 212.103 234.767Z" fill="#0071BC"/>
</g>
<g opacity="0.6673">
<path d="M223.956 254.553C221.534 252.523 221.219 248.914 223.251 246.49C225.282 244.07 228.894 243.755 231.32 245.786C233.742 247.816 234.057 251.425 232.025 253.849C229.993 256.269 226.381 256.583 223.956 254.553Z" fill="#0071BC"/>
</g>
<g opacity="0.887">
<path d="M245.605 270.891C243.773 269.353 243.532 266.623 245.071 264.787C246.609 262.956 249.342 262.716 251.179 264.253C253.011 265.79 253.252 268.521 251.714 270.356C250.175 272.188 247.442 272.428 245.605 270.891Z" fill="#0071BC"/>
</g>
<g opacity="0.9463">
<path d="M272.01 287.526C273.427 285.946 273.294 283.518 271.713 282.102C270.132 280.686 267.702 280.819 266.285 282.399C264.868 283.978 265.001 286.407 266.582 287.822C268.163 289.238 270.593 289.105 272.01 287.526Z" fill="#0071BC"/>
</g>
<g opacity="0.9068">
<path d="M292.659 304.181C293.66 302.661 293.239 300.619 291.718 299.618C290.197 298.618 288.153 299.039 287.152 300.559C286.151 302.078 286.572 304.121 288.093 305.121C289.614 306.122 291.658 305.701 292.659 304.181Z" fill="#0071BC"/>
</g>
<g opacity="0.7907">
<path d="M168.336 238.783C166.785 237.698 166.408 235.56 167.495 234.01C168.581 232.46 170.721 232.083 172.271 233.169C173.822 234.254 174.2 236.392 173.113 237.942C172.027 239.492 169.887 239.869 168.336 238.783Z" fill="#0071BC"/>
</g>
<g opacity="0.9171">
<path d="M194.974 255.782C197.333 254.419 198.141 251.404 196.778 249.046C195.414 246.688 192.396 245.881 190.036 247.243C187.676 248.605 186.868 251.621 188.232 253.979C189.595 256.337 192.614 257.144 194.974 255.782Z" fill="#0071BC"/>
</g>
<g opacity="0.3715">
<path d="M220.845 267.962C221.353 264.56 219.005 261.391 215.601 260.883C212.197 260.375 209.025 262.721 208.517 266.122C208.008 269.524 210.356 272.693 213.76 273.201C217.164 273.709 220.336 271.363 220.845 267.962Z" fill="#0071BC"/>
</g>
<g opacity="0.8304">
<path d="M234.455 286.027C232.539 284.688 232.075 282.049 233.414 280.139C234.754 278.225 237.395 277.761 239.307 279.099C241.223 280.437 241.687 283.077 240.348 284.987C239.008 286.901 236.371 287.365 234.455 286.027Z" fill="#0071BC"/>
</g>
<g opacity="0.447">
<path d="M261.168 303.831C264.348 302.678 265.991 299.169 264.838 295.991C263.685 292.814 260.172 291.172 256.992 292.324C253.812 293.476 252.169 296.986 253.322 300.164C254.475 303.341 257.988 304.983 261.168 303.831Z" fill="#0071BC"/>
</g>
<g opacity="0.2974">
<path d="M279.202 316.568C277.568 315.424 277.174 313.178 278.314 311.546C279.459 309.913 281.706 309.52 283.34 310.659C284.974 311.803 285.368 314.049 284.227 315.681C283.083 317.314 280.831 317.711 279.202 316.568Z" fill="#0071BC"/>
</g>
<g opacity="0.7594">
<path d="M177.832 274.823C175.954 273.737 175.311 271.338 176.393 269.461C177.48 267.584 179.881 266.942 181.759 268.023C183.637 269.105 184.28 271.508 183.198 273.385C182.111 275.262 179.71 275.908 177.832 274.823Z" fill="#0071BC"/>
</g>
<g opacity="0.3618">
<path d="M204.132 290.114C206.989 289.635 208.917 286.932 208.438 284.078C207.958 281.223 205.254 279.297 202.397 279.775C199.54 280.254 197.612 282.957 198.091 285.811C198.57 288.666 201.275 290.592 204.132 290.114Z" fill="#0071BC"/>
</g>
<g opacity="0.996">
<path d="M223.756 303.628C220.92 301.991 219.946 298.366 221.584 295.532C223.222 292.697 226.85 291.724 229.686 293.36C232.523 294.997 233.497 298.623 231.859 301.457C230.221 304.295 226.593 305.264 223.756 303.628Z" fill="#0071BC"/>
</g>
<g opacity="0.3346">
<path d="M248.106 315.631C246.116 314.484 245.436 311.944 246.584 309.955C247.733 307.966 250.275 307.287 252.265 308.434C254.256 309.582 254.936 312.122 253.787 314.111C252.638 316.1 250.096 316.779 248.106 315.631Z" fill="#0071BC"/>
</g>
<g opacity="0.4156">
<path d="M270.585 330.871C267.653 329.18 266.65 325.435 268.341 322.505C270.033 319.576 273.782 318.573 276.714 320.264C279.645 321.954 280.649 325.7 278.957 328.629C277.265 331.559 273.516 332.566 270.585 330.871Z" fill="#0071BC"/>
</g>
<g opacity="0.8851">
<path d="M166.462 297.554C163.597 296.22 162.357 292.818 163.692 289.955C165.027 287.092 168.432 285.853 171.297 287.187C174.162 288.521 175.402 291.923 174.067 294.786C172.732 297.653 169.327 298.892 166.462 297.554Z" fill="#0071BC"/>
</g>
<g opacity="0.6091">
<path d="M191.761 307.402C189.775 306.478 188.916 304.121 189.845 302.136C190.77 300.151 193.129 299.294 195.112 300.222C197.098 301.146 197.956 303.504 197.027 305.488C196.103 307.473 193.747 308.331 191.761 307.402Z" fill="#0071BC"/>
</g>
<g opacity="0.367">
<path d="M218.525 320.576C221.471 320.276 223.615 317.646 223.315 314.703C223.014 311.759 220.383 309.617 217.437 309.917C214.491 310.217 212.347 312.847 212.647 315.79C212.948 318.734 215.579 320.876 218.525 320.576Z" fill="#0071BC"/>
</g>
<g opacity="0.3799">
<path d="M241.073 329.852C239.327 329.039 238.573 326.968 239.39 325.223C240.202 323.479 242.276 322.725 244.021 323.541C245.767 324.353 246.522 326.425 245.705 328.169C244.892 329.91 242.819 330.664 241.073 329.852Z" fill="#0071BC"/>
</g>
<g opacity="0.6012">
<path d="M268.763 342.823C271.346 341.905 272.696 339.07 271.778 336.488C270.86 333.907 268.022 332.558 265.439 333.475C262.856 334.393 261.506 337.228 262.424 339.809C263.341 342.391 266.179 343.74 268.763 342.823Z" fill="#0071BC"/>
</g>
<g opacity="0.3926">
<path d="M139.065 306.56C139.954 303.971 138.575 301.153 135.985 300.264C133.394 299.375 130.573 300.753 129.684 303.342C128.794 305.93 130.173 308.749 132.764 309.638C135.354 310.527 138.175 309.149 139.065 306.56Z" fill="#0071BC"/>
</g>
<g opacity="0.7148">
<path d="M165.68 315.941C166.638 312.72 164.801 309.334 161.579 308.377C158.356 307.421 154.967 309.256 154.01 312.476C153.052 315.696 154.888 319.082 158.111 320.039C161.334 320.996 164.723 319.161 165.68 315.941Z" fill="#0071BC"/>
</g>
<g opacity="0.693">
<path d="M186.67 328.65C189.542 327.893 191.256 324.953 190.498 322.083C189.74 319.213 186.797 317.501 183.925 318.258C181.053 319.016 179.339 321.956 180.097 324.826C180.855 327.696 183.798 329.408 186.67 328.65Z" fill="#0071BC"/>
</g>
<g opacity="0.8681">
<path d="M209.766 335.425C208.265 334.878 207.493 333.224 208.041 331.725C208.588 330.225 210.243 329.454 211.744 330.001C213.245 330.548 214.016 332.201 213.469 333.701C212.926 335.197 211.267 335.967 209.766 335.425Z" fill="#0071BC"/>
</g>
<g opacity="0.8056">
<path d="M234.766 345.949C232.568 345.149 231.432 342.721 232.232 340.525C233.033 338.329 235.463 337.194 237.66 337.993C239.858 338.793 240.994 341.221 240.194 343.417C239.394 345.613 236.964 346.749 234.766 345.949Z" fill="#0071BC"/>
</g>
<g opacity="0.5609">
<path d="M265.915 354.019C267.453 351.675 266.799 348.529 264.453 346.991C262.107 345.454 258.958 346.108 257.419 348.452C255.881 350.796 256.536 353.943 258.881 355.48C261.227 357.017 264.376 356.363 265.915 354.019Z" fill="#0071BC"/>
</g>
<g opacity="0.7506">
<path d="M72.9712 320.347C70.4003 319.659 68.8743 317.019 69.5626 314.451C70.251 311.882 72.8924 310.357 75.4633 311.045C78.0343 311.732 79.5603 314.372 78.8719 316.941C78.1836 319.51 75.5421 321.034 72.9712 320.347Z" fill="#0071BC"/>
</g>
<g opacity="0.9418">
<path d="M102.063 325.595C103.665 324.671 104.214 322.623 103.289 321.022C102.364 319.421 100.315 318.872 98.7121 319.797C97.1096 320.721 96.5606 322.769 97.4858 324.37C98.411 325.971 100.46 326.52 102.063 325.595Z" fill="#0071BC"/>
</g>
<g opacity="0.8487">
<path d="M125.199 334.786C122.391 334.037 120.728 331.153 121.479 328.352C122.23 325.547 125.116 323.885 127.919 324.635C130.726 325.385 132.389 328.269 131.638 331.07C130.888 333.875 128.006 335.536 125.199 334.786Z" fill="#0071BC"/>
</g>
<g opacity="0.3265">
<path d="M155.772 341.985C158.688 340.303 159.687 336.578 158.003 333.665C156.32 330.751 152.592 329.753 149.677 331.435C146.761 333.117 145.763 336.842 147.446 339.755C149.129 342.669 152.857 343.667 155.772 341.985Z" fill="#0071BC"/>
</g>
<g opacity="0.9789">
<path d="M178.102 346.695C176.46 346.256 175.485 344.569 175.925 342.928C176.364 341.288 178.052 340.314 179.694 340.753C181.336 341.192 182.311 342.879 181.871 344.519C181.432 346.16 179.744 347.134 178.102 346.695Z" fill="#0071BC"/>
</g>
<g opacity="0.4018">
<path d="M207.346 353.263C208.748 352.011 208.869 349.861 207.616 348.46C206.363 347.059 204.211 346.938 202.809 348.189C201.407 349.441 201.286 351.592 202.539 352.993C203.792 354.394 205.944 354.515 207.346 353.263Z" fill="#0071BC"/>
</g>
<g opacity="0.4148">
<path d="M233.726 362.036C236.107 360.662 236.924 357.619 235.548 355.239C234.173 352.859 231.127 352.043 228.745 353.417C226.364 354.792 225.547 357.835 226.923 360.215C228.298 362.595 231.344 363.41 233.726 362.036Z" fill="#0071BC"/>
</g>
<g opacity="0.6637">
<path d="M255.906 370.349C252.808 369.521 250.967 366.339 251.796 363.239C252.626 360.144 255.81 358.305 258.912 359.133C262.01 359.962 263.851 363.144 263.022 366.243C262.192 369.343 259.008 371.182 255.906 370.349Z" fill="#0071BC"/>
</g>
<g opacity="0.9167">
<path d="M13.4999 340.272C11.2856 339.883 9.80935 337.774 10.1991 335.561C10.5889 333.349 12.6996 331.874 14.9139 332.263C17.1282 332.653 18.6044 334.762 18.2147 336.974C17.8249 339.187 15.7142 340.666 13.4999 340.272Z" fill="#0071BC"/>
</g>
<g opacity="0.861">
<path d="M40.3326 344.113C38.5952 343.807 37.4383 342.154 37.7451 340.417C38.052 338.681 39.7065 337.525 41.4439 337.832C43.1814 338.139 44.3383 339.792 44.0315 341.528C43.7246 343.26 42.0701 344.416 40.3326 344.113Z" fill="#0071BC"/>
</g>
<g opacity="0.8344">
<path d="M67.0291 348.733C65.3373 348.435 64.2053 346.823 64.5038 345.128C64.8024 343.438 66.4154 342.307 68.1114 342.605C69.8033 342.903 70.9353 344.515 70.6368 346.21C70.3382 347.905 68.721 349.032 67.0291 348.733Z" fill="#0071BC"/>
</g>
<g opacity="0.3309">
<path d="M97.2886 354.702C99.6731 353.033 100.253 349.749 98.583 347.367C96.9134 344.984 93.6268 344.405 91.2423 346.073C88.8578 347.742 88.2783 351.026 89.9479 353.408C91.6175 355.791 94.904 356.37 97.2886 354.702Z" fill="#0071BC"/>
</g>
<g opacity="0.9272">
<path d="M123.191 360.752C126.339 359.51 127.885 355.954 126.642 352.807C125.4 349.661 121.841 348.117 118.692 349.358C115.544 350.6 113.998 354.156 115.24 357.302C116.483 360.449 120.042 361.993 123.191 360.752Z" fill="#0071BC"/>
</g>
<g opacity="0.5302">
<path d="M146.819 364.275C144.331 363.836 142.669 361.466 143.108 358.98C143.548 356.494 145.919 354.832 148.408 355.272C150.896 355.711 152.558 358.081 152.119 360.567C151.679 363.053 149.307 364.714 146.819 364.275Z" fill="#0071BC"/>
</g>
<g opacity="0.3682">
<path d="M178.659 365.699C179.341 363.29 177.939 360.785 175.528 360.104C173.117 359.423 170.61 360.824 169.928 363.233C169.247 365.642 170.649 368.147 173.06 368.828C175.471 369.509 177.978 368.108 178.659 365.699Z" fill="#0071BC"/>
</g>
<g opacity="0.8716">
<path d="M200.2 373.581C197.766 373.15 196.14 370.834 196.567 368.398C196.998 365.966 199.316 364.341 201.755 364.768C204.189 365.199 205.814 367.515 205.387 369.952C204.96 372.388 202.634 374.012 200.2 373.581Z" fill="#0071BC"/>
</g>
<g opacity="0.4752">
<path d="M226.987 377.692C224.88 377.319 223.47 375.313 223.844 373.204C224.217 371.1 226.224 369.691 228.334 370.064C230.441 370.437 231.851 372.442 231.478 374.551C231.104 376.656 229.093 378.061 226.987 377.692Z" fill="#0071BC"/>
</g>
<g opacity="0.9494">
<path d="M259.15 381.86C260.958 379.198 260.265 375.576 257.601 373.768C254.937 371.961 251.312 372.654 249.503 375.316C247.694 377.977 248.388 381.6 251.051 383.408C253.715 385.215 257.341 384.522 259.15 381.86Z" fill="#0071BC"/>
</g>
<g opacity="0.8095">
<path d="M9.27417 374.854C7.36256 374.688 5.94439 373.001 6.11441 371.091C6.28028 369.181 7.96797 367.764 9.87959 367.934C11.7912 368.1 13.2094 369.786 13.0394 371.696C12.8693 373.606 11.1858 375.019 9.27417 374.854Z" fill="#0071BC"/>
</g>
<g opacity="0.968">
<path d="M36.2814 377.02C34.4735 376.863 33.1383 375.272 33.2958 373.465C33.4534 371.659 35.0457 370.325 36.8537 370.482C38.6616 370.64 39.9969 372.231 39.8393 374.037C39.6817 375.844 38.0894 377.178 36.2814 377.02Z" fill="#0071BC"/>
</g>
<g opacity="0.8647">
<path d="M66.329 377.904C67.3121 376.37 66.8646 374.33 65.3295 373.348C63.7944 372.365 61.753 372.812 60.7698 374.346C59.7867 375.88 60.2342 377.92 61.7693 378.902C63.3044 379.885 65.3459 379.438 66.329 377.904Z" fill="#0071BC"/>
</g>
<g opacity="0.8163">
<path d="M93.5589 382.036C95.5394 380.375 95.7976 377.425 94.1356 375.446C92.4736 373.467 89.5208 373.209 87.5402 374.869C85.5597 376.53 85.3014 379.481 86.9634 381.46C88.6254 383.439 91.5783 383.697 93.5589 382.036Z" fill="#0071BC"/>
</g>
<g opacity="0.299">
<path d="M117.1 385.838C114.334 385.597 112.286 383.157 112.531 380.393C112.771 377.63 115.213 375.583 117.979 375.827C120.745 376.067 122.794 378.508 122.549 381.272C122.308 384.031 119.866 386.078 117.1 385.838Z" fill="#0071BC"/>
</g>
<g opacity="0.3873">
<path d="M144.153 387.503C141.769 387.296 140.007 385.195 140.214 382.813C140.421 380.43 142.524 378.669 144.908 378.877C147.292 379.084 149.055 381.185 148.847 383.567C148.636 385.95 146.533 387.71 144.153 387.503Z" fill="#0071BC"/>
</g>
<g opacity="0.3951">
<path d="M172.005 389.787C174.341 389.517 176.016 387.406 175.746 385.071C175.476 382.736 173.362 381.063 171.026 381.333C168.689 381.603 167.014 383.714 167.285 386.049C167.555 388.383 169.668 390.057 172.005 389.787Z" fill="#0071BC"/>
</g>
<g opacity="0.36">
<path d="M198.176 391.705C196.077 391.523 194.522 389.67 194.709 387.574C194.896 385.477 196.745 383.923 198.843 384.11C200.941 384.292 202.496 386.144 202.31 388.241C202.123 390.337 200.274 391.891 198.176 391.705Z" fill="#0071BC"/>
</g>
<g opacity="0.4126">
<path d="M228.129 393.387C229.864 391.933 230.09 389.348 228.634 387.614C227.178 385.881 224.591 385.655 222.856 387.11C221.121 388.564 220.895 391.149 222.351 392.883C223.807 394.616 226.394 394.842 228.129 393.387Z" fill="#0071BC"/>
</g>
<g opacity="0.6597">
<path d="M252.178 396.2C250.204 396.026 248.744 394.29 248.914 392.318C249.084 390.346 250.826 388.887 252.8 389.057C254.774 389.231 256.233 390.967 256.063 392.94C255.893 394.912 254.152 396.37 252.178 396.2Z" fill="#0071BC"/>
</g>
</g>
</svg>
