<svg width="277" height="80" viewBox="0 0 277 80" fill="none" xmlns="http://www.w3.org/2000/svg">
<g clip-path="url(#clip0_1631_18408)">
<path d="M71.8669 0H84.4296V80H71.8669V0ZM128.399 54.48C128.399 66.7232 118.295 67.6992 115.29 67.6992C107.78 67.6992 106.414 60.5376 106.414 56.2176V25.6H93.8516V56.1536C93.8516 63.7376 96.1883 69.9968 100.284 74.1696C103.902 77.8592 109.323 79.8752 115.196 79.8752C119.36 79.8752 125.258 78.5536 128.399 75.632V80H140.962V25.6H128.399V54.48ZM166.087 6.4H153.524V25.6H144.102V38.4H153.524V80H166.087V38.4H175.509V25.6H166.087V6.4ZM215.072 63.7344C212.336 66.24 208.725 67.6288 204.761 67.6288C196.024 67.6288 189.607 61.0912 189.607 52.1152C189.607 43.1392 195.82 36.8768 204.761 36.8768C208.656 36.8768 212.336 38.1984 215.141 40.704L217.047 42.3744L225.518 33.7472L223.398 31.7984C218.414 27.2128 211.796 24.64 204.758 24.64C189.055 24.64 177.651 36.1856 177.651 52.048C177.651 67.8432 189.328 79.8016 204.758 79.8016C211.928 79.8016 218.615 77.2288 223.536 72.5696L225.584 70.6208L216.981 62L215.072 63.7344ZM270.357 30.3424C266.739 26.656 262.499 24.64 256.626 24.64C252.462 24.64 247.744 25.9616 244.604 28.88V0H232.041V80H244.604V50.032C244.604 37.7888 253.14 36.816 256.146 36.816C263.655 36.816 263.448 43.9808 263.448 48.2944V80H276.01V48.3616C276.01 40.7776 274.456 34.5184 270.357 30.3424Z" fill="#17313B"/>
<path d="M204.346 43.0015C206.755 43.0015 209.066 43.9765 210.769 45.712C212.472 47.4476 213.429 49.8014 213.429 52.2559C213.429 54.7103 212.472 57.0642 210.769 58.7997C209.066 60.5353 206.755 61.5103 204.346 61.5103C201.938 61.5103 199.627 60.5353 197.924 58.7997C196.221 57.0642 195.264 54.7103 195.264 52.2559C195.264 49.8014 196.221 47.4476 197.924 45.712C199.627 43.9765 201.938 43.0015 204.346 43.0015Z" fill="#FF3D2E"/>
<path d="M54.2792 59.9074C49.5022 64.9154 43.0136 67.629 36.1858 67.629C22.191 67.629 12.0152 56.429 12.0152 41.0562C12.0152 25.613 22.191 14.413 36.1858 14.413C42.9476 14.413 49.364 17.1234 54.2132 22.0642L56.1227 24.013L64.5209 15.4562L62.6773 13.5074C55.7145 6.20184 46.2925 2.24023 36.1858 2.24023C15.5673 2.24023 0.0681152 18.9346 0.0681152 41.1234C0.0681152 63.245 15.6364 79.8722 36.1858 79.8722C46.3616 79.8722 55.7836 75.8402 62.7464 68.5346L64.59 66.5858L56.2609 57.8914L54.2792 59.9074Z" fill="#17313B"/>
</g>
<defs>
<clipPath id="clip0_1631_18408">
<rect width="276.078" height="80" fill="white"/>
</clipPath>
</defs>
</svg>
