<svg width="1087" height="100" viewBox="0 0 1087 100" fill="none" xmlns="http://www.w3.org/2000/svg">
<path d="M0.8 17.8H10.56L20.32 62.12H20.48L32 17.8H41.76L53.36 62.12H53.52L63.28 17.8H73.04L58.72 75H48.72L36.96 30.2H36.8L25.12 75H15.04L0.8 17.8ZM99.59 33C107.35 33 113.35 37.4 113.35 46.76V75H104.87V49.16C104.87 43.64 102.55 40.12 96.71 40.12C90.55 40.12 86.15 44.04 86.15 50.12V75H77.75V17.8H86.15V39.4H86.31C88.47 36.2 92.71 33 99.59 33ZM145.751 44.84C145.751 41.88 143.991 39.64 138.391 39.64C131.671 39.64 129.191 41.72 128.791 47H120.631C121.031 39.16 126.071 33 138.391 33C147.431 33 154.151 36.44 154.151 47.32V66.76C154.151 69.64 154.791 71.16 158.071 70.84V74.84C156.151 75.56 154.791 75.72 153.191 75.72C148.711 75.72 146.631 74.12 145.831 70.12H145.671C143.111 73.72 138.471 76.2 132.151 76.2C123.831 76.2 118.711 71.4 118.711 64.52C118.711 55.56 125.351 52.76 135.591 50.76C141.911 49.56 145.751 48.76 145.751 44.84ZM133.991 69.56C140.951 69.56 145.751 66.12 145.751 59.48V53.32C144.391 54.28 141.111 55.24 137.191 56.04C130.231 57.56 127.191 59.56 127.191 63.72C127.191 67.48 129.431 69.56 133.991 69.56ZM181.723 41H174.043V63.16C174.043 67.8 176.283 68.36 181.723 68.04V74.92C180.043 75.32 178.203 75.56 175.963 75.56C169.243 75.56 165.563 72.52 165.563 63.88V41H159.643V34.12H165.563V21.24H174.043V34.12H181.723V41ZM203.943 75V17.8H228.263C239.223 17.8 247.143 22.92 247.143 34.92C247.143 46.92 239.223 52.12 228.263 52.12H213.463V75H203.943ZM213.463 25.88V43.96H227.863C234.263 43.96 237.623 41.24 237.623 34.92C237.623 28.68 234.263 25.88 227.863 25.88H213.463ZM269.346 69.32C276.306 69.32 279.106 65 279.826 62.52H288.226C286.146 70.28 280.066 76.2 269.586 76.2C256.866 76.2 249.106 67.4 249.106 54.6C249.106 41.32 256.866 33 269.186 33C282.386 33 288.866 42.2 288.866 56.76H257.506C257.506 63.64 261.906 69.32 269.346 69.32ZM269.186 39.64C262.386 39.64 257.506 44.2 257.506 50.52H280.466C280.466 44.2 275.986 39.64 269.186 39.64ZM313.025 76.2C300.225 76.2 292.465 67.32 292.465 54.6C292.465 41.88 300.225 33 313.025 33C325.825 33 333.585 41.88 333.585 54.6C333.585 67.32 325.825 76.2 313.025 76.2ZM313.025 69.32C321.025 69.32 325.185 63 325.185 54.6C325.185 46.12 321.025 39.88 313.025 39.88C305.025 39.88 300.865 46.12 300.865 54.6C300.865 63 305.025 69.32 313.025 69.32ZM360.591 33C370.991 33 378.751 41.16 378.751 54.6C378.751 68.04 370.991 76.2 360.591 76.2C354.191 76.2 350.191 73.16 348.031 70.12H347.871V88.92H339.391V34.12H347.871V38.92H348.031C350.191 36.04 354.191 33 360.591 33ZM358.991 69.32C366.351 69.32 370.271 62.6 370.271 54.6C370.271 46.6 366.351 39.88 358.991 39.88C352.191 39.88 347.951 45.48 347.951 54.6C347.951 63.64 352.191 69.32 358.991 69.32ZM385.019 17.8H393.499V75H385.019V17.8ZM419.736 69.32C426.696 69.32 429.496 65 430.216 62.52H438.616C436.536 70.28 430.456 76.2 419.976 76.2C407.256 76.2 399.496 67.4 399.496 54.6C399.496 41.32 407.256 33 419.576 33C432.776 33 439.256 42.2 439.256 56.76H407.896C407.896 63.64 412.296 69.32 419.736 69.32ZM419.576 39.64C412.776 39.64 407.896 44.2 407.896 50.52H430.856C430.856 44.2 426.376 39.64 419.576 39.64ZM571.176 41H563.496V63.16C563.496 67.8 565.736 68.36 571.176 68.04V74.92C569.496 75.32 567.656 75.56 565.416 75.56C558.696 75.56 555.016 72.52 555.016 63.88V41H549.096V34.12H555.016V21.24H563.496V34.12H571.176V41ZM595.291 76.2C582.491 76.2 574.731 67.32 574.731 54.6C574.731 41.88 582.491 33 595.291 33C608.091 33 615.851 41.88 615.851 54.6C615.851 67.32 608.091 76.2 595.291 76.2ZM595.291 69.32C603.291 69.32 607.451 63 607.451 54.6C607.451 46.12 603.291 39.88 595.291 39.88C587.291 39.88 583.131 46.12 583.131 54.6C583.131 63 587.291 69.32 595.291 69.32ZM654.571 50.28C662.091 52.04 670.251 53.72 670.251 63.48C670.251 71.32 663.531 76.2 653.611 76.2C640.411 76.2 634.731 70.04 634.331 61.4H642.491C642.891 65.8 644.811 69.56 653.451 69.56C659.291 69.56 661.771 66.68 661.771 64.12C661.771 59 656.891 58.6 650.891 57.16C644.411 55.64 635.611 54.36 635.611 45.08C635.611 38.36 641.531 33 651.771 33C662.891 33 668.171 39 668.731 46.12H660.571C660.011 42.92 658.411 39.64 651.851 39.64C646.811 39.64 644.091 41.56 644.091 44.44C644.091 48.6 648.651 48.92 654.571 50.28ZM700.986 44.84C700.986 41.88 699.226 39.64 693.626 39.64C686.906 39.64 684.426 41.72 684.026 47H675.866C676.266 39.16 681.306 33 693.626 33C702.666 33 709.386 36.44 709.386 47.32V66.76C709.386 69.64 710.026 71.16 713.306 70.84V74.84C711.386 75.56 710.026 75.72 708.426 75.72C703.946 75.72 701.866 74.12 701.066 70.12H700.906C698.346 73.72 693.706 76.2 687.386 76.2C679.066 76.2 673.946 71.4 673.946 64.52C673.946 55.56 680.586 52.76 690.826 50.76C697.146 49.56 700.986 48.76 700.986 44.84ZM689.226 69.56C696.186 69.56 700.986 66.12 700.986 59.48V53.32C699.626 54.28 696.346 55.24 692.426 56.04C685.466 57.56 682.426 59.56 682.426 63.72C682.426 67.48 684.666 69.56 689.226 69.56ZM753.283 34.12L736.963 77.56C734.643 83.88 732.003 88.92 724.163 88.92C721.763 88.92 719.763 88.52 718.163 88.12V81.72H718.883C722.403 82.2 725.043 81.96 726.883 79.72C728.403 77.88 729.523 74.68 728.003 70.84L713.203 34.12H722.243L733.683 65.4H733.843L744.323 34.12H753.283ZM797.314 44.84C797.314 41.88 795.554 39.64 789.954 39.64C783.234 39.64 780.754 41.72 780.354 47H772.194C772.594 39.16 777.634 33 789.954 33C798.994 33 805.714 36.44 805.714 47.32V66.76C805.714 69.64 806.354 71.16 809.634 70.84V74.84C807.714 75.56 806.354 75.72 804.754 75.72C800.274 75.72 798.194 74.12 797.394 70.12H797.234C794.674 73.72 790.034 76.2 783.714 76.2C775.394 76.2 770.274 71.4 770.274 64.52C770.274 55.56 776.914 52.76 787.154 50.76C793.474 49.56 797.314 48.76 797.314 44.84ZM785.554 69.56C792.514 69.56 797.314 66.12 797.314 59.48V53.32C795.954 54.28 792.674 55.24 788.754 56.04C781.794 57.56 778.754 59.56 778.754 63.72C778.754 67.48 780.994 69.56 785.554 69.56ZM835.587 33C846.067 33 853.827 41.16 853.827 54.6C853.827 68.04 846.067 76.2 835.587 76.2C829.267 76.2 825.267 73.08 823.107 70.28H822.947V75H814.547V17.8H822.947V39.08H823.107C825.267 35.96 829.267 33 835.587 33ZM834.147 69.32C841.507 69.32 845.427 62.6 845.427 54.6C845.427 46.6 841.507 39.88 834.147 39.88C827.267 39.88 823.027 45.48 823.027 54.6C823.027 63.64 827.267 69.32 834.147 69.32ZM878.103 76.2C865.303 76.2 857.543 67.32 857.543 54.6C857.543 41.88 865.303 33 878.103 33C890.903 33 898.663 41.88 898.663 54.6C898.663 67.32 890.903 76.2 878.103 76.2ZM878.103 69.32C886.103 69.32 890.263 63 890.263 54.6C890.263 46.12 886.103 39.88 878.103 39.88C870.103 39.88 865.943 46.12 865.943 54.6C865.943 63 870.103 69.32 878.103 69.32ZM931.349 34.12H939.749V75H931.349V69.72H931.189C929.029 72.92 924.789 76.12 917.749 76.12C910.149 76.12 904.149 71.72 904.149 62.36V34.12H912.629V59.96C912.629 65.48 914.949 69 920.709 69C927.189 69 931.349 65.08 931.349 59V34.12ZM967.27 41H959.59V63.16C959.59 67.8 961.83 68.36 967.27 68.04V74.92C965.59 75.32 963.75 75.56 961.51 75.56C954.79 75.56 951.11 72.52 951.11 63.88V41H945.19V34.12H951.11V21.24H959.59V34.12H967.27V41ZM1015.49 34.12H1023.89V75H1015.49V69.72H1015.33C1013.17 72.92 1008.93 76.12 1001.89 76.12C994.289 76.12 988.289 71.72 988.289 62.36V34.12H996.769V59.96C996.769 65.48 999.089 69 1004.85 69C1011.33 69 1015.49 65.08 1015.49 59V34.12ZM1049.57 50.28C1057.09 52.04 1065.25 53.72 1065.25 63.48C1065.25 71.32 1058.53 76.2 1048.61 76.2C1035.41 76.2 1029.73 70.04 1029.33 61.4H1037.49C1037.89 65.8 1039.81 69.56 1048.45 69.56C1054.29 69.56 1056.77 66.68 1056.77 64.12C1056.77 59 1051.89 58.6 1045.89 57.16C1039.41 55.64 1030.61 54.36 1030.61 45.08C1030.61 38.36 1036.53 33 1046.77 33C1057.89 33 1063.17 39 1063.73 46.12H1055.57C1055.01 42.92 1053.41 39.64 1046.85 39.64C1041.81 39.64 1039.09 41.56 1039.09 44.44C1039.09 48.6 1043.65 48.92 1049.57 50.28ZM1072.4 17.8H1081.6V32.92L1079.36 59H1074.64L1072.4 32.92V17.8ZM1077.04 75.64C1074.08 75.64 1071.84 73.64 1071.84 70.44C1071.84 67.32 1074.08 65.24 1077.04 65.24C1079.92 65.24 1082.16 67.32 1082.16 70.44C1082.16 73.64 1079.92 75.64 1077.04 75.64Z" fill="#1A1A1A"/>
</svg>
