<svg width="1116" height="277" viewBox="0 0 1116 277" fill="none" xmlns="http://www.w3.org/2000/svg">
<path d="M452.36 22.04C452.36 26.96 450.44 31.6 443.56 31.6C436.68 31.6 434.76 26.96 434.76 22.04V20.72H439.28V22.04C439.28 25.24 439.84 27.52 443.44 27.52C447 27.52 447.64 25.24 447.64 22.04V2.4H452.36V22.04ZM465.509 28.16C468.989 28.16 470.389 26 470.749 24.76H474.949C473.909 28.64 470.869 31.6 465.629 31.6C459.269 31.6 455.389 27.2 455.389 20.8C455.389 14.16 459.269 10 465.429 10C472.029 10 475.269 14.6 475.269 21.88H459.589C459.589 25.32 461.789 28.16 465.509 28.16ZM465.429 13.32C462.029 13.32 459.589 15.6 459.589 18.76H471.069C471.069 15.6 468.829 13.32 465.429 13.32ZM486.988 18.64C490.748 19.52 494.828 20.36 494.828 25.24C494.828 29.16 491.468 31.6 486.508 31.6C479.908 31.6 477.068 28.52 476.868 24.2H480.948C481.148 26.4 482.108 28.28 486.428 28.28C489.348 28.28 490.588 26.84 490.588 25.56C490.588 23 488.148 22.8 485.148 22.08C481.908 21.32 477.508 20.68 477.508 16.04C477.508 12.68 480.468 10 485.588 10C491.148 10 493.788 13 494.068 16.56H489.988C489.708 14.96 488.908 13.32 485.628 13.32C483.108 13.32 481.748 14.28 481.748 15.72C481.748 17.8 484.028 17.96 486.988 18.64ZM506.559 18.64C510.319 19.52 514.399 20.36 514.399 25.24C514.399 29.16 511.039 31.6 506.079 31.6C499.479 31.6 496.639 28.52 496.439 24.2H500.519C500.719 26.4 501.679 28.28 505.999 28.28C508.919 28.28 510.159 26.84 510.159 25.56C510.159 23 507.719 22.8 504.719 22.08C501.479 21.32 497.079 20.68 497.079 16.04C497.079 12.68 500.039 10 505.159 10C510.719 10 513.359 13 513.639 16.56H509.559C509.279 14.96 508.479 13.32 505.199 13.32C502.679 13.32 501.319 14.28 501.319 15.72C501.319 17.8 503.599 17.96 506.559 18.64ZM519.571 7.12C518.411 7.12 517.211 6.32 517.211 4.88C517.211 3.44 518.411 2.68 519.571 2.68C520.811 2.68 521.971 3.44 521.971 4.88C521.971 6.32 520.811 7.12 519.571 7.12ZM517.491 10.56H521.691V31H517.491V10.56ZM540.041 18.04C539.881 15.96 538.561 13.44 534.961 13.44C530.841 13.44 529.081 16.96 529.081 20.8C529.081 24.64 530.801 28.16 534.961 28.16C538.561 28.16 539.881 25.68 540.041 23.4H544.241C543.921 28.12 540.281 31.6 534.961 31.6C528.841 31.6 524.881 27.2 524.881 20.8C524.881 14.4 528.841 10 534.921 10C540.241 10 543.721 13.4 544.241 18.04H540.041ZM559.766 15.92C559.766 14.44 558.886 13.32 556.086 13.32C552.726 13.32 551.486 14.36 551.286 17H547.206C547.406 13.08 549.926 10 556.086 10C560.606 10 563.966 11.72 563.966 17.16V26.88C563.966 28.32 564.286 29.08 565.926 28.92V30.92C564.966 31.28 564.286 31.36 563.486 31.36C561.246 31.36 560.206 30.56 559.806 28.56H559.726C558.446 30.36 556.126 31.6 552.966 31.6C548.806 31.6 546.246 29.2 546.246 25.76C546.246 21.28 549.566 19.88 554.686 18.88C557.846 18.28 559.766 17.88 559.766 15.92ZM553.886 28.28C557.366 28.28 559.766 26.56 559.766 23.24V20.16C559.086 20.64 557.446 21.12 555.486 21.52C552.006 22.28 550.486 23.28 550.486 25.36C550.486 27.24 551.606 28.28 553.886 28.28ZM576.44 31V2.4H582.6L590.6 24.4H590.68L598.64 2.4H604.8V31H600.16V9.32H600.08L592.52 31H588.72L581.16 9.32H581.08V31H576.44ZM622.682 10.56H626.882V31H622.682V28.36H622.602C621.522 29.96 619.402 31.56 615.882 31.56C612.082 31.56 609.082 29.36 609.082 24.68V10.56H613.322V23.48C613.322 26.24 614.482 28 617.362 28C620.602 28 622.682 26.04 622.682 23V10.56ZM630.963 2.4H635.203V31H630.963V2.4ZM639.049 2.4H643.289V31H639.049V2.4ZM656.407 28.16C659.887 28.16 661.287 26 661.647 24.76H665.847C664.807 28.64 661.767 31.6 656.527 31.6C650.167 31.6 646.287 27.2 646.287 20.8C646.287 14.16 650.167 10 656.327 10C662.927 10 666.167 14.6 666.167 21.88H650.487C650.487 25.32 652.687 28.16 656.407 28.16ZM656.327 13.32C652.927 13.32 650.487 15.6 650.487 18.76H661.967C661.967 15.6 659.727 13.32 656.327 13.32ZM678.767 10.08C679.487 10.08 680.007 10.12 680.607 10.2V14.16H680.527C676.487 13.48 673.247 16.2 673.247 20.56V31H669.047V10.56H673.247V14.4H673.327C674.407 11.84 676.087 10.08 678.767 10.08Z" fill="#1A1A1A"/>
<path d="M3.4717 127V106.98H11.5917C15.5397 106.98 18.1997 109.108 18.1997 112.664C18.1997 115.548 16.8277 117.144 14.6157 117.704V117.76C19.0677 118.628 17.4437 126.496 18.4797 126.832V127H15.7637C14.8957 126.16 16.7997 118.908 11.7317 118.908H5.9917V127H3.4717ZM5.9917 109.22V116.668H11.0037C13.0757 116.668 15.6797 116.416 15.6797 112.944C15.6797 109.472 13.0757 109.22 11.0037 109.22H5.9917ZM26.7937 125.432C29.6497 125.432 30.7137 123.584 30.9657 122.604H33.2057C32.4777 125.264 30.4337 127.392 26.8777 127.392C22.5377 127.392 19.9057 124.34 19.9057 119.86C19.9057 115.1 22.5937 112.328 26.7657 112.328C31.2457 112.328 33.4297 115.38 33.4297 120.448H22.1457C22.1457 123.024 23.6857 125.432 26.7937 125.432ZM26.7657 114.288C24.0777 114.288 22.1457 116.192 22.1457 118.488H31.1897C31.1897 116.192 29.4537 114.288 26.7657 114.288ZM41.4434 118.516C43.9914 119.132 46.8754 119.552 46.8754 123.08C46.8754 125.684 44.4954 127.392 41.2474 127.392C36.8794 127.392 34.8634 125.32 34.7234 122.24H36.9634C37.1034 123.836 37.6634 125.432 41.2474 125.432C43.6834 125.432 44.6354 124.172 44.6354 123.22C44.6354 121.148 42.7594 121.036 40.7154 120.532C38.5314 120 35.2834 119.748 35.2834 116.388C35.2834 114.148 37.2714 112.328 40.6314 112.328C44.1874 112.328 46.0914 114.344 46.3154 116.808H44.0754C43.8514 115.716 43.3194 114.288 40.6314 114.288C38.6154 114.288 37.5234 115.1 37.5234 116.22C37.5234 117.9 39.4554 118.04 41.4434 118.516ZM55.3953 125.432C58.2513 125.432 59.3153 123.584 59.5673 122.604H61.8073C61.0793 125.264 59.0353 127.392 55.4793 127.392C51.1393 127.392 48.5073 124.34 48.5073 119.86C48.5073 115.1 51.1953 112.328 55.3673 112.328C59.8473 112.328 62.0313 115.38 62.0313 120.448H50.7473C50.7473 123.024 52.2873 125.432 55.3953 125.432ZM55.3673 114.288C52.6793 114.288 50.7473 116.192 50.7473 118.488H59.7913C59.7913 116.192 58.0553 114.288 55.3673 114.288ZM72.985 116.36C72.985 115.24 72.369 114.288 70.073 114.288C67.357 114.288 66.461 115.072 66.321 117.144H64.081C64.221 114.4 65.929 112.328 70.073 112.328C72.789 112.328 75.225 113.392 75.225 116.836V123.78C75.225 124.9 75.421 125.516 76.849 125.348V126.916C76.261 127.112 75.953 127.14 75.533 127.14C74.189 127.14 73.377 126.776 72.985 125.208H72.929C72.033 126.552 70.437 127.392 68.085 127.392C65.201 127.392 63.381 125.74 63.381 123.332C63.381 120.084 65.789 119.244 69.485 118.544C71.893 118.096 72.985 117.788 72.985 116.36ZM68.309 125.432C70.969 125.432 72.985 124.228 72.985 121.484V119.104C72.565 119.524 71.193 119.916 69.681 120.224C66.909 120.812 65.621 121.512 65.621 123.22C65.621 124.62 66.461 125.432 68.309 125.432ZM84.7664 112.328C85.2984 112.328 85.6904 112.356 86.0824 112.412V114.652H86.0264C82.9184 114.148 80.7624 116.332 80.7624 119.384V127H78.5224V112.72H80.7624V115.548H80.8184C81.5744 113.672 82.7224 112.328 84.7664 112.328ZM97.7092 117.872C97.5972 116.304 96.5332 114.288 93.6772 114.288C90.2892 114.288 89.0012 117.172 89.0012 119.86C89.0012 122.548 90.2892 125.432 93.6772 125.432C96.5612 125.432 97.5972 123.444 97.7092 121.736H99.9492C99.7532 124.984 97.2052 127.392 93.6772 127.392C89.5052 127.392 86.7612 124.34 86.7612 119.86C86.7612 115.38 89.5052 112.328 93.6772 112.328C97.2052 112.328 99.6132 114.68 99.9492 117.872H97.7092ZM109.093 112.328C111.697 112.328 113.881 113.756 113.881 117.032V127H111.641V117.592C111.641 115.744 110.773 114.288 108.533 114.288C106.013 114.288 104.333 115.884 104.333 118.096V127H102.093V106.98H104.333V114.428H104.389C105.145 113.42 106.657 112.328 109.093 112.328ZM129.323 112.328C132.851 112.328 135.707 115.156 135.707 119.86C135.707 124.564 132.851 127.392 129.323 127.392C126.971 127.392 125.627 126.384 124.787 125.152H124.731V131.816H122.491V112.72H124.731V114.484H124.787C125.627 113.392 126.971 112.328 129.323 112.328ZM129.043 125.432C131.983 125.432 133.467 122.66 133.467 119.86C133.467 117.06 131.983 114.288 129.043 114.288C126.383 114.288 124.731 116.5 124.731 119.86C124.731 123.22 126.383 125.432 129.043 125.432ZM147.514 112.72H149.754V127H147.514V125.292H147.458C146.702 126.3 145.19 127.392 142.754 127.392C140.15 127.392 137.966 125.964 137.966 122.688V112.72H140.206V122.128C140.206 123.976 141.074 125.432 143.314 125.432C145.834 125.432 147.514 123.836 147.514 121.624V112.72ZM159.619 112.328C163.203 112.328 166.059 115.156 166.059 119.86C166.059 124.564 163.203 127.392 159.619 127.392C157.323 127.392 155.979 126.328 155.139 125.236H155.083V127H152.843V106.98H155.083V114.568H155.139C155.979 113.336 157.323 112.328 159.619 112.328ZM159.395 125.432C162.335 125.432 163.819 122.66 163.819 119.86C163.819 117.06 162.335 114.288 159.395 114.288C156.735 114.288 155.083 116.5 155.083 119.86C155.083 123.22 156.735 125.432 159.395 125.432ZM168.403 106.98H170.643V127H168.403V106.98ZM174.942 109.948C174.326 109.948 173.542 109.472 173.542 108.604C173.542 107.736 174.326 107.26 174.942 107.26C175.586 107.26 176.342 107.736 176.342 108.604C176.342 109.472 175.586 109.948 174.942 109.948ZM173.822 112.72H176.062V127H173.822V112.72ZM185.217 118.516C187.765 119.132 190.649 119.552 190.649 123.08C190.649 125.684 188.269 127.392 185.021 127.392C180.653 127.392 178.637 125.32 178.497 122.24H180.737C180.877 123.836 181.437 125.432 185.021 125.432C187.457 125.432 188.409 124.172 188.409 123.22C188.409 121.148 186.533 121.036 184.489 120.532C182.305 120 179.057 119.748 179.057 116.388C179.057 114.148 181.045 112.328 184.405 112.328C187.961 112.328 189.865 114.344 190.089 116.808H187.849C187.625 115.716 187.093 114.288 184.405 114.288C182.389 114.288 181.297 115.1 181.297 116.22C181.297 117.9 183.229 118.04 185.217 118.516ZM199.819 112.328C202.423 112.328 204.607 113.756 204.607 117.032V127H202.367V117.592C202.367 115.744 201.499 114.288 199.259 114.288C196.739 114.288 195.059 115.884 195.059 118.096V127H192.819V106.98H195.059V114.428H195.115C195.871 113.42 197.383 112.328 199.819 112.328ZM213.688 125.432C216.544 125.432 217.608 123.584 217.86 122.604H220.1C219.372 125.264 217.328 127.392 213.772 127.392C209.432 127.392 206.8 124.34 206.8 119.86C206.8 115.1 209.488 112.328 213.66 112.328C218.14 112.328 220.324 115.38 220.324 120.448H209.04C209.04 123.024 210.58 125.432 213.688 125.432ZM213.66 114.288C210.972 114.288 209.04 116.192 209.04 118.488H218.084C218.084 116.192 216.348 114.288 213.66 114.288ZM232.706 106.98H234.946V127H232.706V125.236H232.65C231.81 126.328 230.466 127.392 228.17 127.392C224.586 127.392 221.73 124.564 221.73 119.86C221.73 115.156 224.586 112.328 228.17 112.328C230.466 112.328 231.81 113.336 232.65 114.568H232.706V106.98ZM228.394 125.432C231.054 125.432 232.706 123.22 232.706 119.86C232.706 116.5 231.054 114.288 228.394 114.288C225.454 114.288 223.97 117.06 223.97 119.86C223.97 122.66 225.454 125.432 228.394 125.432ZM250.4 112.328C253.984 112.328 256.84 115.156 256.84 119.86C256.84 124.564 253.984 127.392 250.4 127.392C248.104 127.392 246.76 126.328 245.92 125.236H245.864V127H243.624V106.98H245.864V114.568H245.92C246.76 113.336 248.104 112.328 250.4 112.328ZM250.176 125.432C253.116 125.432 254.6 122.66 254.6 119.86C254.6 117.06 253.116 114.288 250.176 114.288C247.516 114.288 245.864 116.5 245.864 119.86C245.864 123.22 247.516 125.432 250.176 125.432ZM270.923 112.72L264.819 128.176C264.203 129.716 263.475 131.816 260.843 131.816C259.947 131.816 259.303 131.648 258.939 131.536V129.856H259.275C260.507 129.968 261.375 129.884 262.131 129.072C262.719 128.428 263.307 127.224 262.747 125.824L257.343 112.72H259.863L264.231 124.368H264.287L268.403 112.72H270.923ZM284.348 114.68H281.548V123.276C281.548 124.9 282.444 125.18 284.348 125.04V127C283.844 127.112 283.256 127.168 282.668 127.168C280.764 127.168 279.308 126.412 279.308 123.5V114.68H277.208V112.72H279.308V107.96H281.548V112.72H284.348V114.68ZM293.69 112.328C296.294 112.328 298.478 113.756 298.478 117.032V127H296.238V117.592C296.238 115.744 295.37 114.288 293.13 114.288C290.61 114.288 288.93 115.884 288.93 118.096V127H286.69V106.98H288.93V114.428H288.986C289.742 113.42 291.254 112.328 293.69 112.328ZM307.559 125.432C310.415 125.432 311.479 123.584 311.731 122.604H313.971C313.243 125.264 311.199 127.392 307.643 127.392C303.303 127.392 300.671 124.34 300.671 119.86C300.671 115.1 303.359 112.328 307.531 112.328C312.011 112.328 314.195 115.38 314.195 120.448H302.911C302.911 123.024 304.451 125.432 307.559 125.432ZM307.531 114.288C304.843 114.288 302.911 116.192 302.911 118.488H311.955C311.955 116.192 310.219 114.288 307.531 114.288ZM329.551 115.324C334.059 116.444 336.999 117.2 336.999 121.764C336.999 124.676 334.843 127.392 329.775 127.392C325.043 127.392 321.375 124.872 321.095 120.28H323.615C323.895 123.024 325.575 125.152 329.775 125.152C333.247 125.152 334.479 123.556 334.479 121.764C334.479 119.02 332.995 118.516 328.515 117.48C325.519 116.78 321.935 115.744 321.935 111.852C321.935 108.688 324.371 106.588 328.795 106.588C333.051 106.588 336.019 108.772 336.355 112.916H333.835C333.471 110.228 331.959 108.828 328.795 108.828C325.967 108.828 324.455 109.92 324.455 111.572C324.455 114.232 326.611 114.596 329.551 115.324ZM345.762 114.68H342.962V123.276C342.962 124.9 343.858 125.18 345.762 125.04V127C345.258 127.112 344.67 127.168 344.082 127.168C342.178 127.168 340.722 126.412 340.722 123.5V114.68H338.622V112.72H340.722V107.96H342.962V112.72H345.762V114.68ZM356.84 116.36C356.84 115.24 356.224 114.288 353.928 114.288C351.212 114.288 350.316 115.072 350.176 117.144H347.936C348.076 114.4 349.784 112.328 353.928 112.328C356.644 112.328 359.08 113.392 359.08 116.836V123.78C359.08 124.9 359.276 125.516 360.704 125.348V126.916C360.116 127.112 359.808 127.14 359.388 127.14C358.044 127.14 357.232 126.776 356.84 125.208H356.784C355.888 126.552 354.292 127.392 351.94 127.392C349.056 127.392 347.236 125.74 347.236 123.332C347.236 120.084 349.644 119.244 353.34 118.544C355.748 118.096 356.84 117.788 356.84 116.36ZM352.164 125.432C354.824 125.432 356.84 124.228 356.84 121.484V119.104C356.42 119.524 355.048 119.916 353.536 120.224C350.764 120.812 349.476 121.512 349.476 123.22C349.476 124.62 350.316 125.432 352.164 125.432ZM368.32 114.68H365.52V123.276C365.52 124.9 366.416 125.18 368.32 125.04V127C367.816 127.112 367.228 127.168 366.64 127.168C364.736 127.168 363.28 126.412 363.28 123.5V114.68H361.18V112.72H363.28V107.96H365.52V112.72H368.32V114.68ZM372.063 109.948C371.447 109.948 370.663 109.472 370.663 108.604C370.663 107.736 371.447 107.26 372.063 107.26C372.707 107.26 373.463 107.736 373.463 108.604C373.463 109.472 372.707 109.948 372.063 109.948ZM370.943 112.72H373.183V127H370.943V112.72ZM382.338 118.516C384.886 119.132 387.77 119.552 387.77 123.08C387.77 125.684 385.39 127.392 382.142 127.392C377.774 127.392 375.758 125.32 375.618 122.24H377.858C377.998 123.836 378.558 125.432 382.142 125.432C384.578 125.432 385.53 124.172 385.53 123.22C385.53 121.148 383.654 121.036 381.61 120.532C379.426 120 376.178 119.748 376.178 116.388C376.178 114.148 378.166 112.328 381.526 112.328C385.082 112.328 386.986 114.344 387.21 116.808H384.97C384.746 115.716 384.214 114.288 381.526 114.288C379.51 114.288 378.418 115.1 378.418 116.22C378.418 117.9 380.35 118.04 382.338 118.516ZM395.883 114.68H393.083V123.276C393.083 124.9 393.979 125.18 395.883 125.04V127C395.379 127.112 394.791 127.168 394.203 127.168C392.299 127.168 390.843 126.412 390.843 123.5V114.68H388.743V112.72H390.843V107.96H393.083V112.72H395.883V114.68ZM406.962 116.36C406.962 115.24 406.346 114.288 404.05 114.288C401.334 114.288 400.438 115.072 400.298 117.144H398.058C398.198 114.4 399.906 112.328 404.05 112.328C406.766 112.328 409.202 113.392 409.202 116.836V123.78C409.202 124.9 409.398 125.516 410.826 125.348V126.916C410.238 127.112 409.93 127.14 409.51 127.14C408.166 127.14 407.354 126.776 406.962 125.208H406.906C406.01 126.552 404.414 127.392 402.062 127.392C399.178 127.392 397.358 125.74 397.358 123.332C397.358 120.084 399.766 119.244 403.462 118.544C405.87 118.096 406.962 117.788 406.962 116.36ZM402.286 125.432C404.946 125.432 406.962 124.228 406.962 121.484V119.104C406.542 119.524 405.17 119.916 403.658 120.224C400.886 120.812 399.598 121.512 399.598 123.22C399.598 124.62 400.438 125.432 402.286 125.432ZM418.44 127V106.98H426.56C430.508 106.98 433.168 109.108 433.168 112.664C433.168 115.548 431.796 117.144 429.584 117.704V117.76C434.036 118.628 432.412 126.496 433.448 126.832V127H430.732C429.864 126.16 431.768 118.908 426.7 118.908H420.96V127H418.44ZM420.96 109.22V116.668H425.972C428.044 116.668 430.648 116.416 430.648 112.944C430.648 109.472 428.044 109.22 425.972 109.22H420.96ZM441.762 125.432C444.618 125.432 445.682 123.584 445.934 122.604H448.174C447.446 125.264 445.402 127.392 441.846 127.392C437.506 127.392 434.874 124.34 434.874 119.86C434.874 115.1 437.562 112.328 441.734 112.328C446.214 112.328 448.398 115.38 448.398 120.448H437.114C437.114 123.024 438.654 125.432 441.762 125.432ZM441.734 114.288C439.046 114.288 437.114 116.192 437.114 118.488H446.158C446.158 116.192 444.422 114.288 441.734 114.288ZM456.412 118.516C458.96 119.132 461.844 119.552 461.844 123.08C461.844 125.684 459.464 127.392 456.216 127.392C451.848 127.392 449.832 125.32 449.692 122.24H451.932C452.072 123.836 452.632 125.432 456.216 125.432C458.652 125.432 459.604 124.172 459.604 123.22C459.604 121.148 457.728 121.036 455.684 120.532C453.5 120 450.252 119.748 450.252 116.388C450.252 114.148 452.24 112.328 455.6 112.328C459.156 112.328 461.06 114.344 461.284 116.808H459.044C458.82 115.716 458.288 114.288 455.6 114.288C453.584 114.288 452.492 115.1 452.492 116.22C452.492 117.9 454.424 118.04 456.412 118.516ZM470.364 125.432C473.22 125.432 474.284 123.584 474.536 122.604H476.776C476.048 125.264 474.004 127.392 470.448 127.392C466.108 127.392 463.476 124.34 463.476 119.86C463.476 115.1 466.164 112.328 470.336 112.328C474.816 112.328 477 115.38 477 120.448H465.716C465.716 123.024 467.256 125.432 470.364 125.432ZM470.336 114.288C467.648 114.288 465.716 116.192 465.716 118.488H474.76C474.76 116.192 473.024 114.288 470.336 114.288ZM487.954 116.36C487.954 115.24 487.338 114.288 485.042 114.288C482.326 114.288 481.43 115.072 481.29 117.144H479.05C479.19 114.4 480.898 112.328 485.042 112.328C487.758 112.328 490.194 113.392 490.194 116.836V123.78C490.194 124.9 490.39 125.516 491.818 125.348V126.916C491.23 127.112 490.922 127.14 490.502 127.14C489.158 127.14 488.346 126.776 487.954 125.208H487.898C487.002 126.552 485.406 127.392 483.054 127.392C480.17 127.392 478.35 125.74 478.35 123.332C478.35 120.084 480.758 119.244 484.454 118.544C486.862 118.096 487.954 117.788 487.954 116.36ZM483.278 125.432C485.938 125.432 487.954 124.228 487.954 121.484V119.104C487.534 119.524 486.162 119.916 484.65 120.224C481.878 120.812 480.59 121.512 480.59 123.22C480.59 124.62 481.43 125.432 483.278 125.432ZM499.735 112.328C500.267 112.328 500.659 112.356 501.051 112.412V114.652H500.995C497.887 114.148 495.731 116.332 495.731 119.384V127H493.491V112.72H495.731V115.548H495.787C496.543 113.672 497.691 112.328 499.735 112.328ZM512.678 117.872C512.566 116.304 511.502 114.288 508.646 114.288C505.258 114.288 503.97 117.172 503.97 119.86C503.97 122.548 505.258 125.432 508.646 125.432C511.53 125.432 512.566 123.444 512.678 121.736H514.918C514.722 124.984 512.174 127.392 508.646 127.392C504.474 127.392 501.73 124.34 501.73 119.86C501.73 115.38 504.474 112.328 508.646 112.328C512.174 112.328 514.582 114.68 514.918 117.872H512.678ZM524.061 112.328C526.665 112.328 528.849 113.756 528.849 117.032V127H526.609V117.592C526.609 115.744 525.741 114.288 523.501 114.288C520.981 114.288 519.301 115.884 519.301 118.096V127H517.061V106.98H519.301V114.428H519.357C520.113 113.42 521.625 112.328 524.061 112.328ZM537.796 127V106.98H545.048C550.564 106.98 553.952 110.564 553.952 117.004C553.952 123.444 550.564 127 545.048 127H537.796ZM540.316 109.22V124.76H545.048C550.144 124.76 551.432 120.924 551.432 117.004C551.432 113.084 550.144 109.22 545.048 109.22H540.316ZM562.677 125.432C565.533 125.432 566.597 123.584 566.849 122.604H569.089C568.361 125.264 566.317 127.392 562.761 127.392C558.421 127.392 555.789 124.34 555.789 119.86C555.789 115.1 558.477 112.328 562.649 112.328C567.129 112.328 569.313 115.38 569.313 120.448H558.029C558.029 123.024 559.569 125.432 562.677 125.432ZM562.649 114.288C559.961 114.288 558.029 116.192 558.029 118.488H567.073C567.073 116.192 565.337 114.288 562.649 114.288ZM578.362 112.328C581.89 112.328 584.746 115.156 584.746 119.86C584.746 124.564 581.89 127.392 578.362 127.392C576.01 127.392 574.666 126.384 573.826 125.152H573.77V131.816H571.53V112.72H573.77V114.484H573.826C574.666 113.392 576.01 112.328 578.362 112.328ZM578.082 125.432C581.022 125.432 582.506 122.66 582.506 119.86C582.506 117.06 581.022 114.288 578.082 114.288C575.422 114.288 573.77 116.5 573.77 119.86C573.77 123.22 575.422 125.432 578.082 125.432ZM595.825 116.36C595.825 115.24 595.209 114.288 592.913 114.288C590.197 114.288 589.301 115.072 589.161 117.144H586.921C587.061 114.4 588.769 112.328 592.913 112.328C595.629 112.328 598.065 113.392 598.065 116.836V123.78C598.065 124.9 598.261 125.516 599.689 125.348V126.916C599.101 127.112 598.793 127.14 598.373 127.14C597.029 127.14 596.217 126.776 595.825 125.208H595.769C594.873 126.552 593.277 127.392 590.925 127.392C588.041 127.392 586.221 125.74 586.221 123.332C586.221 120.084 588.629 119.244 592.325 118.544C594.733 118.096 595.825 117.788 595.825 116.36ZM591.149 125.432C593.809 125.432 595.825 124.228 595.825 121.484V119.104C595.405 119.524 594.033 119.916 592.521 120.224C589.749 120.812 588.461 121.512 588.461 123.22C588.461 124.62 589.301 125.432 591.149 125.432ZM607.606 112.328C608.138 112.328 608.53 112.356 608.922 112.412V114.652H608.866C605.758 114.148 603.602 116.332 603.602 119.384V127H601.362V112.72H603.602V115.548H603.658C604.414 113.672 605.562 112.328 607.606 112.328ZM617.176 114.68H614.376V123.276C614.376 124.9 615.272 125.18 617.176 125.04V127C616.672 127.112 616.084 127.168 615.496 127.168C613.592 127.168 612.136 126.412 612.136 123.5V114.68H610.036V112.72H612.136V107.96H614.376V112.72H617.176V114.68ZM634.443 112.328C637.327 112.328 638.727 114.036 638.727 117.032V127H636.487V117.592C636.487 115.744 636.123 114.288 633.883 114.288C631.643 114.288 630.243 115.884 630.243 118.096V127H628.003V117.592C628.003 115.744 627.639 114.288 625.399 114.288C623.159 114.288 621.759 115.884 621.759 118.096V127H619.519V112.72H621.759V114.428H621.815C622.571 113.42 623.803 112.328 625.959 112.328C628.003 112.328 629.179 113.196 629.767 114.792H629.823C630.803 113.448 632.287 112.328 634.443 112.328ZM647.798 125.432C650.654 125.432 651.718 123.584 651.97 122.604H654.21C653.482 125.264 651.438 127.392 647.882 127.392C643.542 127.392 640.91 124.34 640.91 119.86C640.91 115.1 643.598 112.328 647.77 112.328C652.25 112.328 654.434 115.38 654.434 120.448H643.15C643.15 123.024 644.69 125.432 647.798 125.432ZM647.77 114.288C645.082 114.288 643.15 116.192 643.15 118.488H652.194C652.194 116.192 650.458 114.288 647.77 114.288ZM663.651 112.328C666.255 112.328 668.439 113.756 668.439 117.032V127H666.199V117.592C666.199 115.744 665.331 114.288 663.091 114.288C660.571 114.288 658.891 115.884 658.891 118.096V127H656.651V112.72H658.891V114.428H658.947C659.703 113.42 661.215 112.328 663.651 112.328ZM677.387 114.68H674.587V123.276C674.587 124.9 675.483 125.18 677.387 125.04V127C676.883 127.112 676.295 127.168 675.707 127.168C673.803 127.168 672.347 126.412 672.347 123.5V114.68H670.247V112.72H672.347V107.96H674.587V112.72H677.387V114.68ZM691.355 108.94C689.451 108.8 688.639 109.08 688.639 110.704V112.72H691.355V114.68H688.639V127H686.399V114.68H684.411V112.72H686.399V110.48C686.399 107.568 687.855 106.812 689.759 106.812C690.263 106.812 690.851 106.868 691.355 106.98V108.94ZM699.316 127.392C694.948 127.392 692.316 124.312 692.316 119.86C692.316 115.408 694.948 112.328 699.316 112.328C703.656 112.328 706.288 115.408 706.288 119.86C706.288 124.312 703.656 127.392 699.316 127.392ZM699.316 125.432C702.508 125.432 704.048 122.912 704.048 119.86C704.048 116.808 702.508 114.288 699.316 114.288C696.096 114.288 694.556 116.808 694.556 119.86C694.556 122.912 696.096 125.432 699.316 125.432ZM718.014 112.72H720.254V127H718.014V125.292H717.958C717.202 126.3 715.69 127.392 713.254 127.392C710.65 127.392 708.466 125.964 708.466 122.688V112.72H710.706V122.128C710.706 123.976 711.574 125.432 713.814 125.432C716.334 125.432 718.014 123.836 718.014 121.624V112.72ZM730.343 112.328C732.947 112.328 735.131 113.756 735.131 117.032V127H732.891V117.592C732.891 115.744 732.023 114.288 729.783 114.288C727.263 114.288 725.583 115.884 725.583 118.096V127H723.343V112.72H725.583V114.428H725.639C726.395 113.42 727.907 112.328 730.343 112.328ZM748.3 106.98H750.54V127H748.3V125.236H748.244C747.404 126.328 746.06 127.392 743.764 127.392C740.18 127.392 737.324 124.564 737.324 119.86C737.324 115.156 740.18 112.328 743.764 112.328C746.06 112.328 747.404 113.336 748.244 114.568H748.3V106.98ZM743.988 125.432C746.648 125.432 748.3 123.22 748.3 119.86C748.3 116.5 746.648 114.288 743.988 114.288C741.048 114.288 739.564 117.06 739.564 119.86C739.564 122.66 741.048 125.432 743.988 125.432ZM769.382 112.72H771.622V126.216C771.622 130.024 769.214 131.956 765.294 131.956C761.374 131.956 759.05 129.884 758.826 127.448H761.066C761.346 128.904 762.522 129.996 765.182 129.996C767.842 129.996 769.382 128.848 769.382 126.188V124.032H769.326C768.486 125.264 767.142 126.272 764.79 126.272C761.262 126.272 758.406 124.004 758.406 119.3C758.406 114.596 761.262 112.328 764.79 112.328C767.142 112.328 768.486 113.392 769.326 114.484H769.382V112.72ZM765.07 124.312C767.73 124.312 769.382 122.66 769.382 119.3C769.382 115.94 767.73 114.288 765.07 114.288C762.13 114.288 760.646 116.5 760.646 119.3C760.646 122.1 762.13 124.312 765.07 124.312ZM774.778 106.98H777.018V127H774.778V106.98ZM786.378 127.392C782.01 127.392 779.378 124.312 779.378 119.86C779.378 115.408 782.01 112.328 786.378 112.328C790.718 112.328 793.35 115.408 793.35 119.86C793.35 124.312 790.718 127.392 786.378 127.392ZM786.378 125.432C789.57 125.432 791.11 122.912 791.11 119.86C791.11 116.808 789.57 114.288 786.378 114.288C783.158 114.288 781.618 116.808 781.618 119.86C781.618 122.912 783.158 125.432 786.378 125.432ZM802.388 112.328C805.972 112.328 808.828 115.156 808.828 119.86C808.828 124.564 805.972 127.392 802.388 127.392C800.092 127.392 798.748 126.328 797.908 125.236H797.852V127H795.612V106.98H797.852V114.568H797.908C798.748 113.336 800.092 112.328 802.388 112.328ZM802.164 125.432C805.104 125.432 806.588 122.66 806.588 119.86C806.588 117.06 805.104 114.288 802.164 114.288C799.504 114.288 797.852 116.5 797.852 119.86C797.852 123.22 799.504 125.432 802.164 125.432ZM819.825 116.36C819.825 115.24 819.209 114.288 816.913 114.288C814.197 114.288 813.301 115.072 813.161 117.144H810.921C811.061 114.4 812.769 112.328 816.913 112.328C819.629 112.328 822.065 113.392 822.065 116.836V123.78C822.065 124.9 822.261 125.516 823.689 125.348V126.916C823.101 127.112 822.793 127.14 822.373 127.14C821.029 127.14 820.217 126.776 819.825 125.208H819.769C818.873 126.552 817.277 127.392 814.925 127.392C812.041 127.392 810.221 125.74 810.221 123.332C810.221 120.084 812.629 119.244 816.325 118.544C818.733 118.096 819.825 117.788 819.825 116.36ZM815.149 125.432C817.809 125.432 819.825 124.228 819.825 121.484V119.104C819.405 119.524 818.033 119.916 816.521 120.224C813.749 120.812 812.461 121.512 812.461 123.22C812.461 124.62 813.301 125.432 815.149 125.432ZM825.446 106.98H827.686V127H825.446V106.98ZM842.26 118.516C844.808 119.132 847.692 119.552 847.692 123.08C847.692 125.684 845.312 127.392 842.064 127.392C837.696 127.392 835.68 125.32 835.54 122.24H837.78C837.92 123.836 838.48 125.432 842.064 125.432C844.5 125.432 845.452 124.172 845.452 123.22C845.452 121.148 843.576 121.036 841.532 120.532C839.348 120 836.1 119.748 836.1 116.388C836.1 114.148 838.088 112.328 841.448 112.328C845.004 112.328 846.908 114.344 847.132 116.808H844.892C844.668 115.716 844.136 114.288 841.448 114.288C839.432 114.288 838.34 115.1 838.34 116.22C838.34 117.9 840.272 118.04 842.26 118.516ZM856.694 112.328C860.222 112.328 863.078 115.156 863.078 119.86C863.078 124.564 860.222 127.392 856.694 127.392C854.342 127.392 852.998 126.384 852.158 125.152H852.102V131.816H849.862V112.72H852.102V114.484H852.158C852.998 113.392 854.342 112.328 856.694 112.328ZM856.414 125.432C859.354 125.432 860.838 122.66 860.838 119.86C860.838 117.06 859.354 114.288 856.414 114.288C853.754 114.288 852.102 116.5 852.102 119.86C852.102 123.22 853.754 125.432 856.414 125.432ZM871.497 125.432C874.353 125.432 875.417 123.584 875.669 122.604H877.909C877.181 125.264 875.137 127.392 871.581 127.392C867.241 127.392 864.609 124.34 864.609 119.86C864.609 115.1 867.297 112.328 871.469 112.328C875.949 112.328 878.133 115.38 878.133 120.448H866.849C866.849 123.024 868.389 125.432 871.497 125.432ZM871.469 114.288C868.781 114.288 866.849 116.192 866.849 118.488H875.893C875.893 116.192 874.157 114.288 871.469 114.288ZM887.351 112.328C889.955 112.328 892.139 113.756 892.139 117.032V127H889.899V117.592C889.899 115.744 889.031 114.288 886.791 114.288C884.271 114.288 882.591 115.884 882.591 118.096V127H880.351V112.72H882.591V114.428H882.647C883.403 113.42 884.915 112.328 887.351 112.328ZM905.308 106.98H907.548V127H905.308V125.236H905.252C904.412 126.328 903.068 127.392 900.772 127.392C897.188 127.392 894.332 124.564 894.332 119.86C894.332 115.156 897.188 112.328 900.772 112.328C903.068 112.328 904.412 113.336 905.252 114.568H905.308V106.98ZM900.996 125.432C903.656 125.432 905.308 123.22 905.308 119.86C905.308 116.5 903.656 114.288 900.996 114.288C898.056 114.288 896.572 117.06 896.572 119.86C896.572 122.66 898.056 125.432 900.996 125.432ZM911.747 109.948C911.131 109.948 910.347 109.472 910.347 108.604C910.347 107.736 911.131 107.26 911.747 107.26C912.391 107.26 913.147 107.736 913.147 108.604C913.147 109.472 912.391 109.948 911.747 109.948ZM910.627 112.72H912.867V127H910.627V112.72ZM923.226 112.328C925.83 112.328 928.014 113.756 928.014 117.032V127H925.774V117.592C925.774 115.744 924.906 114.288 922.666 114.288C920.146 114.288 918.466 115.884 918.466 118.096V127H916.226V112.72H918.466V114.428H918.522C919.278 113.42 920.79 112.328 923.226 112.328ZM941.183 112.72H943.423V126.216C943.423 130.024 941.015 131.956 937.095 131.956C933.175 131.956 930.851 129.884 930.627 127.448H932.867C933.147 128.904 934.323 129.996 936.983 129.996C939.643 129.996 941.183 128.848 941.183 126.188V124.032H941.127C940.287 125.264 938.943 126.272 936.591 126.272C933.063 126.272 930.207 124.004 930.207 119.3C930.207 114.596 933.063 112.328 936.591 112.328C938.943 112.328 940.287 113.392 941.127 114.484H941.183V112.72ZM936.871 124.312C939.531 124.312 941.183 122.66 941.183 119.3C941.183 115.94 939.531 114.288 936.871 114.288C933.931 114.288 932.447 116.5 932.447 119.3C932.447 122.1 933.931 124.312 936.871 124.312ZM958.289 127.392C953.921 127.392 951.289 124.312 951.289 119.86C951.289 115.408 953.921 112.328 958.289 112.328C962.629 112.328 965.261 115.408 965.261 119.86C965.261 124.312 962.629 127.392 958.289 127.392ZM958.289 125.432C961.481 125.432 963.021 122.912 963.021 119.86C963.021 116.808 961.481 114.288 958.289 114.288C955.069 114.288 953.529 116.808 953.529 119.86C953.529 122.912 955.069 125.432 958.289 125.432ZM974.522 112.328C977.126 112.328 979.31 113.756 979.31 117.032V127H977.07V117.592C977.07 115.744 976.202 114.288 973.962 114.288C971.442 114.288 969.762 115.884 969.762 118.096V127H967.522V112.72H969.762V114.428H969.818C970.574 113.42 972.086 112.328 974.522 112.328ZM994.697 112.328C998.281 112.328 1001.14 115.156 1001.14 119.86C1001.14 124.564 998.281 127.392 994.697 127.392C992.401 127.392 991.057 126.328 990.217 125.236H990.161V127H987.921V106.98H990.161V114.568H990.217C991.057 113.336 992.401 112.328 994.697 112.328ZM994.473 125.432C997.413 125.432 998.897 122.66 998.897 119.86C998.897 117.06 997.413 114.288 994.473 114.288C991.813 114.288 990.161 116.5 990.161 119.86C990.161 123.22 991.813 125.432 994.473 125.432ZM1003.48 106.98H1005.72V127H1003.48V106.98ZM1015.08 127.392C1010.71 127.392 1008.08 124.312 1008.08 119.86C1008.08 115.408 1010.71 112.328 1015.08 112.328C1019.42 112.328 1022.05 115.408 1022.05 119.86C1022.05 124.312 1019.42 127.392 1015.08 127.392ZM1015.08 125.432C1018.27 125.432 1019.81 122.912 1019.81 119.86C1019.81 116.808 1018.27 114.288 1015.08 114.288C1011.86 114.288 1010.32 116.808 1010.32 119.86C1010.32 122.912 1011.86 125.432 1015.08 125.432ZM1034.45 117.872C1034.34 116.304 1033.28 114.288 1030.42 114.288C1027.03 114.288 1025.74 117.172 1025.74 119.86C1025.74 122.548 1027.03 125.432 1030.42 125.432C1033.3 125.432 1034.34 123.444 1034.45 121.736H1036.69C1036.5 124.984 1033.95 127.392 1030.42 127.392C1026.25 127.392 1023.5 124.34 1023.5 119.86C1023.5 115.38 1026.25 112.328 1030.42 112.328C1033.95 112.328 1036.36 114.68 1036.69 117.872H1034.45ZM1038.83 106.98H1041.07V118.852L1047.63 112.72H1050.43L1044.85 118.012L1051.01 127H1048.35L1043.29 119.328L1041.07 121.372V127H1038.83V106.98ZM1061.82 117.872C1061.71 116.304 1060.65 114.288 1057.79 114.288C1054.4 114.288 1053.11 117.172 1053.11 119.86C1053.11 122.548 1054.4 125.432 1057.79 125.432C1060.67 125.432 1061.71 123.444 1061.82 121.736H1064.06C1063.87 124.984 1061.32 127.392 1057.79 127.392C1053.62 127.392 1050.87 124.34 1050.87 119.86C1050.87 115.38 1053.62 112.328 1057.79 112.328C1061.32 112.328 1063.73 114.68 1064.06 117.872H1061.82ZM1073.21 112.328C1075.81 112.328 1077.99 113.756 1077.99 117.032V127H1075.75V117.592C1075.75 115.744 1074.89 114.288 1072.65 114.288C1070.13 114.288 1068.45 115.884 1068.45 118.096V127H1066.21V106.98H1068.45V114.428H1068.5C1069.26 113.42 1070.77 112.328 1073.21 112.328ZM1089.73 116.36C1089.73 115.24 1089.12 114.288 1086.82 114.288C1084.11 114.288 1083.21 115.072 1083.07 117.144H1080.83C1080.97 114.4 1082.68 112.328 1086.82 112.328C1089.54 112.328 1091.97 113.392 1091.97 116.836V123.78C1091.97 124.9 1092.17 125.516 1093.6 125.348V126.916C1093.01 127.112 1092.7 127.14 1092.28 127.14C1090.94 127.14 1090.13 126.776 1089.73 125.208H1089.68C1088.78 126.552 1087.19 127.392 1084.83 127.392C1081.95 127.392 1080.13 125.74 1080.13 123.332C1080.13 120.084 1082.54 119.244 1086.23 118.544C1088.64 118.096 1089.73 117.788 1089.73 116.36ZM1085.06 125.432C1087.72 125.432 1089.73 124.228 1089.73 121.484V119.104C1089.31 119.524 1087.94 119.916 1086.43 120.224C1083.66 120.812 1082.37 121.512 1082.37 123.22C1082.37 124.62 1083.21 125.432 1085.06 125.432ZM1096.67 109.948C1096.06 109.948 1095.27 109.472 1095.27 108.604C1095.27 107.736 1096.06 107.26 1096.67 107.26C1097.32 107.26 1098.07 107.736 1098.07 108.604C1098.07 109.472 1097.32 109.948 1096.67 109.948ZM1095.55 112.72H1097.79V127H1095.55V112.72ZM1108.15 112.328C1110.76 112.328 1112.94 113.756 1112.94 117.032V127H1110.7V117.592C1110.7 115.744 1109.83 114.288 1107.59 114.288C1105.07 114.288 1103.39 115.884 1103.39 118.096V127H1101.15V112.72H1103.39V114.428H1103.45C1104.2 113.42 1105.72 112.328 1108.15 112.328ZM171.395 168.516C173.943 169.132 176.827 169.552 176.827 173.08C176.827 175.684 174.447 177.392 171.199 177.392C166.831 177.392 164.815 175.32 164.675 172.24H166.915C167.055 173.836 167.615 175.432 171.199 175.432C173.635 175.432 174.587 174.172 174.587 173.22C174.587 171.148 172.711 171.036 170.667 170.532C168.483 170 165.235 169.748 165.235 166.388C165.235 164.148 167.223 162.328 170.583 162.328C174.139 162.328 176.043 164.344 176.267 166.808H174.027C173.803 165.716 173.271 164.288 170.583 164.288C168.567 164.288 167.475 165.1 167.475 166.22C167.475 167.9 169.407 168.04 171.395 168.516ZM185.458 177.392C181.09 177.392 178.458 174.312 178.458 169.86C178.458 165.408 181.09 162.328 185.458 162.328C189.798 162.328 192.43 165.408 192.43 169.86C192.43 174.312 189.798 177.392 185.458 177.392ZM185.458 175.432C188.65 175.432 190.19 172.912 190.19 169.86C190.19 166.808 188.65 164.288 185.458 164.288C182.238 164.288 180.698 166.808 180.698 169.86C180.698 172.912 182.238 175.432 185.458 175.432ZM194.776 156.98H197.016V177H194.776V156.98ZM209.652 162.72H211.892V177H209.652V175.292H209.596C208.84 176.3 207.328 177.392 204.892 177.392C202.288 177.392 200.104 175.964 200.104 172.688V162.72H202.344V172.128C202.344 173.976 203.212 175.432 205.452 175.432C207.972 175.432 209.652 173.836 209.652 171.624V162.72ZM221.197 164.68H218.397V173.276C218.397 174.9 219.293 175.18 221.197 175.04V177C220.693 177.112 220.105 177.168 219.517 177.168C217.613 177.168 216.157 176.412 216.157 173.5V164.68H214.057V162.72H216.157V157.96H218.397V162.72H221.197V164.68ZM224.94 159.948C224.324 159.948 223.54 159.472 223.54 158.604C223.54 157.736 224.324 157.26 224.94 157.26C225.584 157.26 226.34 157.736 226.34 158.604C226.34 159.472 225.584 159.948 224.94 159.948ZM223.82 162.72H226.06V177H223.82V162.72ZM235.607 177.392C231.239 177.392 228.607 174.312 228.607 169.86C228.607 165.408 231.239 162.328 235.607 162.328C239.947 162.328 242.579 165.408 242.579 169.86C242.579 174.312 239.947 177.392 235.607 177.392ZM235.607 175.432C238.799 175.432 240.339 172.912 240.339 169.86C240.339 166.808 238.799 164.288 235.607 164.288C232.387 164.288 230.847 166.808 230.847 169.86C230.847 172.912 232.387 175.432 235.607 175.432ZM251.841 162.328C254.445 162.328 256.629 163.756 256.629 167.032V177H254.389V167.592C254.389 165.744 253.521 164.288 251.281 164.288C248.761 164.288 247.081 165.884 247.081 168.096V177H244.841V162.72H247.081V164.428H247.137C247.893 163.42 249.405 162.328 251.841 162.328ZM265.43 168.516C267.978 169.132 270.862 169.552 270.862 173.08C270.862 175.684 268.482 177.392 265.234 177.392C260.866 177.392 258.85 175.32 258.71 172.24H260.95C261.09 173.836 261.65 175.432 265.234 175.432C267.67 175.432 268.622 174.172 268.622 173.22C268.622 171.148 266.746 171.036 264.702 170.532C262.518 170 259.27 169.748 259.27 166.388C259.27 164.148 261.258 162.328 264.618 162.328C268.174 162.328 270.078 164.344 270.302 166.808H268.062C267.838 165.716 267.306 164.288 264.618 164.288C262.602 164.288 261.51 165.1 261.51 166.22C261.51 167.9 263.442 168.04 265.43 168.516ZM287.374 166.36C287.374 165.24 286.758 164.288 284.462 164.288C281.746 164.288 280.85 165.072 280.71 167.144H278.47C278.61 164.4 280.318 162.328 284.462 162.328C287.178 162.328 289.614 163.392 289.614 166.836V173.78C289.614 174.9 289.81 175.516 291.238 175.348V176.916C290.65 177.112 290.342 177.14 289.922 177.14C288.578 177.14 287.766 176.776 287.374 175.208H287.318C286.422 176.552 284.826 177.392 282.474 177.392C279.59 177.392 277.77 175.74 277.77 173.332C277.77 170.084 280.178 169.244 283.874 168.544C286.282 168.096 287.374 167.788 287.374 166.36ZM282.698 175.432C285.358 175.432 287.374 174.228 287.374 171.484V169.104C286.954 169.524 285.582 169.916 284.07 170.224C281.298 170.812 280.01 171.512 280.01 173.22C280.01 174.62 280.85 175.432 282.698 175.432ZM303.047 167.872C302.935 166.304 301.871 164.288 299.015 164.288C295.627 164.288 294.339 167.172 294.339 169.86C294.339 172.548 295.627 175.432 299.015 175.432C301.899 175.432 302.935 173.444 303.047 171.736H305.287C305.091 174.984 302.543 177.392 299.015 177.392C294.843 177.392 292.099 174.34 292.099 169.86C292.099 165.38 294.843 162.328 299.015 162.328C302.543 162.328 304.951 164.68 305.287 167.872H303.047ZM317.567 167.872C317.455 166.304 316.391 164.288 313.535 164.288C310.147 164.288 308.859 167.172 308.859 169.86C308.859 172.548 310.147 175.432 313.535 175.432C316.419 175.432 317.455 173.444 317.567 171.736H319.807C319.611 174.984 317.063 177.392 313.535 177.392C309.363 177.392 306.619 174.34 306.619 169.86C306.619 165.38 309.363 162.328 313.535 162.328C317.063 162.328 319.471 164.68 319.807 167.872H317.567ZM328.026 175.432C330.882 175.432 331.946 173.584 332.198 172.604H334.438C333.71 175.264 331.666 177.392 328.11 177.392C323.77 177.392 321.138 174.34 321.138 169.86C321.138 165.1 323.826 162.328 327.998 162.328C332.478 162.328 334.662 165.38 334.662 170.448H323.378C323.378 173.024 324.918 175.432 328.026 175.432ZM327.998 164.288C325.31 164.288 323.378 166.192 323.378 168.488H332.422C332.422 166.192 330.686 164.288 327.998 164.288ZM336.964 156.98H339.204V177H336.964V156.98ZM348.452 175.432C351.308 175.432 352.372 173.584 352.624 172.604H354.864C354.136 175.264 352.092 177.392 348.536 177.392C344.196 177.392 341.564 174.34 341.564 169.86C341.564 165.1 344.252 162.328 348.424 162.328C352.904 162.328 355.088 165.38 355.088 170.448H343.804C343.804 173.024 345.344 175.432 348.452 175.432ZM348.424 164.288C345.736 164.288 343.804 166.192 343.804 168.488H352.848C352.848 166.192 351.112 164.288 348.424 164.288ZM363.55 162.328C364.082 162.328 364.474 162.356 364.866 162.412V164.652H364.81C361.702 164.148 359.546 166.332 359.546 169.384V177H357.306V162.72H359.546V165.548H359.602C360.358 163.672 361.506 162.328 363.55 162.328ZM375.092 166.36C375.092 165.24 374.476 164.288 372.18 164.288C369.464 164.288 368.568 165.072 368.428 167.144H366.188C366.328 164.4 368.036 162.328 372.18 162.328C374.896 162.328 377.332 163.392 377.332 166.836V173.78C377.332 174.9 377.528 175.516 378.956 175.348V176.916C378.368 177.112 378.06 177.14 377.64 177.14C376.296 177.14 375.484 176.776 375.092 175.208H375.036C374.14 176.552 372.544 177.392 370.192 177.392C367.308 177.392 365.488 175.74 365.488 173.332C365.488 170.084 367.896 169.244 371.592 168.544C374 168.096 375.092 167.788 375.092 166.36ZM370.416 175.432C373.076 175.432 375.092 174.228 375.092 171.484V169.104C374.672 169.524 373.3 169.916 371.788 170.224C369.016 170.812 367.728 171.512 367.728 173.22C367.728 174.62 368.568 175.432 370.416 175.432ZM386.572 164.68H383.772V173.276C383.772 174.9 384.668 175.18 386.572 175.04V177C386.068 177.112 385.48 177.168 384.892 177.168C382.988 177.168 381.532 176.412 381.532 173.5V164.68H379.432V162.72H381.532V157.96H383.772V162.72H386.572V164.68ZM394.854 175.432C397.71 175.432 398.774 173.584 399.026 172.604H401.266C400.538 175.264 398.494 177.392 394.938 177.392C390.598 177.392 387.966 174.34 387.966 169.86C387.966 165.1 390.654 162.328 394.826 162.328C399.306 162.328 401.49 165.38 401.49 170.448H390.206C390.206 173.024 391.746 175.432 394.854 175.432ZM394.826 164.288C392.138 164.288 390.206 166.192 390.206 168.488H399.25C399.25 166.192 397.514 164.288 394.826 164.288ZM413.872 156.98H416.112V177H413.872V175.236H413.816C412.976 176.328 411.632 177.392 409.336 177.392C405.752 177.392 402.896 174.564 402.896 169.86C402.896 165.156 405.752 162.328 409.336 162.328C411.632 162.328 412.976 163.336 413.816 164.568H413.872V156.98ZM409.56 175.432C412.22 175.432 413.872 173.22 413.872 169.86C413.872 166.5 412.22 164.288 409.56 164.288C406.62 164.288 405.136 167.06 405.136 169.86C405.136 172.66 406.62 175.432 409.56 175.432ZM430.81 158.94C428.906 158.8 428.094 159.08 428.094 160.704V162.72H430.81V164.68H428.094V177H425.854V164.68H423.866V162.72H425.854V160.48C425.854 157.568 427.31 156.812 429.214 156.812C429.718 156.812 430.306 156.868 430.81 156.98V158.94ZM439.237 162.328C439.769 162.328 440.161 162.356 440.553 162.412V164.652H440.497C437.389 164.148 435.233 166.332 435.233 169.384V177H432.993V162.72H435.233V165.548H435.289C436.045 163.672 437.193 162.328 439.237 162.328ZM448.232 177.392C443.864 177.392 441.232 174.312 441.232 169.86C441.232 165.408 443.864 162.328 448.232 162.328C452.572 162.328 455.204 165.408 455.204 169.86C455.204 174.312 452.572 177.392 448.232 177.392ZM448.232 175.432C451.424 175.432 452.964 172.912 452.964 169.86C452.964 166.808 451.424 164.288 448.232 164.288C445.012 164.288 443.472 166.808 443.472 169.86C443.472 172.912 445.012 175.432 448.232 175.432ZM472.39 162.328C475.274 162.328 476.674 164.036 476.674 167.032V177H474.434V167.592C474.434 165.744 474.07 164.288 471.83 164.288C469.59 164.288 468.19 165.884 468.19 168.096V177H465.95V167.592C465.95 165.744 465.586 164.288 463.346 164.288C461.106 164.288 459.706 165.884 459.706 168.096V177H457.466V162.72H459.706V164.428H459.762C460.518 163.42 461.75 162.328 463.906 162.328C465.95 162.328 467.126 163.196 467.714 164.792H467.77C468.75 163.448 470.234 162.328 472.39 162.328ZM496.306 177H493.786V172.464H484.462V170.224L493.786 157.652H496.306V170.224H498.966V172.464H496.306V177ZM493.786 161.152L487.038 170.224H493.786V161.152ZM502.366 177.196C501.498 177.196 500.826 176.608 500.826 175.656C500.826 174.732 501.498 174.116 502.366 174.116C503.234 174.116 503.906 174.732 503.906 175.656C503.906 176.608 503.234 177.196 502.366 177.196ZM513.545 164.008C517.185 164.008 519.733 166.808 519.733 170.392C519.733 174.564 516.681 177.392 512.789 177.392C508.365 177.392 505.901 174.536 505.789 171.428H508.309C508.533 173.304 509.653 175.152 512.677 175.152C515.337 175.152 517.213 173.5 517.213 170.392C517.213 167.48 515.449 166.248 512.957 166.248C511.221 166.248 509.709 166.808 508.729 168.068H506.041L508.057 157.652H518.697V159.892H510.101L508.953 165.744V165.8C509.933 164.68 511.389 164.008 513.545 164.008ZM534.543 162.328C538.127 162.328 540.983 165.156 540.983 169.86C540.983 174.564 538.127 177.392 534.543 177.392C532.247 177.392 530.903 176.328 530.063 175.236H530.007V177H527.767V156.98H530.007V164.568H530.063C530.903 163.336 532.247 162.328 534.543 162.328ZM534.319 175.432C537.259 175.432 538.743 172.66 538.743 169.86C538.743 167.06 537.259 164.288 534.319 164.288C531.659 164.288 530.007 166.5 530.007 169.86C530.007 173.22 531.659 175.432 534.319 175.432ZM544.643 159.948C544.027 159.948 543.243 159.472 543.243 158.604C543.243 157.736 544.027 157.26 544.643 157.26C545.287 157.26 546.043 157.736 546.043 158.604C546.043 159.472 545.287 159.948 544.643 159.948ZM543.523 162.72H545.763V177H543.523V162.72ZM548.933 156.98H551.173V177H548.933V156.98ZM554.155 156.98H556.395V177H554.155V156.98ZM560.694 159.948C560.078 159.948 559.294 159.472 559.294 158.604C559.294 157.736 560.078 157.26 560.694 157.26C561.338 157.26 562.094 157.736 562.094 158.604C562.094 159.472 561.338 159.948 560.694 159.948ZM559.574 162.72H561.814V177H559.574V162.72ZM571.361 177.392C566.993 177.392 564.361 174.312 564.361 169.86C564.361 165.408 566.993 162.328 571.361 162.328C575.701 162.328 578.333 165.408 578.333 169.86C578.333 174.312 575.701 177.392 571.361 177.392ZM571.361 175.432C574.553 175.432 576.093 172.912 576.093 169.86C576.093 166.808 574.553 164.288 571.361 164.288C568.141 164.288 566.601 166.808 566.601 169.86C566.601 172.912 568.141 175.432 571.361 175.432ZM587.595 162.328C590.199 162.328 592.383 163.756 592.383 167.032V177H590.143V167.592C590.143 165.744 589.275 164.288 587.035 164.288C584.515 164.288 582.835 165.884 582.835 168.096V177H580.595V162.72H582.835V164.428H582.891C583.647 163.42 585.159 162.328 587.595 162.328ZM607.209 164.68H604.409V173.276C604.409 174.9 605.305 175.18 607.209 175.04V177C606.705 177.112 606.117 177.168 605.529 177.168C603.625 177.168 602.169 176.412 602.169 173.5V164.68H600.069V162.72H602.169V157.96H604.409V162.72H607.209V164.68ZM615.603 177.392C611.235 177.392 608.603 174.312 608.603 169.86C608.603 165.408 611.235 162.328 615.603 162.328C619.943 162.328 622.575 165.408 622.575 169.86C622.575 174.312 619.943 177.392 615.603 177.392ZM615.603 175.432C618.795 175.432 620.335 172.912 620.335 169.86C620.335 166.808 618.795 164.288 615.603 164.288C612.383 164.288 610.843 166.808 610.843 169.86C610.843 172.912 612.383 175.432 615.603 175.432ZM632.654 167.256C633.606 165.436 635.566 164.372 637.834 164.372C641.53 164.372 644.106 166.92 644.106 170.756C644.106 174.34 641.586 177.392 637.386 177.392C632.094 177.392 630.134 173.472 630.134 167.312C630.134 160.872 632.654 157.26 637.47 157.26C641.082 157.26 643.322 159.724 643.602 162.552H641.082C640.83 160.676 639.654 159.5 637.47 159.5C633.466 159.5 632.71 163.308 632.654 167.2V167.256ZM637.386 175.152C640.046 175.152 641.586 173.5 641.586 170.924C641.586 168.152 639.906 166.612 637.61 166.612C634.81 166.612 632.934 168.376 632.934 170.98C632.934 173.472 634.586 175.152 637.386 175.152ZM647.698 177.196C646.83 177.196 646.158 176.608 646.158 175.656C646.158 174.732 646.83 174.116 647.698 174.116C648.566 174.116 649.238 174.732 649.238 175.656C649.238 176.608 648.566 177.196 647.698 177.196ZM653.381 167.256C654.333 165.436 656.293 164.372 658.561 164.372C662.257 164.372 664.833 166.92 664.833 170.756C664.833 174.34 662.313 177.392 658.113 177.392C652.821 177.392 650.861 173.472 650.861 167.312C650.861 160.872 653.381 157.26 658.197 157.26C661.809 157.26 664.049 159.724 664.329 162.552H661.809C661.557 160.676 660.381 159.5 658.197 159.5C654.193 159.5 653.437 163.308 653.381 167.2V167.256ZM658.113 175.152C660.773 175.152 662.313 173.5 662.313 170.924C662.313 168.152 660.633 166.612 658.337 166.612C655.537 166.612 653.661 168.376 653.661 170.98C653.661 173.472 655.313 175.152 658.113 175.152ZM679.847 162.328C683.431 162.328 686.287 165.156 686.287 169.86C686.287 174.564 683.431 177.392 679.847 177.392C677.551 177.392 676.207 176.328 675.367 175.236H675.311V177H673.071V156.98H675.311V164.568H675.367C676.207 163.336 677.551 162.328 679.847 162.328ZM679.623 175.432C682.563 175.432 684.047 172.66 684.047 169.86C684.047 167.06 682.563 164.288 679.623 164.288C676.963 164.288 675.311 166.5 675.311 169.86C675.311 173.22 676.963 175.432 679.623 175.432ZM689.948 159.948C689.332 159.948 688.548 159.472 688.548 158.604C688.548 157.736 689.332 157.26 689.948 157.26C690.592 157.26 691.348 157.736 691.348 158.604C691.348 159.472 690.592 159.948 689.948 159.948ZM688.828 162.72H691.068V177H688.828V162.72ZM694.237 156.98H696.477V177H694.237V156.98ZM699.46 156.98H701.7V177H699.46V156.98ZM705.999 159.948C705.383 159.948 704.599 159.472 704.599 158.604C704.599 157.736 705.383 157.26 705.999 157.26C706.643 157.26 707.399 157.736 707.399 158.604C707.399 159.472 706.643 159.948 705.999 159.948ZM704.879 162.72H707.119V177H704.879V162.72ZM716.666 177.392C712.298 177.392 709.666 174.312 709.666 169.86C709.666 165.408 712.298 162.328 716.666 162.328C721.006 162.328 723.638 165.408 723.638 169.86C723.638 174.312 721.006 177.392 716.666 177.392ZM716.666 175.432C719.858 175.432 721.398 172.912 721.398 169.86C721.398 166.808 719.858 164.288 716.666 164.288C713.446 164.288 711.906 166.808 711.906 169.86C711.906 172.912 713.446 175.432 716.666 175.432ZM732.899 162.328C735.503 162.328 737.687 163.756 737.687 167.032V177H735.447V167.592C735.447 165.744 734.579 164.288 732.339 164.288C729.819 164.288 728.139 165.884 728.139 168.096V177H725.899V162.72H728.139V164.428H728.195C728.951 163.42 730.463 162.328 732.899 162.328ZM747.698 159.948C747.082 159.948 746.298 159.472 746.298 158.604C746.298 157.736 747.082 157.26 747.698 157.26C748.342 157.26 749.098 157.736 749.098 158.604C749.098 159.472 748.342 159.948 747.698 159.948ZM746.578 162.72H748.818V177H746.578V162.72ZM759.177 162.328C761.781 162.328 763.965 163.756 763.965 167.032V177H761.725V167.592C761.725 165.744 760.857 164.288 758.617 164.288C756.097 164.288 754.417 165.884 754.417 168.096V177H752.177V162.72H754.417V164.428H754.473C755.229 163.42 756.741 162.328 759.177 162.328ZM774.983 164.428H772.463C772.463 160.424 774.647 157.26 779.435 157.26C782.739 157.26 785.595 159.36 785.595 163.056C785.595 169.692 776.159 170.084 774.955 174.704V174.76H785.315V177H771.903C771.903 173.5 774.115 170.756 777.671 168.684C781.283 166.584 783.075 165.912 783.075 163.084C783.075 161.46 782.347 159.5 779.379 159.5C775.991 159.5 774.983 161.768 774.983 164.428ZM795.274 177.392C789.982 177.392 787.826 172.828 787.826 167.34C787.826 161.852 789.982 157.26 795.274 157.26C800.566 157.26 802.722 161.852 802.722 167.34C802.722 172.828 800.566 177.392 795.274 177.392ZM795.274 175.152C798.97 175.152 800.202 171.456 800.202 167.34C800.202 163.224 798.97 159.5 795.274 159.5C791.578 159.5 790.346 163.224 790.346 167.34C790.346 171.456 791.578 175.152 795.274 175.152ZM807.768 164.428H805.248C805.248 160.424 807.432 157.26 812.22 157.26C815.524 157.26 818.38 159.36 818.38 163.056C818.38 169.692 808.944 170.084 807.74 174.704V174.76H818.1V177H804.688C804.688 173.5 806.9 170.756 810.456 168.684C814.068 166.584 815.86 165.912 815.86 163.084C815.86 161.46 815.132 159.5 812.164 159.5C808.776 159.5 807.768 161.768 807.768 164.428ZM824.923 157.652H826.883V177H824.363V162.524C823.187 163.644 822.067 163.644 820.331 163.644V161.824C823.719 161.824 824.643 160.172 824.923 157.652ZM831.831 177.196C830.963 177.196 830.291 176.608 830.291 175.656C830.291 174.732 830.963 174.116 831.831 174.116C832.699 174.116 833.371 174.732 833.371 175.656C833.371 176.608 832.699 177.196 831.831 177.196ZM851.101 162.02C851.101 164.484 849.645 165.604 847.993 166.164V166.22C850.093 166.584 851.885 168.18 851.885 171.176C851.885 174.872 849.253 177 845.109 177H836.485V156.98H844.549C848.637 156.98 851.101 158.912 851.101 162.02ZM839.005 165.352H844.941C847.797 165.352 848.581 164.12 848.581 162.3C848.581 160.48 847.517 159.22 845.221 159.22H839.005V165.352ZM839.005 167.592V174.76H845.361C848.581 174.76 849.365 173.052 849.365 171.176C849.365 169.02 848.021 167.592 845.921 167.592H839.005ZM866.265 162.72L860.161 178.176C859.545 179.716 858.817 181.816 856.185 181.816C855.289 181.816 854.645 181.648 854.281 181.536V179.856H854.617C855.849 179.968 856.717 179.884 857.473 179.072C858.061 178.428 858.649 177.224 858.089 175.824L852.685 162.72H855.205L859.573 174.368H859.629L863.745 162.72H866.265ZM875.882 164.428H873.362C873.362 160.424 875.546 157.26 880.334 157.26C883.638 157.26 886.494 159.36 886.494 163.056C886.494 169.692 877.058 170.084 875.854 174.704V174.76H886.214V177H872.802C872.802 173.5 875.014 170.756 878.57 168.684C882.182 166.584 883.974 165.912 883.974 163.084C883.974 161.46 883.246 159.5 880.278 159.5C876.89 159.5 875.882 161.768 875.882 164.428ZM896.172 177.392C890.88 177.392 888.724 172.828 888.724 167.34C888.724 161.852 890.88 157.26 896.172 157.26C901.464 157.26 903.62 161.852 903.62 167.34C903.62 172.828 901.464 177.392 896.172 177.392ZM896.172 175.152C899.868 175.152 901.1 171.456 901.1 167.34C901.1 163.224 899.868 159.5 896.172 159.5C892.476 159.5 891.244 163.224 891.244 167.34C891.244 171.456 892.476 175.152 896.172 175.152ZM908.667 164.428H906.147C906.147 160.424 908.331 157.26 913.119 157.26C916.423 157.26 919.279 159.36 919.279 163.056C919.279 169.692 909.843 170.084 908.639 174.704V174.76H918.999V177H905.587C905.587 173.5 907.799 170.756 911.355 168.684C914.967 166.584 916.759 165.912 916.759 163.084C916.759 161.46 916.031 159.5 913.063 159.5C909.675 159.5 908.667 161.768 908.667 164.428ZM932.002 177H929.482V172.464H920.158V170.224L929.482 157.652H932.002V170.224H934.662V172.464H932.002V177ZM929.482 161.152L922.734 170.224H929.482V161.152ZM938.061 177.196C937.193 177.196 936.521 176.608 936.521 175.656C936.521 174.732 937.193 174.116 938.061 174.116C938.929 174.116 939.601 174.732 939.601 175.656C939.601 176.608 938.929 177.196 938.061 177.196ZM943.612 177.196C942.744 177.196 942.072 176.608 942.072 175.656C942.072 174.732 942.744 174.116 943.612 174.116C944.48 174.116 945.152 174.732 945.152 175.656C945.152 176.608 944.48 177.196 943.612 177.196ZM949.163 177.196C948.295 177.196 947.623 176.608 947.623 175.656C947.623 174.732 948.295 174.116 949.163 174.116C950.031 174.116 950.703 174.732 950.703 175.656C950.703 176.608 950.031 177.196 949.163 177.196Z" fill="#0F0F0F"/>
<circle cx="540" cy="269" r="8" fill="rgba(0, 113, 251, 1)"/>
<circle opacity="0.5" cx="504" cy="269" r="8" fill="rgba(0, 113, 251, 1)"/>
<circle opacity="0.5" cx="576" cy="269" r="8" fill="rgba(0, 113, 251, 1)"/>
<circle opacity="0.5" cx="612" cy="269" r="8" fill="rgba(0, 113, 251, 1)"/>
</svg>
