<svg width="74" height="74" viewBox="0 0 74 74" fill="none" xmlns="http://www.w3.org/2000/svg">
<path d="M10.1626 63.5229L29.785 43.9006M54.4948 35.1748L48.621 52.796C48.5273 53.0785 48.3668 53.3342 48.1532 53.5414C47.9395 53.7486 47.6791 53.9012 47.3939 53.9862L11.3867 64.6884C11.0623 64.7848 10.7177 64.7903 10.3904 64.7044C10.0631 64.6185 9.76559 64.4445 9.53032 64.2012C9.29504 63.958 9.13098 63.6549 9.056 63.3249C8.98101 62.9949 8.99798 62.6507 9.10504 62.3297L20.797 27.2599C20.8808 27.0081 21.0178 26.7772 21.1987 26.583C21.3796 26.3889 21.6001 26.2359 21.8454 26.1344L38.4553 19.2956C38.793 19.1561 39.1644 19.1198 39.5227 19.1911C39.881 19.2625 40.2102 19.4383 40.4687 19.6964L54.0477 33.2785C54.2912 33.5217 54.4621 33.828 54.5411 34.163C54.6201 34.498 54.604 34.8484 54.4948 35.1748Z" stroke="#1DA7D9" stroke-width="1.5" stroke-linecap="round" stroke-linejoin="round"/>
<path d="M54.8586 34.0894L63.5783 25.3667C64.7344 24.2103 65.3838 22.642 65.3838 21.0068C65.3838 19.3717 64.7344 17.8034 63.5783 16.647L57.0416 10.1042C56.469 9.53128 55.789 9.07683 55.0407 8.76677C54.2924 8.45671 53.4903 8.29712 52.6803 8.29712C51.8702 8.29712 51.0681 8.45671 50.3198 8.76677C49.5715 9.07683 48.8915 9.53128 48.3189 10.1042L39.5992 18.8269M36.3247 37.3578C35.8951 36.9284 35.3851 36.5878 34.8239 36.3555C34.2627 36.1231 33.6612 36.0036 33.0537 36.0038C32.4463 36.0039 31.8449 36.1237 31.2838 36.3563C30.7226 36.5889 30.2128 36.9297 29.7834 37.3593C29.354 37.7889 29.0134 38.2989 28.7811 38.8601C28.5488 39.4214 28.4293 40.0229 28.4294 40.6303C28.4296 41.2377 28.5494 41.8391 28.7819 42.4002C29.0145 42.9614 29.3554 43.4712 29.785 43.9006C30.6526 44.7678 31.8292 45.2549 33.0559 45.2546C34.2827 45.2543 35.459 44.7667 36.3263 43.8991C37.1935 43.0314 37.6805 41.8548 37.6802 40.6281C37.6799 39.4014 37.1923 38.225 36.3247 37.3578Z" stroke="#1DA7D9" stroke-width="1.5" stroke-linecap="round" stroke-linejoin="round"/>
</svg>
