<svg width="64" height="64" viewBox="0 0 64 64" fill="none" xmlns="http://www.w3.org/2000/svg">
<path d="M32 37.3334C34.9455 37.3334 37.3333 34.9456 37.3333 32.0001C37.3333 29.0546 34.9455 26.6667 32 26.6667C29.0544 26.6667 26.6666 29.0546 26.6666 32.0001C26.6666 34.9456 29.0544 37.3334 32 37.3334Z" stroke="rgba(0, 113, 251, 1)"/>
<path d="M14.3973 15.6801L15.064 14.5227C14.8022 14.3714 14.4968 14.3135 14.1979 14.3586C13.8989 14.4036 13.6241 14.549 13.4186 14.7707L14.3973 15.6801ZM9.06663 24.9174L7.79196 24.5227C7.70324 24.8113 7.71507 25.1214 7.82552 25.4024C7.93596 25.6833 8.13849 25.9185 8.39996 26.0694L9.06663 24.9174ZM9.06129 39.0801L8.39463 37.9254C8.13259 38.0764 7.92968 38.312 7.8192 38.5935C7.70872 38.8751 7.69723 39.1858 7.78663 39.4747L9.06129 39.0801ZM14.3946 48.3174L13.416 49.224C13.6215 49.4458 13.8962 49.5911 14.1952 49.6362C14.4942 49.6813 14.7996 49.6234 15.0613 49.4721L14.3946 48.3174ZM26.6613 55.3974H25.328C25.3278 55.7001 25.4307 55.9939 25.6197 56.2305C25.8087 56.467 26.0726 56.6321 26.368 56.6987L26.6613 55.3974ZM37.3306 55.4027L37.6266 56.7041C37.9215 56.6369 38.1848 56.4716 38.3732 56.2351C38.5617 55.9986 38.6642 55.7051 38.664 55.4027H37.3333H37.3306ZM49.6 48.3201L48.9333 49.4747C49.195 49.626 49.5004 49.6839 49.7994 49.6389C50.0984 49.5938 50.3731 49.4485 50.5786 49.2267L49.6 48.3201ZM54.928 39.0774L56.2026 39.472C56.2913 39.1835 56.2795 38.8734 56.1691 38.5924C56.0586 38.3114 55.8561 38.0763 55.5946 37.9254L54.928 39.0774ZM54.9333 24.9147L55.6 26.0694C55.862 25.9184 56.0649 25.6828 56.1754 25.4012C56.2859 25.1197 56.2973 24.809 56.208 24.5201L54.9333 24.9147ZM49.6 15.6747L50.5786 14.7681C50.3731 14.5463 50.0984 14.401 49.7994 14.3559C49.5004 14.3108 49.195 14.3687 48.9333 14.5201L49.6 15.6747ZM37.3333 8.60005H38.6666C38.6663 8.29811 38.5635 8.00522 38.3751 7.76931C38.1866 7.53339 37.9237 7.36842 37.6293 7.30139L37.3333 8.60005ZM26.6666 8.59472L26.3706 7.29339C26.0753 7.35999 25.8114 7.52514 25.6224 7.76165C25.4334 7.99816 25.3305 8.29196 25.3306 8.59472H26.664H26.6666ZM10.3413 25.3121C11.3418 22.0617 13.0617 19.0785 15.3733 16.5841L13.4186 14.7707C10.8342 17.5584 8.91108 20.8898 7.79196 24.5227L10.3413 25.3121ZM12.368 43.3334C11.5205 41.8654 10.8398 40.3073 10.3386 38.6881L7.78929 39.4774C8.35107 41.2864 9.11313 43.0269 10.0613 44.6667L12.368 43.3334ZM15.376 47.4134C14.2253 46.1696 13.2147 44.8011 12.368 43.3334L10.0613 44.6667C11.007 46.3071 12.1331 47.8366 13.4186 49.2267L15.376 47.4134ZM37.0373 54.1067C33.7213 54.8616 30.2778 54.8598 26.9626 54.1014L26.3706 56.6987C30.0753 57.5467 33.9234 57.5494 37.6293 56.7067L37.0373 54.1067ZM53.6586 38.6881C52.6581 41.9384 50.9382 44.9216 48.6266 47.416L50.5813 49.2294C53.1656 46.4416 55.0887 43.1076 56.208 39.4747L53.6586 38.6881ZM51.632 20.6667C52.496 22.1681 53.1706 23.7254 53.664 25.3121L56.2106 24.5227C55.6491 22.7137 54.887 20.9731 53.9386 19.3334L51.632 20.6667ZM48.624 16.5867C49.7754 17.8298 50.7862 19.1984 51.632 20.6667L53.9386 19.3334C52.993 17.693 51.8669 16.1635 50.5813 14.7734L48.624 16.5867ZM26.9626 9.89339C30.2786 9.13846 33.7221 9.14029 37.0373 9.89872L37.6293 7.30139C33.9246 6.45335 30.0765 6.45062 26.3706 7.29339L26.9626 9.89339ZM28 13.5254V8.59205H25.3333V13.5254H28ZM19.3333 16.9867L15.064 14.5227L13.7306 16.8294L17.9973 19.2961L19.3333 16.9867ZM12.6666 35.4614L8.39463 37.9254L9.73063 40.2347L13.9973 37.7707L12.6666 35.4614ZM14 26.2241L9.73329 23.7627L8.39996 26.0721L12.6666 28.5334L14 26.2241ZM28 55.3974V50.4721H25.3333V55.3974H28ZM18 44.6987L13.7306 47.1627L15.064 49.4721L19.3306 47.0081L18 44.6987ZM50.2693 47.1654L46 44.6987L44.6666 47.0107L48.9333 49.4747L50.2693 47.1654ZM38.6666 55.4054V50.4721H36V55.4054H38.6666ZM54.2693 23.7601L50 26.2241L51.3333 28.5334L55.6 26.0694L54.2693 23.7601ZM55.5973 37.9227L51.3333 35.4667L50 37.7761L54.2666 40.2374L55.6 37.9281L55.5973 37.9227ZM38.6666 13.5254V8.60005H36V13.5254H38.6666ZM48.936 14.5227L44.6666 16.9894L46 19.2987L50.2693 16.8321L48.936 14.5227ZM36 13.5254C36 18.6561 41.5546 21.8641 46 19.2987L44.6666 16.9894C44.0584 17.3406 43.3684 17.5254 42.666 17.5253C41.9636 17.5252 41.2737 17.3401 40.6655 16.9887C40.0574 16.6374 39.5525 16.1321 39.2016 15.5236C38.8507 14.9152 38.6662 14.2278 38.6666 13.5254H36ZM50 26.2267C45.5546 28.7921 45.5546 35.2081 50 37.7734L51.3333 35.4641C50.7253 35.113 50.2204 34.608 49.8693 34C49.5183 33.3919 49.3335 32.7022 49.3335 32.0001C49.3335 31.2979 49.5183 30.6082 49.8693 30.0001C50.2204 29.3921 50.7253 28.8871 51.3333 28.5361L50 26.2267ZM46 44.7014C41.5546 42.1361 36 45.3387 36 50.4721H38.6666C38.6666 49.7699 38.8515 49.0828 39.2026 48.4748C39.5536 47.8667 40.0586 47.3618 40.6667 47.0107C41.2747 46.6596 41.9645 46.4748 42.6667 46.4748C43.3688 46.4748 44.0586 46.6596 44.6666 47.0107L46 44.7014ZM28 50.4721C28 45.3414 22.4453 42.1361 18 44.7014L19.3333 47.0107C19.9416 46.6595 20.6316 46.4747 21.3339 46.4748C22.0363 46.4749 22.7263 46.66 23.3344 47.0114C23.9426 47.3627 24.4475 47.8681 24.7984 48.4765C25.1492 49.0849 25.3337 49.775 25.3333 50.4774H28V50.4721ZM14 37.7734C18.4453 35.2081 18.4453 28.7921 14 26.2267L12.6666 28.5361C15.3333 30.0747 15.3333 33.9201 12.6666 35.4614L14 37.7734ZM25.3333 13.5254C25.3328 14.2273 25.1476 14.9167 24.7964 15.5244C24.4451 16.1321 23.9401 16.6367 23.3321 16.9874C22.7241 17.3382 22.0345 17.5227 21.3326 17.5226C20.6307 17.5225 19.9412 17.3377 19.3333 16.9867L18 19.2987C22.4453 21.8641 28 18.6587 28 13.5254H25.3333Z" fill="rgba(0, 113, 251, 1)"/>
</svg>
