<svg width="64" height="64" viewBox="0 0 64 64" fill="none" xmlns="http://www.w3.org/2000/svg">
<path d="M32.1828 31.8171L2.28564 61.7142M57.7828 8.54851L53.9428 19.8857C53.8102 20.1479 53.7411 20.4376 53.7411 20.7314C53.7411 21.0252 53.8102 21.3149 53.9428 21.5771L61.1199 31.1771C61.3262 31.4519 61.4509 31.7792 61.4797 32.1215C61.5084 32.4639 61.4402 32.8075 61.2828 33.1128C61.1253 33.4182 60.885 33.673 60.5894 33.8481C60.2938 34.0232 59.9548 34.1115 59.6114 34.1028H47.6342C47.3407 34.1114 47.0528 34.1857 46.7918 34.3202C46.5307 34.4547 46.3031 34.6459 46.1256 34.8799L39.4514 44.4799C39.2556 44.7606 38.985 44.9806 38.6704 45.1151C38.3558 45.2496 38.0098 45.2932 37.6717 45.2408C37.3336 45.1884 37.0169 45.0422 36.7578 44.8188C36.4986 44.5954 36.3073 44.3038 36.2056 43.9771L32.6399 32.5485C32.5586 32.266 32.4069 32.0088 32.199 31.8009C31.9911 31.593 31.7339 31.4413 31.4514 31.3599L20.0228 27.7942C19.6961 27.6926 19.4045 27.5013 19.1811 27.2421C18.9577 26.983 18.8115 26.6663 18.7591 26.3282C18.7067 25.9901 18.7502 25.644 18.8847 25.3294C19.0192 25.0148 19.2393 24.7443 19.5199 24.5485L29.3028 17.6457C29.5368 17.4682 29.7281 17.2406 29.8625 16.9796C29.997 16.7185 30.0713 16.4306 30.0799 16.1371V4.15994C30.0927 3.84536 30.1865 3.5394 30.3522 3.27169C30.5179 3.00398 30.7499 2.78359 31.0258 2.63187C31.3016 2.48014 31.612 2.40221 31.9268 2.40563C32.2417 2.40904 32.5503 2.49369 32.8228 2.65137L42.4228 9.82851C42.6665 9.99778 42.9469 10.1068 43.241 10.1465C43.535 10.1862 43.8343 10.1556 44.1142 10.0571L55.4514 6.21708C55.7765 6.10282 56.1273 6.08275 56.4633 6.15921C56.7994 6.23567 57.107 6.40553 57.3507 6.64922C57.5943 6.89291 57.7642 7.2005 57.8407 7.53654C57.9171 7.87258 57.8971 8.22338 57.7828 8.54851Z" stroke="rgba(0, 113, 251, 1)" stroke-linecap="round" stroke-linejoin="round"/>
</svg>
