<svg width="64" height="58" viewBox="0 0 64 58" fill="none" xmlns="http://www.w3.org/2000/svg">
<path d="M15.947 0.480326C18.7744 -0.00142977 21.674 0.15749 24.4318 0.945369C27.1897 1.73325 29.7356 3.13 31.8818 5.03267L32 5.13809L32.1086 5.04225C34.157 3.24462 36.5652 1.90448 39.1725 1.11121C41.7798 0.317942 44.5263 0.0897956 47.2288 0.441991L48.0147 0.556997C51.4211 1.14516 54.6051 2.64359 57.2294 4.8936C59.8538 7.14362 61.8208 10.0615 62.9222 13.3382C64.0236 16.6149 64.2184 20.1284 63.4859 23.5068C62.7534 26.8851 61.121 30.0025 58.7614 32.5288L58.1863 33.1198L58.033 33.2508L34.233 56.8239C33.6838 57.3675 32.9562 57.6936 32.1849 57.7418C31.4137 57.79 30.6511 57.5569 30.0385 57.0859L29.7382 56.8239L5.80087 33.1134C3.26504 30.6461 1.46161 27.525 0.590307 24.0959C-0.280998 20.6667 -0.186173 17.0633 0.864279 13.6847C1.91473 10.3061 3.87982 7.28423 6.5419 4.95367C9.20399 2.6231 12.4592 1.07483 15.947 0.480326Z" fill="#FE5A5A"/>
</svg>
