<svg width="18" height="17" viewBox="0 0 18 17" fill="none" xmlns="http://www.w3.org/2000/svg">
<path d="M8.9991 0.666992C7.90476 0.666992 6.82112 0.88254 5.81008 1.30133C4.79903 1.72012 3.88037 2.33395 3.10655 3.10777C1.54375 4.67057 0.665771 6.79019 0.665771 9.00033C0.665771 12.6837 3.05744 15.8087 6.36577 16.917C6.78244 16.9837 6.91577 16.7253 6.91577 16.5003V15.092C4.60744 15.592 4.11577 13.9753 4.11577 13.9753C3.73244 13.0087 3.19077 12.7503 3.19077 12.7503C2.43244 12.2337 3.2491 12.2503 3.2491 12.2503C4.08244 12.3087 4.5241 13.1087 4.5241 13.1087C5.2491 14.3753 6.4741 14.0003 6.9491 13.8003C7.0241 13.2587 7.24077 12.892 7.4741 12.6837C5.6241 12.4753 3.68244 11.7587 3.68244 8.58366C3.68244 7.65866 3.9991 6.91699 4.54077 6.32533C4.45744 6.11699 4.16577 5.25033 4.6241 4.12533C4.6241 4.12533 5.3241 3.90033 6.91577 4.97533C7.5741 4.79199 8.29077 4.70033 8.9991 4.70033C9.70744 4.70033 10.4241 4.79199 11.0824 4.97533C12.6741 3.90033 13.3741 4.12533 13.3741 4.12533C13.8324 5.25033 13.5408 6.11699 13.4574 6.32533C13.9991 6.91699 14.3158 7.65866 14.3158 8.58366C14.3158 11.767 12.3658 12.467 10.5074 12.6753C10.8074 12.9337 11.0824 13.442 11.0824 14.217V16.5003C11.0824 16.7253 11.2158 16.992 11.6408 16.917C14.9491 15.8003 17.3324 12.6837 17.3324 9.00033C17.3324 7.90598 17.1169 6.82234 16.6981 5.8113C16.2793 4.80025 15.6655 3.88159 14.8917 3.10777C14.1178 2.33395 13.1992 1.72012 12.1881 1.30133C11.1771 0.88254 10.0935 0.666992 8.9991 0.666992Z" fill="#1A1A1A"/>
</svg>
