<svg width="17" height="17" viewBox="0 0 17 17" fill="none" xmlns="http://www.w3.org/2000/svg">
<path d="M8.33402 0.000244141C3.73067 0.000244141 -0.000976562 3.73189 -0.000976562 8.33524C-0.000976562 12.9386 3.73067 16.6702 8.33402 16.6702C12.9374 16.6702 16.669 12.9386 16.669 8.33524C16.669 3.73189 12.9374 0.000244141 8.33402 0.000244141ZM6.29368 11.7899H4.60585V6.35829H6.29368V11.7899ZM5.43935 5.69149C4.90625 5.69149 4.56157 5.31381 4.56157 4.8467C4.56157 4.37004 4.91667 4.00365 5.46105 4.00365C6.00543 4.00365 6.33883 4.37004 6.34925 4.8467C6.34925 5.31381 6.00543 5.69149 5.43935 5.69149ZM12.4581 11.7899H10.7703V8.77978C10.7703 8.07912 10.5254 7.60333 9.91507 7.60333C9.44883 7.60333 9.17187 7.92544 9.04945 8.2354C9.0043 8.34566 8.99301 8.50194 8.99301 8.65736V11.7891H7.3043V8.0904C7.3043 7.41232 7.2826 6.84536 7.26002 6.35742H8.72646L8.80374 7.11191H8.8376C9.05986 6.75767 9.60424 6.235 10.515 6.235C11.6255 6.235 12.4581 6.97907 12.4581 8.57835V11.7899Z" fill="#1A1A1A"/>
</svg>
