<svg width="17" height="17" viewBox="0 0 17 17" fill="none" xmlns="http://www.w3.org/2000/svg">
<path fill-rule="evenodd" clip-rule="evenodd" d="M13.4935 0.332826L13.6651 0.433411L15.4534 1.5682C15.6796 1.71188 15.8688 1.90231 16.0069 2.1253C16.145 2.34828 16.2284 2.59807 16.2509 2.85602L16.2573 2.99873V13.7784C16.2572 14.1885 16.1032 14.5851 15.823 14.8966C15.5428 15.2081 15.1548 15.414 14.7291 15.4772L14.5891 15.4926L4.17631 16.2552C3.89914 16.2755 3.6208 16.2346 3.36294 16.1357C3.10509 16.0369 2.87469 15.8827 2.68967 15.6852L2.59303 15.5726L0.541909 12.9694C0.230186 12.5737 0.044584 12.101 0.00722535 11.6077L0 11.422V2.47518C3.05245e-05 2.06508 0.154056 1.6685 0.434282 1.35699C0.714508 1.04549 1.10248 0.839583 1.52818 0.776428L1.66818 0.760953L11.9536 0.00786279C12.4891 -0.0313994 13.0248 0.08171 13.4926 0.332826H13.4935ZM14.4509 4.32696L4.5159 5.05426V14.5057L14.4509 13.7784V4.32696ZM11.7414 5.54772C11.9809 5.54772 12.2106 5.63829 12.38 5.79952C12.5494 5.96074 12.6445 6.17941 12.6445 6.40741V12.4253C12.6445 12.6533 12.5494 12.8719 12.38 13.0332C12.2106 13.1944 11.9809 13.2849 11.7414 13.2849H11.2898C11.1355 13.285 10.9837 13.2474 10.849 13.1758C10.7143 13.1041 10.6011 13.0008 10.5203 12.8757L8.12863 9.17562V12.8551C8.12863 13.0831 8.03347 13.3018 7.86409 13.463C7.69471 13.6242 7.46499 13.7148 7.22545 13.7148C6.98591 13.7148 6.75618 13.6242 6.5868 13.463C6.41742 13.3018 6.32227 13.0831 6.32227 12.8551V6.83726C6.32227 6.60925 6.41742 6.39059 6.5868 6.22936C6.75618 6.06814 6.98591 5.97757 7.22545 5.97757H7.67704C7.83135 5.97752 7.98309 6.01511 8.1178 6.08675C8.25251 6.15839 8.36569 6.26168 8.44655 6.38678L10.8382 10.086V6.40741C10.8382 6.17941 10.9333 5.96074 11.1027 5.79952C11.2721 5.63829 11.5018 5.54772 11.7414 5.54772ZM12.0918 1.72209L2.93082 2.39265L3.95774 3.37012L13.8909 2.64368L12.6626 1.86394C12.4944 1.75717 12.2934 1.70722 12.0918 1.72209Z" fill="#1A1A1A"/>
</svg>
