<svg width="18" height="15" viewBox="0 0 18 15" fill="none" xmlns="http://www.w3.org/2000/svg">
<path d="M17.7158 1.99992C17.0741 2.29159 16.3825 2.48325 15.6658 2.57492C16.3991 2.13325 16.9658 1.43325 17.2325 0.591585C16.5408 1.00825 15.7741 1.29992 14.9658 1.46659C14.3075 0.749919 13.3825 0.333252 12.3325 0.333252C10.3741 0.333252 8.77414 1.93325 8.77414 3.90825C8.77414 4.19159 8.80747 4.46659 8.8658 4.72492C5.89914 4.57492 3.25747 3.14992 1.49914 0.991585C1.1908 1.51659 1.0158 2.13325 1.0158 2.78325C1.0158 4.02492 1.6408 5.12492 2.60747 5.74992C2.0158 5.74992 1.4658 5.58325 0.982471 5.33325V5.35825C0.982471 7.09159 2.2158 8.54159 3.84914 8.86659C3.32474 9.01009 2.77422 9.03006 2.2408 8.92492C2.46714 9.63532 2.91042 10.2569 3.50832 10.7024C4.10622 11.1478 4.82868 11.3947 5.57414 11.4083C4.3105 12.4086 2.74413 12.9493 1.13247 12.9416C0.849137 12.9416 0.565804 12.9249 0.282471 12.8916C1.8658 13.9083 3.74914 14.4999 5.7658 14.4999C12.3325 14.4999 15.9408 9.04992 15.9408 4.32492C15.9408 4.16659 15.9408 4.01659 15.9325 3.85825C16.6325 3.35825 17.2325 2.72492 17.7158 1.99992Z" fill="#1A1A1A"/>
</svg>
