<svg width="200" height="200" viewBox="0 0 200 200" fill="none" xmlns="http://www.w3.org/2000/svg">
<g clip-path="url(#clip0_18_4399)">
<path d="M100 187C148.049 187 187 148.049 187 100C187 51.9512 148.049 13 100 13C51.9512 13 13 51.9512 13 100C13 148.049 51.9512 187 100 187Z" fill="black"/>
<path d="M68.162 76.2754C85.7456 58.7913 114.254 58.7913 131.838 76.2754L147.027 91.3785L131.838 106.481C114.254 123.966 85.7456 123.966 68.162 106.481L52.9731 91.3785L68.162 76.2754Z" fill="black"/>
<path fill-rule="evenodd" clip-rule="evenodd" d="M42 91.4031L76.4864 56.8929H123.513L158 91.4031L99.9998 149.379L42 91.4031ZM126.648 78.8382C111.995 64.1208 88.0043 64.1208 73.3512 78.8383L60.8107 91.379L73.3512 103.92C88.0043 118.637 111.995 118.637 126.648 103.92L139.189 91.379L126.648 78.8382Z" fill="#0CE466"/>
<path d="M99.9999 102.352C93.9421 102.352 89.027 97.4415 89.027 91.3789C89.027 85.3163 93.9421 80.406 99.9999 80.406C106.058 80.406 110.973 85.3163 110.973 91.3789C110.973 97.4415 106.058 102.352 99.9999 102.352Z" fill="black"/>
<path fill-rule="evenodd" clip-rule="evenodd" d="M81.973 91.3775C81.973 101.338 90.0481 109.404 100 109.404C109.952 109.404 118.027 101.338 118.027 91.3775C118.027 81.4175 109.952 73.3506 100 73.3506C90.0481 73.3506 81.973 81.4175 81.973 91.3775ZM92.1622 91.3775C92.1622 95.708 95.673 99.2153 100 99.2153C104.327 99.2153 107.838 95.708 107.838 91.3775C107.838 87.0471 104.327 83.5397 100 83.5397C95.673 83.5397 92.1622 87.0471 92.1622 91.3775Z" fill="white"/>
</g>
<defs>
<clipPath id="clip0_18_4399">
<rect width="174" height="174" fill="white" transform="translate(13 13)"/>
</clipPath>
</defs>
</svg>
