<svg width="200" height="200" viewBox="0 0 200 200" fill="none" xmlns="http://www.w3.org/2000/svg">
<path d="M100.001 26C58.0321 26 24 59.9689 24 101.873C24 135.396 45.7765 163.837 75.9739 173.87C79.7721 174.572 81.1666 172.224 81.1666 170.22C81.1666 168.41 81.0961 162.434 81.0634 156.094C59.9199 160.683 55.4584 147.141 55.4584 147.141C52.0012 138.372 47.0199 136.04 47.0199 136.04C40.1244 131.331 47.5397 131.427 47.5397 131.427C55.1715 131.963 59.19 139.246 59.19 139.246C65.9685 150.845 76.9694 147.492 81.3063 145.553C81.9884 140.65 83.958 137.302 86.1315 135.408C69.2508 133.489 51.5054 126.983 51.5054 97.9107C51.5054 89.627 54.4743 82.8586 59.336 77.5452C58.5469 75.6341 55.9455 67.9171 60.0722 57.4661C60.0722 57.4661 66.4543 55.4269 80.9778 65.2434C87.0402 63.5623 93.5418 62.7193 100.001 62.6904C106.459 62.7193 112.966 63.5623 119.04 65.2434C133.546 55.4269 139.919 57.4661 139.919 57.4661C144.056 67.9171 141.453 75.6341 140.664 77.5452C145.537 82.8586 148.486 89.627 148.486 97.9107C148.486 127.052 130.706 133.469 113.783 135.347C116.509 137.702 118.938 142.319 118.938 149.398C118.938 159.55 118.85 167.721 118.85 170.22C118.85 172.239 120.218 174.605 124.07 173.86C154.251 163.816 176 135.385 176 101.873C176 59.9689 141.973 26 100.001 26ZM52.4647 134.083C52.2973 134.46 51.7033 134.573 51.1621 134.315C50.6109 134.067 50.3013 133.553 50.48 133.175C50.6436 132.787 51.2389 132.679 51.7889 132.939C52.3414 133.186 52.656 133.705 52.4647 134.083ZM56.2031 137.413C55.8406 137.749 55.1321 137.593 54.6513 137.063C54.1542 136.534 54.0611 135.827 54.4286 135.486C54.8023 135.151 55.4895 135.308 55.9879 135.837C56.485 136.372 56.5819 137.074 56.2031 137.413ZM58.7678 141.674C58.3021 141.997 57.5407 141.694 57.07 141.02C56.6043 140.345 56.6043 139.536 57.0801 139.212C57.552 138.888 58.3021 139.179 58.7791 139.849C59.2435 140.535 59.2435 141.344 58.7678 141.674ZM63.1052 146.609C62.6886 147.067 61.8013 146.944 61.1519 146.319C60.4874 145.707 60.3024 144.839 60.7203 144.38C61.1419 143.92 62.0342 144.05 62.6886 144.67C63.3481 145.281 63.5494 146.155 63.1052 146.609ZM68.7109 148.275C68.5271 148.869 67.6726 149.139 66.8117 148.887C65.9522 148.627 65.3896 147.93 65.5633 147.33C65.742 146.732 66.6003 146.45 67.4674 146.721C68.3258 146.979 68.8896 147.67 68.7109 148.275ZM75.0904 148.981C75.1118 149.607 74.3818 150.126 73.4782 150.137C72.5695 150.157 71.8345 149.651 71.8245 149.035C71.8245 148.403 72.5381 147.89 73.4467 147.874C74.3504 147.857 75.0904 148.359 75.0904 148.981ZM81.3575 148.742C81.4658 149.352 80.8377 149.979 79.9404 150.146C79.0582 150.307 78.2414 149.93 78.1294 149.325C78.0199 148.699 78.6592 148.072 79.5402 147.91C80.4388 147.754 81.243 148.121 81.3575 148.742Z" fill="#161614"/>
</svg>
