<svg width="200" height="200" viewBox="0 0 200 200" fill="none" xmlns="http://www.w3.org/2000/svg">
<path d="M156 112.377L100 193.5V147.783L156 112.377ZM126.32 140.892L108.343 152.221V166.887L126.32 140.892Z" fill="#5A9DED"/>
<path d="M44 112.377L100 193.5V147.783L44 112.377ZM73.6804 140.892L91.6569 152.221V166.887L73.6804 140.892Z" fill="#53D3E0"/>
<path d="M107.104 75.2878L144.193 95.9748L145.508 100L141.092 103.861L107.104 84.8639V75.2878Z" fill="#D995D1"/>
<path d="M92.9204 75.2878L55.8313 95.9748L54.5166 100L58.9327 103.861L92.9204 84.8639V75.2878Z" fill="#A6E276"/>
<path d="M100 6.5L156 102.543L100 137.86V6.5ZM108.27 37.309V123.06L144.855 100L108.27 37.309Z" fill="#FF9C92"/>
<path d="M100 6.5L44 102.543L100 137.86V6.5ZM91.7295 37.309V123.06L55.1449 100L91.7295 37.309Z" fill="#FFE94D"/>
</svg>
