<svg width="200" height="200" viewBox="0 0 200 200" fill="none" xmlns="http://www.w3.org/2000/svg">
<g clip-path="url(#clip0_18_4396)">
<path d="M112.95 92.4001H103.95V85.1001H130.15V92.4001H121.15V115H112.85L112.95 92.4001Z" fill="#231F20"/>
<path d="M134.35 85.1001H158.35V92.1001H142.55V96.6001H156.85V103.1H142.55V107.8H158.55V114.8H134.35V85.1001Z" fill="#231F20"/>
<path d="M162.45 85.1001H170.75V97.2001L181.05 85.1001H190.85L179.55 97.9001L191.25 114.9H181.35L173.85 103.8L170.85 107.2V114.9H162.45V85.1001Z" fill="#231F20"/>
<path d="M41.85 85.1001C38.65 92.4001 34.45 102.5 29.45 115.4H21.65C19.35 108.2 15.75 99.1001 10.85 88.0001C10.25 87.5001 9.65001 87.2001 9.05001 87.2001H8.45001V85.1001H19.85C21.55 91.8001 24.35 99.3001 28.05 107.7C31.15 101.6 33.75 94.9001 35.85 87.6001C35.75 87.4001 35.35 87.3001 34.85 87.3001H34.25V85.1001H41.85Z" fill="#231F20"/>
<path d="M71.35 97.5V98.4C71.35 98.8 71.25 99.1 71.25 99.3H51.25V100.3C51.25 108.4 54.15 112.4 59.85 112.4C61.95 112.4 63.75 111.9 65.45 110.9C67.05 109.9 67.95 108.8 67.95 107.5V106.9H70.25V112.6C67.35 114.7 63.15 115.7 57.65 115.7C53.15 115.7 49.45 114.2 46.35 111.3C43.35 108.3 41.75 104.6 41.75 100.1C41.75 95.6 43.25 91.7 46.15 88.7C49.05 85.8 52.85 84.3 57.45 84.3C61.65 84.3 65.05 85.5 67.55 88C70.05 90.5 71.35 93.6 71.35 97.5ZM62.35 95.7C62.35 92.8 62.15 90.7 61.65 89.6C60.85 87.9 59.35 87.1 57.15 87.1C53.45 87.1 51.45 90 51.15 95.7H62.35Z" fill="#231F20"/>
<path d="M101.65 108.7V115L72.95 114.9V112.9C75.25 110.1 78.25 106 81.95 100.6C87.45 92.6001 90.35 88.4001 90.65 88.0001H89.45C86.15 88.0001 82.05 88.3001 77.15 89.0001C77.05 89.3001 76.95 89.7001 76.95 90.3001V90.9001H74.75V85.1001H101.45V86.8001C98.95 89.9001 95.95 94.1001 92.35 99.3001C89.45 103.5 86.55 107.8 83.65 112C87.15 112 89.75 111.9 91.45 111.8C94.35 111.6 96.95 111.2 99.15 110.7C99.35 110.4 99.45 109.9 99.45 109.3V108.7H101.65Z" fill="#231F20"/>
</g>
<defs>
<clipPath id="clip0_18_4396">
<rect width="183.1" height="31.4" fill="white" transform="translate(8.45001 84.3)"/>
</clipPath>
</defs>
</svg>
