<svg width="200" height="200" viewBox="0 0 200 200" fill="none" xmlns="http://www.w3.org/2000/svg">
<g clip-path="url(#clip0_18_4417)">
<path d="M63.3158 86.2434C63.3158 88.3124 63.5395 89.9901 63.9309 91.2203C64.3783 92.4506 64.9375 93.7927 65.7204 95.2467C66 95.694 66.1119 96.1414 66.1119 96.5328C66.1119 97.092 65.7763 97.6513 65.0494 98.2105L61.5263 100.559C61.023 100.895 60.5198 101.062 60.0724 101.062C59.5132 101.062 58.954 100.783 58.3948 100.28C57.6119 99.4407 56.9408 98.546 56.3816 97.6513C55.8224 96.7006 55.2632 95.6381 54.648 94.3519C50.2862 99.4967 44.8059 102.069 38.2073 102.069C33.5099 102.069 29.7632 100.727 27.023 98.0427C24.2829 95.3585 22.8849 91.7795 22.8849 87.3059C22.8849 82.5526 24.5625 78.694 27.9737 75.7861C31.3849 72.8782 35.9145 71.4243 41.6744 71.4243C43.5757 71.4243 45.5329 71.5921 47.602 71.8717C49.6711 72.1513 51.7961 72.5986 54.0329 73.1019V69.0197C54.0329 64.7697 53.1382 61.8059 51.4046 60.0723C49.6152 58.3388 46.5954 57.5 42.2895 57.5C40.3323 57.5 38.3191 57.7236 36.25 58.2269C34.1809 58.7302 32.1678 59.3453 30.2105 60.1282C29.3158 60.5197 28.6448 60.7434 28.2533 60.8552C27.8619 60.9671 27.5823 61.023 27.3586 61.023C26.5757 61.023 26.1842 60.4638 26.1842 59.2894V56.5493C26.1842 55.6546 26.2961 54.9835 26.5757 54.5921C26.8553 54.2006 27.3586 53.8092 28.1415 53.4177C30.0987 52.4111 32.4474 51.5723 35.1875 50.9013C37.9277 50.1743 40.8355 49.8388 43.9112 49.8388C50.5658 49.8388 55.4309 51.3486 58.5625 54.3684C61.6382 57.3881 63.204 61.9736 63.204 68.125V86.2434H63.3158ZM40.6119 94.7434C42.4573 94.7434 44.3586 94.4078 46.3717 93.7368C48.3849 93.0657 50.1744 91.8355 51.6842 90.1578C52.579 89.0953 53.25 87.921 53.5855 86.5789C53.9211 85.2368 54.1448 83.6151 54.1448 81.7138V79.3651C52.523 78.9736 50.7895 78.6381 49 78.4144C47.2105 78.1907 45.477 78.0789 43.7434 78.0789C39.9967 78.0789 37.2566 78.8059 35.4112 80.3157C33.5658 81.8256 32.6711 83.9506 32.6711 86.7467C32.6711 89.3749 33.3421 91.3322 34.7402 92.6743C36.0823 94.0723 38.0395 94.7434 40.6119 94.7434ZM85.5165 100.783C84.5099 100.783 83.8388 100.615 83.3915 100.224C82.9441 99.8881 82.5527 99.1052 82.2171 98.0427L69.0757 54.8157C68.7402 53.6973 68.5724 52.9703 68.5724 52.5789C68.5724 51.6842 69.0198 51.1809 69.9145 51.1809H75.3948C76.4573 51.1809 77.1842 51.3486 77.5757 51.7401C78.023 52.0756 78.3586 52.8585 78.6941 53.921L88.0888 90.9407L96.8125 53.921C97.0921 52.8026 97.4277 52.0756 97.875 51.7401C98.3224 51.4046 99.1053 51.1809 100.112 51.1809H104.586C105.648 51.1809 106.375 51.3486 106.822 51.7401C107.27 52.0756 107.661 52.8585 107.885 53.921L116.72 91.3881L126.395 53.921C126.73 52.8026 127.122 52.0756 127.513 51.7401C127.961 51.4046 128.688 51.1809 129.694 51.1809H134.895C135.789 51.1809 136.293 51.6282 136.293 52.5789C136.293 52.8585 136.237 53.1381 136.181 53.4736C136.125 53.8092 136.013 54.2565 135.789 54.8717L122.313 98.0986C121.977 99.217 121.586 99.944 121.138 100.28C120.691 100.615 119.964 100.839 119.013 100.839H114.204C113.141 100.839 112.414 100.671 111.967 100.28C111.52 99.8881 111.128 99.1611 110.905 98.0427L102.237 61.9736L93.625 97.9868C93.3454 99.1052 93.0099 99.8322 92.5625 100.224C92.1152 100.615 91.3323 100.783 90.3257 100.783H85.5165ZM157.375 102.293C154.467 102.293 151.559 101.957 148.763 101.286C145.967 100.615 143.786 99.8881 142.332 99.0493C141.438 98.546 140.822 97.9868 140.599 97.4835C140.375 96.9802 140.263 96.421 140.263 95.9177V93.0657C140.263 91.8914 140.711 91.3322 141.549 91.3322C141.885 91.3322 142.22 91.3881 142.556 91.4999C142.891 91.6118 143.395 91.8355 143.954 92.0592C145.855 92.898 147.924 93.569 150.105 94.0164C152.342 94.4638 154.523 94.6874 156.76 94.6874C160.283 94.6874 163.023 94.0723 164.924 92.842C166.826 91.6118 167.832 89.8223 167.832 87.5295C167.832 85.9638 167.329 84.6776 166.322 83.6151C165.316 82.5526 163.414 81.6019 160.674 80.7072L152.566 78.1907C148.484 76.9046 145.464 75.0032 143.618 72.4868C141.773 70.0263 140.822 67.2861 140.822 64.3782C140.822 62.0296 141.326 59.9605 142.332 58.171C143.339 56.3815 144.681 54.8157 146.359 53.5855C148.036 52.2993 149.938 51.3486 152.174 50.6776C154.411 50.0065 156.76 49.7269 159.22 49.7269C160.451 49.7269 161.737 49.7828 162.967 49.9506C164.253 50.1184 165.428 50.3421 166.602 50.5657C167.72 50.8453 168.783 51.125 169.789 51.4605C170.796 51.796 171.579 52.1315 172.138 52.4671C172.921 52.9144 173.48 53.3618 173.816 53.8651C174.151 54.3125 174.319 54.9276 174.319 55.7105V58.3388C174.319 59.5131 173.872 60.1282 173.033 60.1282C172.586 60.1282 171.859 59.9046 170.908 59.4572C167.72 58.0032 164.141 57.2763 160.171 57.2763C156.984 57.2763 154.467 57.7796 152.734 58.8421C151 59.9046 150.105 61.5263 150.105 63.819C150.105 65.3848 150.664 66.7269 151.783 67.7894C152.901 68.8519 154.97 69.9144 157.934 70.8651L165.875 73.3815C169.901 74.6677 172.809 76.4572 174.543 78.7499C176.276 81.0427 177.115 83.671 177.115 86.5789C177.115 88.9835 176.612 91.1644 175.661 93.0657C174.655 94.967 173.313 96.6447 171.579 97.9868C169.845 99.3848 167.776 100.391 165.372 101.118C162.855 101.901 160.227 102.293 157.375 102.293Z" fill="#252F3E"/>
<path fill-rule="evenodd" clip-rule="evenodd" d="M167.944 129.47C149.546 143.059 122.816 150.273 99.8322 150.273C67.6217 150.273 38.5987 138.362 16.6776 118.566C14.9441 117 16.5099 114.875 18.5789 116.105C42.2895 129.862 71.5362 138.194 101.789 138.194C122.201 138.194 144.625 133.944 165.26 125.22C168.336 123.822 170.964 127.234 167.944 129.47Z" fill="#FF9900"/>
<path fill-rule="evenodd" clip-rule="evenodd" d="M175.605 120.747C173.257 117.727 160.059 119.293 154.076 120.02C152.286 120.243 152.007 118.678 153.628 117.503C164.141 110.122 181.421 112.247 183.434 114.707C185.447 117.224 182.875 134.503 173.033 142.78C171.523 144.066 170.069 143.395 170.74 141.717C172.977 136.181 177.954 123.711 175.605 120.747Z" fill="#FF9900"/>
</g>
<defs>
<clipPath id="clip0_18_4417">
<rect width="170" height="101.776" fill="white" transform="translate(15 49.1118)"/>
</clipPath>
</defs>
</svg>
