<svg width="200" height="200" viewBox="0 0 200 200" fill="none" xmlns="http://www.w3.org/2000/svg">
<path d="M98.4708 165.765C134.857 165.765 164.353 136.268 164.353 99.8826C164.353 63.4968 134.857 34.0002 98.4708 34.0002C62.085 34.0002 32.5885 63.4968 32.5885 99.8826C32.5885 136.268 62.085 165.765 98.4708 165.765Z" fill="url(#paint0_radial_18_4441)"/>
<mask id="mask0_18_4441" style="mask-type:alpha" maskUnits="userSpaceOnUse" x="32" y="34" width="133" height="132">
<path d="M98.4708 165.765C134.857 165.765 164.353 136.268 164.353 99.8826C164.353 63.4968 134.857 34.0002 98.4708 34.0002C62.085 34.0002 32.5885 63.4968 32.5885 99.8826C32.5885 136.268 62.085 165.765 98.4708 165.765Z" fill="url(#paint1_radial_18_4441)"/>
</mask>
<g mask="url(#mask0_18_4441)">
<g filter="url(#filter0_f_18_4441)">
<path d="M138.471 134.511C138.471 156.71 120.474 174.706 98.2747 174.706C76.075 174.706 58.0787 156.71 58.0787 134.511C58.0787 112.311 76.075 94.3145 98.2747 94.3145C120.474 94.3145 138.471 112.311 138.471 134.511Z" fill="#C50000"/>
</g>
<g filter="url(#filter1_f_18_4441)">
<path d="M119.255 56.1576C119.255 64.496 107.931 71.2556 93.9611 71.2556C79.9915 71.2556 68.667 64.496 68.667 56.1576C68.667 47.8192 79.9915 41.0596 93.9611 41.0596C107.931 41.0596 119.255 47.8192 119.255 56.1576Z" fill="#FFB3B3"/>
</g>
<g filter="url(#filter2_f_18_4441)">
<path d="M130.799 87.3964C137.392 97.1876 147.032 102.232 152.332 98.6639C157.632 95.0955 156.584 84.2654 149.992 74.4742C143.399 64.683 133.759 59.6383 128.459 63.2067C123.159 66.7751 124.207 77.6051 130.799 87.3964Z" fill="#FFB0B0"/>
</g>
</g>
<path fill-rule="evenodd" clip-rule="evenodd" d="M98.6052 139.887V59.6682H88.1991V139.887H98.6052Z" fill="black"/>
<path fill-rule="evenodd" clip-rule="evenodd" d="M129.688 144.331C124.234 132.957 118.878 117.299 118.878 99.7775C118.878 82.2564 124.235 66.5983 129.688 55.2242C132.406 49.5564 135.12 45.0085 137.143 41.8941C138.154 40.3385 138.989 39.1448 139.562 38.3525C139.848 37.9565 140.068 37.6611 140.212 37.4714C140.284 37.3765 140.336 37.3081 140.368 37.2667C140.384 37.246 140.395 37.2321 140.401 37.225L140.403 37.2222C140.403 37.2222 140.401 37.2244 136.318 33.9998C132.234 30.7753 132.232 30.7781 132.232 30.7781L132.229 30.7816L132.222 30.7906L132.202 30.8165L132.181 30.8428C132.169 30.8591 132.154 30.8781 132.137 30.8998C132.083 30.9692 132.009 31.0663 131.915 31.1905C131.727 31.4389 131.461 31.7958 131.128 32.2563C130.462 33.177 129.529 34.5133 128.416 36.2255C126.194 39.647 123.248 44.5866 120.305 50.7252C114.437 62.9639 108.472 80.1945 108.472 99.7774C108.471 119.36 114.436 136.591 120.304 148.83C123.248 154.969 126.194 159.908 128.416 163.329C129.529 165.042 130.462 166.378 131.128 167.299C131.461 167.759 131.727 168.116 131.915 168.365C132.009 168.489 132.084 168.586 132.137 168.655C132.164 168.69 132.186 168.718 132.202 168.739L132.222 168.764L132.232 168.777C132.232 168.777 132.234 168.78 136.318 165.555C140.401 162.33 140.403 162.333 140.403 162.333L140.401 162.33C140.395 162.323 140.384 162.309 140.368 162.288C140.336 162.247 140.284 162.178 140.212 162.083C140.068 161.894 139.848 161.598 139.561 161.202C138.989 160.41 138.154 159.216 137.143 157.661C135.12 154.546 132.405 149.999 129.688 144.331Z" fill="black"/>
<defs>
<filter id="filter0_f_18_4441" x="41.0787" y="77.3145" width="114.392" height="114.392" filterUnits="userSpaceOnUse" color-interpolation-filters="sRGB">
<feFlood flood-opacity="0" result="BackgroundImageFix"/>
<feBlend mode="normal" in="SourceGraphic" in2="BackgroundImageFix" result="shape"/>
<feGaussianBlur stdDeviation="8.5" result="effect1_foregroundBlur_18_4441"/>
</filter>
<filter id="filter1_f_18_4441" x="55.667" y="28.0596" width="76.5882" height="56.196" filterUnits="userSpaceOnUse" color-interpolation-filters="sRGB">
<feFlood flood-opacity="0" result="BackgroundImageFix"/>
<feBlend mode="normal" in="SourceGraphic" in2="BackgroundImageFix" result="shape"/>
<feGaussianBlur stdDeviation="6.5" result="effect1_foregroundBlur_18_4441"/>
</filter>
<filter id="filter2_f_18_4441" x="114.079" y="51.0608" width="52.6324" height="59.7488" filterUnits="userSpaceOnUse" color-interpolation-filters="sRGB">
<feFlood flood-opacity="0" result="BackgroundImageFix"/>
<feBlend mode="normal" in="SourceGraphic" in2="BackgroundImageFix" result="shape"/>
<feGaussianBlur stdDeviation="5.5" result="effect1_foregroundBlur_18_4441"/>
</filter>
<radialGradient id="paint0_radial_18_4441" cx="0" cy="0" r="1" gradientUnits="userSpaceOnUse" gradientTransform="translate(94.5823 103.339) rotate(-24.5255) scale(73.3009 73.4826)">
<stop stop-color="#D50000"/>
<stop offset="0.428907" stop-color="#FF1414"/>
<stop offset="0.839181" stop-color="#FF5D5D"/>
<stop offset="1" stop-color="#FF5353"/>
</radialGradient>
<radialGradient id="paint1_radial_18_4441" cx="0" cy="0" r="1" gradientUnits="userSpaceOnUse" gradientTransform="translate(94.5823 103.339) rotate(-24.5255) scale(73.3009 73.4826)">
<stop stop-color="#016EE7"/>
<stop offset="0.428907" stop-color="#2980FF"/>
<stop offset="0.839181" stop-color="#5D9AFF"/>
<stop offset="1" stop-color="#90C7FF"/>
</radialGradient>
</defs>
</svg>
