<svg width="200" height="200" viewBox="0 0 200 200" fill="none" xmlns="http://www.w3.org/2000/svg">
<path fill-rule="evenodd" clip-rule="evenodd" d="M99.9999 23C142.526 23 177 57.4741 177 99.9999C177 142.526 142.526 177 99.9999 177C57.4741 177 23 142.526 23 99.9999C23 57.4741 57.4741 23 99.9999 23Z" fill="#171717"/>
<path fill-rule="evenodd" clip-rule="evenodd" d="M99.8519 55.5767C124.386 55.5767 144.275 75.4654 144.275 99.9999C144.275 124.534 124.386 144.423 99.8519 144.423C75.3179 144.423 55.4289 124.534 55.4289 99.9999C55.4289 75.4654 75.3179 55.5767 99.8519 55.5767Z" fill="black"/>
<path opacity="0.67" fill-rule="evenodd" clip-rule="evenodd" d="M101.209 36.1706C100.597 35.6077 100.282 35.5971 100.229 35.5971C100.175 35.5971 99.8596 35.6077 99.2482 36.1706C98.6204 36.7485 97.8697 37.7455 97.0611 39.2838C95.4468 42.3542 93.9019 46.9951 92.5706 52.9835C91.073 59.7176 89.8897 67.9487 89.1433 77.1627C92.7485 78.9072 96.456 80.8036 100.228 82.8399C104 80.8032 107.708 78.9063 111.314 77.1618C110.567 67.9482 109.384 59.7174 107.886 52.9835C106.555 46.9951 105.01 42.3542 103.396 39.2838C102.587 37.7455 101.837 36.7485 101.209 36.1706ZM97.0722 84.5685C94.3026 83.0969 91.5739 81.7048 88.9022 80.3967C88.6997 83.363 88.542 86.4205 88.4326 89.5537C89.8453 88.7075 91.2793 87.8646 92.7321 87.0261C94.1849 86.1876 95.6324 85.3684 97.0722 84.5685ZM86.2348 75.7779C88.3983 50.5115 93.8479 32.5835 100.229 32.5835C106.609 32.5835 112.059 50.5111 114.222 75.777C137.198 65.0171 155.458 60.77 158.648 66.2922C161.838 71.8144 149.028 85.4947 128.215 100C149.028 114.506 161.838 128.186 158.648 133.708C155.458 139.23 137.198 134.983 114.222 124.224C112.059 149.489 106.609 167.417 100.229 167.417C93.8479 167.417 88.3983 149.489 86.2348 124.223C63.2579 134.983 44.9972 139.231 41.8068 133.708C38.6165 128.186 51.4271 114.506 72.2397 100C51.4271 85.4947 38.6165 71.8144 41.8068 66.2922C44.9972 60.7698 63.2579 65.0173 86.2348 75.7779ZM74.895 98.1745C67.2832 92.9212 60.7415 87.7812 55.6542 83.1176C51.1305 78.9709 47.8812 75.3131 46.0275 72.381C45.0988 70.9119 44.6103 69.7639 44.4236 68.932C44.2418 68.1218 44.3904 67.8445 44.4162 67.7998C44.4422 67.7548 44.6089 67.4868 45.4029 67.2388C46.218 66.9842 47.4576 66.833 49.1953 66.9022C52.6637 67.0404 57.4583 68.0239 63.3136 69.8657C69.8981 71.9369 77.6227 75.0281 85.9802 78.9892C85.6895 82.9811 85.4792 87.1375 85.3582 91.4192C81.7077 93.6657 78.21 95.9261 74.895 98.1745ZM74.895 101.826C67.2832 107.079 60.7415 112.219 55.6542 116.883C51.1305 121.03 47.8812 124.687 46.0275 127.62C45.0988 129.089 44.6103 130.236 44.4236 131.069C44.2418 131.879 44.3904 132.156 44.4162 132.201C44.4421 132.245 44.6087 132.514 45.4029 132.761C46.218 133.016 47.4576 133.167 49.1953 133.098C52.6637 132.96 57.4583 131.976 63.3136 130.135C69.8981 128.064 77.6227 124.972 85.9802 121.011C85.6895 117.019 85.4792 112.863 85.3582 108.581C81.7077 106.335 78.21 104.074 74.895 101.826ZM85.2787 104.986C82.618 103.325 80.0466 101.659 77.5769 100C80.0466 98.3418 82.618 96.6759 85.2787 95.0143C85.2517 96.6605 85.2382 98.3235 85.2382 100C85.2382 101.677 85.2517 103.34 85.2787 104.986ZM88.3294 106.865C88.2778 104.61 88.2517 102.319 88.2517 100C88.2517 97.6807 88.2778 95.3909 88.3294 93.1353C90.2576 91.9631 92.2287 90.7958 94.2384 89.6361C96.2486 88.4765 98.2468 87.3535 100.228 86.2701C102.208 87.3535 104.206 88.4765 106.217 89.6361C108.227 90.7962 110.199 91.9641 112.128 93.1362C112.179 95.3914 112.205 97.6812 112.205 100C112.205 102.319 112.179 104.609 112.128 106.864C110.199 108.036 108.227 109.204 106.217 110.364C104.206 111.524 102.208 112.647 100.228 113.73C98.2468 112.647 96.2486 111.524 94.2384 110.364C92.2287 109.205 90.2576 108.037 88.3294 106.865ZM88.4326 110.447C88.542 113.58 88.6997 116.637 88.9022 119.604C91.5739 118.296 94.3026 116.904 97.0722 115.432C95.6324 114.632 94.1849 113.813 92.7321 112.974C91.2793 112.136 89.8453 111.293 88.4326 110.447ZM100.228 117.16C96.456 119.197 92.7485 121.093 89.1433 122.838C89.8897 132.052 91.073 140.283 92.5706 147.017C93.9019 153.006 95.4468 157.646 97.0611 160.717C97.8697 162.255 98.6204 163.252 99.2482 163.83C99.8596 164.393 100.175 164.403 100.229 164.403C100.282 164.403 100.597 164.393 101.209 163.83C101.837 163.252 102.587 162.255 103.396 160.717C105.01 157.646 106.555 153.006 107.886 147.017C109.384 140.283 110.567 132.052 111.314 122.839C107.708 121.094 104 119.197 100.228 117.16ZM114.477 121.012C122.834 124.972 130.557 128.064 137.141 130.135C142.997 131.976 147.791 132.96 151.26 133.098C152.997 133.167 154.237 133.016 155.052 132.761C155.846 132.514 156.013 132.245 156.039 132.201C156.065 132.156 156.213 131.879 156.032 131.069C155.845 130.236 155.356 129.089 154.427 127.62C152.574 124.687 149.325 121.03 144.801 116.883C139.714 112.219 133.172 107.079 125.56 101.826C122.246 104.074 118.749 106.334 115.099 108.58C114.978 112.862 114.768 117.019 114.477 121.012ZM125.56 98.1745C133.172 92.9212 139.714 87.7812 144.801 83.1176C149.325 78.9709 152.574 75.3131 154.427 72.381C155.356 70.9119 155.845 69.7639 156.032 68.932C156.213 68.1216 156.065 67.8443 156.039 67.7997C156.013 67.7549 155.846 67.4869 155.052 67.2388C154.237 66.9842 152.997 66.833 151.26 66.9022C147.791 67.0404 142.997 68.0239 137.141 69.8657C130.557 71.9364 122.834 75.0277 114.477 78.9883C114.768 82.9811 114.978 87.138 115.099 91.4207C118.749 93.6662 122.246 95.9266 125.56 98.1745ZM115.179 95.0158C117.839 96.6769 120.409 98.3418 122.878 100C120.409 101.658 117.839 103.324 115.179 104.985C115.205 103.339 115.219 101.677 115.219 100C115.219 98.3235 115.205 96.6614 115.179 95.0158ZM112.025 89.5546C111.915 86.421 111.757 83.363 111.555 80.3957C108.883 81.7039 106.153 83.0964 103.383 84.5685C104.823 85.3684 106.27 86.1876 107.723 87.0261C109.177 87.8646 110.611 88.7079 112.025 89.5546ZM111.555 119.604C108.883 118.296 106.153 116.904 103.383 115.432C104.823 114.632 106.27 113.813 107.723 112.974C109.177 112.135 110.611 111.292 112.025 110.446C111.915 113.58 111.757 116.637 111.555 119.604Z" fill="white"/>
<path fill-rule="evenodd" clip-rule="evenodd" d="M57.1388 81.1199C59.7571 81.1199 61.8796 83.2439 61.8796 85.863C61.8796 88.4827 59.7571 90.6062 57.1388 90.6062C54.5206 90.6062 52.3981 88.4827 52.3981 85.863C52.3981 83.2439 54.5206 81.1199 57.1388 81.1199Z" fill="white"/>
<path fill-rule="evenodd" clip-rule="evenodd" d="M132.485 64.8779C135.104 64.8779 137.227 67.0015 137.227 69.621C137.227 72.2407 135.104 74.3642 132.485 74.3642C129.865 74.3642 127.741 72.2407 127.741 69.621C127.741 67.0015 129.865 64.8779 132.485 64.8779Z" fill="white"/>
<path fill-rule="evenodd" clip-rule="evenodd" d="M90.6756 139.324C93.2948 139.324 95.4183 141.446 95.4183 144.064C95.4183 146.683 93.2948 148.805 90.6756 148.805C88.056 148.805 85.9325 146.683 85.9325 144.064C85.9325 141.446 88.056 139.324 90.6756 139.324Z" fill="white"/>
<path fill-rule="evenodd" clip-rule="evenodd" d="M99.9648 91.9346C104.4 91.9346 107.995 95.5297 107.995 99.9647C107.995 104.4 104.4 107.995 99.9648 107.995C95.5297 107.995 91.9346 104.4 91.9346 99.9647C91.9346 95.5297 95.5297 91.9346 99.9648 91.9346Z" fill="white"/>
</svg>
