<svg width="200" height="200" viewBox="0 0 200 200" fill="none" xmlns="http://www.w3.org/2000/svg">
<circle cx="100" cy="100" r="72" fill="#8247E5"/>
<path d="M124.175 84.0623C122.457 83.089 120.248 83.089 118.285 84.0623L104.54 92.0919L95.2141 97.2017L81.7153 105.231C79.9974 106.205 77.7884 106.205 75.8249 105.231L65.2713 98.9049C63.5534 97.9316 62.3261 95.985 62.3261 93.7951V81.629C62.3261 79.6824 63.3079 77.7358 65.2713 76.5192L75.8249 70.4362C77.5428 69.4629 79.7518 69.4629 81.7153 70.4362L92.2689 76.7626C93.9868 77.736 95.2141 79.6826 95.2141 81.8724V89.9021L104.54 84.5489V76.276C104.54 74.3294 103.559 72.3828 101.595 71.1662L81.9606 59.73C80.2427 58.7567 78.0337 58.7567 76.0702 59.73L55.9448 71.4095C53.9817 72.3828 53 74.3294 53 76.2758V99.1481C53 101.095 53.9817 103.041 55.9452 104.258L75.8251 115.694C77.543 116.667 79.752 116.667 81.7155 115.694L95.2143 107.908L104.541 102.555L118.039 94.7684C119.757 93.7951 121.966 93.7951 123.93 94.7684L134.483 100.852C136.201 101.825 137.429 103.771 137.429 105.961V118.127C137.429 120.074 136.447 122.021 134.483 123.237L124.175 129.32C122.457 130.294 120.248 130.294 118.285 129.32L107.731 123.237C106.013 122.264 104.786 120.317 104.786 118.127V110.341L95.4598 115.694V123.724C95.4598 125.671 96.4415 127.617 98.405 128.834L118.285 140.27C120.003 141.243 122.212 141.243 124.175 140.27L144.055 128.834C145.773 127.86 147 125.914 147 123.724V100.608C147 98.6617 146.018 96.715 144.055 95.4985L124.175 84.0623Z" fill="white"/>
</svg>
