<svg width="142" height="150" viewBox="0 0 142 150" fill="none" xmlns="http://www.w3.org/2000/svg">
<g clip-path="url(#clip0_459_12035)">
<path d="M141.329 69.7384C141.329 31.2233 109.692 0 70.6642 0C31.6366 0 0 31.2233 0 69.7384C0 108.254 31.6377 139.478 70.6642 139.478C70.9498 139.478 71.2342 139.476 71.5187 139.472C69.4207 143.642 66.0712 147.517 60.0548 150C75.6112 149.015 99.844 138.195 111.447 126.701C111.446 126.7 111.446 126.7 111.445 126.699C129.527 114.067 141.329 93.2642 141.329 69.7384Z" fill="#1DA7D9"/>
<path d="M115.811 64.9099H115.763C116.868 67.9967 117.444 71.2806 117.444 74.6516C117.444 78.0225 116.867 81.3064 115.763 84.3932H115.811C119.341 84.3932 122.203 81.5688 122.203 78.0856V71.2164C122.203 67.7332 119.341 64.9099 115.811 64.9099Z" fill="white"/>
<path d="M25.5184 64.9099C21.9889 64.9099 19.127 67.7343 19.127 71.2176V78.0867C19.127 81.57 21.9889 84.3944 25.5184 84.3944H25.5671C24.4618 81.3076 23.886 78.0237 23.886 74.6527C23.886 71.2818 24.463 67.9979 25.5671 64.9111H25.5184V64.9099Z" fill="white"/>
<path d="M87.8815 47.5659H84.9755V47.4181C84.9755 45.5218 83.4174 43.9852 81.497 43.9852H74.9675C74.9675 42.0316 73.63 40.3874 71.8107 39.8936V31.135C73.6312 30.64 74.9675 28.9958 74.9675 27.0433C74.9675 24.699 73.0414 22.7981 70.6659 22.7981C68.2905 22.7981 66.3643 24.699 66.3643 27.0433C66.3643 28.9969 67.7018 30.6412 69.5212 31.135V39.8936C67.7007 40.3885 66.3643 42.0328 66.3643 43.9852H59.8348C57.9133 43.9852 56.3564 45.5229 56.3564 47.4181V47.5659H53.4492C38.291 47.5659 26.0039 59.6931 26.0039 74.6516C26.0039 89.6113 38.2921 101.737 53.4492 101.737H87.8826C103.041 101.737 115.328 89.6102 115.328 74.6516C115.328 59.692 103.04 47.5659 87.8815 47.5659ZM87.8826 88.0393H53.448C45.9688 88.0393 39.8827 82.0341 39.8827 74.6516C39.8827 67.2703 45.9676 61.264 53.448 61.264H87.8815C95.3607 61.264 101.447 67.2692 101.447 74.6516C101.447 82.0329 95.3619 88.0393 87.8826 88.0393Z" fill="white"/>
<path d="M57.234 70.8945C54.5846 70.8945 52.4355 73.0143 52.4355 75.6302C52.4355 78.2449 54.5834 78.4087 57.234 78.4087C59.8835 78.4087 62.0325 78.246 62.0325 75.6302C62.0313 73.0154 59.8835 70.8945 57.234 70.8945Z" fill="white"/>
<path d="M84.0963 70.8945C81.4469 70.8945 79.2979 73.0143 79.2979 75.6302C79.2979 78.2449 81.4457 78.4087 84.0963 78.4087C86.7458 78.4087 88.8948 78.246 88.8948 75.6302C88.8948 73.0154 86.7469 70.8945 84.0963 70.8945Z" fill="white"/>
</g>
<defs>
<clipPath id="clip0_459_12035">
<rect width="141.329" height="150" fill="white"/>
</clipPath>
</defs>
</svg>
