<svg width="194" height="67" viewBox="0 0 194 67" fill="none" xmlns="http://www.w3.org/2000/svg">
<g clip-path="url(#clip0_401_26368)">
<path d="M61.2751 27.4172C62.0131 25.1612 62.2683 22.7713 62.0237 20.4072C61.7792 18.043 61.0404 15.7591 59.8569 13.7079C58.1023 10.6076 55.4232 8.15294 52.2058 6.69793C48.9884 5.24292 45.399 4.8627 41.955 5.61209C39.9984 3.40266 37.5035 1.75476 34.721 0.833904C31.9385 -0.0869523 28.9662 -0.248348 26.1028 0.365928C23.2394 0.980203 20.5856 2.34852 18.408 4.33346C16.2304 6.31839 14.6056 8.85006 13.6968 11.6742C11.4024 12.1518 9.23481 13.1211 7.33895 14.5172C5.44309 15.9133 3.86261 17.7042 2.70313 19.77C0.929471 22.8652 0.171423 26.4528 0.538575 30.0142C0.905727 33.5755 2.37905 36.926 4.74555 39.5814C4.00488 41.8363 3.74709 44.2258 3.98944 46.59C4.23178 48.9542 4.96867 51.2386 6.1508 53.2904C7.90761 56.3919 10.5891 58.8471 13.8088 60.3021C17.0284 61.7571 20.62 62.1368 24.066 61.3865C25.6204 63.1636 27.5305 64.5835 29.6685 65.5515C31.8066 66.5195 34.1236 67.0133 36.4646 67C39.9946 67.0033 43.4343 65.8678 46.2872 63.7574C49.1402 61.6471 51.2587 58.671 52.3371 55.2588C54.6312 54.7804 56.7984 53.8107 58.6942 52.4146C60.59 51.0185 62.1706 49.2281 63.3307 47.1627C65.0834 44.0721 65.8284 40.4979 65.4592 36.9515C65.09 33.405 63.6255 30.0677 61.2751 27.4172ZM36.4646 62.6148C33.5736 62.6195 30.7732 61.5908 28.5545 59.7093L28.9447 59.4848L42.0851 51.7849C42.4121 51.5901 42.6836 51.3124 42.873 50.979C43.0623 50.6455 43.1629 50.2678 43.165 49.8829V31.0757L48.72 34.3381C48.7474 34.3522 48.7712 34.3727 48.7894 34.3979C48.8075 34.4231 48.8196 34.4524 48.8245 34.4832V50.068C48.8175 53.3935 47.5131 56.5808 45.1966 58.9322C42.8802 61.2837 39.7405 62.6078 36.4646 62.6148ZM9.89768 51.0981C8.4478 48.5566 7.92722 45.5775 8.42753 42.6849L8.81802 42.9227L21.9713 50.6227C22.2967 50.8166 22.6673 50.9188 23.0446 50.9188C23.422 50.9188 23.7925 50.8166 24.1179 50.6227L40.1856 41.219V47.7302C40.1841 47.764 40.1751 47.797 40.1593 47.8267C40.1435 47.8564 40.1213 47.8821 40.0943 47.9019L26.7849 55.6943C23.9445 57.3554 20.5708 57.8043 17.4047 56.9426C14.2385 56.0808 11.5386 53.9789 9.89768 51.0981ZM6.43708 22.0419C7.897 19.4841 10.2014 17.5331 12.9422 16.5345V32.3833C12.9373 32.7662 13.0336 33.1434 13.2213 33.4756C13.4089 33.8078 13.6809 34.0828 14.0089 34.2719L29.9985 43.636L24.4433 46.898C24.4132 46.9142 24.3797 46.9227 24.3456 46.9227C24.3116 46.9227 24.2781 46.9142 24.248 46.898L10.9647 39.1191C8.1296 37.4508 6.06129 34.71 5.21268 31.4969C4.36408 28.2838 4.80435 24.8603 6.43708 21.976V22.0419ZM52.0769 32.806L36.0353 23.3495L41.5777 20.1C41.6077 20.0838 41.6413 20.0753 41.6753 20.0753C41.7093 20.0753 41.7429 20.0838 41.7729 20.1L55.0563 27.8924C57.0873 29.0821 58.743 30.8337 59.8301 32.9428C60.9173 35.0519 61.391 37.4314 61.1959 39.8036C61.0009 42.1757 60.1451 44.4426 58.7285 46.3396C57.312 48.2365 55.3931 49.6852 53.1959 50.5166V34.6678C53.1844 34.2855 53.0751 33.9129 52.8789 33.5864C52.6827 33.26 52.4065 32.9912 52.0769 32.806ZM57.6063 24.3665L57.2158 24.1287L44.0887 16.3628C43.7612 16.1677 43.3885 16.0649 43.0088 16.0649C42.6291 16.0649 42.2563 16.1677 41.9289 16.3628L25.8746 25.7662V19.2552C25.8712 19.2221 25.8767 19.1887 25.8904 19.1585C25.9042 19.1283 25.9257 19.1024 25.9527 19.0836L39.2361 11.3043C41.2719 10.1137 43.5996 9.53616 45.9469 9.63923C48.2943 9.74229 50.5642 10.5217 52.4911 11.8863C54.4181 13.2509 55.9225 15.1443 56.8284 17.345C57.7343 19.5457 58.0042 21.9627 57.6066 24.3135L57.6063 24.3665ZM22.8428 35.9092L17.2878 32.6603C17.26 32.6433 17.2362 32.6203 17.2181 32.5929C17.2001 32.5656 17.1882 32.5345 17.1833 32.502V16.9571C17.1863 14.5724 17.8581 12.2379 19.1199 10.2264C20.3818 8.21499 22.1817 6.60979 24.3092 5.59852C26.4366 4.58724 28.8037 4.21168 31.1336 4.51574C33.4636 4.8198 35.6601 5.79093 37.4664 7.31556L37.0759 7.54029L23.9359 15.2397C23.6088 15.4344 23.3373 15.7121 23.148 16.0456C22.9586 16.3791 22.858 16.7568 22.856 17.1417L22.8428 35.9092ZM25.8612 29.3058L33.0167 25.1189L40.1856 29.3058V37.6791L33.0428 41.8658L25.8744 37.6791L25.8612 29.3058Z" fill="black"/>
</g>
<path d="M99.7717 44.95C93.2917 44.95 89.2417 40.21 89.2417 33.76C89.2417 27.31 93.2917 22.6 99.7717 22.6C106.222 22.6 110.302 27.31 110.302 33.76C110.302 40.21 106.222 44.95 99.7717 44.95ZM99.7717 41.89C104.692 41.89 106.732 38.11 106.732 33.76C106.732 29.44 104.692 25.66 99.7717 25.66C94.8517 25.66 92.7817 29.44 92.7817 33.76C92.7817 38.11 94.8517 41.89 99.7717 41.89ZM120.758 28.75C124.658 28.75 127.568 31.81 127.568 36.85C127.568 41.89 124.658 44.95 120.758 44.95C118.358 44.95 116.858 43.81 116.048 42.67H115.988V49.72H112.808V29.17H115.988V30.97H116.048C116.858 29.89 118.358 28.75 120.758 28.75ZM120.158 42.37C122.918 42.37 124.388 39.85 124.388 36.85C124.388 33.85 122.918 31.33 120.158 31.33C117.608 31.33 116.018 33.43 116.018 36.85C116.018 40.24 117.608 42.37 120.158 42.37ZM136.638 42.37C139.248 42.37 140.298 40.75 140.568 39.82H143.718C142.938 42.73 140.658 44.95 136.728 44.95C131.958 44.95 129.048 41.65 129.048 36.85C129.048 31.87 131.958 28.75 136.578 28.75C141.528 28.75 143.958 32.2 143.958 37.66H132.198C132.198 40.24 133.848 42.37 136.638 42.37ZM136.578 31.24C134.028 31.24 132.198 32.95 132.198 35.32H140.808C140.808 32.95 139.128 31.24 136.578 31.24ZM154.368 28.75C157.218 28.75 159.468 30.4 159.468 33.91V44.5H156.288V34.81C156.288 32.74 155.418 31.42 153.258 31.42C150.828 31.42 149.268 32.89 149.268 35.17V44.5H146.118V29.17H149.268V31.15H149.328C150.138 29.95 151.728 28.75 154.368 28.75ZM180.872 39.43H172.112L170.372 44.5H166.742L174.632 23.05H178.382L186.242 44.5H182.612L180.872 39.43ZM173.102 36.46H179.912L176.552 26.32H176.492L173.102 36.46ZM188.344 23.05H191.914V44.5H188.344V23.05Z" fill="black"/>
<defs>
<clipPath id="clip0_401_26368">
<rect width="66" height="67" fill="white"/>
</clipPath>
</defs>
</svg>
