<svg width="30" height="30" viewBox="0 0 30 30" fill="none" xmlns="http://www.w3.org/2000/svg">
<path d="M27.7199 7.82335C26.7722 8.25412 25.7506 8.5372 24.6922 8.67259C25.7752 8.02028 26.6122 6.98643 27.006 5.74335C25.9845 6.35874 24.8522 6.78951 23.6583 7.03566C22.686 5.9772 21.3199 5.36182 19.7691 5.36182C16.8768 5.36182 14.5137 7.72489 14.5137 10.6418C14.5137 11.0603 14.5629 11.4664 14.6491 11.848C10.2676 11.6264 6.36601 9.52182 3.76909 6.33412C3.31371 7.10951 3.05525 8.02028 3.05525 8.98028C3.05525 10.8141 3.97832 12.4387 5.40601 13.3618C4.53217 13.3618 3.71986 13.1157 3.00601 12.7464V12.7834C3.00601 15.3434 4.82755 17.4849 7.23986 17.9649C6.46537 18.1768 5.65229 18.2063 4.86448 18.051C5.19876 19.1003 5.85344 20.0183 6.7365 20.6762C7.61955 21.3341 8.68656 21.6987 9.78755 21.7187C7.92125 23.1962 5.60786 23.9948 3.22755 23.9834C2.80909 23.9834 2.39063 23.9587 1.97217 23.9095C4.31063 25.411 7.09217 26.2849 10.0706 26.2849C19.7691 26.2849 25.0983 18.2357 25.0983 11.2572C25.0983 11.0234 25.0983 10.8018 25.086 10.568C26.1199 9.82951 27.006 8.89412 27.7199 7.82335Z" fill="#1A1A1A"/>
</svg>
