<svg width="30" height="30" viewBox="0 0 30 30" fill="none" xmlns="http://www.w3.org/2000/svg">
<path fill-rule="evenodd" clip-rule="evenodd" d="M22.9213 3.4909L23.1747 3.63936L25.8149 5.31433C26.1488 5.5264 26.4281 5.80748 26.632 6.13661C26.8359 6.46574 26.959 6.83443 26.9923 7.21517L27.0016 7.42581V23.3368C27.0016 23.9421 26.7742 24.5275 26.3604 24.9872C25.9467 25.447 25.3739 25.7509 24.7454 25.8442L24.5388 25.867L9.16574 26.9925C8.75655 27.0225 8.34561 26.9621 7.96492 26.8162C7.58424 26.6703 7.24408 26.4427 6.97093 26.1512L6.82825 25.985L3.80005 22.1427C3.33984 21.5586 3.06582 20.8609 3.01067 20.1328L3 19.8587V6.65304C3.00005 6.04773 3.22744 5.46237 3.64116 5.00258C4.05487 4.5428 4.62766 4.23888 5.25615 4.14566L5.46283 4.12282L20.6478 3.01125C21.4384 2.95329 22.2293 3.12024 22.92 3.4909H22.9213ZM24.3348 9.38629L9.66711 10.4598V24.4103L24.3348 23.3368V9.38629ZM20.3345 11.1882C20.6881 11.1882 21.0273 11.3218 21.2774 11.5598C21.5274 11.7978 21.6679 12.1205 21.6679 12.4571V21.3395C21.6679 21.676 21.5274 21.9988 21.2774 22.2368C21.0273 22.4747 20.6881 22.6084 20.3345 22.6084H19.6678C19.44 22.6085 19.2159 22.553 19.017 22.4473C18.8182 22.3415 18.6511 22.1891 18.5317 22.0044L15.0008 16.543V21.974C15.0008 22.3105 14.8603 22.6333 14.6102 22.8712C14.3602 23.1092 14.021 23.2429 13.6674 23.2429C13.3137 23.2429 12.9746 23.1092 12.7245 22.8712C12.4744 22.6333 12.334 22.3105 12.334 21.974V13.0915C12.334 12.755 12.4744 12.4322 12.7245 12.1943C12.9746 11.9563 13.3137 11.8226 13.6674 11.8226H14.3341C14.5619 11.8226 14.7859 11.878 14.9848 11.9838C15.1837 12.0895 15.3508 12.242 15.4702 12.4266L19.0011 17.8868V12.4571C19.0011 12.1205 19.1416 11.7978 19.3916 11.5598C19.6417 11.3218 19.9808 11.1882 20.3345 11.1882ZM20.8519 5.54147L7.32695 6.53122L8.84306 7.97399L23.508 6.90175L21.6946 5.75084C21.4462 5.59325 21.1495 5.51953 20.8519 5.54147Z" fill="#1A1A1A"/>
</svg>
