<svg width="250" height="112" viewBox="0 0 250 112" fill="none" xmlns="http://www.w3.org/2000/svg">
<g filter="url(#filter0_d_1546_37377)">
<rect x="17" y="11" width="215.386" height="78" rx="39" fill="white" shape-rendering="crispEdges"/>
<path d="M95.8173 51.146H102.301C103.212 51.146 103.951 51.9479 103.951 52.927C103.951 53.9062 103.212 54.708 102.301 54.708H94.4813C94.3556 54.708 94.2377 54.7587 94.1513 54.8431L91.7937 57.0293C91.4322 57.3669 91.6523 58 92.1238 58H101.908C101.908 58 101.916 58 101.916 57.9916C101.916 57.9831 101.923 57.9831 101.923 57.9831C102.049 57.9916 102.167 58 102.301 58C104.894 58 107 55.7294 107 52.927C107 50.2681 105.106 48.0819 102.686 47.8709C102.686 47.8709 102.678 47.8709 102.678 47.8625C102.678 47.854 102.678 47.854 102.67 47.854H95.6915C94.78 47.854 94.0413 47.0521 94.0413 46.073C94.0413 45.0854 94.78 44.292 95.6915 44.292H103.495C103.621 44.292 103.747 44.2413 103.841 44.1485L106.033 41.9623C106.379 41.6246 106.151 41 105.688 41H95.8251C95.7859 41 95.7387 41 95.6994 41C93.1061 41 91 43.2706 91 46.073C91 48.8754 93.1061 51.146 95.6994 51.146C95.7387 51.146 95.778 51.146 95.8173 51.146Z" fill="black"/>
<path d="M134.533 41C134.238 41 134 41.2445 134 41.5565V57.4435C134 57.747 134.238 58 134.533 58H146.911C147.059 58 147.198 57.9325 147.304 57.8229L148.854 56.1111C149.174 55.7569 148.936 55.1835 148.46 55.1835H137.656C137.361 55.1835 137.123 54.939 137.123 54.627V41.5565C137.123 41.253 136.886 41 136.59 41H134.533Z" fill="black"/>
<path fill-rule="evenodd" clip-rule="evenodd" d="M114.912 41C114.904 41.0084 114.912 41.0084 114.912 41C113.338 41.076 112.073 42.385 112 44.0149V54.7149C112 54.7571 112 54.8078 112 54.85C112 56.5474 113.289 57.9324 114.912 58H126.088C127.703 57.924 129 56.539 129 54.85C129 54.8078 129 54.7571 129 54.7149V44.0233C128.935 42.3934 127.67 41.076 126.096 41.0084H114.912V41ZM116.992 44.0233C116.005 44.0656 115.214 44.8932 115.173 45.9235V52.6542C115.173 52.6796 115.173 52.7134 115.173 52.7387C115.173 53.8028 115.981 54.6811 116.992 54.7233H124C125.011 54.6811 125.819 53.8028 125.819 52.7387C125.819 52.7134 125.819 52.6796 125.819 52.6542V45.9235C125.778 44.8932 124.987 44.074 124 44.0233H116.992Z" fill="black"/>
<path fill-rule="evenodd" clip-rule="evenodd" d="M166.804 57.4347C166.804 57.7385 167.044 57.9916 167.342 57.9916H169.462C169.76 57.9916 170 57.7469 170 57.4347V44.2819C170 44.2397 170 44.1891 170 44.1469C170 42.4511 168.7 41.0675 167.077 41H156.188C156.147 41 156.097 41 156.056 41C154.366 41 153 42.4089 153 44.1553C153 44.1975 153 44.2481 153 44.2903V57.4432C153 57.7469 153.24 58 153.538 58H155.658C155.956 58 156.196 57.7553 156.196 57.4432V51.9677C156.196 51.664 156.436 51.4109 156.735 51.4109H166.29C166.588 51.4109 166.829 51.6556 166.829 51.9677V57.4347H166.804ZM156.171 48.3821V45.6486C156.171 44.5856 157.008 43.7251 158.035 43.7251H164.941C165.967 43.7251 166.804 44.5856 166.804 45.6486V48.3821C166.804 48.6859 166.564 48.939 166.265 48.939H156.71C156.412 48.939 156.171 48.6943 156.171 48.3821Z" fill="black"/>
<path fill-rule="evenodd" clip-rule="evenodd" d="M211.33 58C211.036 58 210.798 57.7553 210.798 57.4432V51.9677C210.798 51.664 210.561 51.4109 210.266 51.4109H200.71C200.415 51.4109 200.177 51.6556 200.177 51.9677V57.4432C200.177 57.7469 199.94 58 199.645 58H197.532C197.237 58 197 57.7553 197 57.4432V44.2903C197 44.2481 197 44.1975 197 44.1553C197 42.4174 198.368 41 200.054 41C200.095 41 200.145 41 200.185 41H211.077C212.698 41.0759 214 42.4596 214 44.1469C214 44.1891 214 44.2397 214 44.2819V57.4347C214 57.7385 213.763 57.9916 213.468 57.9916H211.33V58ZM200.169 45.6571V48.3906C200.169 48.6943 200.407 48.9474 200.701 48.9474H210.258C210.553 48.9474 210.79 48.7027 210.79 48.3906V45.6571C210.79 44.594 209.955 43.7335 208.931 43.7335H202.028C201.004 43.7335 200.169 44.594 200.169 45.6571Z" fill="black"/>
<path d="M177.968 41C178.125 41 178.274 41.0674 178.374 41.1939L187.866 52.7323C188.188 53.12 188.808 52.884 188.808 52.3699V41.5563C188.808 41.2528 189.048 41 189.346 41H191.463C191.76 41 192 41.2444 192 41.5563V57.4353C192 57.7387 191.76 57.9916 191.463 57.9916H188.833C188.825 57.9916 188.817 57.9831 188.817 57.9747C188.817 57.9663 188.817 57.9663 188.808 57.9579L179.151 46.5037C178.828 46.116 178.208 46.3604 178.208 46.8661V57.4437C178.208 57.7471 177.968 58 177.671 58H175.537C175.24 58 175 57.7556 175 57.4437V41.5563C175 41.2528 175.24 41 175.537 41H177.968Z" fill="black"/>
<path d="M41.9832 58.3933C42.2469 58.1416 42.6013 58 42.9721 58H77.2966C77.9229 58 78.2361 58.7237 77.7911 59.1406L71.0086 65.6067C70.7449 65.8584 70.3905 66 70.0196 66H35.7034C35.0771 66 34.7639 65.2763 35.2089 64.8594L41.9832 58.3933Z" fill="url(#paint0_linear_1546_37377)"/>
<path d="M41.9832 33.3933C42.2469 33.1416 42.6013 33 42.9721 33H77.2966C77.9229 33 78.2361 33.7237 77.7911 34.1406L71.0086 40.6067C70.7449 40.8584 70.3905 41 70.0196 41H35.7034C35.0771 41 34.7639 40.2763 35.2089 39.8594L41.9832 33.3933Z" fill="url(#paint1_linear_1546_37377)"/>
<path d="M71.0017 45.4425C70.738 45.1593 70.3837 45 70.0129 45H35.7033C35.0771 45 34.7639 45.8142 35.2089 46.2832L41.9901 53.5575C42.2537 53.8407 42.608 54 42.9788 54H77.2967C77.9229 54 78.236 53.1858 77.7911 52.7168L71.0017 45.4425Z" fill="url(#paint2_linear_1546_37377)"/>
</g>
<defs>
<filter id="filter0_d_1546_37377" x="0" y="0" width="249.386" height="112" filterUnits="userSpaceOnUse" color-interpolation-filters="sRGB">
<feFlood flood-opacity="0" result="BackgroundImageFix"/>
<feColorMatrix in="SourceAlpha" type="matrix" values="0 0 0 0 0 0 0 0 0 0 0 0 0 0 0 0 0 0 127 0" result="hardAlpha"/>
<feOffset dy="6"/>
<feGaussianBlur stdDeviation="8.5"/>
<feComposite in2="hardAlpha" operator="out"/>
<feColorMatrix type="matrix" values="0 0 0 0 0 0 0 0 0 0 0 0 0 0 0 0 0 0 0.06 0"/>
<feBlend mode="normal" in2="BackgroundImageFix" result="effect1_dropShadow_1546_37377"/>
<feBlend mode="normal" in="SourceGraphic" in2="effect1_dropShadow_1546_37377" result="shape"/>
</filter>
<linearGradient id="paint0_linear_1546_37377" x1="74.0193" y1="29.9711" x2="51.958" y2="74.2414" gradientUnits="userSpaceOnUse">
<stop stop-color="#00FFA3"/>
<stop offset="1" stop-color="#DC1FFF"/>
</linearGradient>
<linearGradient id="paint1_linear_1546_37377" x1="63.6332" y1="23.9605" x2="41.5718" y2="68.2308" gradientUnits="userSpaceOnUse">
<stop stop-color="#00FFA3"/>
<stop offset="1" stop-color="#DC1FFF"/>
</linearGradient>
<linearGradient id="paint2_linear_1546_37377" x1="68.7867" y1="24.219" x2="42.264" y2="71.5191" gradientUnits="userSpaceOnUse">
<stop stop-color="#00FFA3"/>
<stop offset="1" stop-color="#DC1FFF"/>
</linearGradient>
</defs>
</svg>
