<svg width="161" height="58" viewBox="0 0 161 58" fill="none" xmlns="http://www.w3.org/2000/svg">
<g style="mix-blend-mode:luminosity">
<path d="M58.7669 29.853H63.5878C64.2657 29.853 64.815 30.4493 64.815 31.1774C64.815 31.9055 64.2657 32.5018 63.5878 32.5018H57.7735C57.68 32.5018 57.5923 32.5394 57.5281 32.6022L55.775 34.2278C55.5062 34.4789 55.6698 34.9496 56.0204 34.9496H63.2956C63.2956 34.9496 63.3015 34.9496 63.3015 34.9433C63.3015 34.9371 63.3073 34.9371 63.3073 34.9371C63.4008 34.9433 63.4885 34.9496 63.5878 34.9496C65.5162 34.9496 67.0822 33.2612 67.0822 31.1774C67.0822 29.2003 65.674 27.5746 63.8741 27.4177C63.8741 27.4177 63.8683 27.4177 63.8683 27.4114C63.8683 27.4052 63.8683 27.4052 63.8625 27.4052H58.6734C57.9956 27.4052 57.4463 26.8089 57.4463 26.0808C57.4463 25.3465 57.9956 24.7565 58.6734 24.7565H64.476C64.5695 24.7565 64.663 24.7188 64.7332 24.6498L66.3635 23.0241C66.6206 22.7731 66.4511 22.3086 66.1064 22.3086H58.7727C58.7435 22.3086 58.7085 22.3086 58.6793 22.3086C56.7509 22.3086 55.1848 23.997 55.1848 26.0808C55.1848 28.1646 56.7509 29.853 58.6793 29.853C58.7085 29.853 58.7377 29.853 58.7669 29.853Z" fill="black"/>
<path d="M87.5554 22.3086C87.336 22.3086 87.1592 22.4904 87.1592 22.7224V34.5358C87.1592 34.7615 87.336 34.9496 87.5554 34.9496H96.7597C96.8694 34.9496 96.973 34.8995 97.0523 34.8179L98.2043 33.5451C98.4421 33.2817 98.2653 32.8553 97.9117 32.8553H89.8778C89.6584 32.8553 89.4816 32.6735 89.4816 32.4415V22.7224C89.4816 22.4967 89.3048 22.3086 89.0854 22.3086H87.5554Z" fill="black"/>
<path fill-rule="evenodd" clip-rule="evenodd" d="M72.9655 22.3086C72.9595 22.3149 72.9655 22.3149 72.9655 22.3086C71.7948 22.3651 70.8546 23.3385 70.8 24.5504V32.5068C70.8 32.5382 70.8 32.5759 70.8 32.6073C70.8 33.8695 71.7584 34.8994 72.9655 34.9496H81.2756C82.4766 34.8931 83.4411 33.8632 83.4411 32.6073C83.4411 32.5759 83.4411 32.5382 83.4411 32.5068V24.5567C83.3926 23.3447 82.4524 22.3651 81.2817 22.3149H72.9655V22.3086ZM74.5123 24.5567C73.7783 24.5881 73.19 25.2035 73.1596 25.9697V30.9746C73.1596 30.9934 73.1596 31.0185 73.1596 31.0374C73.1596 31.8286 73.7601 32.4817 74.5123 32.5131H79.7228C80.4749 32.4817 81.0754 31.8286 81.0754 31.0374C81.0754 31.0185 81.0754 30.9934 81.0754 30.9746V25.9697C81.0451 25.2035 80.4567 24.5944 79.7228 24.5567H74.5123Z" fill="black"/>
<path fill-rule="evenodd" clip-rule="evenodd" d="M111.552 34.5293C111.552 34.7551 111.73 34.9433 111.952 34.9433H113.528C113.75 34.9433 113.928 34.7614 113.928 34.5293V24.749C113.928 24.7176 113.928 24.68 113.928 24.6486C113.928 23.3876 112.962 22.3588 111.755 22.3086H103.658C103.627 22.3086 103.59 22.3086 103.559 22.3086C102.303 22.3086 101.287 23.3563 101.287 24.6549C101.287 24.6862 101.287 24.7239 101.287 24.7552V34.5356C101.287 34.7614 101.466 34.9496 101.688 34.9496H103.264C103.486 34.9496 103.664 34.7677 103.664 34.5356V30.4641C103.664 30.2383 103.843 30.05 104.064 30.05H111.17C111.392 30.05 111.57 30.232 111.57 30.4641V34.5293H111.552ZM103.646 27.7979V25.7653C103.646 24.9748 104.268 24.3349 105.031 24.3349H110.166C110.93 24.3349 111.552 24.9748 111.552 25.7653V27.7979C111.552 28.0237 111.373 28.2119 111.151 28.2119H104.046C103.824 28.2119 103.646 28.03 103.646 27.7979Z" fill="black"/>
<path fill-rule="evenodd" clip-rule="evenodd" d="M144.661 34.9496C144.442 34.9496 144.265 34.7677 144.265 34.5356V30.4641C144.265 30.2383 144.089 30.05 143.87 30.05H136.764C136.544 30.05 136.368 30.232 136.368 30.4641V34.5356C136.368 34.7614 136.191 34.9496 135.972 34.9496H134.401C134.182 34.9496 134.005 34.7677 134.005 34.5356V24.7552C134.005 24.7239 134.005 24.6862 134.005 24.6549C134.005 23.3625 135.022 22.3086 136.276 22.3086C136.307 22.3086 136.343 22.3086 136.374 22.3086H144.472C145.678 22.3651 146.646 23.3939 146.646 24.6486C146.646 24.68 146.646 24.7176 146.646 24.749V34.5293C146.646 34.7551 146.47 34.9433 146.25 34.9433H144.661V34.9496ZM136.362 25.7715V27.8041C136.362 28.03 136.538 28.2182 136.757 28.2182H143.863C144.083 28.2182 144.259 28.0363 144.259 27.8041V25.7715C144.259 24.9811 143.638 24.3412 142.877 24.3412H137.744C136.983 24.3412 136.362 24.9811 136.362 25.7715Z" fill="black"/>
<path d="M119.853 22.3086C119.97 22.3086 120.081 22.3587 120.155 22.4527L127.213 31.0326C127.453 31.3209 127.914 31.1454 127.914 30.7631V22.7222C127.914 22.4966 128.092 22.3086 128.314 22.3086H129.888C130.109 22.3086 130.287 22.4903 130.287 22.7222V34.5297C130.287 34.7553 130.109 34.9434 129.888 34.9434H127.932C127.926 34.9434 127.92 34.9371 127.92 34.9308C127.92 34.9246 127.92 34.9246 127.914 34.9183L120.733 26.4011C120.493 26.1128 120.032 26.2946 120.032 26.6706V34.536C120.032 34.7616 119.854 34.9496 119.632 34.9496H118.046C117.825 34.9496 117.646 34.7679 117.646 34.536V22.7222C117.646 22.4966 117.825 22.3086 118.046 22.3086H119.853Z" fill="black"/>
<path d="M18.7363 35.2417C18.9324 35.0545 19.1959 34.9492 19.4717 34.9492H44.995C45.4608 34.9492 45.6936 35.4874 45.3627 35.7974L40.3193 40.6055C40.1232 40.7926 39.8597 40.8979 39.584 40.8979H14.0667C13.601 40.8979 13.3681 40.3598 13.6991 40.0498L18.7363 35.2417Z" fill="url(#paint0_linear_1726_32162)"/>
<path d="M18.7363 16.6518C18.9324 16.4647 19.1959 16.3594 19.4717 16.3594H44.995C45.4608 16.3594 45.6936 16.8975 45.3627 17.2075L40.3193 22.0156C40.1232 22.2028 39.8597 22.3081 39.584 22.3081H14.0667C13.601 22.3081 13.3681 21.77 13.6991 21.4599L18.7363 16.6518Z" fill="url(#paint1_linear_1726_32162)"/>
<path d="M40.3142 25.6122C40.1181 25.4017 39.8547 25.2832 39.579 25.2832H14.0666C13.601 25.2832 13.3682 25.8886 13.699 26.2374L18.7414 31.6465C18.9375 31.8571 19.201 31.9755 19.4767 31.9755H44.9951C45.4608 31.9755 45.6936 31.3701 45.3627 31.0213L40.3142 25.6122Z" fill="url(#paint2_linear_1726_32162)"/>
</g>
<defs>
<linearGradient id="paint0_linear_1726_32162" x1="42.5581" y1="14.1072" x2="26.1535" y2="47.0262" gradientUnits="userSpaceOnUse">
<stop stop-color="#00FFA3"/>
<stop offset="1" stop-color="#DC1FFF"/>
</linearGradient>
<linearGradient id="paint1_linear_1726_32162" x1="34.835" y1="9.63772" x2="18.4304" y2="42.5566" gradientUnits="userSpaceOnUse">
<stop stop-color="#00FFA3"/>
<stop offset="1" stop-color="#DC1FFF"/>
</linearGradient>
<linearGradient id="paint2_linear_1726_32162" x1="38.6672" y1="9.83068" x2="18.9451" y2="45.0025" gradientUnits="userSpaceOnUse">
<stop stop-color="#00FFA3"/>
<stop offset="1" stop-color="#DC1FFF"/>
</linearGradient>
</defs>
</svg>
