<svg width="170" height="38" viewBox="0 0 170 38" fill="none" xmlns="http://www.w3.org/2000/svg">
<path d="M62.7921 28.4134C62.8134 28.4562 62.8245 28.5034 62.8245 28.5512C62.8245 28.722 62.686 28.8604 62.5153 28.8604H61.1519C60.6491 28.8604 60.1903 28.5739 59.9696 28.1222L57.8769 23.838C57.6562 23.3862 57.1973 23.0997 56.6946 23.0997H45.8667C45.364 23.0997 44.9051 23.3862 44.6844 23.838L42.5917 28.1222C42.371 28.5739 41.9121 28.8604 41.4094 28.8604H40.046C39.8753 28.8604 39.7368 28.722 39.7368 28.5512C39.7368 28.5034 39.7479 28.4562 39.7692 28.4134L49.5745 8.71122C49.7969 8.26422 50.2532 7.98169 50.7525 7.98169H51.8088C52.3081 7.98169 52.7644 8.26422 52.9868 8.71122L62.7921 28.4134ZM54.3109 20.8487C55.2864 20.8487 55.9228 19.8244 55.4905 18.9499L52.4602 12.8189C51.9773 11.8419 50.584 11.8419 50.1011 12.8189L47.0708 18.9499C46.6385 19.8244 47.2749 20.8487 48.2504 20.8487H54.3109Z" fill="#3568DD"/>
<path d="M67.718 7.98169C68.398 7.98169 68.9493 8.53289 68.9493 9.21282V27.6293C68.9493 28.3092 68.398 28.8604 67.718 28.8604C67.038 28.8604 66.4869 28.3092 66.4869 27.6293V9.21282C66.4869 8.53289 67.038 7.98169 67.718 7.98169Z" fill="#3568DD"/>
<path d="M95.1653 14.4108C95.1653 16.1719 94.504 17.5829 93.1826 18.6438C91.8606 19.6835 90.6493 20.2034 86.1406 20.2034C86.0786 20.2034 86.0466 20.2763 86.088 20.322L93.392 28.3997C93.438 28.4504 93.4633 28.5163 93.4633 28.5847C93.4633 28.737 93.34 28.8604 93.1873 28.8604H91.2313C90.8606 28.8604 90.5073 28.704 90.2573 28.4295L83.174 20.6343C82.9246 20.3598 82.5713 20.2034 82.2006 20.2034H78.7653C78.0386 20.2034 77.45 20.7925 77.45 21.5192V27.6453C77.45 28.3164 76.9053 28.8604 76.2346 28.8604C75.5633 28.8604 75.0193 28.3164 75.0193 27.6453V9.29742C75.0193 8.57076 75.6086 7.98169 76.3353 7.98169H87.7786C90.0806 7.98169 91.882 8.52276 93.1826 9.60489C94.504 10.6658 95.1653 12.1298 95.1653 13.997V14.4108ZM87.7146 18.0391C89.2706 18.0391 90.486 17.7102 91.36 17.0525C92.2553 16.3947 92.7026 15.4823 92.7026 14.3153V13.9016C92.7026 12.7346 92.266 11.8222 91.392 11.1644C90.518 10.5066 89.292 10.1778 87.7146 10.1778H78.7653C78.0386 10.1778 77.45 10.7668 77.45 11.4936V16.7233C77.45 17.45 78.0386 18.0391 78.7653 18.0391H87.7146Z" fill="#3568DD"/>
<path d="M109.672 7.98169C113.381 7.98169 116.217 8.85162 118.178 10.5915C120.139 12.3314 121.12 14.8564 121.12 18.1664V18.7075C121.12 22.0176 120.139 24.5425 118.178 26.2824C116.238 28.0011 113.403 28.8604 109.672 28.8604H101.459C100.732 28.8604 100.143 28.2713 100.143 27.5446V9.29742C100.143 8.57076 100.732 7.98169 101.459 7.98169H109.672ZM109.672 26.6643C112.635 26.6643 114.863 26.0066 116.355 24.691C117.869 23.3543 118.626 21.3704 118.626 18.7393V18.1346C118.626 15.5248 117.869 13.5514 116.355 12.2147C114.842 10.8568 112.603 10.1778 109.64 10.1778H103.889C103.162 10.1778 102.573 10.7668 102.573 11.4936V25.3486C102.573 26.0752 103.162 26.6643 103.889 26.6643H109.672Z" fill="#3568DD"/>
<path d="M145.33 28.4134C145.351 28.4562 145.363 28.5034 145.363 28.5512C145.363 28.722 145.224 28.8604 145.053 28.8604H143.69C143.187 28.8604 142.728 28.5739 142.507 28.1222L140.415 23.838C140.194 23.3862 139.735 23.0997 139.233 23.0997H128.405C127.902 23.0997 127.443 23.3862 127.223 23.838L125.129 28.1222C124.909 28.5739 124.45 28.8604 123.947 28.8604H122.584C122.413 28.8604 122.275 28.722 122.275 28.5512C122.275 28.5034 122.286 28.4562 122.307 28.4134L132.113 8.71122C132.335 8.26422 132.791 7.98169 133.291 7.98169H134.347C134.846 7.98169 135.302 8.26422 135.525 8.71122L145.33 28.4134ZM136.849 20.8487C137.825 20.8487 138.461 19.8244 138.029 18.9499L134.998 12.8189C134.515 11.8419 133.122 11.8419 132.639 12.8189L129.609 18.9499C129.177 19.8244 129.813 20.8487 130.788 20.8487H136.849Z" fill="#3568DD"/>
<path d="M158.264 29.2105C155.877 29.2105 153.798 28.7862 152.029 27.9375C150.259 27.0675 148.895 25.8369 147.935 24.2455C146.976 22.6541 146.497 20.7975 146.497 18.6757V18.1983C146.497 16.0553 146.976 14.1881 147.935 12.5967C148.895 11.0053 150.259 9.78526 152.029 8.93652C153.798 8.06659 155.877 7.63159 158.264 7.63159C160.631 7.63159 162.699 8.06659 164.468 8.93652C166.237 9.80646 167.602 11.0371 168.561 12.6285C169.521 14.2199 170 16.0765 170 18.1983V18.6757C170 20.7975 169.521 22.6541 168.561 24.2455C167.602 25.8369 166.237 27.0675 164.468 27.9375C162.699 28.7862 160.631 29.2105 158.264 29.2105ZM158.264 26.9508C161.163 26.9508 163.423 26.2188 165.043 24.7547C166.685 23.2907 167.506 21.2749 167.506 18.7075V18.1665C167.506 15.5991 166.685 13.5833 165.043 12.1193C163.402 10.634 161.142 9.89132 158.264 9.89132C155.365 9.89132 153.084 10.634 151.421 12.1193C149.779 13.5833 148.959 15.5991 148.959 18.1665V18.7075C148.959 21.2749 149.779 23.2907 151.421 24.7547C153.084 26.2188 155.365 26.9508 158.264 26.9508Z" fill="#3568DD"/>
<path fill-rule="evenodd" clip-rule="evenodd" d="M1.40398 36.7634C1.16426 36.9095 0.852033 36.8418 0.694447 36.6094L0.0908352 35.7195C-0.0667535 35.4871 -0.0138367 35.1724 0.207273 34.9994C2.19535 33.4438 3.82951 31.6904 5.11469 29.8125C9.90007 22.8199 9.90007 14.0205 5.11469 7.02787C3.82951 5.14995 2.19535 3.39657 0.207274 1.84097C-0.0138355 1.66797 -0.0667528 1.35328 0.0908359 1.12093L0.694447 0.230946C0.852033 -0.00140736 1.16426 -0.0691608 1.40398 0.0769732L28.2163 16.4216C29.7127 17.3338 29.7127 19.5065 28.2163 20.4187L1.40398 36.7634Z" fill="url(#paint0_linear_2894_24306)"/>
<defs>
<linearGradient id="paint0_linear_2894_24306" x1="32.7629" y1="18.7465" x2="-10.7897" y2="18.7465" gradientUnits="userSpaceOnUse">
<stop stop-color="#3568DD"/>
<stop offset="1" stop-color="#3568DD" stop-opacity="0.6"/>
</linearGradient>
</defs>
</svg>
