<svg width="145" height="35" viewBox="0 0 145 35" fill="none" xmlns="http://www.w3.org/2000/svg">
<g clip-path="url(#clip0_2895_25467)">
<path d="M111.093 11.4434H108.095C107.752 11.4434 107.41 11.2984 107.167 11.0316L105.949 9.66864C105.583 9.28004 104.997 9.22784 104.586 9.59324C104.562 9.61644 104.539 9.63964 104.51 9.66864L103.46 10.8402C103.118 11.2288 102.631 11.4492 102.121 11.4492H85.6776C85.2136 12.8122 84.9004 14.2274 84.7786 15.6658H100.294C100.56 15.6658 100.827 15.544 101.024 15.3468L102.463 13.8388C102.631 13.6416 102.898 13.5488 103.141 13.5488H103.188C103.455 13.5488 103.721 13.6706 103.919 13.8678L105.137 15.2308C105.357 15.4976 105.699 15.6426 106.065 15.6426H118.732C118.61 14.2042 118.32 12.7948 117.833 11.426H111.087V11.4434H111.093ZM94.192 24.4992C94.4588 24.4992 94.7256 24.3774 94.9228 24.1802L96.3612 22.6722C96.5294 22.475 96.802 22.3822 97.0456 22.3822H97.121C97.3878 22.3822 97.6546 22.504 97.8518 22.7012L99.0698 24.0642C99.3134 24.331 99.6324 24.476 99.9978 24.476H117.16C117.815 23.1362 118.279 21.6978 118.575 20.2362H102.086C101.744 20.2362 101.401 20.0912 101.187 19.8244L99.9688 18.4614C99.8006 18.2642 99.528 18.1424 99.238 18.1424C98.9712 18.1424 98.7044 18.2642 98.5304 18.4614L97.4806 19.633C97.1384 20.0216 96.6512 20.242 96.1176 20.242H85.057C85.3238 21.7036 85.811 23.142 86.4432 24.505H94.192V24.4992ZM106.366 6.83824C106.633 6.83824 106.9 6.71644 107.097 6.51924L108.535 5.01124C108.704 4.81404 108.976 4.72124 109.22 4.72124H109.295C109.562 4.72124 109.829 4.84304 110.003 5.04024L111.221 6.40324C111.464 6.67004 111.783 6.81504 112.143 6.81504H115.408C109.759 -0.713365 99.0872 -2.22137 91.5646 3.42784C90.277 4.40224 89.1286 5.52164 88.1774 6.81504H106.372L106.366 6.83824ZM99.7948 28.71H95.3346C94.9924 28.71 94.6502 28.565 94.4356 28.2982L93.2176 26.9352C92.8522 26.5466 92.2432 26.4944 91.8546 26.8598C91.8314 26.883 91.8082 26.9062 91.7792 26.9352L90.7294 28.13C90.3872 28.5186 89.9 28.739 89.3896 28.739H89.3142C95.7174 35.6062 106.511 35.9948 113.378 29.5916C113.668 29.3248 113.964 29.029 114.231 28.739L99.7948 28.71ZM26.4248 33.0252L22.968 24.5978H7.4762L4.0194 33.0252H0L15.196 1.16584L30.4442 33.0252H26.4248ZM8.7928 21.402H21.6282L15.1728 7.81264L8.7928 21.402ZM35.9774 33.0252V1.16584H44.8456C51.7882 1.16584 55.419 4.33264 55.419 10.324C55.419 16.095 51.5446 19.4068 44.7992 19.4068H39.7068V32.9962H35.9774V33.0252ZM39.73 16.095H43.964C49.3232 16.095 51.6838 14.3434 51.6838 10.324C51.6838 6.18284 49.2942 4.47763 43.9872 4.47763H39.7474L39.73 16.095ZM69.0026 4.54724H58.0174V1.13684H83.7404V4.54724H72.7552V33.0194H69.0258V4.54724H69.0026ZM124.004 27.202L127.217 25.0096L127.461 25.52C129.433 29.1276 131.602 30.5602 134.891 30.5602C138.545 30.5602 141.102 28.0256 141.102 24.9806C141.102 22.1038 139.664 20.1608 133.893 17.7712C127.269 15.0162 125.025 12.1916 125.025 8.12584C125.025 3.71784 128.482 0.261035 134.473 0.261035C138.881 0.261035 141.903 2.13443 143.608 5.20264L141.004 7.00644L140.25 6.80924C138.887 4.69804 137.228 3.48004 134.403 3.48004C130.947 3.48004 128.922 5.42884 128.922 8.03304C128.922 10.469 130.216 11.8552 135.865 14.4362C143.196 17.7712 145 20.503 145 24.9342C145 29.7598 140.859 33.8488 134.966 33.8488C129.995 33.901 126.585 31.9986 124.004 27.202Z" fill="black"/>
</g>
<defs>
<clipPath id="clip0_2895_25467">
<rect width="145" height="34.162" fill="white"/>
</clipPath>
</defs>
</svg>
