<svg width="160" height="41" viewBox="0 0 160 41" fill="none" xmlns="http://www.w3.org/2000/svg">
<g clip-path="url(#clip0_2895_25098)">
<path d="M1.38879 12.3967V28.3711C1.38879 29.3503 1.95839 30.3295 2.77759 30.8159L16.6336 38.8031C17.5296 39.2895 18.592 39.2895 19.488 38.8031L33.344 30.8159C34.24 30.3295 34.7328 29.3503 34.7328 28.3711V12.3967C34.7328 11.4175 34.1632 10.4383 33.344 9.95185L19.4816 1.96465C18.5856 1.47825 17.5232 1.47825 16.6272 1.96465L2.77119 9.95185C1.87519 10.4383 1.38879 11.4175 1.38879 12.3967Z" fill="#213147"/>
<path d="M21.1136 23.4816L19.1552 28.864C19.072 29.024 19.072 29.1904 19.1552 29.3504L22.5792 38.6432L26.4896 36.3584L21.76 23.4816C21.6832 23.1552 21.2736 23.1552 21.1136 23.4816Z" fill="#12AAFF"/>
<path d="M25.0239 14.3552C24.9407 14.0288 24.5375 14.0288 24.3711 14.3552L22.4127 19.7376C22.3295 19.8976 22.3295 20.064 22.4127 20.224L27.9551 35.4688L31.8655 33.184L25.0239 14.3552Z" fill="#12AAFF"/>
<path d="M18.016 2.53435C18.0992 2.53435 18.176 2.53435 18.2592 2.61755L33.2544 11.2575C33.4144 11.3407 33.4976 11.5007 33.4976 11.7439V29.0239C33.4976 29.1839 33.4144 29.4335 33.2544 29.5103L18.2592 38.1503C18.176 38.2336 18.0992 38.2336 18.016 38.2336C17.9328 38.2336 17.856 38.2336 17.7728 38.1503L2.77762 29.5103C2.61762 29.4271 2.53442 29.2671 2.53442 29.0239V11.7439C2.53442 11.5839 2.61762 11.3343 2.77762 11.2575L17.7728 2.61755C17.8496 2.53435 17.9328 2.53435 18.016 2.53435ZM18.016 0.00634766C17.4464 0.00634766 16.9536 0.166348 16.4672 0.415948L1.47202 9.05595C0.492818 9.62555 -0.0767822 10.6047 -0.0767822 11.7439V29.0239C-0.0767822 30.0863 0.492818 31.1423 1.47202 31.7119L16.4672 40.352C16.9536 40.5951 17.4464 40.7616 18.016 40.7616C18.5856 40.7616 19.0784 40.6016 19.5648 40.352L34.56 31.7119C35.5392 31.1423 36.1088 30.1631 36.1088 29.0239V11.7439C36.1088 10.6815 35.5392 9.62555 34.56 9.05595L19.6416 0.415948C19.1552 0.172748 18.6624 0.00634766 18.0928 0.00634766H18.016Z" fill="#9DCCED"/>
<path d="M8.15356 35.4623L9.53596 31.7119L12.3072 33.9967L9.70236 36.4415L8.15356 35.4623Z" fill="#213147"/>
<path d="M16.7936 10.5217H12.96C12.7168 10.5217 12.3904 10.6817 12.3072 10.9313L4.16003 33.2609L8.07043 35.5457L17.0368 11.0081C17.12 10.7649 16.9536 10.5217 16.7104 10.5217H16.7936Z" fill="white"/>
<path d="M23.3921 10.5216H19.5585C19.3153 10.5216 18.9889 10.6816 18.9057 10.9312L9.61926 36.3584L13.5297 38.6432L23.6353 10.9312C23.7185 10.688 23.5521 10.4448 23.3089 10.4448L23.3921 10.5216Z" fill="white"/>
<path d="M52.2496 15.168C52.6592 15.168 52.9856 15.2512 53.2288 15.4112C53.472 15.5712 53.7152 15.8976 53.9648 16.3072L58.9376 25.2736C59.0208 25.3568 59.0208 25.4336 58.9376 25.5168C58.9376 25.6 58.8544 25.6 58.6944 25.6H56.8192C56.6592 25.6 56.576 25.5168 56.4928 25.44L55.424 23.4816H48.416L47.3536 25.44C47.2704 25.6 47.1936 25.6 47.0272 25.6H45.0688C44.9088 25.6 44.8256 25.6 44.8256 25.5168C44.8256 25.4336 44.8256 25.3568 44.8256 25.2736L49.7152 16.3072C49.9584 15.8208 50.2016 15.5712 50.4512 15.4112C50.7008 15.2512 50.9376 15.168 51.264 15.168H52.16H52.2496ZM49.312 21.7728H54.4448L52.0832 17.3696C52 17.2864 52 17.2864 51.9232 17.2864H51.84C51.7568 17.2864 51.68 17.2864 51.68 17.3696L49.312 21.7728Z" fill="#213147"/>
<path d="M69.7728 15.168C70.912 15.168 71.7312 15.4112 72.2176 15.9808C72.704 16.4672 72.9536 17.2864 72.9536 18.2656V19.0784C72.9536 19.9744 72.7936 20.6272 72.4672 21.1136C72.1408 21.6 71.5712 21.9264 70.7584 22.0928L73.2864 25.2736C73.3696 25.3568 73.3696 25.4336 73.3696 25.5168C73.3696 25.6 73.2864 25.6768 73.1264 25.6768H71.168C71.008 25.6768 70.9248 25.6768 70.9248 25.5936C70.8416 25.5936 70.8416 25.5104 70.7648 25.4336L68.4032 22.336H63.5968V25.3504C63.5968 25.5936 63.5136 25.6768 63.2704 25.6768H61.6384C61.3952 25.6768 61.312 25.5936 61.312 25.3504V15.6544C61.312 15.328 61.472 15.168 61.7984 15.168H69.8688H69.7728ZM63.5776 20.544H69.28C69.7664 20.544 70.176 20.4608 70.3424 20.2176C70.5856 19.9744 70.6688 19.648 70.6688 19.2384V18.5856C70.6688 18.0992 70.5856 17.7728 70.3424 17.6064C70.0992 17.3632 69.7728 17.28 69.28 17.28H63.7376C63.5776 17.28 63.5776 17.3632 63.5776 17.44V20.544Z" fill="#213147"/>
<path d="M85.504 15.168C86.5664 15.168 87.296 15.4112 87.7056 15.8208C88.1152 16.2304 88.3584 16.8832 88.3584 17.696V18.432C88.3584 19.2448 88.032 19.8976 87.3792 20.3072C88.032 20.7168 88.4416 21.3696 88.4416 22.2656V23.1616C88.4416 23.5712 88.3584 23.8976 88.2816 24.224C88.2048 24.5504 88.0384 24.7936 87.872 25.0368C87.6288 25.28 87.3856 25.4464 87.0592 25.5232C86.7328 25.6064 86.3232 25.6832 85.8368 25.6832H76.9536C76.6272 25.6832 76.4672 25.5232 76.4672 25.1968V15.6608C76.4672 15.3344 76.6272 15.1744 76.9536 15.1744H85.5936H85.504V15.168ZM78.7392 19.488H84.8512C85.3376 19.488 85.664 19.4048 85.8304 19.2448C85.9968 19.0848 86.0736 18.9184 86.0736 18.592V18.1056C86.0736 17.7792 85.9904 17.536 85.8304 17.4528C85.6704 17.2928 85.344 17.2096 85.0176 17.2096H78.9056C78.7456 17.2096 78.7456 17.2928 78.7456 17.3696V19.488H78.7392ZM78.7392 21.12V23.3216C78.7392 23.4816 78.8224 23.4816 78.8992 23.4816H85.0112C85.4208 23.4816 85.664 23.3984 85.824 23.2384C85.984 23.0784 86.0672 22.8288 86.0672 22.5856V22.016C86.0672 21.6896 85.984 21.4464 85.824 21.28C85.664 21.1136 85.3376 21.0368 84.7616 21.0368H78.656L78.7392 21.12Z" fill="#213147"/>
<path d="M93.9776 15.168C94.2208 15.168 94.304 15.2512 94.304 15.4944V25.2736C94.304 25.5168 94.2208 25.6 93.9776 25.6H92.3456C92.1024 25.6 92.0192 25.5168 92.0192 25.2736V15.4944C92.0192 15.2512 92.1024 15.168 92.3456 15.168H93.9776Z" fill="#213147"/>
<path d="M109.709 15.168C109.952 15.168 110.035 15.2512 110.035 15.4944V16.96C110.035 17.2032 109.952 17.2864 109.709 17.2864H104.979V25.2736C104.979 25.5168 104.896 25.6 104.653 25.6H103.021C102.778 25.6 102.694 25.5168 102.694 25.2736V17.2864H97.9647C97.7215 17.2864 97.6383 17.2032 97.6383 16.96V15.4944C97.6383 15.2512 97.7215 15.168 97.9647 15.168H109.619H109.709Z" fill="#213147"/>
<path d="M121.53 15.168C122.669 15.168 123.488 15.4112 123.974 15.9808C124.461 16.4672 124.71 17.2864 124.71 18.2656V19.0784C124.71 19.9744 124.55 20.6272 124.224 21.1136C123.898 21.6 123.328 21.9264 122.515 22.0928L125.043 25.2736C125.126 25.3568 125.126 25.4336 125.126 25.5168C125.126 25.6 125.043 25.6768 124.883 25.6768H122.925C122.765 25.6768 122.682 25.6768 122.682 25.5936C122.598 25.5936 122.598 25.5104 122.522 25.4336L120.16 22.336H115.354V25.3504C115.354 25.5936 115.27 25.6768 115.027 25.6768H113.395C113.152 25.6768 113.069 25.5936 113.069 25.3504V15.6544C113.069 15.328 113.229 15.168 113.555 15.168H121.626H121.53ZM115.334 20.544H121.037C121.523 20.544 121.933 20.4608 122.099 20.2176C122.342 19.9744 122.426 19.648 122.426 19.2384V18.5856C122.426 18.0992 122.342 17.7728 122.099 17.6064C121.856 17.3632 121.53 17.28 121.037 17.28H115.494C115.334 17.28 115.334 17.3632 115.334 17.44V20.544Z" fill="#213147"/>
<path d="M129.926 15.168C130.17 15.168 130.253 15.2512 130.253 15.4944V21.4464C130.253 21.856 130.253 22.1824 130.336 22.4256C130.419 22.6688 130.496 22.912 130.662 23.0784C130.829 23.2448 130.989 23.3216 131.232 23.4048C131.475 23.488 131.802 23.488 132.211 23.488H136.371C136.781 23.488 137.107 23.488 137.35 23.4048C137.594 23.3216 137.837 23.2448 137.92 23.0784C138.08 22.9184 138.163 22.6688 138.246 22.4256C138.33 22.1824 138.33 21.856 138.33 21.4464V15.4944C138.33 15.2512 138.413 15.168 138.656 15.168H140.288C140.531 15.168 140.614 15.2512 140.614 15.4944V21.6896C140.614 22.4256 140.531 22.9952 140.371 23.4816C140.211 23.968 139.962 24.3776 139.635 24.704C139.309 25.0304 138.899 25.2736 138.33 25.3568C137.76 25.5168 137.19 25.6 136.371 25.6H132.051C131.315 25.6 130.662 25.5168 130.093 25.3568C129.606 25.1968 129.114 24.9472 128.787 24.704C128.461 24.3776 128.218 23.968 128.051 23.4816C127.891 22.9952 127.808 22.3424 127.808 21.6896V15.4944C127.808 15.2512 127.891 15.168 128.134 15.168H129.766H129.926Z" fill="#213147"/>
<path d="M147.04 15.168C147.283 15.168 147.45 15.168 147.61 15.2512C147.77 15.2512 147.936 15.3344 148.019 15.4112C148.102 15.4944 148.262 15.5712 148.346 15.7376C148.429 15.8976 148.506 16.064 148.672 16.3072L151.77 23.4816C151.853 23.5648 151.853 23.6416 152.013 23.6416H152.173C152.256 23.6416 152.333 23.5584 152.416 23.4816L155.514 16.3072C155.597 16.064 155.674 15.8976 155.84 15.7376C155.923 15.5776 156 15.4944 156.166 15.4112C156.25 15.328 156.41 15.2512 156.576 15.2512C156.742 15.2512 156.902 15.168 157.146 15.168H158.778C159.264 15.168 159.674 15.2512 159.84 15.4944C160 15.7376 160.083 16.1472 160.083 16.7168V25.2736C160.083 25.5168 160 25.6 159.757 25.6H158.208C157.965 25.6 157.882 25.5168 157.882 25.2736V17.4528C157.882 17.3696 157.798 17.2928 157.798 17.2928H157.638C157.555 17.2928 157.478 17.376 157.478 17.376L154.464 24.0576C154.381 24.3008 154.221 24.544 154.054 24.7104C153.888 24.8768 153.811 25.0368 153.645 25.1968C153.485 25.28 153.318 25.44 153.158 25.44C152.998 25.5232 152.749 25.5232 152.506 25.5232H151.77C151.526 25.5232 151.283 25.5232 151.117 25.44C150.95 25.3568 150.79 25.28 150.63 25.1968C150.47 25.1136 150.387 24.9536 150.221 24.7104C150.061 24.5504 149.978 24.3008 149.811 24.0576L146.797 17.376C146.797 17.2928 146.714 17.2928 146.637 17.2928H146.477C146.394 17.2928 146.394 17.376 146.394 17.4528V25.28C146.394 25.5232 146.31 25.6064 146.067 25.6064H144.512C144.269 25.6064 144.186 25.5232 144.186 25.28V16.7168C144.186 16.1472 144.269 15.7376 144.429 15.4944C144.589 15.2512 144.998 15.168 145.491 15.168H147.123H147.04Z" fill="#213147"/>
</g>
<defs>
<clipPath id="clip0_2895_25098">
<rect width="160" height="40.768" fill="white"/>
</clipPath>
</defs>
</svg>
