<svg width="170" height="35" viewBox="0 0 170 35" fill="none" xmlns="http://www.w3.org/2000/svg">
<path d="M45.9838 11.2151H47.8308L53.0046 23.218H50.5614L49.4436 20.4715H44.2379L43.152 23.218H40.7621L45.9838 11.2151ZM48.6984 18.6404L46.8514 13.7594L44.9671 18.6404H48.6984Z" fill="black"/>
<path d="M55.2933 11.2151H57.7525L61.026 20.2852L64.4007 11.2151H66.7054L61.8564 23.218H60.0093L55.2933 11.2151Z" fill="black"/>
<path d="M74.3437 11.2151H76.1907L81.3592 23.218H78.916L77.7982 20.4715H72.5925L71.5066 23.218H69.1167L74.3437 11.2151ZM77.053 18.6404L75.206 13.7594L73.3217 18.6404H77.053Z" fill="black"/>
<path d="M86.0858 11.2151H88.2203V21.2859H93.3248V23.218H86.0858V11.2151Z" fill="black"/>
<path d="M102.155 11.2151H104.002L109.176 23.218H106.733L105.615 20.4715H100.404L99.3184 23.218H96.9285L102.155 11.2151ZM104.865 18.6404L103.018 13.7594L101.133 18.6404H104.865Z" fill="black"/>
<path d="M113.898 11.2151H116.729L122.547 20.1361H122.579V11.2151H124.714V23.218H121.999L116.064 14.0096H116.032V23.218H113.898V11.2151Z" fill="black"/>
<path d="M139.027 14.031C138.585 13.5573 138.159 13.2379 137.738 13.0835C137.334 12.9238 136.919 12.844 136.504 12.844C135.881 12.844 135.317 12.9558 134.806 13.1847C134.311 13.3976 133.879 13.7063 133.517 14.1002C133.156 14.4834 132.873 14.9359 132.671 15.4575C132.48 15.9791 132.384 16.538 132.384 17.1342C132.384 17.7782 132.48 18.3744 132.671 18.912C132.873 19.4549 133.156 19.9233 133.517 20.3172C133.879 20.7111 134.311 21.0252 134.806 21.2487C135.317 21.4723 135.881 21.5894 136.504 21.5894C136.988 21.5894 137.456 21.4776 137.909 21.2487C138.372 21.0092 138.803 20.6366 139.197 20.1309L140.959 21.3871C140.416 22.1323 139.756 22.6752 138.973 23.0159C138.196 23.3566 137.361 23.5269 136.482 23.5269C135.556 23.5269 134.704 23.3778 133.922 23.0851C133.156 22.7817 132.485 22.3559 131.921 21.8129C131.367 21.2594 130.931 20.5993 130.617 19.8275C130.303 19.061 130.143 18.2041 130.143 17.2673C130.143 16.3038 130.303 15.4362 130.617 14.6537C130.931 13.8607 131.367 13.19 131.921 12.6364C132.485 12.0828 133.15 11.657 133.922 11.3643C134.699 11.0609 135.556 10.9065 136.482 10.9065C137.297 10.9065 138.047 11.0555 138.739 11.3483C139.442 11.6304 140.091 12.1148 140.687 12.8067L139.027 14.031Z" fill="black"/>
<path d="M145.781 11.2151H147.916V15.995H153.526V11.2151H155.66V23.218H153.526V17.9272H147.916V23.218H145.781V11.2151Z" fill="black"/>
<path d="M161.744 11.2151H169.697V13.1473H163.879V16.0961H169.388V18.0283H163.879V21.2859H170V23.218H161.744V11.2151Z" fill="black"/>
<path fill-rule="evenodd" clip-rule="evenodd" d="M34.4386 17.2193C34.4386 26.7312 26.7312 34.4386 17.2193 34.4386C7.70743 34.4386 0 26.7312 0 17.2193C0 7.70743 7.70743 0 17.2193 0C26.7312 0 34.4386 7.70743 34.4386 17.2193ZM12.3383 24.0698H8.99555C8.29294 24.0698 7.94696 24.0698 7.73405 23.9367C7.50517 23.7876 7.36677 23.5428 7.3508 23.2713C7.34016 23.0212 7.51049 22.7178 7.85647 22.1056L16.1068 7.56372C16.4581 6.94627 16.6338 6.63755 16.8573 6.52045C17.0969 6.39802 17.3843 6.39802 17.6292 6.52045C17.8527 6.63223 18.0284 6.94095 18.3797 7.56372L20.0777 10.5232L20.0883 10.5392C20.4662 11.1992 20.6578 11.5399 20.743 11.8912C20.8335 12.2744 20.8335 12.6843 20.743 13.0675C20.6578 13.4241 20.4662 13.7595 20.083 14.4355L15.7502 22.095L15.7396 22.1163C15.3563 22.787 15.1647 23.1223 14.8986 23.3778C14.6058 23.6546 14.2545 23.8622 13.8712 23.974C13.5199 24.0698 13.1261 24.0698 12.3383 24.0698ZM20.7749 24.0698H25.5655C26.2734 24.0698 26.6247 24.0698 26.8376 23.9314C27.0665 23.7823 27.2102 23.5322 27.2209 23.2607C27.2315 23.0212 27.0612 22.7284 26.7312 22.1535C26.7205 22.1323 26.7099 22.1163 26.6939 22.095L24.2933 17.9911L24.2667 17.9432C23.9314 17.3737 23.761 17.0862 23.5428 16.9745C23.3033 16.852 23.0158 16.852 22.7763 16.9745C22.5581 17.0862 22.3771 17.3896 22.0258 17.9964L19.6359 22.1003L19.6252 22.1163C19.2739 22.7178 19.0983 23.0212 19.1142 23.2713C19.1302 23.5428 19.2686 23.793 19.4975 23.942C19.7157 24.0698 20.0723 24.0698 20.7749 24.0698Z" fill="#E84142"/>
</svg>
