<svg width="135" height="29" viewBox="0 0 135 29" fill="none" xmlns="http://www.w3.org/2000/svg">
<g clip-path="url(#clip0_2892_24224)">
<path d="M27.7648 17.503C25.8823 25.0548 18.235 29.6485 10.6833 27.7661C3.1355 25.8837 -1.45958 18.2359 0.42373 10.6859C2.30528 3.1342 9.95216 -1.46089 17.5013 0.421543C25.0521 2.30397 29.6472 9.95261 27.7648 17.503Z" fill="#F7931A"/>
<path d="M20.3082 12.0861C20.5888 10.2107 19.1609 9.20251 17.2084 8.52996L17.8418 5.98952L16.2954 5.60414L15.6788 8.07763C15.2669 7.97643 14.8541 7.87924 14.4403 7.78606L15.0613 5.29627L13.5154 4.91089L12.882 7.45045C12.5455 7.37382 12.2152 7.29806 11.8946 7.21834L11.8963 7.21041L9.76372 6.67792L9.35235 8.32956C9.35235 8.32956 10.4997 8.59251 10.4755 8.6088C11.1018 8.76516 11.215 9.17961 11.196 9.50817L10.4746 12.4023C10.5177 12.4133 10.5737 12.4296 10.6353 12.4538L10.4719 12.4133L9.4607 16.4675C9.38406 16.6578 9.18983 16.9432 8.75159 16.8349C8.76745 16.8573 7.62803 16.5543 7.62803 16.5543L6.86035 18.3249L8.87271 18.827C9.24708 18.9203 9.61397 19.0185 9.97513 19.111L9.33517 21.6805L10.8798 22.0659L11.5131 19.5233C11.9351 19.6382 12.3447 19.7435 12.7455 19.8435L12.1139 22.3738L13.6598 22.7592L14.3002 20.1945C16.9371 20.6935 18.92 20.4922 19.7546 18.1077C20.4271 16.1874 19.7211 15.0797 18.3337 14.357C19.3441 14.1235 20.1052 13.4589 20.3082 12.0861ZM16.7746 17.0401C16.2967 18.9604 13.0635 17.9227 12.0152 17.662L12.8644 14.2579C13.9126 14.5199 17.2741 15.0379 16.7746 17.0401ZM17.2529 12.0587C16.8169 13.8051 14.1258 12.9176 13.2529 12.7L14.0227 9.61256C14.8957 9.83014 17.707 10.2367 17.2529 12.0587Z" fill="white"/>
<path d="M41.3038 8.52721C42.4468 8.52721 43.4342 8.73201 44.2636 9.13413C45.0978 9.54021 45.7857 10.0872 46.3376 10.7752C46.882 11.4667 47.2872 12.2749 47.5488 13.2011C47.8087 14.1305 47.939 15.1285 47.939 16.197C47.939 17.8398 47.6382 19.3902 47.0309 20.8524C46.423 22.3169 45.5994 23.5875 44.5512 24.671C43.5038 25.7532 42.2671 26.6058 40.8409 27.2361C39.417 27.8668 37.8689 28.1822 36.2067 28.1822C35.9917 28.1822 35.6138 28.176 35.08 28.165C34.5462 28.154 33.9327 28.0989 33.2456 28.0064C32.5071 27.901 31.7745 27.7572 31.0509 27.5757C30.2936 27.3928 29.5579 27.13 28.8562 26.7917L35.0276 0.859628L40.5551 0.00341797L38.3454 9.20548C38.805 8.99779 39.2819 8.83095 39.7707 8.7069C40.2724 8.58495 40.7875 8.52461 41.3038 8.52721ZM36.6674 23.7972C37.4998 23.7972 38.2838 23.5924 39.0211 23.1907C39.7621 22.7856 40.4125 22.2331 40.9321 21.5672C41.4751 20.873 41.9024 20.0956 42.1975 19.2651C42.5069 18.4066 42.664 17.5006 42.6617 16.5881C42.6617 15.4465 42.471 14.5577 42.0909 13.9133C41.7108 13.2725 41.0074 12.9501 39.9856 12.9501C39.6509 12.9501 39.2201 13.0139 38.6854 13.128C38.149 13.2491 37.6689 13.5006 37.2386 13.879L34.8853 23.6514C35.0272 23.6765 35.1527 23.7003 35.2597 23.7227C35.3645 23.747 35.4799 23.7641 35.5958 23.776C35.7178 23.7897 35.8574 23.7967 36.0261 23.7967L36.6674 23.7972ZM53.6713 27.6862H48.3918L52.8504 8.92492H58.166L53.6713 27.6862ZM56.2404 6.63905C55.5201 6.64502 54.818 6.41345 54.2426 5.98015C53.6449 5.54324 53.3485 4.87069 53.3485 3.96427C53.3485 3.4657 53.4498 2.99795 53.6511 2.55663C53.8456 2.12913 54.1184 1.74178 54.4553 1.41458C54.793 1.09223 55.1852 0.832316 55.6137 0.646897C56.0596 0.456339 56.5399 0.359494 57.0248 0.362375C57.7612 0.362375 58.4254 0.581712 59.0209 1.02127C59.6137 1.46303 59.9119 2.13558 59.9119 3.03715C59.9148 3.5238 59.8111 4.00517 59.608 4.44743C59.4154 4.87535 59.1434 5.26288 58.8064 5.58949C58.4695 5.91225 58.0771 6.17157 57.648 6.35497C57.2067 6.54788 56.739 6.63905 56.2404 6.63905ZM62.7928 4.25056L68.3225 3.39391L66.9646 8.92404H72.8867L71.8174 13.2747H65.9309L64.363 19.8372C64.2185 20.3838 64.1366 20.8947 64.1137 21.3699C64.0872 21.8469 64.148 22.2565 64.2907 22.6014C64.4325 22.9471 64.6871 23.2136 65.0571 23.4017C65.4257 23.5933 65.9529 23.6897 66.6444 23.6897C67.2139 23.6897 67.7693 23.6355 68.3049 23.5281C68.8551 23.419 69.3968 23.2703 69.9257 23.0832L70.3203 27.1507C69.5626 27.425 68.7882 27.6508 68.0018 27.8267C67.1681 28.0188 66.1811 28.1108 65.0403 28.1108C63.4002 28.1108 62.1286 27.8673 61.2226 27.3828C60.318 26.8948 59.6785 26.2271 59.2957 25.3823C58.9183 24.5411 58.7496 23.5708 58.7967 22.4772C58.8452 21.3814 59.0108 20.2292 59.2957 19.0167L62.7928 4.25056ZM72.6546 20.1948C72.6546 18.5784 72.9162 17.055 73.4386 15.6279C73.9605 14.2 74.7123 12.9514 75.6875 11.8803C76.6595 10.8144 77.8439 9.9692 79.2383 9.34906C80.6248 8.73245 82.1786 8.4215 83.8902 8.4215C84.9622 8.4215 85.9193 8.5228 86.7618 8.72584C87.6075 8.93065 88.3721 9.19535 89.064 9.52744L87.2437 13.6676C86.7585 13.4725 86.2645 13.3 85.7634 13.1505C85.2525 12.9932 84.6292 12.9175 83.8915 12.9175C82.1289 12.9175 80.7362 13.5253 79.6994 14.7356C78.6662 15.9473 78.146 17.5782 78.146 19.6245C78.146 20.837 78.4081 21.817 78.9331 22.567C79.4554 23.3171 80.4204 23.6906 81.8215 23.6906C82.5125 23.6906 83.1802 23.6184 83.8193 23.4774C84.4632 23.3347 85.0318 23.155 85.5326 22.9427L85.9272 27.1868C85.2049 27.4638 84.4663 27.6968 83.7158 27.8844C82.9054 28.0826 81.9421 28.1848 80.8247 28.1848C79.3502 28.1848 78.1011 27.9694 77.0801 27.544C76.0583 27.1128 75.214 26.5398 74.5485 25.8139C73.8799 25.0863 73.4003 24.2363 73.1034 23.2616C72.8066 22.2869 72.6546 21.262 72.6546 20.1948ZM96.1079 28.1835C94.8478 28.1835 93.7529 27.9915 92.8245 27.6114C91.8987 27.2317 91.1323 26.6979 90.5254 26.0064C89.9176 25.3184 89.4635 24.5032 89.1521 23.5637C88.8407 22.6247 88.691 21.5849 88.691 20.4454C88.691 19.0167 88.92 17.5879 89.3842 16.1622C89.8462 14.7352 90.5311 13.4517 91.4366 12.3114C92.3365 11.1694 93.4464 10.2357 94.7518 9.50762C96.0568 8.78442 97.5574 8.42062 99.2438 8.42062C100.481 8.42062 101.569 8.61309 102.511 8.99319C103.448 9.37241 104.219 9.91018 104.829 10.5981C105.433 11.2896 105.892 12.1014 106.199 13.0426C106.51 13.9794 106.663 15.0219 106.663 16.1622C106.663 17.5866 106.437 19.0162 105.988 20.445C105.539 21.8676 104.871 23.1537 103.99 24.2962C103.111 25.4369 102.012 26.3698 100.692 27.0947C99.3733 27.8201 97.8437 28.1835 96.1079 28.1835ZM98.7461 12.9179C97.9635 12.9179 97.2716 13.1448 96.6792 13.5936C96.0846 14.0476 95.5856 14.6189 95.183 15.3069C94.776 15.9983 94.4748 16.7524 94.2709 17.572C94.0683 18.3934 93.9692 19.1708 93.9692 19.9077C93.9692 21.0982 94.1616 22.0262 94.5387 22.693C94.9209 23.3563 95.6089 23.6906 96.6078 23.6906C97.3931 23.6906 98.082 23.4646 98.6774 23.0114C99.2685 22.5609 99.7688 21.9896 100.174 21.2995C100.578 20.6124 100.883 19.8557 101.087 19.0343C101.286 18.2155 101.388 17.4346 101.388 16.6982C101.388 15.5108 101.197 14.5815 100.815 13.9151C100.436 13.2513 99.7446 12.9179 98.7461 12.9179ZM112.417 27.6862H107.133L111.592 8.92492H116.91L112.417 27.6862ZM114.982 6.63905C114.262 6.64513 113.561 6.41352 112.986 5.98015C112.391 5.54324 112.092 4.87069 112.092 3.96427C112.092 3.4657 112.195 2.99795 112.396 2.55663C112.589 2.12862 112.862 1.7411 113.2 1.41458C113.538 1.09212 113.93 0.832196 114.359 0.646897C114.803 0.456303 115.282 0.359441 115.766 0.362375C116.504 0.362375 117.171 0.581712 117.765 1.02127C118.359 1.46303 118.658 2.13558 118.658 3.03715C118.658 3.53749 118.552 4.007 118.352 4.44743C118.153 4.88787 117.884 5.26709 117.552 5.58949C117.215 5.91149 116.823 6.17071 116.394 6.35497C115.951 6.54788 115.484 6.63905 114.982 6.63905ZM120.715 9.77805C121.116 9.66089 121.563 9.51995 122.049 9.36668C122.59 9.19893 123.139 9.05724 123.693 8.9421C124.296 8.80997 124.977 8.70206 125.725 8.61882C126.473 8.53381 127.326 8.49241 128.273 8.49241C131.058 8.49241 132.977 9.30326 134.037 10.9201C135.095 12.5369 135.279 14.7493 134.592 17.5544L132.163 27.6845H126.849L129.203 17.7671C129.346 17.1483 129.458 16.5493 129.542 15.9644C129.627 15.3848 129.621 14.8735 129.523 14.4317C129.437 14.0082 129.204 13.6287 128.865 13.3601C128.517 13.0875 127.991 12.9505 127.277 12.9505C126.571 12.9533 125.866 13.0259 125.174 13.1672L121.713 27.6832H116.397L120.715 9.77805Z" fill="#4D4D4D"/>
</g>
<defs>
<clipPath id="clip0_2892_24224">
<rect width="135" height="28.188" fill="white"/>
</clipPath>
</defs>
</svg>
