<svg width="150" height="41" viewBox="0 0 150 41" fill="none" xmlns="http://www.w3.org/2000/svg">
<g clip-path="url(#clip0_2895_24607)">
<path d="M41.8552 4.90197H48.7557C50.5091 4.90197 51.7911 5.37331 52.6207 6.18402C53.4314 6.8816 53.7896 7.82429 53.7896 8.74812C53.7896 9.10634 53.7896 9.55884 53.6765 9.91706C53.4503 10.5015 53.092 11.086 52.6207 11.5573C52.3944 11.7836 52.1493 11.9155 51.9231 12.0287C52.7338 12.2549 53.4503 12.7263 54.0347 13.3107C54.5061 13.8952 54.7323 14.5928 54.7323 15.6486C54.7323 16.233 54.6192 16.9306 54.3741 17.402C54.1478 17.8733 53.6765 18.3447 53.2052 18.684C52.6207 19.0423 52.0362 19.2685 51.4518 19.4947C50.7542 19.721 49.9246 19.721 49.1139 19.721H41.9683V4.86426H41.8552V4.90197ZM48.1712 10.9729C48.7557 10.9729 49.3401 10.8597 49.9246 10.6146C50.396 10.3884 50.6222 9.91706 50.6222 9.44571C50.6222 8.97437 50.396 8.50302 50.0377 8.27678C49.5664 7.91856 48.9819 7.80544 48.3975 7.91856H45.1169V11.0671H48.1524V10.9729H48.1712ZM48.9819 16.9495C49.5664 16.9495 50.1509 16.8364 50.7353 16.5913C51.2067 16.365 51.4329 15.8937 51.3198 15.3092C51.3198 14.8379 51.0935 14.3665 50.7353 14.1403C50.3771 13.914 49.6795 13.6689 48.8688 13.6689H45.0038V16.9495H48.9819Z" fill="#F3BA2F"/>
<path d="M58.8047 4.90186H62.0852V19.8717H58.8047V4.90186Z" fill="#F3BA2F"/>
<path d="M67.1191 4.90186H70.1546L77.1682 14.1402V4.90186H80.4298V19.8717H77.6395L70.2677 10.3883V19.8717H67.1191V4.90186Z" fill="#F3BA2F"/>
<path d="M90.3847 4.78882H93.4201L99.8492 19.8718H96.4556L95.0604 16.4781H88.7444L87.3492 19.8718H83.9556L90.3847 4.78882ZM93.8915 13.6689L91.9118 8.76695L89.9322 13.6689H93.8915Z" fill="#F3BA2F"/>
<path d="M103.356 4.90186H106.391L113.405 14.1402V4.90186H116.686V19.8717H113.876L106.618 10.3883V19.8717H103.356V4.90186Z" fill="#F3BA2F"/>
<path d="M128.601 20.0981C127.545 20.0981 126.489 19.8719 125.566 19.5136C123.699 18.7029 122.285 17.2889 121.474 15.4224C121.116 14.4797 120.89 13.4428 120.89 12.3869C120.89 10.4073 121.701 8.40882 123.115 6.90052C123.812 6.20293 124.642 5.61847 125.566 5.26025C126.621 4.7889 127.677 4.67578 128.714 4.67578C129.299 4.67578 129.996 4.67578 130.581 4.7889C131.165 4.90203 131.636 5.01515 132.108 5.26025C132.579 5.48649 133.051 5.73159 133.39 5.95784C133.748 6.18408 134.201 6.5423 134.559 6.90052L132.579 9.3515C131.995 8.88016 131.41 8.40881 130.826 8.06945C130.241 7.73008 129.544 7.5981 128.846 7.5981C128.262 7.5981 127.677 7.71123 127.093 7.95632C126.508 8.18257 126.037 8.54079 125.698 9.01213C125.358 9.48348 125 9.95482 124.755 10.5393C124.529 11.1237 124.397 11.7082 124.397 12.2927C124.397 12.8771 124.51 13.5747 124.755 14.1592C125 14.7437 125.226 15.215 125.698 15.6863C126.508 16.629 127.677 17.0815 128.846 17.0815C129.544 17.0815 130.373 16.9684 131.071 16.6102C131.655 16.252 132.353 15.7995 132.824 15.3281L134.917 17.4209C134.559 17.7791 134.106 18.2316 133.748 18.5898C133.277 18.948 132.805 19.1743 132.353 19.4005C131.882 19.6268 131.297 19.8719 130.713 19.985C129.883 20.0981 129.186 20.0981 128.601 20.0981Z" fill="#F3BA2F"/>
<path d="M138.669 4.90186H149.887V7.82418H141.818V10.8596H148.944V13.782H141.818V16.9494H150V19.8717H138.669V4.90186Z" fill="#F3BA2F"/>
<path d="M46.0596 34.5965C45.2489 34.5965 44.4193 34.4834 43.7217 34.1252C43.0241 33.8989 42.3265 33.4276 41.6101 32.8431L42.779 31.5611C43.2504 32.0324 43.7217 32.2587 44.3062 32.6169C44.8906 32.8431 45.4751 32.9751 46.0596 32.9751C46.5309 32.9751 47.0023 32.862 47.4547 32.6169C47.813 32.3906 47.9261 32.0324 47.9261 31.6742C47.9261 31.5611 47.9261 31.316 47.813 31.2029C47.6998 31.0897 47.5867 30.8446 47.4547 30.7315C47.2285 30.6184 46.9834 30.5053 46.7572 30.3733C46.3989 30.2602 45.9465 30.147 45.5882 30.0151C45.1169 29.9019 44.5324 29.7888 44.0611 29.5437C43.7029 29.4306 43.2504 29.1855 43.0053 28.9593C42.779 28.733 42.5339 28.4879 42.3077 28.1486C42.0814 27.6772 42.0814 27.2059 42.0814 26.8665C42.0814 26.3952 42.1946 26.0558 42.3077 25.5844C42.4208 25.2262 42.779 24.8869 43.0053 24.6418C43.3635 24.4155 43.7029 24.1704 44.1742 24.0573C44.6456 23.9442 45.1169 23.8311 45.5694 23.8311C46.267 23.8311 46.9646 23.9442 47.681 24.1893C48.2655 24.4155 48.8499 24.7737 49.4344 25.132L48.4917 26.5271C48.0204 26.1689 47.549 25.9427 47.0965 25.7164C46.6252 25.4902 46.1538 25.4902 45.7014 25.4902C45.23 25.4902 44.7587 25.6033 44.4193 25.8484C44.1931 26.0746 43.948 26.4329 43.948 26.7911C43.948 27.0173 43.948 27.1493 44.0611 27.3755C44.1742 27.4887 44.2873 27.7338 44.4193 27.8469C44.6455 27.96 44.8906 28.0731 45.23 28.2051C45.5882 28.3182 45.9276 28.4314 46.5121 28.5633C46.9834 28.6765 47.4548 28.7896 48.0392 29.0347C48.3974 29.1478 48.7368 29.3929 49.095 29.6191C49.3213 29.8454 49.5664 30.2036 49.6795 30.4298C49.7926 30.7881 49.9057 31.1274 49.9057 31.5988C49.9057 32.0701 49.7926 32.5415 49.6795 32.8808C49.4532 33.239 49.2081 33.5784 48.8688 33.9366C48.5106 34.1629 48.1712 34.408 47.6998 34.5211C47.1154 34.4834 46.5309 34.5965 46.0596 34.5965Z" fill="#F3BA2F"/>
<path d="M51.9043 23.9631H53.9028L57.0514 28.8651L60.3319 23.9631H62.3115V34.4835H60.445V26.8855L57.1645 31.7874H57.0514L53.7897 26.8855V34.4835H51.9043V23.9631Z" fill="#F3BA2F"/>
<path d="M68.6275 23.8499H70.3809L74.9435 34.3702H72.9638L71.908 31.8061H67.0061L65.9503 34.3702H64.0837L68.6275 23.8499ZM71.3236 30.279L69.457 26.0746L67.7037 30.279H71.3236Z" fill="#F3BA2F"/>
<path d="M76.8099 23.9631H81.4856C82.0701 23.9631 82.6545 24.0763 83.239 24.1894C83.7104 24.3025 84.1817 24.6607 84.5211 25.0001C84.7473 25.2263 84.9924 25.5845 85.2187 26.0559C85.3318 26.4141 85.4449 26.8666 85.4449 27.3379C85.4449 27.6962 85.3318 28.1487 85.2187 28.5069C85.1055 28.8651 84.8604 29.0913 84.7473 29.4496C84.5211 29.6758 84.276 29.9209 83.9366 30.1471C83.5784 30.3734 83.239 30.5054 82.8808 30.6185L85.69 34.5966H83.4652L80.9012 30.9767H78.5633V34.5966H76.6968L76.8099 23.9631ZM81.3725 29.1102C81.957 29.1102 82.5414 28.9971 82.8996 28.6389C83.2579 28.2806 83.4841 27.8281 83.4841 27.3568C83.4841 26.8855 83.2579 26.4141 82.8996 26.0747C82.4283 25.7165 81.8438 25.6034 81.2594 25.6034H78.5633V29.1102H81.3725Z" fill="#F3BA2F"/>
<path d="M90.2526 25.6034H86.8589V23.9631H95.3996V25.6034H92.006V34.4835H90.1394L90.2526 25.6034Z" fill="#F3BA2F"/>
<path d="M106.75 34.5967C106.052 34.5967 105.355 34.4835 104.638 34.1253C103.356 33.5409 102.3 32.5982 101.829 31.3161C101.603 30.6185 101.358 29.9209 101.471 29.2045C101.471 28.5069 101.584 27.8093 101.829 27.0929C102.3 25.8108 103.356 24.755 104.638 24.1706C105.336 23.9443 106.033 23.6992 106.863 23.6992C107.334 23.6992 107.805 23.6992 108.145 23.8123C108.503 23.9255 108.842 24.0386 109.201 24.1706C109.559 24.2837 109.785 24.5288 110.143 24.6419C110.37 24.8681 110.728 25.1132 110.954 25.3395L109.785 26.7347C109.427 26.3764 108.974 26.0371 108.503 25.792C108.032 25.5657 107.447 25.4338 106.863 25.4338C106.391 25.4338 105.92 25.5469 105.468 25.66C104.996 25.8863 104.657 26.1313 104.299 26.4707C103.94 26.8289 103.714 27.1683 103.601 27.6396C103.488 28.111 103.375 28.5823 103.375 29.0348C103.375 29.5062 103.488 29.9775 103.601 30.43C103.714 30.8825 103.959 31.2407 104.299 31.5989C104.657 31.9571 104.996 32.1834 105.468 32.4096C105.939 32.6359 106.41 32.7679 106.863 32.6359C107.447 32.6359 108.032 32.5228 108.503 32.2777C108.974 32.0514 109.446 31.6932 109.898 31.2219L111.067 32.3908C110.841 32.617 110.483 32.9752 110.256 33.2015C109.898 33.4277 109.672 33.6728 109.314 33.786C108.956 33.8991 108.616 34.1442 108.145 34.1442C107.674 34.5967 107.202 34.5967 106.75 34.5967Z" fill="#F3BA2F"/>
<path d="M112.934 23.9631H114.687V28.2806H119.721V23.9631H121.587V34.4835H119.721V30.034H114.687V34.4835H112.934V23.9631Z" fill="#F3BA2F"/>
<path d="M128.017 23.8499H129.77L134.333 34.3702H132.353L131.297 31.8061H126.395L125.339 34.3702H123.473L128.017 23.8499ZM130.6 30.279L128.846 26.0746L127.093 30.279H130.6Z" fill="#F3BA2F"/>
<path d="M136.199 23.9631H138.085V34.4835H136.199V23.9631Z" fill="#F3BA2F"/>
<path d="M140.875 23.9631H142.515L148.134 31.203V23.9631H150V34.4835H148.473L142.76 26.9986V34.4835H140.875V23.9631Z" fill="#F3BA2F"/>
<path d="M21.2858 33.7858V38.3484L17.3077 40.6863L13.4427 38.3484V33.7858L17.3077 36.1237L21.2858 33.7858ZM0 18.0053L3.86501 20.3431V28.1674L10.5204 32.1456V36.7082L0 30.5053V18.0053ZM34.6154 18.0053V30.5241L23.9819 36.727V32.1644L30.6373 28.1863V20.362L34.6154 18.0053ZM23.9631 11.8024L27.9412 14.1403V18.7029L21.2858 22.681V30.6184L17.4208 32.9563L13.5747 30.6184V22.6622L6.67421 18.684V14.1214L10.6523 11.7836L17.3077 15.7617L23.9631 11.8024ZM6.67421 21.9646L10.5392 24.3024V28.865L6.67421 26.5272V21.9646ZM27.9412 21.9646V26.5272L24.0762 28.865V24.3024L27.9412 21.9646ZM3.86501 7.82429L7.84314 10.1621L3.86501 12.5V17.0626L0 14.7247V10.1621L3.86501 7.82429ZM30.7504 7.82429L34.7285 10.1621V14.7247L30.7504 17.0626V12.5L26.8854 10.1621L30.7504 7.82429ZM17.3077 7.82429L21.2858 10.1621L17.3077 12.5L13.4427 10.1621L17.3077 7.82429ZM17.3077 0L27.9412 6.20287L24.0762 8.54073L17.4208 4.56259L10.6335 8.54073L6.76848 6.20287L17.3077 0Z" fill="#F3BA2F"/>
</g>
<defs>
<clipPath id="clip0_2895_24607">
<rect width="150" height="40.6863" fill="white"/>
</clipPath>
</defs>
</svg>
