<svg width="165" height="30" viewBox="0 0 165 30" fill="none" xmlns="http://www.w3.org/2000/svg">
<path d="M18.3914 21.5527L16.1371 19.271C15.2849 20.0682 14.4052 20.7005 13.5255 21.1678C12.6458 21.6352 11.6011 21.8826 10.364 21.8826C9.40187 21.8826 8.52216 21.6902 7.72493 21.3328C6.9002 20.9479 6.21293 20.4531 5.60813 19.7933C5.00333 19.1335 4.56348 18.3913 4.23359 17.5116C3.9037 16.6319 3.73875 15.7247 3.73875 14.7075C3.73875 13.7178 3.9037 12.7831 4.23359 11.9309C4.56348 11.0787 5.00333 10.3365 5.60813 9.67668C6.21293 9.04439 6.9002 8.52207 7.72493 8.16469C8.54965 7.77981 9.42936 7.61487 10.364 7.61487C11.5187 7.61487 12.5358 7.83479 13.4155 8.30214C14.3227 8.76948 15.1749 9.37428 15.9722 10.1165L18.2264 7.50491C17.7591 7.03756 17.2368 6.6252 16.7144 6.24033C16.1921 5.85546 15.5873 5.52556 14.955 5.25065C14.3227 4.97575 13.6355 4.75582 12.8657 4.61837C12.1235 4.45342 11.2712 4.39844 10.364 4.39844C8.82456 4.39844 7.45002 4.67335 6.18544 5.22316C4.92086 5.77298 3.84872 6.51523 2.91403 7.44992C2.00683 8.38461 1.29207 9.48424 0.769744 10.7488C0.274909 12.0134 0 13.3605 0 14.79C0 16.247 0.247418 17.594 0.769744 18.8586C1.29207 20.1232 2.00683 21.2228 2.91403 22.13C3.82123 23.0647 4.89337 23.7795 6.13046 24.3293C7.36754 24.8791 8.7146 25.1265 10.1991 25.1265C11.1338 25.1265 11.986 25.0441 12.7557 24.8791C13.5255 24.7142 14.2403 24.4668 14.9 24.1644C15.5598 23.862 16.1646 23.4771 16.7144 23.0372C17.3192 22.5974 17.869 22.1025 18.3914 21.5527Z" fill="black"/>
<path d="M63.8337 10.0341C63.8337 9.37428 64.1086 8.79697 64.6859 8.32963C65.2632 7.86228 66.0605 7.64236 67.0776 7.64236C67.9848 7.64236 68.892 7.8073 69.7717 8.16468C70.6514 8.52206 71.5586 9.0169 72.4658 9.70417L74.3352 7.03756C73.3181 6.21283 72.2184 5.60804 71.0363 5.16818C69.8817 4.72833 68.5621 4.53589 67.1051 4.53589C66.1154 4.53589 65.2083 4.67334 64.3835 4.94825C63.5588 5.22316 62.844 5.60804 62.2392 6.13036C61.6344 6.65269 61.1671 7.25748 60.8372 7.97224C60.5073 8.68701 60.3424 9.48424 60.3424 10.3639C60.3424 11.2986 60.4798 12.0959 60.7822 12.7282C61.0846 13.3879 61.497 13.9378 62.0743 14.3776C62.6241 14.845 63.3389 15.2023 64.1636 15.5322C64.9883 15.8346 65.9505 16.1095 66.9952 16.3569C67.9298 16.5769 68.6721 16.7968 69.2769 17.0167C69.8542 17.2367 70.3215 17.4566 70.6514 17.6765C70.9813 17.9239 71.2013 18.1713 71.3387 18.4737C71.4487 18.7487 71.5311 19.0785 71.5311 19.4359C71.5311 20.2057 71.2013 20.838 70.569 21.3053C69.9367 21.7726 69.0845 21.9926 67.9848 21.9926C66.7203 21.9926 65.6206 21.7726 64.6309 21.3328C63.6413 20.8929 62.6791 20.2332 61.6894 19.4084L59.5726 21.9101C60.7822 22.9822 62.0743 23.807 63.4763 24.3293C64.8784 24.8516 66.3629 25.1265 67.9024 25.1265C68.947 25.1265 69.9092 24.9891 70.7889 24.7142C71.6686 24.4393 72.4109 24.0544 73.0156 23.5321C73.6479 23.0097 74.1153 22.3774 74.4727 21.6352C74.83 20.8929 74.995 20.0407 74.995 19.106C74.995 18.2813 74.8575 17.5391 74.5826 16.9343C74.3077 16.302 73.8954 15.7796 73.373 15.3123C72.8507 14.845 72.1634 14.4601 71.3662 14.1302C70.569 13.8003 69.6343 13.4979 68.5896 13.2505C67.6274 13.0306 66.8577 12.8106 66.2254 12.5907C65.6206 12.3708 65.1258 12.1509 64.7684 11.9034C64.411 11.656 64.1636 11.3811 64.0536 11.1062C63.8887 10.7763 63.8337 10.4464 63.8337 10.0341Z" fill="black"/>
<path d="M102.816 10.309V24.6042H106.28V4.67334H102.541L96.4654 14.1027L90.3899 4.67334H86.6511V24.6042H90.1425V10.3639L96.3829 19.7108H96.4928L102.816 10.309Z" fill="black"/>
<path d="M135.53 14.7625C135.53 15.7247 135.365 16.6594 135.035 17.5391C134.705 18.4188 134.238 19.1611 133.66 19.7934C133.083 20.4256 132.368 20.948 131.544 21.3053C130.719 21.6902 129.812 21.8552 128.822 21.8552C127.832 21.8552 126.925 21.6627 126.073 21.2779C125.248 20.893 124.506 20.3707 123.929 19.7384C123.324 19.0786 122.857 18.3363 122.527 17.4566C122.197 16.5769 122.032 15.6697 122.032 14.6801C122.032 13.7179 122.197 12.7832 122.527 11.9035C122.857 11.0238 123.324 10.2815 123.901 9.64923C124.479 9.01694 125.193 8.49462 126.018 8.13724C126.843 7.75237 127.75 7.58742 128.74 7.58742C129.729 7.58742 130.637 7.77986 131.489 8.16473C132.313 8.5496 133.056 9.07193 133.633 9.70422C134.238 10.364 134.705 11.1062 135.035 11.986C135.365 12.8657 135.53 13.7729 135.53 14.7625ZM139.214 14.7075C139.214 13.3055 138.966 11.9585 138.444 10.6939C137.922 9.42931 137.207 8.32968 136.3 7.39499C135.392 6.4603 134.293 5.71805 133.001 5.16823C131.736 4.61841 130.307 4.34351 128.767 4.34351C127.228 4.34351 125.826 4.61841 124.534 5.16823C123.269 5.71805 122.142 6.4603 121.207 7.42247C120.272 8.35716 119.558 9.4568 119.035 10.7214C118.513 11.986 118.266 13.3055 118.266 14.735C118.266 16.1371 118.513 17.4841 119.035 18.7487C119.558 20.0133 120.272 21.1129 121.18 22.0476C122.087 22.9823 123.186 23.7245 124.479 24.2744C125.743 24.8242 127.173 25.0991 128.712 25.0991C130.252 25.0991 131.654 24.8242 132.946 24.2744C134.21 23.7245 135.337 22.9823 136.272 22.0201C137.207 21.0854 137.922 19.9858 138.444 18.7212C138.966 17.4566 139.214 16.1096 139.214 14.7075Z" fill="black"/>
<path d="M153.839 10.0341C153.839 9.37428 154.114 8.79697 154.691 8.32963C155.268 7.86228 156.065 7.64236 157.083 7.64236C157.99 7.64236 158.897 7.8073 159.777 8.16468C160.656 8.52206 161.564 9.0169 162.471 9.70417L164.34 7.03756C163.323 6.21283 162.223 5.60804 161.041 5.16818C159.887 4.72833 158.567 4.53589 157.11 4.53589C156.12 4.53589 155.213 4.67334 154.389 4.94825C153.564 5.22316 152.849 5.60804 152.244 6.13036C151.639 6.65269 151.2 7.25748 150.842 7.97224C150.512 8.68701 150.347 9.48424 150.347 10.3639C150.347 11.2986 150.485 12.0959 150.787 12.7282C151.09 13.3879 151.502 13.9378 152.079 14.3776C152.629 14.845 153.344 15.2023 154.169 15.5322C154.993 15.8346 155.956 16.1095 157 16.3569C157.935 16.5769 158.677 16.7968 159.282 17.0167C159.859 17.2367 160.327 17.4566 160.656 17.6765C160.986 17.9239 161.206 18.1713 161.344 18.4737C161.454 18.7487 161.536 19.0785 161.536 19.4359C161.536 20.2057 161.206 20.838 160.574 21.3053C159.942 21.7726 159.089 21.9926 157.99 21.9926C156.725 21.9926 155.626 21.7726 154.636 21.3328C153.646 20.8929 152.684 20.2332 151.694 19.4084L149.578 21.9101C150.76 22.9822 152.079 23.807 153.481 24.3293C154.883 24.8516 156.368 25.1265 157.907 25.1265C158.952 25.1265 159.914 24.9891 160.794 24.7142C161.674 24.4393 162.416 24.0544 163.021 23.5321C163.653 23.0097 164.12 22.3774 164.478 21.6352C164.835 20.8929 165 20.0407 165 19.106C165 18.2813 164.863 17.5391 164.588 16.9343C164.313 16.302 163.9 15.7796 163.378 15.3123C162.856 14.845 162.168 14.4601 161.371 14.1302C160.574 13.8003 159.639 13.4979 158.595 13.2505C157.632 13.0306 156.863 12.8106 156.23 12.5907C155.626 12.3708 155.131 12.1509 154.773 11.9034C154.416 11.656 154.169 11.3811 154.059 11.1062C153.894 10.7763 153.839 10.4464 153.839 10.0341Z" fill="black"/>
<path d="M42.2534 8.68711L32.7141 18.1989C32.6041 17.9515 32.4667 17.7041 32.3842 17.4567C32.0543 16.6045 31.8894 15.6698 31.8894 14.7076C31.8894 13.7454 32.0543 12.8107 32.3842 11.9585C32.7141 11.1063 33.1814 10.3366 33.7587 9.70427C34.336 9.07198 35.0508 8.57715 35.8755 8.19227C36.7003 7.83489 37.6075 7.64246 38.5971 7.64246C39.5868 7.64246 40.494 7.8349 41.3462 8.21977C41.6761 8.32973 41.9785 8.49467 42.2534 8.68711ZM41.4012 21.2779C40.5765 21.6353 39.6693 21.8277 38.6796 21.8277C37.6899 21.8277 36.7827 21.6353 35.9305 21.2504C35.6281 21.113 35.3257 20.948 35.0508 20.7831L44.5901 11.2712C44.7001 11.5187 44.8375 11.7661 44.92 12.0135C45.2499 12.8657 45.4149 13.8004 45.4149 14.7626C45.4149 15.7248 45.2499 16.6595 44.92 17.5117C44.5901 18.3639 44.1228 19.1336 43.5455 19.7659C42.9407 20.3982 42.2534 20.893 41.4012 21.2779ZM42.8582 24.2194C44.1228 23.6696 45.2499 22.9274 46.1846 21.9927C47.1193 21.058 47.834 19.9583 48.3564 18.6938C48.8787 17.4292 49.1261 16.1096 49.1261 14.7076C49.1261 13.3056 48.8787 11.9585 48.3564 10.7214C48.054 9.97917 47.6691 9.2919 47.2292 8.65961L53.4422 2.47418L50.968 0L44.7551 6.21293C44.2053 5.82806 43.6005 5.49817 42.9407 5.22326C41.6761 4.67344 40.2466 4.39853 38.7071 4.39853C37.1676 4.39853 35.7656 4.67344 34.4735 5.22326C33.2089 5.77308 32.0818 6.51533 31.1471 7.45002C30.2124 8.38471 29.4977 9.48434 28.9753 10.7489C28.453 12.0135 28.2056 13.3331 28.2056 14.7351C28.2056 16.1371 28.453 17.4842 28.9753 18.7213C29.2777 19.4635 29.6626 20.1508 30.1025 20.7831L23.8895 26.996L26.3637 29.4702L32.5766 23.2572C33.1264 23.6421 33.7312 23.972 34.391 24.2469C35.6556 24.7967 37.0851 25.0716 38.6246 25.0716C40.1641 25.0442 41.5661 24.7692 42.8582 24.2194Z" fill="black"/>
</svg>
