<svg width="194" height="64" viewBox="0 0 194 64" fill="none" xmlns="http://www.w3.org/2000/svg">
<path d="M56.1685 36.0431C56.1657 36.2065 56.0984 36.3622 55.9813 36.4761C55.8642 36.59 55.7067 36.6529 55.5434 36.651H44.0311C44.3263 39.4995 46.4621 42.1048 49.4834 42.1048C51.5497 42.1048 53.0777 41.3232 54.2237 39.6732C54.2771 39.5865 54.3509 39.5143 54.4387 39.4628C54.5265 39.4113 54.6256 39.3822 54.7273 39.3779C54.8031 39.3758 54.8786 39.3891 54.9491 39.4172C55.0196 39.4452 55.0836 39.4873 55.1373 39.541C55.1909 39.5947 55.233 39.6587 55.2611 39.7292C55.2891 39.7998 55.3024 39.8752 55.3003 39.9511C55.3007 40.0559 55.2705 40.1585 55.2135 40.2464C54.0501 42.2612 51.7407 43.2512 49.4834 43.2512C45.6112 43.2512 42.833 39.7774 42.833 36.0779C42.833 32.3783 45.5939 28.9045 49.4834 28.9045C53.3729 28.9045 56.1511 32.3436 56.1685 36.0431ZM54.9356 35.5047C54.6925 32.6562 52.5047 30.0509 49.4834 30.0509C46.4621 30.0509 44.3263 32.6562 44.0311 35.5047H54.9356Z" fill="#686868"/>
<path d="M70.1632 29.1825C70.3137 29.1869 70.457 29.2487 70.5635 29.3552C70.67 29.4618 70.7318 29.6051 70.7362 29.7557C70.7383 29.8316 70.725 29.9071 70.6969 29.9776C70.6689 30.0481 70.6268 30.1121 70.5731 30.1658C70.5195 30.2195 70.4555 30.2616 70.385 30.2896C70.3145 30.3177 70.239 30.331 70.1632 30.3289H67.0724V42.4697C67.071 42.6213 67.0102 42.7663 66.9031 42.8735C66.7959 42.9806 66.6509 43.0415 66.4994 43.0428C66.3488 43.0385 66.2056 42.9767 66.099 42.8701C65.9925 42.7636 65.9307 42.6203 65.9264 42.4697V30.3289H62.9571C62.8813 30.331 62.8058 30.3177 62.7353 30.2896C62.6648 30.2616 62.6008 30.2195 62.5472 30.1658C62.4935 30.1121 62.4514 30.0481 62.4234 29.9776C62.3953 29.9071 62.382 29.8316 62.3841 29.7557C62.3855 29.6041 62.4463 29.4591 62.5535 29.3519C62.6606 29.2447 62.8056 29.1839 62.9571 29.1825H65.9264V24.7535C65.9267 24.6067 65.9793 24.4649 66.0748 24.3534C66.1703 24.242 66.3023 24.1683 66.4473 24.1456C66.5283 24.1348 66.6107 24.1417 66.6888 24.1657C66.767 24.1897 66.839 24.2303 66.9 24.2847C66.961 24.3391 67.0095 24.4061 67.0423 24.481C67.075 24.5559 67.0912 24.637 67.0898 24.7187V29.1825H70.1632Z" fill="#686868"/>
<path d="M89.0037 35.0531V42.4001C88.9993 42.5508 88.9376 42.694 88.831 42.8006C88.7245 42.9072 88.5813 42.9689 88.4307 42.9733C88.3548 42.9755 88.2794 42.9621 88.2089 42.9341C88.1384 42.906 88.0743 42.8639 88.0207 42.8102C87.9671 42.7566 87.9249 42.6925 87.8969 42.622C87.8689 42.5515 87.8555 42.476 87.8577 42.4001V35.0531C87.8577 32.5694 86.4512 30.103 83.6903 30.103C80.1481 30.103 78.6201 33.1947 78.8285 36.3732C78.8285 36.46 78.8632 36.8248 78.8632 36.8769V42.3828C78.8629 42.5295 78.8103 42.6714 78.7148 42.7828C78.6193 42.8942 78.4872 42.9679 78.3423 42.9907C78.2612 43.0014 78.1788 42.9946 78.1007 42.9706C78.0226 42.9466 77.9506 42.906 77.8896 42.8515C77.8286 42.7971 77.78 42.7302 77.7473 42.6553C77.7145 42.5804 77.6983 42.4993 77.6998 42.4175V18.2575C77.7012 18.1059 77.762 17.9609 77.8691 17.8537C77.9763 17.7465 78.1213 17.6857 78.2728 17.6843C78.4234 17.6887 78.5666 17.7505 78.6731 17.857C78.7797 17.9636 78.8414 18.1069 78.8458 18.2575V31.9094C79.8356 30.1378 81.6067 28.9393 83.673 28.9393C87.0763 28.9393 89.0037 31.9094 89.0037 35.0531Z" fill="#686868"/>
<path d="M109.684 36.0431C109.681 36.2065 109.614 36.3622 109.496 36.4761C109.379 36.59 109.222 36.6529 109.059 36.651H97.5463C97.8414 39.4995 99.9772 42.1048 102.999 42.1048C105.065 42.1048 106.593 41.3232 107.739 39.6732C107.792 39.5865 107.866 39.5143 107.954 39.4628C108.042 39.4113 108.141 39.3822 108.242 39.3779C108.318 39.3758 108.394 39.3891 108.464 39.4172C108.535 39.4452 108.599 39.4873 108.652 39.541C108.706 39.5947 108.748 39.6587 108.776 39.7292C108.804 39.7998 108.818 39.8752 108.815 39.9511C108.816 40.0559 108.786 40.1585 108.729 40.2464C107.565 42.2612 105.256 43.2512 102.999 43.2512C99.1264 43.2512 96.3481 39.7774 96.3481 36.0779C96.3481 32.3783 99.109 28.9045 102.999 28.9045C106.853 28.9045 109.666 32.3436 109.684 36.0431ZM108.433 35.5047C108.19 32.6562 106.002 30.0509 102.981 30.0509C99.9598 30.0509 97.8241 32.6562 97.5289 35.5047H108.433Z" fill="#686868"/>
<path d="M123.835 29.7206C123.846 29.8748 123.796 30.0271 123.695 30.1442C123.594 30.2614 123.451 30.3338 123.297 30.3458C119.911 30.8495 118.383 33.6112 118.383 36.8244V42.3303C118.383 42.4771 118.33 42.6189 118.235 42.7304C118.139 42.8418 118.007 42.9155 117.862 42.9382C117.781 42.949 117.699 42.9421 117.62 42.9181C117.542 42.8941 117.47 42.8535 117.409 42.7991C117.348 42.7447 117.3 42.6777 117.267 42.6028C117.234 42.5279 117.218 42.4468 117.22 42.3651V29.8074C117.22 29.6606 117.272 29.5188 117.368 29.4074C117.463 29.2959 117.596 29.2222 117.74 29.1995C117.822 29.1887 117.904 29.1956 117.982 29.2196C118.06 29.2436 118.132 29.2842 118.193 29.3386C118.254 29.3931 118.303 29.46 118.335 29.5349C118.368 29.6098 118.384 29.6909 118.383 29.7727V32.3259C119.338 30.7106 121.231 29.1821 123.21 29.1821C123.505 29.1821 123.835 29.3906 123.835 29.7206Z" fill="#686868"/>
<path d="M142.762 36.0431C142.76 36.2065 142.692 36.3622 142.575 36.4761C142.458 36.59 142.301 36.6529 142.137 36.651H130.625C130.92 39.4995 133.056 42.1048 136.077 42.1048C138.144 42.1048 139.672 41.3232 140.818 39.6732C140.871 39.5865 140.945 39.5143 141.033 39.4628C141.12 39.4113 141.219 39.3822 141.321 39.3779C141.397 39.3758 141.472 39.3891 141.543 39.4172C141.613 39.4452 141.677 39.4873 141.731 39.541C141.785 39.5947 141.827 39.6587 141.855 39.7292C141.883 39.7998 141.896 39.8752 141.894 39.9511C141.895 40.0559 141.864 40.1585 141.807 40.2464C140.644 42.2612 138.335 43.2512 136.077 43.2512C132.205 43.2512 129.427 39.7774 129.427 36.0779C129.427 32.3783 132.188 28.9045 136.077 28.9045C139.967 28.9045 142.745 32.3436 142.762 36.0431ZM141.53 35.5047C141.286 32.6562 139.099 30.0509 136.077 30.0509C133.056 30.0509 130.92 32.6562 130.625 35.5047H141.53Z" fill="#686868"/>
<path d="M161.377 29.86V42.4698C161.372 42.6204 161.31 42.7637 161.204 42.8702C161.097 42.9768 160.954 43.0386 160.804 43.0429C160.728 43.0451 160.652 43.0317 160.582 43.0037C160.511 42.9757 160.447 42.9335 160.394 42.8799C160.34 42.8262 160.298 42.7622 160.27 42.6916C160.242 42.6211 160.228 42.5456 160.231 42.4698V40.0729C159.276 41.9661 157.591 43.3382 155.438 43.3382C152.017 43.3382 150.125 40.3681 150.125 37.2244V29.8426C150.126 29.6911 150.187 29.5461 150.294 29.4389C150.401 29.3317 150.546 29.2708 150.698 29.2695C150.848 29.2738 150.992 29.3356 151.098 29.4422C151.205 29.5487 151.266 29.692 151.271 29.8426V37.2244C151.271 39.7081 152.677 42.1745 155.438 42.1745C159.31 42.1745 160.231 38.5444 160.231 34.5322V29.8253C160.232 29.7324 160.255 29.6411 160.299 29.5591C160.343 29.4772 160.406 29.4069 160.482 29.3542C160.559 29.3014 160.647 29.2678 160.739 29.2561C160.831 29.2444 160.925 29.2549 161.012 29.2868C161.121 29.3376 161.213 29.4185 161.278 29.5201C161.343 29.6217 161.377 29.7396 161.377 29.86Z" fill="#686868"/>
<path d="M190.53 35.0012V42.3829C190.526 42.5335 190.464 42.6768 190.357 42.7834C190.251 42.8899 190.107 42.9517 189.957 42.9561C189.881 42.9582 189.806 42.9449 189.735 42.9168C189.665 42.8888 189.601 42.8467 189.547 42.793C189.493 42.7393 189.451 42.6753 189.423 42.6048C189.395 42.5343 189.382 42.4588 189.384 42.3829V35.0012C189.384 32.5174 187.977 30.0858 185.217 30.0858C181.744 30.0858 180.424 33.8027 180.424 36.6859V42.3829C180.42 42.5335 180.358 42.6768 180.251 42.7834C180.145 42.8899 180.002 42.9517 179.851 42.9561C179.775 42.9582 179.7 42.9449 179.629 42.9168C179.559 42.8888 179.495 42.8467 179.441 42.793C179.387 42.7393 179.345 42.6753 179.317 42.6048C179.289 42.5343 179.276 42.4588 179.278 42.3829V35.0012C179.278 32.5174 177.872 30.0858 175.111 30.0858C171.603 30.0858 170.162 32.8474 170.284 36.5296C170.284 36.6165 170.318 36.7728 170.284 36.8249V42.3655C170.283 42.5123 170.231 42.6541 170.135 42.7656C170.04 42.877 169.908 42.9507 169.763 42.9735C169.682 42.9842 169.599 42.9774 169.521 42.9533C169.443 42.9293 169.371 42.8887 169.31 42.8343C169.249 42.7799 169.2 42.7129 169.168 42.638C169.135 42.5631 169.119 42.482 169.12 42.4003V29.8079C169.121 29.6611 169.173 29.5193 169.269 29.4079C169.364 29.2964 169.496 29.2227 169.641 29.2C169.722 29.1892 169.805 29.1961 169.883 29.2201C169.961 29.2441 170.033 29.2847 170.094 29.3391C170.155 29.3936 170.203 29.4605 170.236 29.5354C170.269 29.6103 170.285 29.6914 170.284 29.7732V31.8748C171.273 30.1032 173.044 28.9395 175.111 28.9395C177.455 28.9395 179.278 30.4332 180.025 32.6043C180.98 30.4505 182.838 28.9395 185.217 28.9395C188.602 28.9395 190.53 31.8748 190.53 35.0012Z" fill="#686868"/>
<path opacity="0.6" d="M17.412 26.3865L3 32.9345L17.412 41.4626L31.8414 32.9345L17.412 26.3865Z" fill="#595959"/>
<path opacity="0.45" d="M3 32.9342L17.412 41.4623V9L3 32.9342Z" fill="#595959"/>
<path opacity="0.8" d="M17.4122 9V41.4623L31.8416 32.9342L17.4122 9Z" fill="#595959"/>
<path opacity="0.45" d="M3 35.6787L17.412 56.0002V44.1894L3 35.6787Z" fill="#595959"/>
<path opacity="0.8" d="M17.4122 44.1894V56.0002L31.8416 35.6787L17.4122 44.1894Z" fill="#595959"/>
</svg>
