<svg width="162" height="52" viewBox="0 0 162 52" fill="none" xmlns="http://www.w3.org/2000/svg">
<path d="M51.0833 29.5313C49.0382 43.5322 35.9812 53.2856 21.9803 51.2406C7.97935 49.1955 -1.77408 35.9812 0.270992 21.9803C2.31607 7.97935 15.3731 -1.77408 29.374 0.270992C43.3749 2.47338 53.1283 15.5304 51.0833 29.5313Z" fill="#42C1CA"/>
<path d="M37.2397 10.3389C32.0483 7.03535 28.2728 14.2718 28.2728 14.4291C27.3289 16.1595 26.5424 18.9912 26.0704 21.0362L19.306 20.0924L18.9913 21.9801L25.5985 22.924C25.4412 23.8679 25.2839 24.4971 25.2839 24.4971L24.9692 26.5422V26.6995L18.3621 25.7557L18.0474 27.6434L24.6546 28.5873C22.9242 37.2395 21.6657 39.9139 20.4071 41.3297C20.0925 41.6443 18.3621 42.9028 17.4182 40.7004C16.7889 39.1273 15.5304 39.4419 15.5304 39.4419C15.2158 39.4419 13.6427 40.3858 16.1597 42.1163C21.351 45.4198 25.1265 38.1834 25.1265 38.0261C26.0704 36.2957 27.3289 31.4189 27.8009 29.2166L34.5654 30.1604L34.88 28.2727L28.1155 27.3288C28.2728 26.3849 28.4301 25.7557 28.4301 25.7557L28.7448 23.7106V23.5533L35.3519 24.4971L35.6666 22.6094L29.0594 21.6655C30.7898 13.0133 31.5764 12.5413 32.8349 10.9682C33.1495 10.6536 34.88 9.39505 35.8239 11.5974C36.4531 13.1706 37.7116 12.8559 37.7116 12.8559C38.1836 13.0133 39.7567 11.9121 37.2397 10.3389Z" fill="#FEFEFE"/>
<path fill-rule="evenodd" clip-rule="evenodd" d="M73.8938 24.3399H64.455V16.6315H74.2084L74.3657 14.2718H61.7806V37.0823H64.455V26.5423H73.8938V24.3399ZM80.029 14.2718H77.512V17.2608H80.029V14.2718ZM80.029 20.2497H77.512V37.0823H80.029V20.2497ZM86.9508 14.1145L84.4338 14.4291V30.0032C84.4338 35.5091 84.5911 37.5542 88.6813 37.5542C89.3105 37.5542 89.7825 37.3969 90.4117 37.3969L90.2544 35.1945C89.4678 35.1945 89.3105 35.3518 88.8386 35.3518C87.1081 35.3518 86.9508 34.2506 86.9508 30.6324V14.1145ZM99.5359 37.3969C94.8165 37.3969 91.8275 33.936 91.8275 28.5873C91.8275 23.5533 94.8165 19.9351 99.2213 19.7778C103.311 19.7778 105.986 22.9241 105.986 27.8008C105.986 28.1154 105.986 28.7447 105.986 28.902H94.5019C94.5019 32.6775 96.7042 35.0372 99.6932 35.0372C101.581 35.0372 103.469 34.4079 105.042 33.3067L105.828 35.1945C104.255 36.6103 102.21 37.3969 99.5359 37.3969ZM94.5019 27.3288H103.469C103.469 23.7106 101.738 21.9802 99.2213 21.9802C96.7042 21.9802 94.8165 24.1826 94.5019 27.3288ZM120.931 35.9811C119.829 37.0823 118.099 37.5542 116.368 37.5542C111.177 37.5542 108.345 33.4641 108.345 28.7447C108.345 24.0253 111.334 19.9351 116.368 19.9351C118.256 19.9351 119.987 20.5644 120.931 21.3509L120.301 23.2387C119.2 22.4521 117.784 22.1375 116.368 22.1375C113.379 22.1375 111.02 24.9691 111.02 28.902C111.02 32.8348 113.222 35.5091 116.683 35.5091C118.099 35.5091 119.357 35.0372 120.459 34.2506L120.931 35.9811ZM135.875 28.7447C135.875 25.1264 134.617 21.9802 130.841 21.9802C127.223 21.9802 125.65 25.2838 125.65 28.7447C125.65 32.2056 127.38 35.3518 130.999 35.3518C134.617 35.3518 135.875 32.2056 135.875 28.7447ZM138.55 28.7447C138.55 33.3068 135.875 37.5542 130.841 37.5542C125.807 37.5542 122.976 33.6214 122.976 28.902C122.976 24.1826 125.807 20.0924 130.999 20.0924C135.875 19.9351 138.55 23.8679 138.55 28.7447ZM144.685 14.2718H142.168V17.2608H144.685V14.2718ZM144.685 20.2497H142.168V37.0823H144.685V20.2497ZM156.798 19.9351C154.438 19.9351 152.079 21.0363 150.82 22.7667L150.663 20.2497H148.46V24.3399V37.0823H150.977V25.5984C151.449 24.0253 153.337 22.1375 156.169 22.1375C159.315 22.1375 159.472 24.3399 159.472 28.7447V37.0823H161.989V27.0142C162.147 22.2948 160.574 19.9351 156.798 19.9351Z" fill="#333333"/>
</svg>
