<svg width="179" height="33" viewBox="0 0 179 33" fill="none" xmlns="http://www.w3.org/2000/svg">
<path d="M60.8173 18.146H67.3006C68.2122 18.146 68.9509 18.9479 68.9509 19.927C68.9509 20.9062 68.2122 21.708 67.3006 21.708H59.4813C59.3556 21.708 59.2377 21.7587 59.1513 21.8431L56.7937 24.0293C56.4322 24.3669 56.6523 25 57.1238 25H66.9077C66.9077 25 66.9155 25 66.9155 24.9916C66.9155 24.9831 66.9234 24.9831 66.9234 24.9831C67.0491 24.9916 67.167 25 67.3006 25C69.8939 25 72 22.7294 72 19.927C72 17.2681 70.1061 15.0819 67.6857 14.8709C67.6857 14.8709 67.6778 14.8709 67.6778 14.8625C67.6778 14.854 67.6778 14.854 67.6699 14.854H60.6915C59.78 14.854 59.0413 14.0521 59.0413 13.073C59.0413 12.0854 59.78 11.292 60.6915 11.292H68.4951C68.6208 11.292 68.7466 11.2413 68.8409 11.1485L71.0334 8.96227C71.3792 8.62463 71.1513 8 70.6876 8H60.8251C60.7859 8 60.7387 8 60.6994 8C58.1061 8 56 10.2706 56 13.073C56 15.8754 58.1061 18.146 60.6994 18.146C60.7387 18.146 60.778 18.146 60.8173 18.146Z" fill="black"/>
<path d="M99.5328 8C99.2377 8 99 8.24454 99 8.55655V24.4435C99 24.747 99.2377 25 99.5328 25H111.911C112.059 25 112.198 24.9325 112.304 24.8229L113.854 23.1111C114.174 22.7569 113.936 22.1835 113.46 22.1835H102.656C102.361 22.1835 102.123 21.939 102.123 21.627V8.55655C102.123 8.25297 101.886 8 101.59 8H99.5328Z" fill="black"/>
<path fill-rule="evenodd" clip-rule="evenodd" d="M79.9122 8C79.904 8.00845 79.9122 8.00845 79.9122 8C78.3378 8.07601 77.0734 9.385 77 11.0149V21.7149C77 21.7571 77 21.8078 77 21.85C77 23.5474 78.2889 24.9324 79.9122 25H91.0878C92.703 24.924 94 23.539 94 21.85C94 21.8078 94 21.7571 94 21.7149V11.0233C93.9347 9.39344 92.6703 8.076 91.096 8.00844H79.9122V8ZM81.9923 11.0233C81.0053 11.0656 80.214 11.8932 80.1732 12.9235V19.6542C80.1732 19.6796 80.1732 19.7134 80.1732 19.7387C80.1732 20.8028 80.9808 21.6811 81.9923 21.7233H88.9995C90.011 21.6811 90.8186 20.8028 90.8186 19.7387C90.8186 19.7134 90.8186 19.6796 90.8186 19.6542V12.9235C90.7778 11.8932 89.9866 11.074 88.9995 11.0233H81.9923Z" fill="black"/>
<path fill-rule="evenodd" clip-rule="evenodd" d="M131.804 24.4347C131.804 24.7385 132.044 24.9916 132.342 24.9916H134.462C134.76 24.9916 135 24.7469 135 24.4347V11.2819C135 11.2397 135 11.1891 135 11.1469C135 9.45112 133.7 8.06749 132.077 8H121.188C121.147 8 121.097 8 121.056 8C119.366 8 118 9.40893 118 11.1553C118 11.1975 118 11.2481 118 11.2903V24.4432C118 24.7469 118.24 25 118.538 25H120.658C120.956 25 121.196 24.7553 121.196 24.4432V18.9677C121.196 18.664 121.436 18.4109 121.735 18.4109H131.29C131.588 18.4109 131.829 18.6556 131.829 18.9677V24.4347H131.804ZM121.171 15.3821V12.6486C121.171 11.5856 122.008 10.7251 123.035 10.7251H129.941C130.967 10.7251 131.804 11.5856 131.804 12.6486V15.3821C131.804 15.6859 131.564 15.939 131.265 15.939H121.71C121.412 15.939 121.171 15.6943 121.171 15.3821Z" fill="black"/>
<path fill-rule="evenodd" clip-rule="evenodd" d="M176.33 25C176.036 25 175.798 24.7553 175.798 24.4432V18.9677C175.798 18.664 175.561 18.4109 175.266 18.4109H165.71C165.415 18.4109 165.177 18.6556 165.177 18.9677V24.4432C165.177 24.7469 164.94 25 164.645 25H162.532C162.237 25 162 24.7553 162 24.4432V11.2903C162 11.2481 162 11.1975 162 11.1553C162 9.41737 163.368 8 165.054 8C165.095 8 165.145 8 165.185 8H176.077C177.698 8.07593 179 9.45955 179 11.1469C179 11.1891 179 11.2397 179 11.2819V24.4347C179 24.7385 178.763 24.9916 178.468 24.9916H176.33V25ZM165.169 12.6571V15.3906C165.169 15.6943 165.407 15.9474 165.701 15.9474H175.258C175.553 15.9474 175.79 15.7027 175.79 15.3906V12.6571C175.79 11.594 174.955 10.7335 173.931 10.7335H167.028C166.004 10.7335 165.169 11.594 165.169 12.6571Z" fill="black"/>
<path d="M142.968 8C143.125 8 143.274 8.06743 143.374 8.19385L152.866 19.7323C153.188 20.12 153.808 19.884 153.808 19.3699V8.55627C153.808 8.25285 154.048 8 154.346 8H156.463C156.76 8 157 8.24442 157 8.55627V24.4353C157 24.7387 156.76 24.9916 156.463 24.9916H153.833C153.825 24.9916 153.817 24.9831 153.817 24.9747C153.817 24.9663 153.817 24.9663 153.808 24.9579L144.151 13.5037C143.828 13.116 143.208 13.3604 143.208 13.8661V24.4437C143.208 24.7471 142.968 25 142.671 25H140.537C140.24 25 140 24.7556 140 24.4437V8.55627C140 8.25285 140.24 8 140.537 8H142.968Z" fill="black"/>
<path d="M6.98317 25.3933C7.24689 25.1416 7.60126 25 7.97211 25H42.2966C42.9229 25 43.2361 25.7237 42.7911 26.1406L36.0086 32.6067C35.7449 32.8584 35.3905 33 35.0196 33H0.703395C0.0770658 33 -0.236099 32.2763 0.208925 31.8594L6.98317 25.3933Z" fill="url(#paint0_linear_1546_37467)"/>
<path d="M6.98317 0.393314C7.24689 0.141593 7.60126 0 7.97211 0H42.2966C42.9229 0 43.2361 0.723697 42.7911 1.14061L36.0086 7.60669C35.7449 7.85841 35.3905 8 35.0196 8H0.703395C0.0770658 8 -0.236099 7.2763 0.208925 6.85939L6.98317 0.393314Z" fill="url(#paint1_linear_1546_37467)"/>
<path d="M36.0017 12.4425C35.738 12.1593 35.3837 12 35.0129 12H0.70326C0.0770511 12 -0.236054 12.8142 0.208885 13.2832L6.99007 20.5575C7.25374 20.8407 7.60804 21 7.97882 21H42.2967C42.9229 21 43.236 20.1858 42.7911 19.7168L36.0017 12.4425Z" fill="url(#paint2_linear_1546_37467)"/>
<defs>
<linearGradient id="paint0_linear_1546_37467" x1="39.0193" y1="-3.02888" x2="16.958" y2="41.2414" gradientUnits="userSpaceOnUse">
<stop stop-color="#00FFA3"/>
<stop offset="1" stop-color="#DC1FFF"/>
</linearGradient>
<linearGradient id="paint1_linear_1546_37467" x1="28.6332" y1="-9.03947" x2="6.57178" y2="35.2308" gradientUnits="userSpaceOnUse">
<stop stop-color="#00FFA3"/>
<stop offset="1" stop-color="#DC1FFF"/>
</linearGradient>
<linearGradient id="paint2_linear_1546_37467" x1="33.7867" y1="-8.78098" x2="7.26401" y2="38.5191" gradientUnits="userSpaceOnUse">
<stop stop-color="#00FFA3"/>
<stop offset="1" stop-color="#DC1FFF"/>
</linearGradient>
</defs>
</svg>
