<svg width="135" height="36" viewBox="0 0 135 36" fill="none" xmlns="http://www.w3.org/2000/svg">
<path d="M67.5812 7.42127V28.1456C67.5812 28.3035 67.4628 28.4614 67.2654 28.4614H65.0943C64.1074 28.4614 63.16 27.9482 62.6073 27.1193L52.8175 12.0004L53.1333 19.5401V28.1851C53.1333 28.343 53.0149 28.5009 52.8175 28.5009H49.9753C49.8174 28.5009 49.6595 28.3825 49.6595 28.1851V7.42127C49.6595 7.26337 49.778 7.10547 49.9753 7.10547H52.107C53.0939 7.10547 54.0413 7.61864 54.5939 8.44762L64.3837 23.5271L64.0679 15.9873V7.42127C64.0679 7.26337 64.1863 7.10547 64.3837 7.10547H67.2259C67.4628 7.10547 67.5812 7.22389 67.5812 7.42127Z" fill="black"/>
<path d="M96.7137 28.422H93.7136C93.5162 28.422 93.3583 28.2246 93.4373 28.0272L101.411 7.38179C101.49 7.22389 101.648 7.10547 101.806 7.10547H105.596C105.793 7.10547 105.951 7.22389 105.99 7.38179L114.004 28.0272C114.083 28.2246 113.925 28.422 113.727 28.422H110.727C110.609 28.422 110.49 28.343 110.451 28.2246L104.017 11.2503C103.938 11.0135 103.543 11.0135 103.464 11.2503L97.0295 28.2246C96.9505 28.343 96.8321 28.422 96.7137 28.422Z" fill="black"/>
<path d="M134.925 27.9483L128.925 20.2901C132.32 19.6585 134.294 17.369 134.294 13.8557C134.294 9.82924 131.689 7.10547 127.03 7.10547H118.662C118.425 7.10547 118.228 7.30284 118.228 7.53969C118.228 9.11869 119.491 10.3819 121.07 10.3819H126.715C129.517 10.3819 130.86 11.803 130.86 13.8952C130.86 15.9873 129.557 17.4084 126.715 17.4084H118.741C118.504 17.4084 118.306 17.6058 118.306 17.8427V28.1061C118.306 28.264 118.425 28.422 118.622 28.422H121.464C121.622 28.422 121.78 28.3035 121.78 28.1061V20.4875H125.057L130.267 27.2772C130.82 28.0272 131.689 28.422 132.636 28.422H134.807C134.965 28.422 135.083 28.1456 134.925 27.9483Z" fill="black"/>
<path d="M87.7134 7.10547H74.4892C74.2524 7.10547 74.0945 7.26337 74.0945 7.50022C74.0945 9.07922 75.3972 10.3819 76.9762 10.3819H87.7134C87.8713 10.3819 88.0291 10.2635 88.0291 10.0661V7.38179C87.9897 7.22389 87.8713 7.10547 87.7134 7.10547ZM87.7134 25.1455H77.8446C77.6867 25.1455 77.5288 25.0271 77.5288 24.8297V19.5006C77.5288 19.3427 77.6472 19.1848 77.8446 19.1848H86.9633C87.1212 19.1848 87.2791 19.0664 87.2791 18.869V16.1847C87.2791 16.0268 87.1607 15.8689 86.9633 15.8689H74.5287C74.2919 15.8689 74.0945 16.0663 74.0945 16.3031V27.9483C74.0945 28.1851 74.2919 28.3825 74.5287 28.3825H87.7134C87.8713 28.3825 88.0291 28.2641 88.0291 28.0667V25.3824C87.9897 25.264 87.8713 25.1455 87.7134 25.1455Z" fill="black"/>
<path d="M28.5009 1.81585L21.0796 12.8294C20.5665 13.5794 21.5533 14.4873 22.2639 13.8557L29.5667 7.50024C29.7641 7.34234 30.0405 7.46077 30.0405 7.73709V27.593C30.0405 27.8693 29.6852 27.9878 29.5273 27.7904L7.4213 1.34215C6.71075 0.4737 5.6844 0 4.53962 0H3.75012C1.69742 0 0 1.69742 0 3.7896V31.7379C0 33.83 1.69742 35.5275 3.7896 35.5275C5.09227 35.5275 6.316 34.8564 7.02655 33.7116L14.4478 22.6981C14.961 21.9481 13.9741 21.0402 13.2636 21.6718L5.96072 27.9878C5.76334 28.1457 5.48702 28.0272 5.48702 27.7509V7.93447C5.48702 7.65814 5.84229 7.53972 6.00019 7.73709L28.1062 34.1853C28.8167 35.0538 29.8825 35.5275 30.9878 35.5275H31.7773C33.8695 35.5275 35.5669 33.83 35.5669 31.7379V3.7896C35.5275 1.69742 33.83 0 31.7379 0C30.4352 0 29.2115 0.671074 28.5009 1.81585Z" fill="black"/>
</svg>
