<svg width="170" height="43" viewBox="0 0 170 43" fill="none" xmlns="http://www.w3.org/2000/svg">
<path d="M54.3552 30.3505C53.3947 30.3505 52.5028 30.2206 51.6795 29.9617C50.8562 29.7028 50.1626 29.3141 49.5984 28.7954C49.0343 28.2768 48.6303 27.6291 48.3864 26.8515C48.1577 26.074 48.1272 25.1666 48.2949 24.1301C48.4168 23.4743 48.5465 22.8192 48.6837 22.1634C48.8362 21.5075 48.9886 20.8443 49.1411 20.1738C49.6442 18.1156 50.5513 16.5531 51.8625 15.4856C53.1736 14.4181 54.9422 13.8848 57.1681 13.8848C58.1286 13.8848 59.0129 14.022 59.8209 14.2964C60.6442 14.5553 61.3379 14.9523 61.902 15.4856C62.4813 16.0189 62.8854 16.6748 63.1141 17.4524C63.358 18.2299 63.3885 19.1373 63.2055 20.1738C63.0988 20.8443 62.9693 21.5075 62.8168 22.1634C62.6796 22.8192 62.5347 23.4743 62.3823 24.1301C61.8639 26.2186 60.9491 27.7818 59.638 28.8183C58.3268 29.84 56.5659 30.3505 54.3552 30.3505ZM54.6525 27.0574C55.4758 27.0574 56.2 26.8132 56.8251 26.3255C57.4501 25.8379 57.8923 25.0604 58.1515 23.9929C58.3192 23.3224 58.464 22.6894 58.586 22.0948C58.7232 21.5002 58.8451 20.8827 58.9519 20.2424C59.1501 19.1749 59.0586 18.3973 58.6775 17.9097C58.2963 17.4221 57.6941 17.1779 56.8708 17.1779C56.0475 17.1779 55.3233 17.4221 54.6982 17.9097C54.0884 18.3973 53.6539 19.1749 53.3947 20.2424C53.227 20.8827 53.0745 21.5002 52.9373 22.0948C52.8154 22.6894 52.6934 23.3224 52.5714 23.9929C52.3885 25.0604 52.4799 25.8379 52.8458 26.3255C53.2118 26.8132 53.8139 27.0574 54.6525 27.0574ZM65.6277 30.1218C65.4752 30.1218 65.3533 30.0687 65.2618 29.9617C65.1703 29.8547 65.1399 29.7175 65.1703 29.5501L68.3263 14.6852C68.3567 14.5178 68.4406 14.3805 68.5778 14.2735C68.715 14.1665 68.8598 14.1135 69.0123 14.1135H75.0955C76.0256 14.1135 76.864 14.2205 77.6111 14.4336C78.3734 14.6468 79.0061 14.9751 79.5093 15.417C80.0124 15.8589 80.363 16.4159 80.5612 17.0864C80.7595 17.7423 80.7671 18.5117 80.5841 19.3962C80.2029 21.1498 79.4254 22.4452 78.2514 23.284C77.0927 24.1228 75.53 24.5418 73.5633 24.5418H70.476L69.424 29.5501C69.3935 29.7175 69.3096 29.8547 69.1724 29.9617C69.0505 30.0687 68.9056 30.1218 68.7379 30.1218H65.6277ZM71.0706 21.3858H73.7005C74.3256 21.3858 74.8821 21.2184 75.3699 20.8827C75.8731 20.547 76.2008 20.0366 76.3533 19.3505C76.4295 18.9544 76.4448 18.6031 76.3991 18.2985C76.3533 17.9938 76.1932 17.7496 75.9188 17.5667C75.6596 17.3837 75.2556 17.2923 74.7067 17.2923H71.9625L71.0706 21.3858ZM85.496 30.1218C85.3282 30.1218 85.1987 30.0687 85.1072 29.9617C85.0157 29.8547 84.9852 29.7175 85.0157 29.5501L87.5542 17.7039H83.4835C83.331 17.7039 83.2091 17.6508 83.1176 17.5438C83.0261 17.4221 82.9956 17.2849 83.0261 17.1322L83.5521 14.6852C83.5826 14.5178 83.6588 14.3805 83.7808 14.2735C83.918 14.1665 84.0704 14.1135 84.2382 14.1135H96.5413C96.7096 14.1135 96.8313 14.1665 96.9072 14.2735C96.9987 14.3805 97.0298 14.5178 96.9987 14.6852L96.4727 17.1322C96.4425 17.2849 96.3584 17.4221 96.2212 17.5438C96.0995 17.6508 95.9549 17.7039 95.7867 17.7039H91.716L89.2004 29.5501C89.1701 29.7175 89.086 29.8547 88.9492 29.9617C88.8272 30.0687 88.6824 30.1218 88.5147 30.1218H85.496ZM97.5925 30.1218C97.4251 30.1218 97.2952 30.0687 97.2037 29.9617C97.1122 29.8547 97.082 29.7175 97.1122 29.5501L100.291 14.6852C100.321 14.5178 100.405 14.3805 100.543 14.2735C100.68 14.1665 100.824 14.1135 100.977 14.1135H104.064C104.217 14.1135 104.339 14.1665 104.43 14.2735C104.522 14.3805 104.552 14.5178 104.522 14.6852L101.343 29.5501C101.313 29.7175 101.229 29.8547 101.091 29.9617C100.97 30.0687 100.833 30.1218 100.68 30.1218H97.5925ZM106.288 30.1218C106.12 30.1218 105.99 30.0687 105.899 29.9617C105.807 29.8547 105.777 29.7175 105.807 29.5501L108.963 14.6852C108.994 14.5178 109.078 14.3805 109.215 14.2735C109.352 14.1665 109.505 14.1135 109.672 14.1135H112.142C112.386 14.1135 112.554 14.1821 112.645 14.3193C112.752 14.441 112.821 14.5406 112.851 14.6166L115.321 21.8432L120.901 14.6166C120.947 14.5406 121.038 14.441 121.175 14.3193C121.328 14.1821 121.527 14.1135 121.77 14.1135H124.24C124.408 14.1135 124.537 14.1665 124.629 14.2735C124.72 14.3805 124.751 14.5178 124.72 14.6852L121.564 29.5501C121.534 29.7175 121.45 29.8547 121.313 29.9617C121.175 30.0687 121.024 30.1218 120.855 30.1218H118.111C117.959 30.1218 117.837 30.0687 117.745 29.9617C117.654 29.8547 117.623 29.7175 117.654 29.5501L119.437 21.1114L115.938 25.7538C115.832 25.8755 115.702 25.998 115.55 26.1197C115.412 26.2267 115.238 26.2798 115.024 26.2798H113.834C113.621 26.2798 113.469 26.2267 113.377 26.1197C113.286 26.0127 113.217 25.8911 113.171 25.7538L111.548 20.9056L109.695 29.5501C109.665 29.7175 109.581 29.8547 109.444 29.9617C109.322 30.0687 109.185 30.1218 109.032 30.1218H106.288ZM126.461 30.1218C126.293 30.1218 126.164 30.0687 126.073 29.9617C125.981 29.8547 125.95 29.7175 125.981 29.5501L129.16 14.6852C129.19 14.5178 129.274 14.3805 129.412 14.2735C129.549 14.1665 129.693 14.1135 129.846 14.1135H132.933C133.085 14.1135 133.208 14.1665 133.299 14.2735C133.391 14.3805 133.421 14.5178 133.391 14.6852L130.212 29.5501C130.181 29.7175 130.098 29.8547 129.96 29.9617C129.838 30.0687 129.701 30.1218 129.549 30.1218H126.461ZM140.805 30.3505C139.28 30.3505 138.031 30.1373 137.055 29.7102C136.094 29.283 135.401 28.7195 134.974 28.0179C134.562 27.3016 134.417 26.5469 134.539 25.7538C134.569 25.6321 134.631 25.5251 134.722 25.4337C134.829 25.3267 134.951 25.2736 135.088 25.2736H138.015C138.228 25.2736 138.381 25.312 138.473 25.3879C138.564 25.4639 138.656 25.5635 138.747 25.6852C138.808 25.9139 138.93 26.1353 139.113 26.3484C139.296 26.5616 139.547 26.7372 139.868 26.8744C140.203 26.9961 140.615 27.0574 141.103 27.0574C141.987 27.0574 142.696 26.9201 143.229 26.6457C143.763 26.3713 144.076 25.998 144.167 25.5251C144.259 25.1895 144.197 24.915 143.984 24.7019C143.786 24.4732 143.428 24.2747 142.909 24.1072C142.406 23.9243 141.727 23.7413 140.874 23.5584C139.761 23.3142 138.846 22.9793 138.13 22.5522C137.413 22.1103 136.91 21.5533 136.62 20.8827C136.346 20.1966 136.307 19.3807 136.506 18.4357C136.811 17.0333 137.565 15.9275 138.77 15.1197C139.975 14.2964 141.537 13.8848 143.458 13.8848C144.449 13.8848 145.326 14.022 146.088 14.2964C146.866 14.5708 147.513 14.9367 148.032 15.3941C148.551 15.8515 148.924 16.3391 149.153 16.8577C149.381 17.3609 149.457 17.8566 149.381 18.3442C149.366 18.4659 149.305 18.5803 149.198 18.6873C149.091 18.7788 148.97 18.8245 148.832 18.8245H145.768C145.615 18.8245 145.478 18.7943 145.356 18.733C145.249 18.6718 145.158 18.5729 145.082 18.4357C145.082 18.1 144.906 17.8109 144.556 17.5667C144.205 17.3078 143.74 17.1779 143.161 17.1779C142.505 17.1779 141.956 17.2996 141.514 17.5438C141.072 17.7725 140.798 18.1311 140.691 18.6187C140.615 18.9233 140.653 19.1904 140.805 19.4191C140.973 19.6478 141.278 19.8462 141.72 20.0137C142.177 20.1811 142.802 20.3567 143.595 20.5397C144.937 20.7986 145.989 21.1498 146.751 21.5917C147.513 22.0188 148.025 22.5595 148.283 23.2154C148.558 23.8712 148.596 24.6716 148.398 25.6166C148.062 27.1717 147.247 28.3536 145.951 29.1613C144.67 29.9544 142.955 30.3505 140.805 30.3505ZM151.556 30.1218C151.389 30.1218 151.259 30.0687 151.167 29.9617C151.076 29.8547 151.046 29.7175 151.076 29.5501L154.232 14.6852C154.262 14.5178 154.346 14.3805 154.483 14.2735C154.621 14.1665 154.773 14.1135 154.941 14.1135H157.411C157.655 14.1135 157.822 14.1821 157.914 14.3193C158.021 14.441 158.089 14.5406 158.12 14.6166L160.59 21.8432L166.17 14.6166C166.215 14.5406 166.307 14.441 166.444 14.3193C166.597 14.1821 166.794 14.1135 167.039 14.1135H169.508C169.676 14.1135 169.806 14.1665 169.897 14.2735C169.989 14.3805 170.019 14.5178 169.989 14.6852L166.833 29.5501C166.803 29.7175 166.718 29.8547 166.581 29.9617C166.444 30.0687 166.291 30.1218 166.124 30.1218H163.38C163.227 30.1218 163.105 30.0687 163.014 29.9617C162.922 29.8547 162.892 29.7175 162.922 29.5501L164.706 21.1114L161.207 25.7538C161.1 25.8755 160.971 25.998 160.818 26.1197C160.681 26.2267 160.505 26.2798 160.292 26.2798H159.103C158.89 26.2798 158.737 26.2267 158.646 26.1197C158.554 26.0127 158.486 25.8911 158.44 25.7538L156.816 20.9056L154.964 29.5501C154.933 29.7175 154.849 29.8547 154.712 29.9617C154.59 30.0687 154.453 30.1218 154.3 30.1218H151.556Z" fill="#222222"/>
<path d="M21.2356 42.4712C32.9637 42.4712 42.4712 32.9637 42.4712 21.2356C42.4712 9.5075 32.9637 0 21.2356 0C9.5075 0 0 9.5075 0 21.2356C0 32.9637 9.5075 42.4712 21.2356 42.4712Z" fill="#FF0420"/>
<path d="M14.9988 26.9529C14.3165 26.9529 13.6828 26.863 13.0979 26.6829C12.5131 26.5027 12.0201 26.2328 11.6195 25.8729C11.2187 25.5131 10.9317 25.063 10.7584 24.523C10.5959 23.983 10.5743 23.3532 10.6934 22.6331C10.7801 22.178 10.8721 21.7225 10.9696 21.2673C11.0779 20.8122 11.1862 20.3517 11.2945 19.8857C11.652 18.4564 12.2963 17.371 13.2279 16.63C14.1595 15.889 15.4157 15.5183 16.9972 15.5183C17.6796 15.5183 18.3076 15.6136 18.8818 15.8042C19.4667 15.9843 19.9597 16.2593 20.3603 16.63C20.772 17.0007 21.0589 17.4558 21.2214 17.9958C21.3945 18.5358 21.4163 19.1656 21.2863 19.8857C21.2107 20.3517 21.1183 20.8122 21.0102 21.2673C20.9127 21.7225 20.8096 22.178 20.7015 22.6331C20.3333 24.0838 19.6835 25.1687 18.7518 25.8888C17.8202 26.598 16.5692 26.9529 14.9988 26.9529ZM15.21 24.6659C15.7949 24.6659 16.3093 24.4967 16.7535 24.1577C17.1977 23.8188 17.5115 23.2788 17.6958 22.5379C17.8151 22.0719 17.9177 21.6326 18.0045 21.2197C18.102 20.8068 18.1888 20.378 18.2644 19.9333C18.4051 19.1923 18.3401 18.6524 18.0695 18.3134C17.7988 17.9745 17.3709 17.8052 16.786 17.8052C16.2011 17.8052 15.6867 17.9745 15.2425 18.3134C14.8094 18.6524 14.5007 19.1923 14.3165 19.9333C14.1972 20.378 14.089 20.8068 13.9915 21.2197C13.9047 21.6326 13.8184 22.0719 13.7316 22.5379C13.6016 23.2788 13.6666 23.8188 13.9265 24.1577C14.1865 24.4967 14.6145 24.6659 15.21 24.6659ZM21.9512 26.794C21.8426 26.794 21.7562 26.7568 21.6912 26.6829C21.6262 26.6089 21.6044 26.5136 21.6262 26.397L23.8683 16.0742C23.8897 15.9576 23.9495 15.8623 24.047 15.7883C24.1445 15.7143 24.2471 15.6771 24.3557 15.6771H28.6774C29.3379 15.6771 29.9335 15.7511 30.4645 15.8995C31.0058 16.0478 31.4556 16.2752 31.813 16.5824C32.1704 16.8895 32.4193 17.2757 32.5604 17.7417C32.701 18.1968 32.7066 18.7318 32.5766 19.3457C32.3055 20.5631 31.7532 21.4634 30.9194 22.0455C30.096 22.6277 28.9861 22.919 27.5888 22.919H25.3955L24.6482 26.397C24.6264 26.5136 24.5669 26.6089 24.4694 26.6829C24.3827 26.7568 24.2796 26.794 24.1608 26.794H21.9512ZM25.8179 20.7274H27.6863C28.1301 20.7274 28.5256 20.6108 28.8723 20.378C29.2298 20.1452 29.4623 19.7904 29.5709 19.3139C29.6248 19.0385 29.6359 18.7953 29.6034 18.5834C29.5709 18.3715 29.4572 18.2023 29.2623 18.0752C29.078 17.9482 28.7911 17.8846 28.4012 17.8846H26.4516L25.8179 20.7274Z" fill="white"/>
</svg>
