<svg width="152" height="36" viewBox="0 0 152 36" fill="none" xmlns="http://www.w3.org/2000/svg">
<path d="M40.2251 18.2382V27.3076C40.2218 27.8732 40.0718 28.4283 39.7898 28.9185C39.5077 29.4087 39.1033 29.8174 38.616 30.1045L30.7596 34.6298C30.273 34.9199 29.7171 35.073 29.1506 35.073C28.5842 35.073 28.0282 34.9199 27.5416 34.6298L19.6851 30.1045C19.1978 29.8174 18.7934 29.4087 18.5114 28.9185C18.2294 28.4283 18.0794 27.8732 18.0762 27.3076V24.7622L22.0986 22.4272V26.852L29.1381 30.9373L36.1774 26.852V18.7001L29.1381 14.6148L12.6458 24.1682C12.1547 24.4449 11.6005 24.5903 11.0367 24.5903C10.4731 24.5903 9.91891 24.4449 9.42777 24.1682L1.57128 19.624C1.09151 19.3325 0.694883 18.9224 0.419604 18.433C0.144409 17.9437 -8.35336e-05 17.3917 3.623e-08 16.8303V7.7608C0.00325926 7.1952 0.153267 6.64021 0.435315 6.14991C0.71728 5.65969 1.12176 5.25103 1.60897 4.96388L9.46546 0.438574C9.95309 0.151428 10.5086 0 11.0744 0C11.6404 0 12.1959 0.151428 12.6835 0.438574L20.54 4.96388C21.0272 5.25103 21.4317 5.65969 21.7136 6.14991C21.9957 6.64021 22.1457 7.1952 22.1489 7.7608V10.3063L18.1013 12.6255V8.22587L11.0619 4.14055L4.02247 8.22587V16.3683L11.0619 20.4537L27.5542 10.9003C28.0453 10.6235 28.5994 10.4782 29.1632 10.4782C29.7269 10.4782 30.281 10.6235 30.7722 10.9003L38.6287 15.4444C39.1131 15.7329 39.5148 16.1417 39.7945 16.6312C40.0743 17.1208 40.2226 17.6744 40.2251 18.2382Z" fill="#7B3FE4"/>
<path d="M54.2246 30.6041V23.5364C54.9914 24.5012 56.3836 25.0417 57.9957 25.0417C62.1125 25.0417 64.8937 22.1191 64.8937 17.663C64.8937 13.2068 62.3388 10.2842 58.3383 10.2842C56.4936 10.2842 55.0731 10.9661 54.2215 12.0723V10.501H50.2806V30.5947L54.2246 30.6041ZM57.5086 21.6351C55.3779 21.6351 53.9889 20.0451 53.9889 17.663C53.9889 15.2809 55.3779 13.6624 57.5086 13.6624C59.5795 13.6624 61 15.2338 61 17.663C61 20.0922 59.589 21.6351 57.5086 21.6351Z" fill="#0A0B0D"/>
<path d="M73.8513 25.0417C78.2513 25.0417 81.3935 21.918 81.3935 17.663C81.3935 13.4079 78.2513 10.2842 73.8513 10.2842C69.4516 10.2842 66.3091 13.4048 66.3091 17.663C66.3091 21.9211 69.4516 25.0417 73.8513 25.0417ZM73.8513 21.6351C71.7237 21.6351 70.2751 20.0167 70.2751 17.663C70.2751 15.3092 71.7269 13.6624 73.8513 13.6624C75.9757 13.6624 77.4273 15.2777 77.4273 17.663C77.4273 20.0482 75.9815 21.6351 73.8513 21.6351Z" fill="#0A0B0D"/>
<path d="M87.7314 24.8155V4.29443H83.7877V24.8155H87.7314Z" fill="#0A0B0D"/>
<path d="M99.5883 10.5103L96.609 19.7338L93.6013 10.5103H89.5632L94.7546 24.6991L92.6553 30.604H96.4268L98.4534 24.7619L103.648 10.5165L99.5883 10.5103Z" fill="#0A0B0D"/>
<path d="M114.727 11.9308C113.931 10.9378 112.527 10.2842 110.783 10.2842C106.61 10.2842 104.086 13.2068 104.086 17.663C104.086 22.1191 106.6 25.0417 110.839 25.0417C112.514 25.0417 114.017 24.4133 114.755 23.3667V25.2523C114.755 26.5847 113.875 27.5212 112.685 27.5212H106.1V30.6166H113.31C116.543 30.6166 118.699 28.6589 118.699 25.6765V10.5104H114.727V11.9308ZM111.464 21.6351C109.363 21.6351 107.974 20.0639 107.974 17.663C107.974 15.262 109.363 13.6624 111.464 13.6624C113.567 13.6624 114.981 15.2338 114.981 17.663C114.981 20.0922 113.592 21.6351 111.464 21.6351Z" fill="#0A0B0D"/>
<path d="M128.645 25.0417C133.045 25.0417 136.187 21.918 136.187 17.663C136.187 13.4079 133.045 10.2842 128.645 10.2842C124.246 10.2842 121.103 13.4048 121.103 17.663C121.103 21.9211 124.246 25.0417 128.645 25.0417ZM128.645 21.6351C126.515 21.6351 125.069 20.0167 125.069 17.663C125.069 15.3092 126.515 13.6624 128.645 13.6624C130.776 13.6624 132.222 15.2777 132.222 17.663C132.222 20.0482 130.773 21.6351 128.645 21.6351Z" fill="#0A0B0D"/>
<path d="M142.324 24.8155V16.981C142.324 15.1363 143.544 13.8039 145.275 13.8039C146.922 13.8039 148.028 15.0609 148.028 16.783V24.8155H152V15.9031C152 12.6097 149.902 10.2842 146.658 10.2842C144.7 10.2842 143.113 11.1075 142.318 12.484V10.5104H138.352V24.8155H142.324Z" fill="#0A0B0D"/>
</svg>
