<svg width="161" height="112" viewBox="0 0 161 112" fill="none" xmlns="http://www.w3.org/2000/svg">
<g filter="url(#filter0_d_947_10847)">
<rect x="17" y="11" width="127" height="78" rx="39" fill="white" shape-rendering="crispEdges"/>
<g clip-path="url(#clip0_947_10847)">
<path d="M90.7102 46.3015C90.591 45.2968 90.1086 44.5169 89.2626 43.9616C88.4166 43.4064 87.3788 43.1288 86.1493 43.1288C85.2504 43.1288 84.4638 43.2742 83.7896 43.565C83.122 43.8559 82.5998 44.2558 82.2231 44.7647C81.8529 45.2737 81.6678 45.8521 81.6678 46.4998C81.6678 47.0418 81.7967 47.5078 82.0545 47.8978C82.3189 48.2812 82.656 48.6018 83.0658 48.8596C83.4756 49.1107 83.9053 49.319 84.3548 49.4842C84.8042 49.6429 85.2174 49.7717 85.5941 49.8709L87.6564 50.4261C88.1852 50.5649 88.7735 50.7566 89.4212 51.0012C90.0756 51.2458 90.7001 51.5796 91.2953 52.0026C91.8965 52.419 92.3924 52.9544 92.7823 53.6088C93.1725 54.2632 93.3674 55.0663 93.3674 56.0181C93.3674 57.1153 93.0799 58.1068 92.5048 58.9925C91.9365 59.8783 91.1034 60.5822 90.0062 61.1044C88.9156 61.6266 87.5903 61.8877 86.0304 61.8877C84.5762 61.8877 83.317 61.653 82.2528 61.1837C81.1952 60.7144 80.3624 60.06 79.7543 59.2206C79.1528 58.3811 78.8123 57.4061 78.733 56.2957H81.2712C81.3373 57.0625 81.5951 57.697 82.0446 58.1994C82.5007 58.6951 83.0757 59.0653 83.7698 59.3098C84.4704 59.5478 85.224 59.6668 86.0304 59.6668C86.969 59.6668 87.8117 59.5147 88.5586 59.2107C89.3056 58.9 89.8972 58.4704 90.3334 57.9217C90.7695 57.3665 90.9876 56.7187 90.9876 55.9784C90.9876 55.3042 90.7994 54.7556 90.4226 54.3326C90.0459 53.9095 89.5501 53.5658 88.9354 53.3014C88.3207 53.037 87.6564 52.8057 86.9425 52.6074L84.444 51.8935C82.8576 51.4374 81.6017 50.7863 80.6763 49.9403C79.751 49.0942 79.2883 47.987 79.2883 46.6188C79.2883 45.4819 79.5956 44.4904 80.2104 43.6444C80.8317 42.7917 81.6646 42.1307 82.7089 41.6614C83.7599 41.1855 84.9331 40.9475 86.2287 40.9475C87.5374 40.9475 88.7008 41.1822 89.7187 41.6515C90.7367 42.1142 91.5429 42.7487 92.1377 43.5551C92.7393 44.3615 93.0567 45.277 93.0896 46.3015H90.7102Z" fill="#4CA3FF"/>
<path d="M105.015 55.3042V46.3015H107.355V61.5307H105.015V58.9529H104.856C104.5 59.7262 103.944 60.3839 103.191 60.9259C102.438 61.4613 101.486 61.729 100.336 61.729C99.3837 61.729 98.5375 61.5208 97.797 61.1044C97.0569 60.6813 96.4751 60.0468 96.052 59.2007C95.6294 58.348 95.4176 57.2739 95.4176 55.9784V46.3015H97.7574V55.8198C97.7574 56.9302 98.0681 57.8159 98.6895 58.4769C99.3176 59.1379 100.117 59.4684 101.089 59.4684C101.67 59.4684 102.262 59.3197 102.864 59.0222C103.472 58.7248 103.981 58.2687 104.39 57.654C104.807 57.0393 105.015 56.256 105.015 55.3042Z" fill="#4CA3FF"/>
<path d="M109.966 61.5307V46.3015H112.305V61.5307H109.966ZM111.155 43.7633C110.699 43.7633 110.306 43.608 109.976 43.2973C109.652 42.9867 109.49 42.6132 109.49 42.1769C109.49 41.7407 109.652 41.3672 109.976 41.0566C110.306 40.7459 110.699 40.5906 111.155 40.5906C111.612 40.5906 112.001 40.7459 112.325 41.0566C112.656 41.3672 112.821 41.7407 112.821 42.1769C112.821 42.6132 112.656 42.9867 112.325 43.2973C112.001 43.608 111.612 43.7633 111.155 43.7633Z" fill="#4CA3FF"/>
<path fill-rule="evenodd" clip-rule="evenodd" d="M90.5552 46.4764L90.5367 46.3225C90.4239 45.369 89.9697 44.6349 89.1668 44.1079C88.3548 43.5751 87.3521 43.3037 86.1493 43.3037C85.269 43.3037 84.5069 43.4461 83.8589 43.7256C83.2155 44.0059 82.7196 44.3878 82.3637 44.8684C82.0162 45.3464 81.8423 45.8885 81.8423 46.5002C81.8423 47.013 81.9636 47.4437 82.199 47.8006C82.4492 48.1628 82.7681 48.4665 83.1578 48.7118C83.5573 48.9565 83.9759 49.1594 84.4138 49.3205C84.8593 49.4776 85.2675 49.6049 85.6384 49.7025L85.6394 49.7028L87.7006 50.2577C87.7008 50.2578 87.7009 50.2578 87.7011 50.2579C88.2368 50.3986 88.8308 50.5922 89.4825 50.8382C90.1515 51.0882 90.7889 51.4291 91.3951 51.8601C92.0177 52.2913 92.53 52.8453 92.9321 53.5199C93.3417 54.2072 93.5417 55.043 93.5417 56.0185C93.5417 57.1479 93.2453 58.1724 92.6513 59.0875C92.0628 60.0044 91.2031 60.7283 90.0815 61.2622C88.9615 61.7984 87.609 62.0626 86.0303 62.0626C84.5577 62.0626 83.2735 61.825 82.1823 61.3438L82.182 61.3436C81.0996 60.8633 80.2411 60.1906 79.6129 59.3234L79.6123 59.3227C78.9906 58.4549 78.6403 57.4486 78.5589 56.3085L78.5455 56.1216H81.4313L81.445 56.2811C81.5083 57.0154 81.7535 57.6124 82.1738 58.0826C82.6085 58.5547 83.158 58.9095 83.8268 59.1453C84.5076 59.3764 85.2416 59.4927 86.0303 59.4927C86.9496 59.4927 87.7693 59.3438 88.492 59.0498C89.2156 58.7488 89.7814 58.3357 90.1965 57.8138C90.607 57.291 90.8133 56.6818 90.8133 55.9789C90.8133 55.3388 90.6352 54.8343 90.2921 54.4491C89.9353 54.0482 89.4619 53.7183 88.8664 53.4621C88.2596 53.2012 87.6028 52.9724 86.8958 52.7759L86.8945 52.7756L84.396 52.0617L84.3957 52.0616C82.7913 51.6004 81.509 50.9385 80.5585 50.0695C79.5934 49.1871 79.1137 48.0315 79.1137 46.6192C79.1137 45.4489 79.4308 44.4207 80.0691 43.5422L80.0692 43.542C80.7099 42.6628 81.5675 41.9834 82.637 41.5027C83.7132 41.0155 84.9114 40.7735 86.2286 40.7735C87.5582 40.7735 88.747 41.0119 89.7912 41.4932C90.8326 41.9667 91.6637 42.6189 92.2779 43.4516C92.9009 44.2871 93.2297 45.237 93.2642 46.2964L93.2697 46.4764H90.5552ZM92.1377 43.5555C91.5428 42.7491 90.7367 42.1146 89.7186 41.6519C88.7007 41.1826 87.5373 40.948 86.2286 40.948C84.933 40.948 83.7598 41.1859 82.7088 41.6618C81.6644 42.1311 80.8316 42.7921 80.2103 43.6448C79.5956 44.4908 79.2882 45.4823 79.2882 46.6192C79.2882 47.9875 79.7509 49.0946 80.6763 49.9407C81.6017 50.7868 82.8576 51.4378 84.4439 51.8939L86.9424 52.6078C87.6563 52.8061 88.3206 53.0374 88.9353 53.3018C89.5501 53.5662 90.0458 53.9099 90.4226 54.333C90.7994 54.756 90.9876 55.3047 90.9876 55.9789C90.9876 56.7192 90.7695 57.3669 90.3334 57.9222C89.8971 58.4708 89.3055 58.9004 88.5586 59.2111C87.8117 59.5151 86.9689 59.6672 86.0303 59.6672C85.2239 59.6672 84.4703 59.5482 83.7697 59.3102C83.0757 59.0657 82.5006 58.6955 82.0445 58.1998C81.595 57.6974 81.3372 57.0629 81.2712 56.2961H78.733C78.7371 56.3547 78.742 56.4128 78.7477 56.4706C78.8489 57.509 79.1844 58.4258 79.7542 59.221C80.3623 60.0605 81.1951 60.7149 82.2527 61.1841C83.3169 61.6534 84.5761 61.8881 86.0303 61.8881C87.5902 61.8881 88.9155 61.627 90.0061 61.1048C91.1033 60.5826 91.936 59.8787 92.5048 58.9929C93.0799 58.1072 93.3674 57.1157 93.3674 56.0185C93.3674 55.0667 93.1725 54.2636 92.7822 53.6092C92.3924 52.9548 91.8965 52.4194 91.2949 52.003C90.7 51.58 90.0755 51.2462 89.4212 51.0016C88.7734 50.757 88.1851 50.5653 87.6563 50.4265L85.594 49.8713C85.2173 49.7722 84.8041 49.6433 84.3547 49.4846C83.9052 49.3194 83.4756 49.1112 83.0657 48.86C82.6559 48.6022 82.3188 48.2816 82.0544 47.8982C81.7966 47.5083 81.6678 47.0423 81.6678 46.5002C81.6678 45.8525 81.8528 45.2741 82.223 44.7651C82.5997 44.2562 83.1219 43.8563 83.7895 43.5655C84.4637 43.2746 85.2503 43.1292 86.1493 43.1292C87.3787 43.1292 88.4164 43.4068 89.2625 43.962C90.1085 44.5173 90.591 45.2973 90.7101 46.302H93.0895C93.0879 46.2434 93.0849 46.1853 93.0811 46.1275C93.0192 45.1732 92.7052 44.3159 92.1377 43.5555ZM104.84 46.1275H107.53V61.7057H104.84V59.3683C104.473 60.0244 103.956 60.591 103.293 61.068L103.292 61.0686C102.502 61.6296 101.513 61.904 100.336 61.904C99.3572 61.904 98.4811 61.6897 97.7115 61.2569L97.7107 61.2563C96.9369 60.8144 96.3328 60.1526 95.8962 59.2792L95.8958 59.2787C95.4571 58.3949 95.2429 57.2921 95.2429 55.9789V46.1275H97.9321V55.8202C97.9321 56.8965 98.2319 57.7358 98.8162 58.3575C99.4089 58.9812 100.162 59.2944 101.089 59.2944C101.64 59.2944 102.205 59.1537 102.786 58.8663L102.787 58.8659C103.365 58.5833 103.851 58.1491 104.245 57.5576L104.246 57.5566C104.638 56.9779 104.84 56.2314 104.84 55.3046V46.1275ZM98.6895 58.4774C98.0681 57.8164 97.7574 56.9307 97.7574 55.8202V46.302H95.4176V55.9789C95.4176 57.2744 95.6289 58.3485 96.052 59.2012C96.4751 60.0473 97.0569 60.6818 97.797 61.1048C98.5375 61.5213 99.3837 61.7295 100.336 61.7295C101.486 61.7295 102.437 61.4618 103.191 60.9264C103.933 60.3923 104.483 59.746 104.84 58.9873C104.846 58.976 104.851 58.9647 104.856 58.9533H105.015V61.5311H107.355V46.302H105.015V55.3046C105.015 56.2565 104.807 57.0397 104.39 57.6545C103.981 58.2692 103.472 58.7252 102.864 59.0227C102.262 59.3201 101.67 59.4689 101.089 59.4689C100.117 59.4689 99.3176 59.1384 98.6895 58.4774ZM109.791 61.7057V46.1275H112.48V61.7057H109.791ZM109.856 43.4249L109.855 43.4237C109.497 43.0812 109.315 42.6627 109.315 42.1774C109.315 41.6921 109.497 41.2736 109.855 40.9311L109.856 40.9299C110.219 40.5886 110.655 40.4165 111.155 40.4165C111.655 40.4165 112.089 40.5885 112.446 40.9305C112.809 41.2726 112.995 41.6912 112.995 42.1774C112.995 42.6636 112.809 43.0822 112.446 43.4243C112.089 43.7663 111.655 43.9382 111.155 43.9382C110.655 43.9382 110.219 43.7662 109.856 43.4249ZM112.325 43.2978C112.656 42.9871 112.821 42.6136 112.821 42.1774C112.821 41.7411 112.656 41.3677 112.325 41.057C112.001 40.7463 111.612 40.591 111.155 40.591C110.699 40.591 110.306 40.7463 109.975 41.057C109.651 41.3677 109.489 41.7411 109.489 42.1774C109.489 42.6136 109.651 42.9871 109.975 43.2978C110.306 43.6084 110.699 43.7638 111.155 43.7638C111.612 43.7638 112.001 43.6084 112.325 43.2978ZM109.966 61.5311H112.305V46.302H109.966V61.5311Z" fill="#4CA3FF"/>
<path fill-rule="evenodd" clip-rule="evenodd" d="M69.0832 47.0461L69.0826 47.0476C70.4566 48.7704 71.2777 50.9525 71.2777 53.3258C71.2777 55.7345 70.432 57.9462 69.021 59.6806L68.8995 59.83L68.8673 59.6402C68.8399 59.4788 68.8077 59.3158 68.7703 59.1516C68.0641 56.0488 65.7633 53.3882 61.9764 51.2339C59.4192 49.7832 57.9555 48.0363 57.5712 46.0515C57.323 44.7681 57.5076 43.479 57.8641 42.3748C58.2206 41.271 58.7509 40.3461 59.2015 39.7893L59.2018 39.789L60.6748 37.9877C60.9332 37.6718 61.4166 37.6718 61.675 37.9877L69.0832 47.0461ZM71.4132 45.2465L71.4135 45.2458L61.5398 33.1729C61.3513 32.9424 60.9984 32.9424 60.8099 33.1729L50.9361 45.2459L50.9364 45.2466L50.9043 45.2865C49.0873 47.5411 48 50.4064 48 53.5255C48 60.7897 53.8985 66.6788 61.1748 66.6788C68.4513 66.6788 74.3497 60.7897 74.3497 53.5255C74.3497 50.4064 73.2624 47.5411 71.4454 45.2865L71.4132 45.2465ZM53.2986 47.0072L53.299 47.0067L54.1822 45.9269L54.2088 46.1262C54.23 46.2842 54.2556 46.4429 54.286 46.6023C54.8575 49.6005 56.8988 52.1004 60.3116 54.0366C63.2782 55.725 65.0054 57.6665 65.5031 59.7958C65.7107 60.6845 65.7477 61.5588 65.6578 62.3233L65.6523 62.3705L65.6095 62.3915C64.2705 63.0456 62.7654 63.4127 61.1745 63.4127C55.5949 63.4127 51.0714 58.8968 51.0714 53.3258C51.0714 50.934 51.9053 48.7362 53.2986 47.0072Z" fill="#4CA3FF"/>
</g>
</g>
<defs>
<filter id="filter0_d_947_10847" x="0" y="0" width="161" height="112" filterUnits="userSpaceOnUse" color-interpolation-filters="sRGB">
<feFlood flood-opacity="0" result="BackgroundImageFix"/>
<feColorMatrix in="SourceAlpha" type="matrix" values="0 0 0 0 0 0 0 0 0 0 0 0 0 0 0 0 0 0 127 0" result="hardAlpha"/>
<feOffset dy="6"/>
<feGaussianBlur stdDeviation="8.5"/>
<feComposite in2="hardAlpha" operator="out"/>
<feColorMatrix type="matrix" values="0 0 0 0 0 0 0 0 0 0 0 0 0 0 0 0 0 0 0.06 0"/>
<feBlend mode="normal" in2="BackgroundImageFix" result="effect1_dropShadow_947_10847"/>
<feBlend mode="normal" in="SourceGraphic" in2="effect1_dropShadow_947_10847" result="shape"/>
</filter>
<clipPath id="clip0_947_10847">
<rect width="65" height="33.6788" fill="white" transform="translate(48 33)"/>
</clipPath>
</defs>
</svg>
