<svg width="250" height="112" viewBox="0 0 250 112" fill="none" xmlns="http://www.w3.org/2000/svg">
<g filter="url(#filter0_d_947_10855)">
<rect x="17" y="11" width="215.39" height="78" rx="39" fill="white" shape-rendering="crispEdges"/>
<path d="M95.0833 53.5313C93.0382 67.5322 79.9812 77.2856 65.9803 75.2406C51.9794 73.1955 42.2259 59.9812 44.271 45.9803C46.3161 31.9794 59.3731 22.2259 73.374 24.271C87.3749 26.4734 97.1283 39.5304 95.0833 53.5313Z" fill="#42C1CA"/>
<path d="M81.2397 34.3389C76.0483 31.0353 72.2728 38.2718 72.2728 38.4291C71.3289 40.1595 70.5424 42.9912 70.0704 45.0362L63.306 44.0924L62.9913 45.9801L69.5985 46.924C69.4412 47.8679 69.2839 48.4971 69.2839 48.4971L68.9692 50.5422V50.6995L62.3621 49.7557L62.0474 51.6434L68.6546 52.5873C66.9242 61.2395 65.6657 63.9139 64.4071 65.3297C64.0925 65.6443 62.3621 66.9028 61.4182 64.7004C60.7889 63.1273 59.5304 63.4419 59.5304 63.4419C59.2158 63.4419 57.6427 64.3858 60.1597 66.1163C65.351 69.4198 69.1265 62.1834 69.1265 62.0261C70.0704 60.2957 71.3289 55.4189 71.8009 53.2166L78.5654 54.1604L78.88 52.2727L72.1155 51.3288C72.2728 50.3849 72.4301 49.7557 72.4301 49.7557L72.7448 47.7106V47.5533L79.3519 48.4971L79.6666 46.6094L73.0594 45.6655C74.7898 37.0133 75.5764 36.5413 76.8349 34.9682C77.1495 34.6536 78.88 33.395 79.8239 35.5974C80.4531 37.1706 81.7116 36.8559 81.7116 36.8559C82.1836 37.0133 83.7567 35.9121 81.2397 34.3389Z" fill="#FEFEFE"/>
<path fill-rule="evenodd" clip-rule="evenodd" d="M117.894 48.3399H108.455V40.6315H118.208L118.366 38.2718H105.781V61.0823H108.455V50.5423H117.894V48.3399ZM124.029 38.2718H121.512V41.2608H124.029V38.2718ZM124.029 44.2497H121.512V61.0823H124.029V44.2497ZM130.951 38.1145L128.434 38.4291V54.0032C128.434 59.5091 128.591 61.5542 132.681 61.5542C133.311 61.5542 133.782 61.3969 134.412 61.3969L134.254 59.1945C133.468 59.1945 133.311 59.3518 132.839 59.3518C131.108 59.3518 130.951 58.2506 130.951 54.6324V38.1145ZM143.536 61.3969C138.816 61.3969 135.828 57.936 135.828 52.5873C135.828 47.5533 138.816 43.9351 143.221 43.7778C147.311 43.7778 149.986 46.9241 149.986 51.8008C149.986 52.1154 149.986 52.7447 149.986 52.902H138.502C138.502 56.6775 140.704 59.0372 143.693 59.0372C145.581 59.0372 147.469 58.4079 149.042 57.3067L149.828 59.1945C148.255 60.6103 146.21 61.3969 143.536 61.3969ZM138.502 51.3288H147.469C147.469 47.7106 145.738 45.9802 143.221 45.9802C140.704 45.9802 138.816 48.1826 138.502 51.3288ZM164.931 59.9811C163.829 61.0823 162.099 61.5542 160.368 61.5542C155.177 61.5542 152.345 57.4641 152.345 52.7447C152.345 48.0253 155.334 43.9351 160.368 43.9351C162.256 43.9351 163.987 44.5644 164.931 45.3509L164.301 47.2387C163.2 46.4521 161.784 46.1375 160.368 46.1375C157.379 46.1375 155.02 48.9691 155.02 52.902C155.02 56.8348 157.222 59.5091 160.683 59.5091C162.099 59.5091 163.357 59.0372 164.459 58.2506L164.931 59.9811ZM179.875 52.7447C179.875 49.1264 178.617 45.9802 174.841 45.9802C171.223 45.9802 169.65 49.2838 169.65 52.7447C169.65 56.2056 171.38 59.3518 174.999 59.3518C178.617 59.3518 179.875 56.2056 179.875 52.7447ZM182.55 52.7447C182.55 57.3068 179.875 61.5542 174.841 61.5542C169.807 61.5542 166.976 57.6214 166.976 52.902C166.976 48.1826 169.807 44.0924 174.999 44.0924C179.875 43.9351 182.55 47.8679 182.55 52.7447ZM188.685 38.2718H186.168V41.2608H188.685V38.2718ZM188.685 44.2497H186.168V61.0823H188.685V44.2497ZM200.798 43.9351C198.438 43.9351 196.079 45.0363 194.82 46.7667L194.663 44.2497H192.46V48.3399V61.0823H194.977V49.5984C195.449 48.0253 197.337 46.1375 200.169 46.1375C203.315 46.1375 203.472 48.3399 203.472 52.7447V61.0823H205.989V51.0142C206.147 46.2948 204.574 43.9351 200.798 43.9351Z" fill="#333333"/>
</g>
<defs>
<filter id="filter0_d_947_10855" x="0" y="0" width="249.39" height="112" filterUnits="userSpaceOnUse" color-interpolation-filters="sRGB">
<feFlood flood-opacity="0" result="BackgroundImageFix"/>
<feColorMatrix in="SourceAlpha" type="matrix" values="0 0 0 0 0 0 0 0 0 0 0 0 0 0 0 0 0 0 127 0" result="hardAlpha"/>
<feOffset dy="6"/>
<feGaussianBlur stdDeviation="8.5"/>
<feComposite in2="hardAlpha" operator="out"/>
<feColorMatrix type="matrix" values="0 0 0 0 0 0 0 0 0 0 0 0 0 0 0 0 0 0 0.06 0"/>
<feBlend mode="normal" in2="BackgroundImageFix" result="effect1_dropShadow_947_10855"/>
<feBlend mode="normal" in="SourceGraphic" in2="effect1_dropShadow_947_10855" result="shape"/>
</filter>
</defs>
</svg>
