<svg width="57" height="30" viewBox="0 0 57 30" fill="none" xmlns="http://www.w3.org/2000/svg">
<path d="M53.0255 0.672597L28.4975 24.5823L3.96946 0.672597C3.53123 0.244547 2.94293 0.00490722 2.33033 0.00490722C1.71774 0.00490722 1.12944 0.244547 0.691205 0.672597C0.479013 0.880503 0.310438 1.12866 0.195356 1.40253C0.080273 1.6764 0.0209961 1.97049 0.0209961 2.26756C0.0209961 2.56463 0.080273 2.85871 0.195356 3.13258C0.310438 3.40645 0.479013 3.65461 0.691205 3.86252L26.7848 29.3034C27.243 29.75 27.8576 30 28.4975 30C29.1374 30 29.752 29.75 30.2102 29.3034L56.3038 3.86743C56.5175 3.65936 56.6873 3.4106 56.8033 3.13582C56.9193 2.86104 56.979 2.56581 56.979 2.26756C56.979 1.96931 56.9193 1.67407 56.8033 1.39929C56.6873 1.12451 56.5175 0.87575 56.3038 0.667688C55.8656 0.239638 55.2773 0 54.6647 0C54.0521 0 53.4638 0.239638 53.0255 0.667688V0.672597Z" fill="rgba(0, 113, 251, 1)"/>
</svg>
