<svg width="57" height="30" viewBox="0 0 57 30" fill="none" xmlns="http://www.w3.org/2000/svg">
<path d="M53.0465 29.3274L28.5185 5.41772L3.99046 29.3274C3.55222 29.7555 2.96393 29.9951 2.35133 29.9951C1.73873 29.9951 1.15044 29.7555 0.712202 29.3274C0.500009 29.1195 0.331434 28.8713 0.216352 28.5975C0.101269 28.3236 0.0419922 28.0295 0.0419922 27.7324C0.0419922 27.4354 0.101269 27.1413 0.216352 26.8674C0.331434 26.5935 0.500009 26.3454 0.712202 26.1375L26.8058 0.696636C27.264 0.249979 27.8786 -1.90735e-06 28.5185 -1.90735e-06C29.1584 -1.90735e-06 29.773 0.249979 30.2312 0.696636L56.3248 26.1326C56.5385 26.3406 56.7083 26.5894 56.8243 26.8642C56.9403 27.139 57 27.4342 57 27.7324C57 28.0307 56.9403 28.3259 56.8243 28.6007C56.7083 28.8755 56.5385 29.1243 56.3248 29.3323C55.8866 29.7604 55.2983 30 54.6857 30C54.0731 30 53.4848 29.7604 53.0465 29.3323V29.3274Z" fill="#EE5D7F"/>
</svg>
