<svg width="417" height="438" viewBox="0 0 417 438" fill="none" xmlns="http://www.w3.org/2000/svg">
<path opacity="0.3" d="M27.3989 413.551V350.766C28.0137 351.414 28.8145 352.152 29.855 352.96C33.4738 355.769 40.0093 359.433 51.7667 363.074C75.2739 370.353 119.826 377.589 204.144 377.589C288.46 377.589 332.871 370.353 356.236 363.073C367.922 359.432 374.389 355.767 377.955 352.955C378.95 352.171 379.72 351.452 380.316 350.818V414.438C348.919 429.684 296.325 436.311 204.144 436.311C111.947 436.311 63.3873 429.684 27.3989 413.551Z" fill="url(#paint0_linear_128_14951)" stroke="url(#paint1_linear_128_14951)" stroke-width="2"/>
<path opacity="0.3" d="M379.071 347.648C379.071 349.069 378.136 350.657 375.863 352.371C373.614 354.069 370.233 355.749 365.783 357.373C356.894 360.617 343.975 363.557 327.942 366.033C295.893 370.98 251.582 374.045 202.612 374.045C153.643 374.045 109.332 370.98 77.2828 366.033C61.2504 363.557 48.3312 360.617 39.4423 357.373C34.992 355.749 31.6111 354.069 29.3614 352.371C27.089 350.657 26.1538 349.069 26.1538 347.648C26.1538 346.227 27.089 344.639 29.3614 342.925C31.6111 341.228 34.992 339.548 39.4423 337.923C48.3312 334.679 61.2504 331.739 77.2828 329.264C109.332 324.316 153.643 321.251 202.612 321.251C251.582 321.251 295.893 324.316 327.942 329.264C343.975 331.739 356.894 334.679 365.783 337.923C370.233 339.548 373.614 341.228 375.863 342.925C378.136 344.639 379.071 346.227 379.071 347.648Z" fill="url(#paint2_linear_128_14951)" stroke="url(#paint3_linear_128_14951)" stroke-width="2"/>
<path opacity="0.5" d="M23.5732 108.3C23.5732 114.1 18.8732 118.8 13.0732 118.8C7.27324 118.8 2.57324 114.1 2.57324 108.3C2.57324 102.5 7.27324 97.7998 13.0732 97.7998C18.8732 97.7998 23.5732 102.5 23.5732 108.3Z" stroke="#31BFBA" stroke-width="4.8555" stroke-miterlimit="10" stroke-linecap="round" stroke-linejoin="round"/>
<path opacity="0.5" d="M385.973 287.3L407.473 293.1C411.473 294.2 415.173 290.5 414.073 286.5L408.273 265C407.173 261 402.173 259.6 399.173 262.6L383.473 278.3C380.573 281.2 381.973 286.3 385.973 287.3Z" stroke="#31BFBA" stroke-width="4.8555" stroke-miterlimit="10" stroke-linecap="round" stroke-linejoin="round"/>
<path d="M176.967 110.397L176.996 110.395C192.878 109.544 201.923 110.819 203.108 111.025C233.075 115.062 249.38 129.485 258.133 144.882C266.841 160.2 268 176.342 268 183.822C268 198.726 263.544 213.126 255.122 225.427L255.122 225.428C243.59 242.253 237.48 262.274 237.479 283.344C237.479 283.344 237.479 283.345 237.479 283.345L237.514 319.188V319.19C237.514 322.484 234.405 324.73 231.186 324.73H163.331C160.098 324.73 156.987 322.487 156.987 319.19V298.854C156.987 293.638 152.744 289.381 147.514 289.381H132.844C125.84 289.381 121.055 288.227 118.104 285.156C114.837 281.767 113.817 275.961 114.159 267.179L176.967 110.397ZM176.967 110.397L176.937 110.399M176.967 110.397L176.937 110.399M176.937 110.399C158.119 112.154 142.186 119.066 130.987 130.493C118.858 142.816 112.733 160.145 113.097 180.455C113.114 181.895 113.167 183.596 113.325 185.36L113.326 185.365M176.937 110.399L113.326 185.365M113.326 185.365C113.743 189.844 112.829 194.361 110.67 198.421L110.667 198.428M113.326 185.365L110.667 198.428M110.667 198.428C108.324 202.892 104.234 210.625 94.4262 229.026L94.4253 229.028M110.667 198.428L94.4253 229.028M94.4253 229.028C93.0389 231.638 93.0084 234.686 94.4311 237.17L94.4349 237.177M94.4253 229.028L94.4349 237.177M94.4349 237.177L94.4388 237.184M94.4349 237.177L94.4388 237.184M94.4388 237.184C95.9134 239.699 98.5812 241.044 101.711 241.142L101.72 241.143M94.4388 237.184L101.72 241.143M101.72 241.143L101.729 241.143M101.72 241.143L101.729 241.143M101.729 241.143L113.609 241.373L113.714 243.647C113.714 243.647 113.714 243.647 113.714 243.648C113.766 244.826 113.836 245.882 113.904 246.875C113.904 246.878 113.905 246.881 113.905 246.885L113.972 248.097L113.972 248.103M101.729 241.143L113.972 248.103M113.972 248.103L113.973 248.117M113.972 248.103L113.973 248.117M113.973 248.117C114.347 254.389 114.533 257.507 114.159 267.179L113.973 248.117ZM109.283 266.971L109.283 266.97C109.639 257.718 109.461 254.569 109.127 248.675L109.11 248.374L109.11 248.369L109.059 247.513L108.976 246.131L107.591 246.103L101.6 245.984C101.597 245.984 101.595 245.984 101.592 245.984C96.5854 245.825 92.4984 243.465 90.2335 239.608C87.9707 235.691 87.9116 230.902 90.1244 226.739C99.9136 208.359 104.006 200.636 106.371 196.147C108.079 192.934 108.807 189.36 108.491 185.799C108.324 183.78 108.274 181.855 108.239 180.553C107.836 158.735 114.543 140.287 127.512 127.101L127.514 127.099C139.462 114.9 156.397 107.42 176.564 105.564L176.578 105.563L176.592 105.561L176.703 105.549C194.192 104.618 203.53 106.166 203.815 106.215L203.843 106.22L203.872 106.224C229.394 109.658 246.595 120.825 257.436 135.176C268.3 149.56 272.857 167.253 272.857 183.822C272.857 199.713 268.105 215.063 259.118 228.183C248.122 244.207 242.336 263.283 242.336 283.345V309.005V309.051L242.339 309.098C242.357 309.38 242.371 309.607 242.371 309.826V319.169C242.356 324.812 237.432 329.57 231.169 329.57H163.314C157.048 329.57 152.113 324.81 152.113 319.173V298.837C152.113 296.262 150.071 294.221 147.497 294.221H132.827C123.751 294.221 118.282 292.358 114.564 288.501C110.564 284.329 108.843 278.076 109.283 266.971ZM133.126 132.596L133.128 132.594C143.732 121.774 158.942 115.096 177.187 113.389C185.416 112.949 191.747 113.09 196.038 113.345C200.15 113.59 202.339 113.937 202.538 113.969C202.546 113.97 202.551 113.971 202.553 113.971C202.553 113.971 202.554 113.971 202.553 113.971L202.621 113.986L202.691 113.996C231.735 117.904 247.23 131.775 255.525 146.365C263.866 161.037 265 176.581 265 183.822C265 198.121 260.727 211.93 252.647 223.732C240.762 241.073 234.479 261.689 234.479 283.345V283.347L234.514 319.19C234.514 319.19 234.514 319.191 234.514 319.191C234.513 320.347 233.273 321.73 231.186 321.73H163.331C161.223 321.73 159.987 320.344 159.987 319.19V298.854C159.987 291.984 154.404 286.381 147.514 286.381H132.844C125.984 286.381 122.313 285.207 120.266 283.076L120.264 283.074C117.951 280.676 116.815 276.076 117.157 267.296L117.157 267.295C117.536 257.496 117.346 254.278 116.967 247.928C116.967 247.927 116.967 247.926 116.967 247.925L116.899 246.698L116.898 246.688L116.898 246.678C116.829 245.689 116.762 244.659 116.711 243.514L116.711 243.511L116.54 239.83L116.475 238.427L115.071 238.4L101.805 238.144C101.802 238.144 101.799 238.144 101.796 238.144C99.491 238.069 97.884 237.123 97.0308 235.673C96.1635 234.153 96.1343 232.207 97.074 230.437C106.88 212.04 110.973 204.299 113.321 199.826C115.748 195.26 116.785 190.16 116.313 185.089C116.164 183.432 116.113 181.815 116.097 180.415L116.096 180.406C115.743 160.732 121.668 144.237 133.126 132.596Z" fill="url(#paint4_linear_128_14951)" stroke="#47C0F5" stroke-width="3"/>
<mask id="path-6-inside-1_128_14951" fill="white">
<path d="M158.27 84.2993C158.506 84.2993 158.74 84.3076 158.973 84.322L166.95 54.6358C163.263 52.7753 160.726 48.9433 160.726 44.5274C160.726 38.2922 165.782 33.2191 171.996 33.2191C175.144 33.2191 177.994 34.5216 180.041 36.6172L203.341 21.4974C202.841 20.2197 202.566 18.8291 202.566 17.3755C202.566 11.1404 207.622 6.06719 213.835 6.06719C218.882 6.06719 223.164 9.41324 224.595 14.0101L254.847 10.9308C255.414 5.22368 260.227 0.751465 266.061 0.751465C272.275 0.751465 277.331 5.82472 277.331 12.0598C277.331 12.5426 277.3 13.0184 277.242 13.4855L309.445 24.4602C311.403 21.1085 315.031 18.8528 319.175 18.8528C325.388 18.8528 330.444 23.9248 330.444 30.16C330.444 33.5194 328.976 36.5408 326.65 38.6139L339.147 60.2792C340.273 59.8992 341.478 59.6929 342.73 59.6929C348.944 59.6929 354 64.7661 354 71.0012C354 77.2364 348.944 82.3095 342.73 82.3095C341.957 82.3095 341.202 82.2308 340.472 82.0812L331.088 104.183C334.029 106.226 335.96 109.634 335.96 113.487C335.96 119.722 330.905 124.796 324.691 124.796C321.102 124.796 317.9 123.103 315.835 120.473L299.62 128.637C299.874 129.578 300.011 130.568 300.011 131.589C300.011 137.824 294.955 142.897 288.741 142.897C282.527 142.897 277.471 137.824 277.471 131.589C277.471 131.524 277.473 131.461 277.474 131.397L258.315 127.139C256.555 131.088 252.603 133.846 248.022 133.846C246.423 133.846 244.902 133.51 243.523 132.905L222.016 163.674C223.929 165.701 225.105 168.437 225.105 171.443C225.105 177.678 220.049 182.751 213.835 182.751C207.622 182.751 202.566 177.678 202.566 171.443C202.566 167.544 204.543 164.099 207.545 162.065L197.93 138.689C197.239 138.822 196.526 138.893 195.797 138.893C189.583 138.893 184.527 133.82 184.527 127.585C184.527 125.61 185.035 123.752 185.925 122.135L165.226 104.498C163.309 106.011 160.893 106.915 158.27 106.915C152.056 106.915 147 101.843 147 95.6076C147 89.3726 152.056 84.2993 158.27 84.2993ZM171.996 37.7344C168.263 37.7344 165.226 40.7814 165.226 44.5274C165.226 48.2722 168.263 51.3192 171.996 51.3192C175.729 51.3192 178.766 48.2722 178.766 44.5274C178.766 40.7814 175.729 37.7344 171.996 37.7344ZM179.935 52.5444C179.135 53.3421 178.217 54.0201 177.209 54.5498L194.907 116.312C195.2 116.288 195.497 116.276 195.797 116.276C196.24 116.276 196.676 116.303 197.105 116.353L208.253 82.3C204.858 80.3497 202.566 76.679 202.566 72.4806C202.566 70.9738 202.862 69.5353 203.397 68.2195L179.935 52.5444ZM213.835 79.2725C217.568 79.2725 220.605 76.2255 220.605 72.4806C220.605 68.7347 217.568 65.6877 213.835 65.6877C210.102 65.6877 207.066 68.7347 207.066 72.4806C207.066 76.2255 210.102 79.2725 213.835 79.2725ZM205.79 25.2857L182.49 40.4055C182.991 41.6833 183.266 43.0738 183.266 44.5274C183.266 46.0343 182.97 47.4727 182.434 48.7885L205.896 64.4633C207.427 62.9364 209.391 61.8467 211.585 61.3989V28.4572C209.34 27.9989 207.336 26.8685 205.79 25.2857ZM213.835 10.5826C210.102 10.5826 207.066 13.6296 207.066 17.3755C207.066 21.1215 210.102 24.1685 213.835 24.1685C217.568 24.1685 220.605 21.1215 220.605 17.3755C220.605 13.6296 217.568 10.5826 213.835 10.5826ZM220.777 26.2777C219.426 27.3408 217.828 28.1014 216.085 28.4572V61.3989C217.773 61.7434 219.325 62.4682 220.648 63.4792L235.803 50.1362C234.857 48.4823 234.316 46.5672 234.316 44.5274C234.316 42.5455 234.828 40.6815 235.724 39.06L220.777 26.2777ZM259.192 77.5987L248.414 55.4737C247.51 55.7091 246.562 55.8345 245.586 55.8345C243.028 55.8345 240.667 54.9745 238.773 53.5282L223.618 66.871C224.564 68.5252 225.105 70.4407 225.105 72.4806C225.105 75.5314 223.894 78.3034 221.93 80.3394L243.636 112.121C244.985 111.547 246.467 111.23 248.022 111.23C249.043 111.23 250.032 111.367 250.974 111.624L259.09 95.4364C256.473 93.3637 254.791 90.1538 254.791 86.5571C254.791 82.914 256.518 79.6683 259.192 77.5987ZM263.232 75.6099C264.137 75.3745 265.084 75.2488 266.061 75.2488C269.365 75.2488 272.342 76.6832 274.405 78.9642L287.116 71.3962C286.712 70.2325 286.491 68.9832 286.491 67.683C286.491 64.3028 287.978 61.2645 290.329 59.1905L269.589 22.7997C268.479 23.168 267.293 23.3681 266.061 23.3681C264.652 23.3681 263.302 23.1064 262.058 22.6301L253.389 36.3766C255.524 38.4357 256.854 41.3284 256.854 44.5274C256.854 48.1704 255.128 51.4158 252.454 53.4851L263.232 75.6099ZM259.291 86.5571C259.291 90.303 262.328 93.35 266.061 93.35C269.794 93.35 272.831 90.303 272.831 86.5571C272.831 82.8111 269.794 79.7641 266.061 79.7641C262.328 79.7641 259.291 82.8111 259.291 86.5571ZM252.354 44.5274C252.354 40.7814 249.318 37.7344 245.586 37.7344C241.853 37.7344 238.816 40.7814 238.816 44.5274C238.816 48.2722 241.853 51.3192 245.586 51.3192C249.318 51.3192 252.354 48.2722 252.354 44.5274ZM255.3 15.4242L225.049 18.5037C224.895 20.0646 224.422 21.5326 223.697 22.8426L238.645 35.6249C240.559 34.1184 242.97 33.2191 245.586 33.2191C246.995 33.2191 248.344 33.4808 249.589 33.957L258.257 20.2104C256.904 18.9053 255.873 17.2651 255.3 15.4242ZM266.061 5.26691C262.328 5.26691 259.291 8.31391 259.291 12.0598C259.291 15.8058 262.328 18.8528 266.061 18.8528C269.794 18.8528 272.831 15.8058 272.831 12.0598C272.831 8.31391 269.794 5.26691 266.061 5.26691ZM307.905 30.16C307.905 29.6772 307.935 29.2013 307.994 28.7342L275.791 17.7597C275.177 18.8102 274.4 19.753 273.493 20.5525L294.232 56.9431C295.343 56.5748 296.529 56.3747 297.761 56.3747C298.995 56.3747 300.184 56.5757 301.297 56.9455L311.738 38.649C309.389 36.5749 307.905 33.5382 307.905 30.16ZM290.991 67.683C290.991 71.429 294.028 74.476 297.761 74.476C301.494 74.476 304.531 71.429 304.531 67.683C304.531 63.9372 301.494 60.8902 297.761 60.8902C294.028 60.8902 290.991 63.9372 290.991 67.683ZM319.175 23.3681C315.441 23.3681 312.405 26.4152 312.405 30.16C312.405 33.9058 315.441 36.9528 319.175 36.9528C322.907 36.9528 325.944 33.9058 325.944 30.16C325.944 26.4152 322.907 23.3681 319.175 23.3681ZM342.73 77.7942C346.463 77.7942 349.5 74.7472 349.5 71.0012C349.5 67.2553 346.463 64.2083 342.73 64.2083C338.997 64.2083 335.96 67.2553 335.96 71.0012C335.96 74.7472 338.997 77.7942 342.73 77.7942ZM336.334 80.3062C333.392 78.2636 331.46 74.8546 331.46 71.0012C331.46 67.6419 332.929 64.6204 335.254 62.5473L322.758 40.8819C321.632 41.262 320.427 41.4683 319.175 41.4683C317.94 41.4683 316.752 41.2676 315.64 40.8979L305.199 59.1949C307.547 61.2689 309.031 64.3052 309.031 67.683C309.031 71.0085 307.592 74.0032 305.307 76.0743L321.018 102.796C322.17 102.397 323.405 102.179 324.691 102.179C325.464 102.179 326.22 102.258 326.95 102.407L336.334 80.3062ZM324.691 120.28C328.424 120.28 331.46 117.233 331.46 113.487C331.46 109.741 328.424 106.694 324.691 106.694C320.959 106.694 317.922 109.741 317.922 113.487C317.922 117.233 320.959 120.28 324.691 120.28ZM317.145 105.096L301.434 78.374C300.282 78.7735 299.046 78.9913 297.761 78.9913C294.457 78.9913 291.48 77.5569 289.417 75.276L276.706 82.8442C277.11 84.0079 277.331 85.2571 277.331 86.5571C277.331 87.437 277.23 88.2939 277.039 89.1166L315.592 106.825C316.05 106.197 316.57 105.617 317.145 105.096ZM288.741 138.381C292.475 138.381 295.511 135.334 295.511 131.589C295.511 127.843 292.475 124.796 288.741 124.796C285.008 124.796 281.971 127.843 281.971 131.589C281.971 135.334 285.008 138.381 288.741 138.381ZM259.291 122.538C259.291 122.602 259.29 122.666 259.289 122.73L278.448 126.987C280.208 123.039 284.159 120.28 288.741 120.28C292.33 120.28 295.533 121.973 297.598 124.604L313.812 116.439C313.558 115.498 313.422 114.508 313.422 113.487C313.422 112.607 313.523 111.75 313.713 110.927L275.161 93.219C273.109 96.0334 269.795 97.8654 266.061 97.8654C265.04 97.8654 264.05 97.7276 263.108 97.4708L254.992 113.659C257.609 115.731 259.291 118.941 259.291 122.538ZM248.022 129.331C251.755 129.331 254.791 126.284 254.791 122.538C254.791 118.792 251.755 115.745 248.022 115.745C244.288 115.745 241.252 118.792 241.252 122.538C241.252 126.284 244.288 129.331 248.022 129.331ZM218.221 82.8962C216.873 83.4701 215.39 83.7878 213.835 83.7878C213.393 83.7878 212.957 83.7613 212.527 83.7112L201.38 117.765C203.843 119.181 205.725 121.503 206.573 124.275L236.813 121.352C237.083 118.772 238.221 116.448 239.927 114.678L218.221 82.8962ZM207.066 171.443C207.066 175.189 210.102 178.236 213.835 178.236C217.568 178.236 220.605 175.189 220.605 171.443C220.605 167.697 217.568 164.65 213.835 164.65C210.102 164.65 207.066 167.697 207.066 171.443ZM211.702 160.339C212.393 160.206 213.106 160.135 213.835 160.135C215.434 160.135 216.955 160.471 218.334 161.076L239.841 130.308C238.66 129.057 237.76 127.536 237.244 125.848L207.004 128.77C206.649 132.176 204.78 135.138 202.087 136.963L211.702 160.339ZM195.797 134.378C199.529 134.378 202.566 131.331 202.566 127.585C202.566 123.839 199.529 120.792 195.797 120.792C192.064 120.792 189.027 123.839 189.027 127.585C189.027 131.331 192.064 134.378 195.797 134.378ZM169.54 95.6076C169.54 97.5824 169.032 99.4399 168.142 101.057L188.84 118.694C189.383 118.265 189.966 117.886 190.583 117.562L172.885 55.7994C172.591 55.8225 172.295 55.8345 171.996 55.8345C171.76 55.8345 171.526 55.8264 171.294 55.812L163.316 85.4986C167.003 87.3595 169.54 91.1918 169.54 95.6076ZM158.27 102.399C162.003 102.399 165.04 99.3524 165.04 95.6076C165.04 91.8618 162.003 88.8148 158.27 88.8148C154.537 88.8148 151.5 91.8618 151.5 95.6076C151.5 99.3524 154.537 102.399 158.27 102.399Z"/>
</mask>
<path d="M158.27 84.2993C158.506 84.2993 158.74 84.3076 158.973 84.322L166.95 54.6358C163.263 52.7753 160.726 48.9433 160.726 44.5274C160.726 38.2922 165.782 33.2191 171.996 33.2191C175.144 33.2191 177.994 34.5216 180.041 36.6172L203.341 21.4974C202.841 20.2197 202.566 18.8291 202.566 17.3755C202.566 11.1404 207.622 6.06719 213.835 6.06719C218.882 6.06719 223.164 9.41324 224.595 14.0101L254.847 10.9308C255.414 5.22368 260.227 0.751465 266.061 0.751465C272.275 0.751465 277.331 5.82472 277.331 12.0598C277.331 12.5426 277.3 13.0184 277.242 13.4855L309.445 24.4602C311.403 21.1085 315.031 18.8528 319.175 18.8528C325.388 18.8528 330.444 23.9248 330.444 30.16C330.444 33.5194 328.976 36.5408 326.65 38.6139L339.147 60.2792C340.273 59.8992 341.478 59.6929 342.73 59.6929C348.944 59.6929 354 64.7661 354 71.0012C354 77.2364 348.944 82.3095 342.73 82.3095C341.957 82.3095 341.202 82.2308 340.472 82.0812L331.088 104.183C334.029 106.226 335.96 109.634 335.96 113.487C335.96 119.722 330.905 124.796 324.691 124.796C321.102 124.796 317.9 123.103 315.835 120.473L299.62 128.637C299.874 129.578 300.011 130.568 300.011 131.589C300.011 137.824 294.955 142.897 288.741 142.897C282.527 142.897 277.471 137.824 277.471 131.589C277.471 131.524 277.473 131.461 277.474 131.397L258.315 127.139C256.555 131.088 252.603 133.846 248.022 133.846C246.423 133.846 244.902 133.51 243.523 132.905L222.016 163.674C223.929 165.701 225.105 168.437 225.105 171.443C225.105 177.678 220.049 182.751 213.835 182.751C207.622 182.751 202.566 177.678 202.566 171.443C202.566 167.544 204.543 164.099 207.545 162.065L197.93 138.689C197.239 138.822 196.526 138.893 195.797 138.893C189.583 138.893 184.527 133.82 184.527 127.585C184.527 125.61 185.035 123.752 185.925 122.135L165.226 104.498C163.309 106.011 160.893 106.915 158.27 106.915C152.056 106.915 147 101.843 147 95.6076C147 89.3726 152.056 84.2993 158.27 84.2993ZM171.996 37.7344C168.263 37.7344 165.226 40.7814 165.226 44.5274C165.226 48.2722 168.263 51.3192 171.996 51.3192C175.729 51.3192 178.766 48.2722 178.766 44.5274C178.766 40.7814 175.729 37.7344 171.996 37.7344ZM179.935 52.5444C179.135 53.3421 178.217 54.0201 177.209 54.5498L194.907 116.312C195.2 116.288 195.497 116.276 195.797 116.276C196.24 116.276 196.676 116.303 197.105 116.353L208.253 82.3C204.858 80.3497 202.566 76.679 202.566 72.4806C202.566 70.9738 202.862 69.5353 203.397 68.2195L179.935 52.5444ZM213.835 79.2725C217.568 79.2725 220.605 76.2255 220.605 72.4806C220.605 68.7347 217.568 65.6877 213.835 65.6877C210.102 65.6877 207.066 68.7347 207.066 72.4806C207.066 76.2255 210.102 79.2725 213.835 79.2725ZM205.79 25.2857L182.49 40.4055C182.991 41.6833 183.266 43.0738 183.266 44.5274C183.266 46.0343 182.97 47.4727 182.434 48.7885L205.896 64.4633C207.427 62.9364 209.391 61.8467 211.585 61.3989V28.4572C209.34 27.9989 207.336 26.8685 205.79 25.2857ZM213.835 10.5826C210.102 10.5826 207.066 13.6296 207.066 17.3755C207.066 21.1215 210.102 24.1685 213.835 24.1685C217.568 24.1685 220.605 21.1215 220.605 17.3755C220.605 13.6296 217.568 10.5826 213.835 10.5826ZM220.777 26.2777C219.426 27.3408 217.828 28.1014 216.085 28.4572V61.3989C217.773 61.7434 219.325 62.4682 220.648 63.4792L235.803 50.1362C234.857 48.4823 234.316 46.5672 234.316 44.5274C234.316 42.5455 234.828 40.6815 235.724 39.06L220.777 26.2777ZM259.192 77.5987L248.414 55.4737C247.51 55.7091 246.562 55.8345 245.586 55.8345C243.028 55.8345 240.667 54.9745 238.773 53.5282L223.618 66.871C224.564 68.5252 225.105 70.4407 225.105 72.4806C225.105 75.5314 223.894 78.3034 221.93 80.3394L243.636 112.121C244.985 111.547 246.467 111.23 248.022 111.23C249.043 111.23 250.032 111.367 250.974 111.624L259.09 95.4364C256.473 93.3637 254.791 90.1538 254.791 86.5571C254.791 82.914 256.518 79.6683 259.192 77.5987ZM263.232 75.6099C264.137 75.3745 265.084 75.2488 266.061 75.2488C269.365 75.2488 272.342 76.6832 274.405 78.9642L287.116 71.3962C286.712 70.2325 286.491 68.9832 286.491 67.683C286.491 64.3028 287.978 61.2645 290.329 59.1905L269.589 22.7997C268.479 23.168 267.293 23.3681 266.061 23.3681C264.652 23.3681 263.302 23.1064 262.058 22.6301L253.389 36.3766C255.524 38.4357 256.854 41.3284 256.854 44.5274C256.854 48.1704 255.128 51.4158 252.454 53.4851L263.232 75.6099ZM259.291 86.5571C259.291 90.303 262.328 93.35 266.061 93.35C269.794 93.35 272.831 90.303 272.831 86.5571C272.831 82.8111 269.794 79.7641 266.061 79.7641C262.328 79.7641 259.291 82.8111 259.291 86.5571ZM252.354 44.5274C252.354 40.7814 249.318 37.7344 245.586 37.7344C241.853 37.7344 238.816 40.7814 238.816 44.5274C238.816 48.2722 241.853 51.3192 245.586 51.3192C249.318 51.3192 252.354 48.2722 252.354 44.5274ZM255.3 15.4242L225.049 18.5037C224.895 20.0646 224.422 21.5326 223.697 22.8426L238.645 35.6249C240.559 34.1184 242.97 33.2191 245.586 33.2191C246.995 33.2191 248.344 33.4808 249.589 33.957L258.257 20.2104C256.904 18.9053 255.873 17.2651 255.3 15.4242ZM266.061 5.26691C262.328 5.26691 259.291 8.31391 259.291 12.0598C259.291 15.8058 262.328 18.8528 266.061 18.8528C269.794 18.8528 272.831 15.8058 272.831 12.0598C272.831 8.31391 269.794 5.26691 266.061 5.26691ZM307.905 30.16C307.905 29.6772 307.935 29.2013 307.994 28.7342L275.791 17.7597C275.177 18.8102 274.4 19.753 273.493 20.5525L294.232 56.9431C295.343 56.5748 296.529 56.3747 297.761 56.3747C298.995 56.3747 300.184 56.5757 301.297 56.9455L311.738 38.649C309.389 36.5749 307.905 33.5382 307.905 30.16ZM290.991 67.683C290.991 71.429 294.028 74.476 297.761 74.476C301.494 74.476 304.531 71.429 304.531 67.683C304.531 63.9372 301.494 60.8902 297.761 60.8902C294.028 60.8902 290.991 63.9372 290.991 67.683ZM319.175 23.3681C315.441 23.3681 312.405 26.4152 312.405 30.16C312.405 33.9058 315.441 36.9528 319.175 36.9528C322.907 36.9528 325.944 33.9058 325.944 30.16C325.944 26.4152 322.907 23.3681 319.175 23.3681ZM342.73 77.7942C346.463 77.7942 349.5 74.7472 349.5 71.0012C349.5 67.2553 346.463 64.2083 342.73 64.2083C338.997 64.2083 335.96 67.2553 335.96 71.0012C335.96 74.7472 338.997 77.7942 342.73 77.7942ZM336.334 80.3062C333.392 78.2636 331.46 74.8546 331.46 71.0012C331.46 67.6419 332.929 64.6204 335.254 62.5473L322.758 40.8819C321.632 41.262 320.427 41.4683 319.175 41.4683C317.94 41.4683 316.752 41.2676 315.64 40.8979L305.199 59.1949C307.547 61.2689 309.031 64.3052 309.031 67.683C309.031 71.0085 307.592 74.0032 305.307 76.0743L321.018 102.796C322.17 102.397 323.405 102.179 324.691 102.179C325.464 102.179 326.22 102.258 326.95 102.407L336.334 80.3062ZM324.691 120.28C328.424 120.28 331.46 117.233 331.46 113.487C331.46 109.741 328.424 106.694 324.691 106.694C320.959 106.694 317.922 109.741 317.922 113.487C317.922 117.233 320.959 120.28 324.691 120.28ZM317.145 105.096L301.434 78.374C300.282 78.7735 299.046 78.9913 297.761 78.9913C294.457 78.9913 291.48 77.5569 289.417 75.276L276.706 82.8442C277.11 84.0079 277.331 85.2571 277.331 86.5571C277.331 87.437 277.23 88.2939 277.039 89.1166L315.592 106.825C316.05 106.197 316.57 105.617 317.145 105.096ZM288.741 138.381C292.475 138.381 295.511 135.334 295.511 131.589C295.511 127.843 292.475 124.796 288.741 124.796C285.008 124.796 281.971 127.843 281.971 131.589C281.971 135.334 285.008 138.381 288.741 138.381ZM259.291 122.538C259.291 122.602 259.29 122.666 259.289 122.73L278.448 126.987C280.208 123.039 284.159 120.28 288.741 120.28C292.33 120.28 295.533 121.973 297.598 124.604L313.812 116.439C313.558 115.498 313.422 114.508 313.422 113.487C313.422 112.607 313.523 111.75 313.713 110.927L275.161 93.219C273.109 96.0334 269.795 97.8654 266.061 97.8654C265.04 97.8654 264.05 97.7276 263.108 97.4708L254.992 113.659C257.609 115.731 259.291 118.941 259.291 122.538ZM248.022 129.331C251.755 129.331 254.791 126.284 254.791 122.538C254.791 118.792 251.755 115.745 248.022 115.745C244.288 115.745 241.252 118.792 241.252 122.538C241.252 126.284 244.288 129.331 248.022 129.331ZM218.221 82.8962C216.873 83.4701 215.39 83.7878 213.835 83.7878C213.393 83.7878 212.957 83.7613 212.527 83.7112L201.38 117.765C203.843 119.181 205.725 121.503 206.573 124.275L236.813 121.352C237.083 118.772 238.221 116.448 239.927 114.678L218.221 82.8962ZM207.066 171.443C207.066 175.189 210.102 178.236 213.835 178.236C217.568 178.236 220.605 175.189 220.605 171.443C220.605 167.697 217.568 164.65 213.835 164.65C210.102 164.65 207.066 167.697 207.066 171.443ZM211.702 160.339C212.393 160.206 213.106 160.135 213.835 160.135C215.434 160.135 216.955 160.471 218.334 161.076L239.841 130.308C238.66 129.057 237.76 127.536 237.244 125.848L207.004 128.77C206.649 132.176 204.78 135.138 202.087 136.963L211.702 160.339ZM195.797 134.378C199.529 134.378 202.566 131.331 202.566 127.585C202.566 123.839 199.529 120.792 195.797 120.792C192.064 120.792 189.027 123.839 189.027 127.585C189.027 131.331 192.064 134.378 195.797 134.378ZM169.54 95.6076C169.54 97.5824 169.032 99.4399 168.142 101.057L188.84 118.694C189.383 118.265 189.966 117.886 190.583 117.562L172.885 55.7994C172.591 55.8225 172.295 55.8345 171.996 55.8345C171.76 55.8345 171.526 55.8264 171.294 55.812L163.316 85.4986C167.003 87.3595 169.54 91.1918 169.54 95.6076ZM158.27 102.399C162.003 102.399 165.04 99.3524 165.04 95.6076C165.04 91.8618 162.003 88.8148 158.27 88.8148C154.537 88.8148 151.5 91.8618 151.5 95.6076C151.5 99.3524 154.537 102.399 158.27 102.399Z" fill="url(#paint5_linear_128_14951)" stroke="#47C0F5" stroke-width="6" mask="url(#path-6-inside-1_128_14951)"/>
<path opacity="0.5" d="M359.163 173.51L362.663 170.01" stroke="#F7B7C6" stroke-width="4.8555" stroke-miterlimit="10" stroke-linecap="round" stroke-linejoin="round"/>
<path opacity="0.5" d="M377.862 154.71L381.362 151.31" stroke="#F7B7C6" stroke-width="4.8555" stroke-miterlimit="10" stroke-linecap="round" stroke-linejoin="round"/>
<path opacity="0.5" d="M381.362 173.51L377.862 170.01" stroke="#F7B7C6" stroke-width="4.8555" stroke-miterlimit="10" stroke-linecap="round" stroke-linejoin="round"/>
<path opacity="0.5" d="M362.663 154.71L359.163 151.31" stroke="#F7B7C6" stroke-width="4.8555" stroke-miterlimit="10" stroke-linecap="round" stroke-linejoin="round"/>
<defs>
<linearGradient id="paint0_linear_128_14951" x1="203.858" y1="347.648" x2="203.993" y2="468.162" gradientUnits="userSpaceOnUse">
<stop stop-color="#CBCBCB"/>
<stop offset="1" stop-color="white" stop-opacity="0"/>
</linearGradient>
<linearGradient id="paint1_linear_128_14951" x1="203.858" y1="347.648" x2="203.858" y2="437.311" gradientUnits="userSpaceOnUse">
<stop stop-color="#A5A5A5"/>
<stop offset="1" stop-color="white" stop-opacity="0"/>
</linearGradient>
<linearGradient id="paint2_linear_128_14951" x1="202.612" y1="320.251" x2="202.663" y2="393.899" gradientUnits="userSpaceOnUse">
<stop stop-color="#CBCBCB"/>
<stop offset="1" stop-color="white" stop-opacity="0"/>
</linearGradient>
<linearGradient id="paint3_linear_128_14951" x1="202.612" y1="320.251" x2="202.612" y2="375.045" gradientUnits="userSpaceOnUse">
<stop stop-color="#A5A5A5"/>
<stop offset="1" stop-color="white" stop-opacity="0"/>
</linearGradient>
<linearGradient id="paint4_linear_128_14951" x1="180.679" y1="103.751" x2="182.328" y2="409.276" gradientUnits="userSpaceOnUse">
<stop stop-color="#75D4FF"/>
<stop offset="1" stop-color="white" stop-opacity="0"/>
</linearGradient>
<linearGradient id="paint5_linear_128_14951" x1="250.5" y1="0.751465" x2="249.543" y2="245.37" gradientUnits="userSpaceOnUse">
<stop stop-color="#75D4FF"/>
<stop offset="1" stop-color="white" stop-opacity="0"/>
</linearGradient>
</defs>
</svg>
