<svg width="374" height="413" viewBox="0 0 374 413" fill="none" xmlns="http://www.w3.org/2000/svg">
<path opacity="0.3" d="M4.24512 389.147V326.362C4.85993 327.01 5.66074 327.748 6.70124 328.556C10.32 331.365 16.8555 335.029 28.6129 338.67C52.1201 345.949 96.6724 353.185 180.99 353.185C265.306 353.185 309.717 345.949 333.082 338.669C344.769 335.029 351.235 331.364 354.802 328.551C355.796 327.767 356.567 327.048 357.162 326.414V390.034C325.765 405.28 273.171 411.907 180.99 411.907C88.7928 411.907 40.2335 405.28 4.24512 389.147Z" fill="url(#paint0_linear_128_14882)" stroke="url(#paint1_linear_128_14882)" stroke-width="2"/>
<path opacity="0.3" d="M355.917 323.244C355.917 324.665 354.982 326.253 352.71 327.967C350.46 329.664 347.079 331.344 342.629 332.969C333.74 336.213 320.821 339.153 304.788 341.628C272.739 346.576 228.428 349.641 179.459 349.641C130.49 349.641 86.1783 346.576 54.129 341.628C38.0966 339.153 25.1774 336.213 16.2885 332.969C11.8382 331.344 8.45728 329.664 6.20761 327.967C3.9352 326.253 3 324.665 3 323.244C3 321.823 3.9352 320.235 6.20761 318.521C8.45728 316.823 11.8382 315.143 16.2885 313.519C25.1774 310.274 38.0966 307.335 54.129 304.859C86.1783 299.911 130.49 296.847 179.459 296.847C228.428 296.847 272.739 299.911 304.788 304.859C320.821 307.335 333.74 310.274 342.629 313.519C347.079 315.143 350.46 316.823 352.71 318.521C354.982 320.235 355.917 321.823 355.917 323.244Z" fill="url(#paint2_linear_128_14882)" stroke="url(#paint3_linear_128_14882)" stroke-width="2"/>
<path opacity="0.5" d="M24.2451 68.2549C24.2451 74.0549 19.5451 78.7549 13.7451 78.7549C7.94512 78.7549 3.24512 74.0549 3.24512 68.2549C3.24512 62.4549 7.94512 57.7549 13.7451 57.7549C19.5451 57.7549 24.2451 62.4549 24.2451 68.2549Z" stroke="#F7B7C6" stroke-width="4.8555" stroke-miterlimit="10" stroke-linecap="round" stroke-linejoin="round"/>
<path opacity="0.5" d="M338.163 152.759L341.663 149.259" stroke="#F7B7C6" stroke-width="4.8555" stroke-miterlimit="10" stroke-linecap="round" stroke-linejoin="round"/>
<path opacity="0.5" d="M356.862 133.959L360.362 130.559" stroke="#F7B7C6" stroke-width="4.8555" stroke-miterlimit="10" stroke-linecap="round" stroke-linejoin="round"/>
<path opacity="0.5" d="M360.362 152.759L356.862 149.259" stroke="#F7B7C6" stroke-width="4.8555" stroke-miterlimit="10" stroke-linecap="round" stroke-linejoin="round"/>
<path opacity="0.5" d="M341.663 133.959L338.163 130.559" stroke="#F7B7C6" stroke-width="4.8555" stroke-miterlimit="10" stroke-linecap="round" stroke-linejoin="round"/>
<path d="M136.74 139.828C136.74 139.066 136.113 138.483 135.396 138.483C134.634 138.483 134.052 139.111 134.052 139.828C134.052 140.589 134.679 141.172 135.396 141.172C136.113 141.172 136.74 140.589 136.74 139.828Z" fill="#47C0F5"/>
<path opacity="0.5" d="M343.084 258.291L364.584 264.091C368.584 265.191 372.284 261.491 371.184 257.491L365.384 235.991C364.284 231.991 359.284 230.591 356.284 233.591L340.584 249.291C337.684 252.191 339.084 257.291 343.084 258.291Z" stroke="#31BFBA" stroke-width="4.8555" stroke-miterlimit="10" stroke-linecap="round" stroke-linejoin="round"/>
<g clip-path="url(#clip0_128_14882)">
<path d="M223.778 205.591L223.782 205.601C224.343 206.909 223.791 208.504 222.438 209.216C222.436 209.216 222.435 209.217 222.433 209.218L204.238 218.487C204.237 218.488 204.236 218.488 204.235 218.489C202.455 219.38 201.52 221.334 201.625 223.217L201.625 223.22C201.794 226.103 201.794 228.984 201.625 231.778L201.625 231.783C201.52 233.666 202.455 235.62 204.235 236.511C204.236 236.512 204.237 236.512 204.238 236.513L222.433 245.782C222.435 245.783 222.436 245.784 222.438 245.784C223.789 246.495 224.349 248.01 223.777 249.412C223.776 249.413 223.776 249.414 223.776 249.414L215.106 270.275C215.105 270.276 215.104 270.278 215.103 270.28C214.533 271.604 213.006 272.307 211.607 271.864C211.606 271.864 211.604 271.864 211.603 271.863L192.206 265.512C190.319 264.852 188.273 265.532 187.007 267.006C185.136 269.131 183.197 271.152 181.016 272.998L181.011 273.002C179.533 274.268 178.851 276.317 179.512 278.207L185.866 297.611L185.871 297.626L185.876 297.642C186.373 299.008 185.701 300.522 184.29 301.099L184.285 301.101L163.414 309.776C163.414 309.776 163.413 309.776 163.413 309.777C162.01 310.35 160.495 309.789 159.784 308.438C159.784 308.436 159.783 308.435 159.782 308.433L150.513 290.238C150.512 290.237 150.512 290.236 150.511 290.235C149.62 288.455 147.666 287.52 145.783 287.625L145.78 287.625C142.897 287.794 140.016 287.794 137.222 287.625L137.217 287.625C135.334 287.52 133.38 288.455 132.489 290.235C132.488 290.236 132.488 290.237 132.487 290.238L123.218 308.433C123.217 308.435 123.216 308.436 123.216 308.438C122.505 309.789 120.99 310.349 119.588 309.777C119.587 309.776 119.586 309.776 119.586 309.776L98.7254 301.106C98.7237 301.105 98.722 301.104 98.7203 301.103C97.396 300.533 96.6924 299.005 97.1356 297.606C97.136 297.605 97.1363 297.604 97.1367 297.603L103.488 278.206C104.148 276.319 103.468 274.274 101.995 273.007C99.8687 271.136 97.8477 269.197 96.0022 267.016L95.998 267.011C94.7318 265.534 92.6835 264.851 90.7941 265.512L71.3889 271.866L71.3736 271.871L71.3584 271.876C69.9915 272.373 68.4782 271.701 67.9007 270.29L67.8986 270.285L59.2241 249.414C59.2238 249.414 59.2234 249.413 59.2231 249.412C58.6507 248.009 59.2115 246.495 60.5622 245.784C60.5637 245.784 60.5651 245.783 60.5666 245.782L78.7622 236.513C78.7633 236.512 78.7644 236.512 78.7656 236.511C80.5456 235.619 81.4798 233.666 81.3752 231.783L81.375 231.78C81.2055 228.897 81.2056 226.016 81.3749 223.222L81.3752 223.217C81.4798 221.334 80.5456 219.381 78.7657 218.489C78.7645 218.488 78.7634 218.488 78.7622 218.487L60.5666 209.218C60.5651 209.217 60.5636 209.216 60.5621 209.216C59.2115 208.505 58.6507 206.99 59.2231 205.588C59.2234 205.587 59.2238 205.586 59.2241 205.586L67.8963 184.721C68.4668 183.396 69.9942 182.692 71.3933 183.136C71.3945 183.136 71.3957 183.136 71.3969 183.137L90.7939 189.488C92.681 190.148 94.7267 189.468 95.9934 187.994C97.8644 185.869 99.8032 183.848 101.984 182.002L101.989 181.998C103.466 180.732 104.149 178.683 103.488 176.794L97.1341 157.389L97.1291 157.374L97.1235 157.358C96.6265 155.992 97.2986 154.478 98.7101 153.901L98.7152 153.899L119.586 145.224C119.586 145.224 119.587 145.223 119.588 145.223C120.99 144.651 122.505 145.211 123.216 146.562C123.216 146.564 123.217 146.565 123.218 146.567L132.487 164.762C132.488 164.763 132.488 164.765 132.489 164.766C133.381 166.546 135.334 167.48 137.217 167.375L137.22 167.375C140.103 167.206 142.984 167.206 145.778 167.375L145.783 167.375C147.666 167.48 149.619 166.546 150.511 164.766C150.512 164.764 150.512 164.763 150.513 164.762L159.782 146.567C159.783 146.565 159.784 146.564 159.784 146.562C160.495 145.211 162.009 144.651 163.412 145.223C163.413 145.223 163.414 145.224 163.414 145.224L184.275 153.894C184.276 153.895 184.278 153.896 184.279 153.896C185.604 154.467 186.307 155.994 185.865 157.393C185.864 157.394 185.864 157.396 185.863 157.397L179.512 176.794C178.852 178.681 179.532 180.727 181.006 181.994C183.132 183.864 185.152 185.803 186.998 187.984L187.002 187.989C188.268 189.466 190.317 190.149 192.206 189.488L211.611 183.134L211.626 183.129L211.642 183.124C213.008 182.627 214.522 183.299 215.099 184.71L215.101 184.715L223.778 205.591ZM184.669 302.025C186.558 301.252 187.503 299.19 186.816 297.3L184.669 302.025Z" fill="url(#paint4_linear_128_14882)" stroke="#47C0F5" stroke-width="2"/>
<path d="M169.096 194.65C187.185 209.878 189.504 236.885 174.277 254.974C159.049 273.062 132.042 275.381 113.953 260.154C95.865 244.927 93.5456 217.919 108.773 199.831C124 181.742 151.008 179.423 169.096 194.65Z" fill="url(#paint5_linear_128_14882)" stroke="#47C0F5" stroke-width="2"/>
<path d="M131.32 249.707L112.763 231.151C111.99 230.378 111.99 229.175 112.763 228.488L118.863 222.389C119.636 221.615 120.839 221.615 121.526 222.389L132.007 232.869C132.78 233.642 133.983 233.642 134.67 232.869L161.645 205.894C162.418 205.121 163.621 205.121 164.308 205.894L170.407 211.994C171.181 212.767 171.181 213.97 170.407 214.657L135.357 249.707C134.24 250.824 132.436 250.824 131.32 249.707Z" fill="#1EA8DA"/>
<path d="M267 67C267 96.832 243.039 121 213.5 121C183.961 121 160 96.832 160 67C160 37.168 183.961 13 213.5 13C243.039 13 267 37.168 267 67Z" fill="url(#paint6_linear_128_14882)" stroke="#47C0F5" stroke-width="2"/>
<path d="M166.481 70.7529L168.594 68.6229L166.481 66.5277L164.369 68.6229L166.481 70.7529ZM188.278 92.3706L186.166 94.5006L188.278 96.5958L190.391 94.5006L188.278 92.3706ZM234 50.0124C234.007 48.3555 232.669 47.0069 231.012 47L204.013 46.8886C202.356 46.8817 201.007 48.2193 201 49.8762C200.993 51.533 202.331 52.8817 203.988 52.8885L227.988 52.9876L227.889 76.9874C227.882 78.6442 229.219 79.9929 230.876 79.9997C232.533 80.0066 233.882 78.669 233.889 77.0122L234 50.0124ZM140.113 101.13L168.594 72.883L164.369 68.6229L135.887 96.8699L140.113 101.13ZM164.369 72.883L186.166 94.5006L190.391 90.2405L168.594 68.6229L164.369 72.883ZM190.391 94.5006L233.113 52.1301L228.887 47.8699L186.166 90.2405L190.391 94.5006Z" fill="#47C0F5"/>
<path d="M269.174 101.965L268.765 102.635L269.319 103.192L298.37 132.397C303.805 137.861 304.65 146.727 299.86 152.609C294.254 159.421 284.261 159.776 278.199 153.681L248.655 123.98L248.095 123.418L247.42 123.835C222.012 139.513 188.322 136.323 166.31 114.194C140.563 88.3109 140.563 46.2941 166.31 20.4105C192.054 -5.47016 233.84 -5.47016 259.584 20.4105C281.598 42.5411 284.773 76.4171 269.174 101.965ZM251.079 105.629L251.079 105.628C272.109 84.4475 272.109 50.1194 251.079 28.939L251.079 28.9383C230.007 7.75482 195.85 7.75482 174.778 28.9383C153.709 50.1189 153.709 84.448 174.778 105.629C195.85 126.812 230.007 126.812 251.079 105.629Z" fill="url(#paint7_linear_128_14882)" stroke="#47C0F5" stroke-width="2"/>
</g>
<defs>
<linearGradient id="paint0_linear_128_14882" x1="180.704" y1="323.244" x2="180.839" y2="443.759" gradientUnits="userSpaceOnUse">
<stop stop-color="#CBCBCB"/>
<stop offset="1" stop-color="white" stop-opacity="0"/>
</linearGradient>
<linearGradient id="paint1_linear_128_14882" x1="180.704" y1="323.244" x2="180.704" y2="412.907" gradientUnits="userSpaceOnUse">
<stop stop-color="#A5A5A5"/>
<stop offset="1" stop-color="white" stop-opacity="0"/>
</linearGradient>
<linearGradient id="paint2_linear_128_14882" x1="179.459" y1="295.847" x2="179.509" y2="369.495" gradientUnits="userSpaceOnUse">
<stop stop-color="#CBCBCB"/>
<stop offset="1" stop-color="white" stop-opacity="0"/>
</linearGradient>
<linearGradient id="paint3_linear_128_14882" x1="179.459" y1="295.847" x2="179.459" y2="350.641" gradientUnits="userSpaceOnUse">
<stop stop-color="#A5A5A5"/>
<stop offset="1" stop-color="white" stop-opacity="0"/>
</linearGradient>
<linearGradient id="paint4_linear_128_14882" x1="141.5" y1="144" x2="142.498" y2="368.457" gradientUnits="userSpaceOnUse">
<stop stop-color="#75D4FF"/>
<stop offset="1" stop-color="white" stop-opacity="0"/>
</linearGradient>
<linearGradient id="paint5_linear_128_14882" x1="68.0482" y1="222.817" x2="178.541" y2="154.923" gradientUnits="userSpaceOnUse">
<stop stop-color="white"/>
<stop stop-color="white"/>
<stop offset="1" stop-color="white"/>
</linearGradient>
<linearGradient id="paint6_linear_128_14882" x1="159" y1="-7.27203" x2="312.404" y2="43.1155" gradientUnits="userSpaceOnUse">
<stop stop-color="white"/>
<stop stop-color="white"/>
<stop offset="1" stop-color="white"/>
</linearGradient>
<linearGradient id="paint7_linear_128_14882" x1="225" y1="0" x2="225.957" y2="213.704" gradientUnits="userSpaceOnUse">
<stop stop-color="#75D4FF"/>
<stop offset="1" stop-color="white" stop-opacity="0"/>
</linearGradient>
<clipPath id="clip0_128_14882">
<rect width="246" height="311" fill="white" transform="translate(58)"/>
</clipPath>
</defs>
</svg>
