<svg width="373" height="424" viewBox="0 0 373 424" fill="none" xmlns="http://www.w3.org/2000/svg">
<path opacity="0.3" d="M4.13501 399.584V336.799C4.74982 337.447 5.55063 338.185 6.59113 338.993C10.2099 341.802 16.7454 345.466 28.5028 349.107C52.01 356.386 96.5623 363.622 180.88 363.622C265.196 363.622 309.607 356.386 332.972 349.106C344.659 345.466 351.125 341.801 354.691 338.988C355.686 338.204 356.457 337.485 357.052 336.851V400.471C325.655 415.717 273.061 422.344 180.88 422.344C88.6827 422.344 40.1234 415.717 4.13501 399.584Z" fill="url(#paint0_linear_128_14648)" stroke="url(#paint1_linear_128_14648)" stroke-width="2"/>
<path opacity="0.3" d="M355.807 333.681C355.807 335.102 354.872 336.69 352.599 338.404C350.35 340.102 346.969 341.781 342.518 343.406C333.629 346.65 320.71 349.59 304.678 352.065C272.629 357.013 228.317 360.078 179.348 360.078C130.379 360.078 86.0679 357.013 54.0187 352.065C37.9862 349.59 25.0671 346.65 16.1781 343.406C11.7278 341.781 8.34693 340.102 6.09726 338.404C3.82485 336.69 2.88965 335.102 2.88965 333.681C2.88965 332.26 3.82485 330.672 6.09726 328.958C8.34693 327.261 11.7278 325.581 16.1781 323.956C25.0671 320.712 37.9862 317.772 54.0187 315.297C86.0679 310.349 130.379 307.284 179.348 307.284C228.317 307.284 272.629 310.349 304.678 315.297C320.71 317.772 333.629 320.712 342.518 323.956C346.969 325.581 350.35 327.261 352.599 328.958C354.872 330.672 355.807 332.26 355.807 333.681Z" fill="url(#paint2_linear_128_14648)" stroke="url(#paint3_linear_128_14648)" stroke-width="2"/>
<path opacity="0.5" d="M24.1348 78.6921C24.1348 84.4921 19.4348 89.1921 13.6348 89.1921C7.83477 89.1921 3.13477 84.4921 3.13477 78.6921C3.13477 72.8921 7.83477 68.1921 13.6348 68.1921C19.4348 68.1921 24.1348 72.8921 24.1348 78.6921Z" stroke="#F7B7C6" stroke-width="4.8555" stroke-miterlimit="10" stroke-linecap="round" stroke-linejoin="round"/>
<path opacity="0.5" d="M348.052 263.196L351.552 259.696" stroke="#F7B7C6" stroke-width="4.8555" stroke-miterlimit="10" stroke-linecap="round" stroke-linejoin="round"/>
<path opacity="0.5" d="M366.752 244.396L370.252 240.996" stroke="#F7B7C6" stroke-width="4.8555" stroke-miterlimit="10" stroke-linecap="round" stroke-linejoin="round"/>
<path opacity="0.5" d="M370.252 263.196L366.752 259.696" stroke="#F7B7C6" stroke-width="4.8555" stroke-miterlimit="10" stroke-linecap="round" stroke-linejoin="round"/>
<path opacity="0.5" d="M351.552 244.396L348.052 240.996" stroke="#F7B7C6" stroke-width="4.8555" stroke-miterlimit="10" stroke-linecap="round" stroke-linejoin="round"/>
<path d="M169.018 124.427L168.993 123.926L168.577 123.646C150.771 111.678 139.096 91.3488 139.096 68.2856C139.096 31.4338 168.949 1.58008 205.801 1.58008C242.653 1.58008 272.507 31.4339 272.549 68.2867C272.548 105.138 242.695 134.991 205.843 134.991C198.801 134.991 192.011 133.914 185.637 131.886L185.163 131.735L184.757 132.022L169.896 142.528L169.018 124.427Z" fill="url(#paint4_linear_128_14648)" stroke="url(#paint5_linear_128_14648)" stroke-width="2"/>
<path d="M262.59 254.302L262.582 254.273L244.938 188.262C244.918 188.209 244.891 188.174 244.868 188.152C244.845 188.131 244.816 188.112 244.768 188.101C236.258 186.719 224.794 183.211 209.067 178.328L262.59 254.302ZM262.59 254.302L262.599 254.331C262.601 254.335 262.602 254.338 262.602 254.341C262.584 254.359 262.536 254.396 262.432 254.431L262.396 254.443L262.362 254.457C260.386 255.284 258.318 255.974 256.345 256.479C255.791 256.606 255.213 256.686 254.651 256.686C253.633 256.686 252.603 256.442 251.645 255.984L249.776 255.09L250.239 257.11C250.852 259.777 250.632 262.47 249.458 265.037C246.944 270.505 240.941 274.358 234.547 274.671L233.633 274.716L233.597 275.63C233.467 278.915 232.002 281.975 229.338 284.551C225.862 287.847 220.661 289.822 215.792 289.688L214.981 289.666L214.792 290.455C212.224 301.215 201.719 303.305 198.92 303.678L198.45 303.741L198.201 304.145C197.511 305.266 195.592 307.934 191.69 309.381L191.687 309.382C189.932 310.04 188.029 310.354 185.918 310.354C182.33 310.354 178.232 309.366 173.653 307.377L172.831 307.02L172.386 307.798C172.141 308.226 171.621 308.77 170.406 309.377L170.399 309.381L170.391 309.385C168.307 310.47 164.991 311.249 161.391 311.249C156.421 311.249 151.261 309.743 148.279 305.56C147.724 304.737 146.816 304.241 145.829 304.234C144.584 304.188 142.818 304.017 141.027 303.508C139.225 302.994 137.467 302.157 136.174 300.824C134.597 299.156 133.559 297.581 132.959 295.914C132.367 294.161 130.428 293.49 128.759 293.907L128.75 293.909L128.741 293.912C126.103 294.624 123.255 294.055 120.689 292.23C117.758 290.084 115.858 286.773 115.642 283.38C115.57 282.017 114.536 280.733 113.056 280.65C108.46 280.345 104.475 277.351 102.918 273.112L102.916 273.106C101.634 269.686 102.368 266.297 104.752 263.955L104.758 263.949C105.001 263.706 105.213 263.534 105.442 263.404L106.857 262.595L105.495 261.7C103.026 260.077 100.639 258.49 98.8636 257.302C97.9759 256.709 97.2416 256.215 96.7268 255.868C96.4691 255.694 96.2674 255.557 96.1292 255.462C96.07 255.422 96.0237 255.39 95.9903 255.367L95.9499 255.327L95.8328 255.262C95.832 255.26 95.831 255.258 95.8299 255.255C95.8242 255.24 95.8223 255.218 95.8289 255.196L95.8333 255.182L95.8372 255.167L113.868 187.658L113.87 187.651L113.872 187.643C113.885 187.591 113.909 187.566 113.925 187.555C113.934 187.549 113.944 187.545 113.956 187.542C113.968 187.539 113.989 187.537 114.021 187.541L114.038 187.544L114.109 187.556L114.387 187.6C114.631 187.639 114.991 187.697 115.454 187.772C116.379 187.921 117.714 188.137 119.355 188.405C122.637 188.94 127.143 189.682 132.037 190.505L132.417 190.569L132.742 190.361C135.089 188.859 137.719 187.215 140.584 185.478L140.584 185.478L140.591 185.473C140.751 185.374 140.912 185.275 141.074 185.175C143.529 183.657 146.188 182.014 148.889 180.287L148.892 180.285C159.209 173.648 167.356 171.08 175.17 170.828C183.021 170.576 190.628 172.653 199.935 175.504C199.936 175.504 199.936 175.504 199.937 175.505L209.066 178.328L262.59 254.302Z" fill="url(#paint6_linear_128_14648)" stroke="url(#paint7_linear_128_14648)" stroke-width="2"/>
<path d="M292.594 246.764L290.428 238.149L281.013 203.265L273.904 177.514C272.915 173.748 268.961 171.629 265.242 172.853L248.671 177.891C245.234 179.021 243.304 182.598 244.198 186.082L262.7 255.238C263.688 258.957 267.596 261.123 271.315 259.946L288.074 255.003C291.511 253.92 293.535 250.248 292.594 246.764Z" fill="#1EA8DA"/>
<path d="M262.465 254.297C260.488 255.144 258.464 255.803 256.486 256.321C253.803 256.98 251.025 255.992 249.284 253.826C246.788 250.672 242.504 245.352 237.608 239.326C209.268 204.725 191.614 196.533 169.676 199.735C160.073 201.147 156.165 204.395 147.362 207.832C138.794 211.221 123.729 211.127 123.352 201.288C123.117 194.98 135.263 189.284 149.009 180.433C169.676 167.11 181.634 170.029 199.947 175.631C220.567 181.94 234.737 186.647 244.811 188.248" stroke="#47C0F5" stroke-width="4.8555" stroke-miterlimit="10" stroke-linecap="round" stroke-linejoin="round"/>
<path d="M132.345 190.555C122.364 188.86 113.891 187.495 113.891 187.495" stroke="#47C0F5" stroke-width="4.8555" stroke-miterlimit="10" stroke-linecap="round" stroke-linejoin="round"/>
<path d="M172.548 306.741C192.791 316.157 198.487 303.634 198.487 303.634C198.487 303.634 212.516 302.834 215.011 289.511C223.579 290.264 234.03 284.097 233.607 274.54C245.611 274.776 256.722 261.783 246.741 250.625" stroke="#47C0F5" stroke-width="4.8555" stroke-miterlimit="10" stroke-linecap="round" stroke-linejoin="round"/>
<path d="M95.9526 255.191C95.9526 255.191 101.649 259.098 107.251 262.676" stroke="#47C0F5" stroke-width="4.8555" stroke-miterlimit="10" stroke-linecap="round" stroke-linejoin="round"/>
<path d="M148.444 305.423C147.832 304.575 146.89 304.058 145.902 304.058C143.454 303.963 138.934 303.446 136.298 300.715C134.839 299.209 133.756 297.608 133.097 295.866C132.438 294.124 130.508 293.324 128.672 293.795C122.599 295.442 116.149 289.84 115.772 283.391C115.678 281.884 114.549 280.66 113.042 280.519C104.144 279.907 99.1543 269.597 104.804 264.042C108.193 260.747 117.279 261.971 120.009 268.42C120.574 269.738 122.128 270.303 123.399 269.597C128.813 266.678 134.98 269.974 136.957 275.764C137.381 277.035 138.652 277.741 139.97 277.6C148.915 276.565 152.869 281.978 153.669 289.369C153.858 291.064 155.411 292.571 157.153 292.524C163.038 292.382 166.851 295.301 167.463 298.644C168.593 304.717 172.547 306.741 172.547 306.741C173.677 310.272 155.223 314.979 148.444 305.423Z" stroke="#47C0F5" stroke-width="4.8555" stroke-miterlimit="10" stroke-linecap="round" stroke-linejoin="round"/>
<path d="M233.606 274.54L219.389 258.251" stroke="#47C0F5" stroke-width="4.8555" stroke-miterlimit="10" stroke-linecap="round" stroke-linejoin="round"/>
<path d="M214.964 289.464L204.23 277.082" stroke="#47C0F5" stroke-width="4.8555" stroke-miterlimit="10" stroke-linecap="round" stroke-linejoin="round"/>
<path d="M198.487 303.587L191.19 294.595" stroke="#47C0F5" stroke-width="4.8555" stroke-miterlimit="10" stroke-linecap="round" stroke-linejoin="round"/>
<path d="M110.029 177.845L93.4582 172.808C89.7862 171.584 85.8318 173.749 84.7961 177.468L77.6874 203.219L68.272 238.103L66.1064 246.719C65.1649 250.249 67.1421 253.874 70.6258 254.957L87.3853 259.9C91.0573 261.077 94.9646 258.911 96.0003 255.192L114.502 186.036C115.396 182.552 113.466 178.928 110.029 177.845Z" fill="#1EC3DA"/>
<path d="M280.764 240.799C281.313 238.471 279.872 236.138 277.544 235.589C275.216 235.039 272.883 236.481 272.334 238.808C271.784 241.136 273.226 243.469 275.553 244.019C277.881 244.568 280.214 243.127 280.764 240.799Z" fill="white"/>
<path d="M85.2457 242.762C86.9371 241.071 86.9371 238.329 85.2457 236.637C83.5543 234.946 80.8121 234.946 79.1207 236.637C77.4293 238.329 77.4292 241.071 79.1206 242.762C80.812 244.454 83.5543 244.454 85.2457 242.762Z" fill="white"/>
<path d="M248.8 69.4115C248.8 93.1484 229.558 112.391 205.821 112.391C182.084 112.391 162.842 93.1484 162.842 69.4115C162.842 45.6747 182.084 26.4321 205.821 26.4321C229.558 26.4321 248.8 45.6747 248.8 69.4115Z" fill="url(#paint8_linear_128_14648)" stroke="#47C0F5" stroke-width="2"/>
<path fill-rule="evenodd" clip-rule="evenodd" d="M193.374 53.6286C193.374 53.0458 193.846 52.5732 194.429 52.5732H208.569C213.062 52.5732 216.737 56.2478 216.737 60.7411C216.737 65.2345 213.062 68.9091 208.569 68.9091H199.048C198.465 68.9091 197.992 68.4365 197.992 67.8537C197.992 67.2708 198.465 66.7983 199.048 66.7983H208.569C211.896 66.7983 214.626 64.0687 214.626 60.7411C214.626 57.4136 211.896 54.684 208.569 54.684H194.429C193.846 54.684 193.374 54.2115 193.374 53.6286Z" fill="#5A5B5E"/>
<path fill-rule="evenodd" clip-rule="evenodd" d="M198.652 52.5732C199.234 52.5732 199.707 53.0458 199.707 53.6286V84.714C199.707 85.2968 199.234 85.7694 198.652 85.7694C198.069 85.7694 197.596 85.2968 197.596 84.714V53.6286C197.596 53.0458 198.069 52.5732 198.652 52.5732Z" fill="#5A5B5E"/>
<path fill-rule="evenodd" clip-rule="evenodd" d="M197.596 67.8257C197.596 67.2428 198.068 66.7703 198.651 66.7703H209.901C215.109 66.7703 219.372 71.0751 219.372 76.2983C219.372 81.5001 215.102 85.7697 209.901 85.7697H194.429C193.846 85.7697 193.374 85.2972 193.374 84.7143C193.374 84.1314 193.846 83.6589 194.429 83.6589H209.901C213.937 83.6589 217.261 80.3343 217.261 76.2983C217.261 72.2271 213.93 68.8811 209.901 68.8811H198.651C198.068 68.8811 197.596 68.4085 197.596 67.8257Z" fill="#5A5B5E"/>
<path fill-rule="evenodd" clip-rule="evenodd" d="M202.59 48.5491C203.173 48.5491 203.645 49.0216 203.645 49.6045V53.6283C203.645 54.2112 203.173 54.6837 202.59 54.6837C202.007 54.6837 201.535 54.2112 201.535 53.6283V49.6045C201.535 49.0216 202.007 48.5491 202.59 48.5491Z" fill="#5A5B5E"/>
<path fill-rule="evenodd" clip-rule="evenodd" d="M208.484 48.5491C209.067 48.5491 209.54 49.0216 209.54 49.6045V53.6283C209.54 54.2112 209.067 54.6837 208.484 54.6837C207.901 54.6837 207.429 54.2112 207.429 53.6283V49.6045C207.429 49.0216 207.901 48.5491 208.484 48.5491Z" fill="#5A5B5E"/>
<path fill-rule="evenodd" clip-rule="evenodd" d="M202.59 83.6587C203.173 83.6587 203.645 84.1312 203.645 84.7141V88.7379C203.645 89.3208 203.173 89.7933 202.59 89.7933C202.007 89.7933 201.535 89.3208 201.535 88.7379V84.7141C201.535 84.1312 202.007 83.6587 202.59 83.6587Z" fill="#5A5B5E"/>
<path fill-rule="evenodd" clip-rule="evenodd" d="M208.484 83.6587C209.067 83.6587 209.54 84.1312 209.54 84.7141V88.7379C209.54 89.3208 209.067 89.7933 208.484 89.7933C207.901 89.7933 207.429 89.3208 207.429 88.7379V84.7141C207.429 84.1312 207.901 83.6587 208.484 83.6587Z" fill="#5A5B5E"/>
<path fill-rule="evenodd" clip-rule="evenodd" d="M231.834 72.8479C232.409 72.9419 232.799 73.4843 232.705 74.0596C232.467 75.5205 232.081 76.9093 231.645 78.2188C231.46 78.7717 230.863 79.0706 230.31 78.8863C229.757 78.7019 229.458 78.1042 229.642 77.5513C230.056 76.3104 230.407 75.0356 230.622 73.7195C230.716 73.1442 231.259 72.754 231.834 72.8479Z" fill="#47C0F5"/>
<path fill-rule="evenodd" clip-rule="evenodd" d="M229.511 80.7142C230.03 80.9799 230.235 81.6159 229.969 82.1347C229.343 83.3563 228.604 84.5088 227.814 85.591C227.47 86.0619 226.81 86.1651 226.339 85.8215C225.868 85.4779 225.765 84.8176 226.109 84.3468C226.849 83.3321 227.526 82.2743 228.09 81.1724C228.356 80.6536 228.992 80.4485 229.511 80.7142Z" fill="#47C0F5"/>
<path fill-rule="evenodd" clip-rule="evenodd" d="M224.969 87.3792C225.375 87.7974 225.365 88.4656 224.947 88.8716C223.954 89.8358 222.894 90.7493 221.739 91.5785C221.265 91.9185 220.606 91.8102 220.266 91.3367C219.926 90.8632 220.034 90.2038 220.508 89.8639C221.563 89.1062 222.544 88.2629 223.477 87.3569C223.895 86.9509 224.563 86.9609 224.969 87.3792Z" fill="#47C0F5"/>
<path fill-rule="evenodd" clip-rule="evenodd" d="M222.517 49.1584C222.904 48.7229 223.571 48.6839 224.007 49.0713C229.608 54.0537 233.117 61.3365 233.117 69.4122C233.117 69.995 232.644 70.4676 232.061 70.4676C231.479 70.4676 231.006 69.995 231.006 69.4122C231.006 61.9593 227.77 55.2438 222.604 50.6484C222.168 50.2611 222.129 49.594 222.517 49.1584Z" fill="#47C0F5"/>
<path fill-rule="evenodd" clip-rule="evenodd" d="M181.332 59.9377C181.885 60.1221 182.184 60.7198 182 61.2727C181.586 62.5136 181.235 63.7884 181.02 65.1045C180.926 65.6798 180.384 66.07 179.808 65.9761C179.233 65.8821 178.843 65.3397 178.937 64.7644C179.175 63.3035 179.561 61.9147 179.997 60.6052C180.182 60.0523 180.779 59.7534 181.332 59.9377Z" fill="#47C0F5"/>
<path fill-rule="evenodd" clip-rule="evenodd" d="M185.304 53.0313C185.775 53.3749 185.878 54.0351 185.534 54.506C184.794 55.5207 184.117 56.5785 183.553 57.6804C183.287 58.1992 182.651 58.4043 182.132 58.1386C181.613 57.8729 181.408 57.2369 181.674 56.7181C182.3 55.4964 183.04 54.3439 183.829 53.2617C184.173 52.7909 184.833 52.6877 185.304 53.0313Z" fill="#47C0F5"/>
<path fill-rule="evenodd" clip-rule="evenodd" d="M191.377 47.4878C191.717 47.9613 191.609 48.6207 191.136 48.9607C190.08 49.7183 189.1 50.5616 188.166 51.4676C187.748 51.8736 187.08 51.8636 186.674 51.4454C186.268 51.0271 186.278 50.3589 186.696 49.953C187.69 48.9888 188.75 48.0752 189.905 47.246C190.378 46.9061 191.037 47.0143 191.377 47.4878Z" fill="#47C0F5"/>
<path fill-rule="evenodd" clip-rule="evenodd" d="M179.582 68.3564C180.165 68.3564 180.637 68.829 180.637 69.4118C180.637 76.3734 183.464 82.6555 188.009 87.2283C188.42 87.6417 188.418 88.3099 188.005 88.7209C187.592 89.1318 186.923 89.1298 186.512 88.7164C181.594 83.7681 178.526 76.9587 178.526 69.4118C178.526 68.829 178.999 68.3564 179.582 68.3564Z" fill="#47C0F5"/>
<defs>
<linearGradient id="paint0_linear_128_14648" x1="180.594" y1="333.681" x2="180.729" y2="454.196" gradientUnits="userSpaceOnUse">
<stop stop-color="#CBCBCB"/>
<stop offset="1" stop-color="white" stop-opacity="0"/>
</linearGradient>
<linearGradient id="paint1_linear_128_14648" x1="180.594" y1="333.681" x2="180.594" y2="423.344" gradientUnits="userSpaceOnUse">
<stop stop-color="#A5A5A5"/>
<stop offset="1" stop-color="white" stop-opacity="0"/>
</linearGradient>
<linearGradient id="paint2_linear_128_14648" x1="179.348" y1="306.284" x2="179.399" y2="379.932" gradientUnits="userSpaceOnUse">
<stop stop-color="#CBCBCB"/>
<stop offset="1" stop-color="white" stop-opacity="0"/>
</linearGradient>
<linearGradient id="paint3_linear_128_14648" x1="179.348" y1="306.284" x2="179.348" y2="361.078" gradientUnits="userSpaceOnUse">
<stop stop-color="#A5A5A5"/>
<stop offset="1" stop-color="white" stop-opacity="0"/>
</linearGradient>
<linearGradient id="paint4_linear_128_14648" x1="205.822" y1="0.580078" x2="206.735" y2="193.876" gradientUnits="userSpaceOnUse">
<stop stop-color="#75D4FF"/>
<stop offset="1" stop-color="white" stop-opacity="0"/>
</linearGradient>
<linearGradient id="paint5_linear_128_14648" x1="205.822" y1="0.580078" x2="205.822" y2="144.396" gradientUnits="userSpaceOnUse">
<stop stop-color="#47C0F5"/>
<stop offset="1" stop-color="white" stop-opacity="0"/>
</linearGradient>
<linearGradient id="paint6_linear_128_14648" x1="179.215" y1="169.808" x2="179.934" y2="361.257" gradientUnits="userSpaceOnUse">
<stop stop-color="#75D4FF"/>
<stop offset="1" stop-color="white" stop-opacity="0"/>
</linearGradient>
<linearGradient id="paint7_linear_128_14648" x1="179.215" y1="169.808" x2="179.215" y2="312.249" gradientUnits="userSpaceOnUse">
<stop stop-color="#47C0F5"/>
<stop offset="1" stop-color="white" stop-opacity="0"/>
</linearGradient>
<linearGradient id="paint8_linear_128_14648" x1="161.842" y1="10.0217" x2="285.411" y2="50.982" gradientUnits="userSpaceOnUse">
<stop stop-color="white"/>
<stop stop-color="white"/>
<stop offset="1" stop-color="white"/>
</linearGradient>
</defs>
</svg>
