<svg width="417" height="437" viewBox="0 0 417 437" fill="none" xmlns="http://www.w3.org/2000/svg">
<path opacity="0.3" d="M27.3992 412.551V349.766C28.014 350.414 28.8148 351.152 29.8553 351.96C33.4741 354.769 40.0096 358.433 51.767 362.074C75.2742 369.353 119.826 376.589 204.144 376.589C288.461 376.589 332.871 369.353 356.236 362.073C367.923 358.432 374.389 354.767 377.956 351.955C378.95 351.171 379.721 350.452 380.316 349.818V413.438C348.919 428.684 296.325 435.311 204.144 435.311C111.947 435.311 63.3876 428.684 27.3992 412.551Z" fill="url(#paint0_linear_128_14902)" stroke="url(#paint1_linear_128_14902)" stroke-width="2"/>
<path opacity="0.3" d="M379.071 346.648C379.071 348.069 378.136 349.657 375.863 351.371C373.614 353.069 370.233 354.749 365.783 356.373C356.894 359.617 343.975 362.557 327.942 365.033C295.893 369.98 251.582 373.045 202.612 373.045C153.643 373.045 109.332 369.98 77.2828 365.033C61.2504 362.557 48.3312 359.617 39.4423 356.373C34.992 354.749 31.6111 353.069 29.3614 351.371C27.089 349.657 26.1538 348.069 26.1538 346.648C26.1538 345.227 27.089 343.639 29.3614 341.925C31.6111 340.228 34.992 338.548 39.4423 336.923C48.3312 333.679 61.2504 330.739 77.2828 328.264C109.332 323.316 153.643 320.251 202.612 320.251C251.582 320.251 295.893 323.316 327.942 328.264C343.975 330.739 356.894 333.679 365.783 336.923C370.233 338.548 373.614 340.228 375.863 341.925C378.136 343.639 379.071 345.227 379.071 346.648Z" fill="url(#paint2_linear_128_14902)" stroke="url(#paint3_linear_128_14902)" stroke-width="2"/>
<path opacity="0.5" d="M23.5732 107.3C23.5732 113.1 18.8732 117.8 13.0732 117.8C7.27324 117.8 2.57324 113.1 2.57324 107.3C2.57324 101.5 7.27324 96.7998 13.0732 96.7998C18.8732 96.7998 23.5732 101.5 23.5732 107.3Z" stroke="#31BFBA" stroke-width="4.8555" stroke-miterlimit="10" stroke-linecap="round" stroke-linejoin="round"/>
<path opacity="0.5" d="M385.973 286.3L407.473 292.1C411.473 293.2 415.173 289.5 414.073 285.5L408.273 264C407.173 260 402.173 258.6 399.173 261.6L383.473 277.3C380.573 280.2 381.973 285.3 385.973 286.3Z" stroke="#31BFBA" stroke-width="4.8555" stroke-miterlimit="10" stroke-linecap="round" stroke-linejoin="round"/>
<path d="M301.551 45.0017L301.551 45.0012C300.489 21.0263 280.879 2.25146 256.904 2.25146C240.405 2.25146 225.302 11.2592 217.486 25.7599L217.485 25.7605C215.995 28.5221 212.722 29.7878 209.761 28.7581L209.759 28.7574C204.559 26.9412 199.148 26.0216 193.676 26.0216C166.559 26.0216 144.5 48.0502 144.5 75.1199C144.5 102.208 166.56 124.251 193.676 124.251H314.631C334.959 124.251 351.5 107.711 351.5 87.3826C351.5 67.0545 334.959 50.5149 314.631 50.5149C312.93 50.5149 311.125 50.6722 308.93 51.019L301.551 45.0017ZM301.551 45.0017C301.632 46.8176 302.483 48.5122 303.892 49.6614C305.3 50.8097 307.134 51.3054 308.928 51.0194L301.551 45.0017Z" fill="url(#paint4_linear_128_14902)" stroke="#47C0F5" stroke-width="3"/>
<path d="M113.988 194.898L111.477 192.607V196.006V228.046C111.477 232.065 113.667 235.978 117.333 239.511C121.013 243.057 126.315 246.358 132.904 249.186C146.092 254.844 164.681 258.706 186.5 258.706C208.32 258.706 226.909 254.832 240.096 249.168C246.686 246.339 251.987 243.036 255.667 239.492C259.331 235.963 261.523 232.055 261.523 228.046V196.006V192.598L259.01 194.9C245.904 206.905 218.842 215.161 186.5 215.161C154.16 215.161 127.096 206.861 113.988 194.898ZM113.988 145.309L111.477 143.017V146.416V178.456C111.477 182.475 113.667 186.388 117.333 189.921C121.013 193.467 126.315 196.768 132.904 199.596C146.092 205.254 164.681 209.116 186.5 209.116C208.32 209.116 226.909 205.242 240.096 199.578C246.686 196.749 251.987 193.446 255.667 189.902C259.331 186.373 261.523 182.465 261.523 178.456V146.416V143.008L259.01 145.31C245.904 157.315 218.842 165.571 186.5 165.571C154.16 165.571 127.096 157.271 113.988 145.309ZM113.988 244.443L111.477 242.152V245.551V277.591C111.477 281.61 113.667 285.523 117.333 289.056C121.013 292.602 126.315 295.903 132.904 298.731C146.092 304.389 164.681 308.251 186.5 308.251C208.319 308.251 226.908 304.389 240.096 298.731C246.685 295.903 251.987 292.602 255.667 289.056C259.333 285.523 261.523 281.61 261.523 277.591V245.551V242.143L259.01 244.445C245.904 256.45 218.842 264.706 186.5 264.706C154.16 264.706 127.096 256.406 113.988 244.443ZM105.5 128.911C105.5 119.124 113.831 109.961 128.542 103.161C143.145 96.4106 163.544 92.2515 186.5 92.2515C209.456 92.2515 229.855 96.4106 244.458 103.161C259.169 109.961 267.5 119.124 267.5 128.911V277.591C267.5 287.379 259.169 296.542 244.458 303.342C229.855 310.092 209.456 314.251 186.5 314.251C163.544 314.251 143.145 310.092 128.542 303.342C113.831 296.542 105.5 287.379 105.5 277.591V128.911ZM261.523 128.911C261.523 124.893 259.333 120.979 255.667 117.447C251.987 113.901 246.685 110.599 240.096 107.772C226.908 102.114 208.319 98.2515 186.5 98.2515C164.681 98.2515 146.092 102.114 132.904 107.772C126.315 110.599 121.013 113.901 117.333 117.447C113.667 120.979 111.477 124.893 111.477 128.911C111.477 132.93 113.667 136.843 117.333 140.376C121.013 143.922 126.315 147.223 132.904 150.051C146.092 155.709 164.681 159.571 186.5 159.571C208.319 159.571 226.908 155.709 240.096 150.051C246.685 147.223 251.987 143.922 255.667 140.376C259.333 136.843 261.523 132.93 261.523 128.911Z" fill="url(#paint5_linear_128_14902)" stroke="#47C0F5" stroke-width="3"/>
<path d="M162.79 183.075C162.25 183.3 161.755 183.659 161.35 184.064C160.495 184.918 160 186.042 160 187.256C160 188.47 160.495 189.594 161.35 190.403C162.205 191.257 163.33 191.751 164.5 191.751C165.715 191.751 166.84 191.257 167.695 190.403C168.1 189.998 168.46 189.504 168.685 188.964C168.91 188.425 169 187.84 169 187.256C169 186.042 168.55 184.918 167.695 184.064C166.435 182.805 164.455 182.4 162.79 183.075Z" fill="#1EA8DA"/>
<path d="M184.16 184.008C183.44 184.868 183 186.001 183 187.223C183 187.812 183.12 188.401 183.32 188.944C183.52 189.487 183.8 189.985 184.16 190.393C184.92 191.253 185.92 191.751 187 191.751C188.08 191.751 189.08 191.253 189.84 190.393C190.6 189.578 191 188.446 191 187.223C191 186.046 190.56 184.868 189.84 184.008C188.36 182.333 185.64 182.333 184.16 184.008Z" fill="#1EA8DA"/>
<path d="M208.5 191.751C209.715 191.751 210.84 191.257 211.695 190.403C212.505 189.594 213 188.425 213 187.256C213 186.042 212.505 184.918 211.695 184.064C210.435 182.805 208.41 182.4 206.79 183.075C206.205 183.3 205.71 183.659 205.305 184.064C204.495 184.918 204 186.042 204 187.256C204 188.47 204.45 189.594 205.305 190.403C206.16 191.257 207.285 191.751 208.5 191.751Z" fill="#1EA8DA"/>
<path d="M167.695 234.064C167.29 233.659 166.795 233.3 166.255 233.075C164.59 232.4 162.565 232.805 161.35 234.064C160.9 234.468 160.585 234.963 160.36 235.547C160.135 236.087 160 236.671 160 237.256C160 238.47 160.495 239.594 161.35 240.403C162.16 241.257 163.33 241.751 164.5 241.751C165.715 241.751 166.84 241.257 167.695 240.403C168.55 239.594 169 238.47 169 237.256C169 236.671 168.91 236.087 168.685 235.547C168.46 234.963 168.1 234.468 167.695 234.064Z" fill="#1EA8DA"/>
<path d="M185.48 233.066C185 233.291 184.56 233.651 184.16 234.056C183.44 234.911 183 236.081 183 237.251C183 237.836 183.12 238.421 183.32 238.961C183.52 239.501 183.8 239.996 184.16 240.401C184.56 240.851 185 241.166 185.48 241.391C185.96 241.616 186.48 241.751 187 241.751C188.08 241.751 189.08 241.256 189.84 240.401C190.2 239.996 190.48 239.501 190.72 238.961C190.92 238.421 191 237.836 191 237.251C191 236.081 190.6 234.911 189.84 234.056C188.72 232.841 186.96 232.391 185.48 233.066Z" fill="#1EA8DA"/>
<path d="M205.305 240.403C206.16 241.257 207.285 241.751 208.5 241.751C209.715 241.751 210.84 241.257 211.695 240.403C212.505 239.594 213 238.47 213 237.256C213 236.671 212.865 236.087 212.64 235.547C212.415 234.963 212.1 234.468 211.695 234.064C211.245 233.659 210.75 233.3 210.21 233.075C208.545 232.4 206.52 232.805 205.305 234.064C204.45 234.918 204 236.087 204 237.256C204 237.84 204.09 238.425 204.315 238.964C204.54 239.504 204.9 239.998 205.305 240.403Z" fill="#1EA8DA"/>
<path d="M167.695 284.064C166.435 282.805 164.455 282.4 162.79 283.075C162.25 283.3 161.755 283.659 161.35 284.064C160.9 284.468 160.585 284.963 160.36 285.547C160.135 286.087 160 286.671 160 287.256C160 287.84 160.135 288.425 160.36 288.964C160.585 289.504 160.9 289.998 161.35 290.403C162.16 291.257 163.33 291.751 164.5 291.751C165.715 291.751 166.84 291.257 167.695 290.403C168.1 289.998 168.46 289.504 168.685 288.964C168.91 288.425 169 287.84 169 287.256C169 286.671 168.91 286.087 168.685 285.547C168.46 284.963 168.1 284.468 167.695 284.064Z" fill="#1EA8DA"/>
<path d="M189.84 284.008C188.36 282.333 185.64 282.333 184.16 284.008C183.8 284.416 183.52 284.914 183.32 285.502C183.12 286.046 183 286.634 183 287.223C183 288.446 183.44 289.578 184.16 290.393C184.56 290.846 185 291.163 185.48 291.389C185.96 291.616 186.48 291.751 187 291.751C187.52 291.751 188.04 291.616 188.52 291.389C189 291.163 189.44 290.846 189.84 290.393C190.6 289.578 191 288.446 191 287.223C191 286.634 190.88 286.046 190.68 285.502C190.48 284.914 190.2 284.416 189.84 284.008Z" fill="#1EA8DA"/>
<path d="M211.695 284.064C210.435 282.805 208.41 282.4 206.79 283.075C206.205 283.3 205.71 283.659 205.305 284.064C204.9 284.468 204.585 284.963 204.315 285.547C204.09 286.087 204 286.671 204 287.256C204 287.84 204.09 288.425 204.315 288.964C204.54 289.504 204.9 289.998 205.305 290.403C206.16 291.257 207.285 291.751 208.5 291.751C209.715 291.751 210.84 291.257 211.695 290.403C212.1 289.998 212.415 289.504 212.64 288.964C212.865 288.425 213 287.84 213 287.256C213 286.671 212.865 286.087 212.64 285.547C212.415 284.963 212.1 284.468 211.695 284.064Z" fill="#1EA8DA"/>
<defs>
<linearGradient id="paint0_linear_128_14902" x1="203.858" y1="346.648" x2="203.993" y2="467.162" gradientUnits="userSpaceOnUse">
<stop stop-color="#CBCBCB"/>
<stop offset="1" stop-color="white" stop-opacity="0"/>
</linearGradient>
<linearGradient id="paint1_linear_128_14902" x1="203.858" y1="346.648" x2="203.858" y2="436.311" gradientUnits="userSpaceOnUse">
<stop stop-color="#A5A5A5"/>
<stop offset="1" stop-color="white" stop-opacity="0"/>
</linearGradient>
<linearGradient id="paint2_linear_128_14902" x1="202.612" y1="319.251" x2="202.663" y2="392.899" gradientUnits="userSpaceOnUse">
<stop stop-color="#CBCBCB"/>
<stop offset="1" stop-color="white" stop-opacity="0"/>
</linearGradient>
<linearGradient id="paint3_linear_128_14902" x1="202.612" y1="319.251" x2="202.612" y2="374.045" gradientUnits="userSpaceOnUse">
<stop stop-color="#A5A5A5"/>
<stop offset="1" stop-color="white" stop-opacity="0"/>
</linearGradient>
<linearGradient id="paint4_linear_128_14902" x1="248" y1="0.751465" x2="248.445" y2="168.76" gradientUnits="userSpaceOnUse">
<stop stop-color="#75D4FF"/>
<stop offset="1" stop-color="white" stop-opacity="0"/>
</linearGradient>
<linearGradient id="paint5_linear_128_14902" x1="186.5" y1="90.7515" x2="188.334" y2="393.158" gradientUnits="userSpaceOnUse">
<stop stop-color="#75D4FF"/>
<stop offset="1" stop-color="white" stop-opacity="0"/>
</linearGradient>
</defs>
</svg>
