<svg width="374" height="419" viewBox="0 0 374 419" fill="none" xmlns="http://www.w3.org/2000/svg">
<path opacity="0.3" d="M4.13501 395.147V332.362C4.74982 333.01 5.55063 333.748 6.59113 334.556C10.2099 337.365 16.7454 341.029 28.5028 344.67C52.01 351.949 96.5623 359.185 180.88 359.185C265.196 359.185 309.607 351.949 332.972 344.669C344.659 341.029 351.125 337.364 354.691 334.551C355.686 333.767 356.457 333.048 357.052 332.414V396.034C325.655 411.28 273.061 417.907 180.88 417.907C88.6827 417.907 40.1234 411.28 4.13501 395.147Z" fill="url(#paint0_linear_128_14779)" stroke="url(#paint1_linear_128_14779)" stroke-width="2"/>
<path opacity="0.3" d="M355.807 329.244C355.807 330.665 354.872 332.253 352.599 333.967C350.35 335.664 346.969 337.344 342.518 338.969C333.629 342.213 320.71 345.153 304.678 347.628C272.629 352.576 228.317 355.641 179.348 355.641C130.379 355.641 86.0679 352.576 54.0187 347.628C37.9862 345.153 25.0671 342.213 16.1781 338.969C11.7278 337.344 8.34693 335.664 6.09726 333.967C3.82485 332.253 2.88965 330.665 2.88965 329.244C2.88965 327.823 3.82485 326.235 6.09726 324.521C8.34693 322.823 11.7278 321.143 16.1781 319.519C25.0671 316.274 37.9862 313.335 54.0187 310.859C86.0679 305.911 130.379 302.847 179.348 302.847C228.317 302.847 272.629 305.911 304.678 310.859C320.71 313.335 333.629 316.274 342.518 319.519C346.969 321.143 350.35 322.823 352.599 324.521C354.872 326.235 355.807 327.823 355.807 329.244Z" fill="url(#paint2_linear_128_14779)" stroke="url(#paint3_linear_128_14779)" stroke-width="2"/>
<path opacity="0.5" d="M24.1348 74.2549C24.1348 80.0549 19.4348 84.7549 13.6348 84.7549C7.83477 84.7549 3.13477 80.0549 3.13477 74.2549C3.13477 68.4549 7.83477 63.7549 13.6348 63.7549C19.4348 63.7549 24.1348 68.4549 24.1348 74.2549Z" stroke="#F7B7C6" stroke-width="4.8555" stroke-miterlimit="10" stroke-linecap="round" stroke-linejoin="round"/>
<path opacity="0.5" d="M338.052 158.759L341.552 155.259" stroke="#F7B7C6" stroke-width="4.8555" stroke-miterlimit="10" stroke-linecap="round" stroke-linejoin="round"/>
<path opacity="0.5" d="M356.752 139.959L360.252 136.559" stroke="#F7B7C6" stroke-width="4.8555" stroke-miterlimit="10" stroke-linecap="round" stroke-linejoin="round"/>
<path opacity="0.5" d="M360.252 158.759L356.752 155.259" stroke="#F7B7C6" stroke-width="4.8555" stroke-miterlimit="10" stroke-linecap="round" stroke-linejoin="round"/>
<path opacity="0.5" d="M341.552 139.959L338.052 136.559" stroke="#F7B7C6" stroke-width="4.8555" stroke-miterlimit="10" stroke-linecap="round" stroke-linejoin="round"/>
<path d="M91.5969 136.687H160.199C168.892 136.687 175.972 143.767 175.972 152.46V294.952C175.972 303.644 168.892 310.724 160.199 310.724H91.5969C82.904 310.724 75.8242 303.644 75.8242 294.952V152.46C75.8242 143.767 82.8592 136.687 91.5969 136.687Z" fill="url(#paint4_linear_128_14779)"/>
<path fill-rule="evenodd" clip-rule="evenodd" d="M160.199 137.583H91.5969C83.3558 137.583 76.7204 144.26 76.7204 152.46V294.952C76.7204 303.149 83.3989 309.828 91.5969 309.828H160.199C168.397 309.828 175.076 303.149 175.076 294.952V152.46C175.076 144.262 168.397 137.583 160.199 137.583ZM160.199 136.687H91.5969C82.8592 136.687 75.8242 143.767 75.8242 152.46V294.952C75.8242 303.644 82.904 310.724 91.5969 310.724H160.199C168.892 310.724 175.972 303.644 175.972 294.952V152.46C175.972 143.767 168.892 136.687 160.199 136.687Z" fill="url(#paint5_linear_128_14779)"/>
<path fill-rule="evenodd" clip-rule="evenodd" d="M91.5968 137.775C83.4619 137.775 76.912 144.366 76.912 152.46V294.952C76.912 303.044 83.5047 309.636 91.5968 309.636H160.199C168.291 309.636 174.884 303.044 174.884 294.952V152.46C174.884 144.368 168.291 137.775 160.199 137.775H91.5968ZM74.7363 152.46C74.7363 143.168 82.2563 135.599 91.5968 135.599H160.199C169.493 135.599 177.06 143.166 177.06 152.46V294.952C177.06 304.245 169.493 311.812 160.199 311.812H91.5968C82.3031 311.812 74.7363 304.245 74.7363 294.952V152.46Z" fill="url(#paint6_linear_128_14779)"/>
<path fill-rule="evenodd" clip-rule="evenodd" d="M119.276 145.828C119.276 145.227 119.763 144.74 120.364 144.74H131.074C131.674 144.74 132.161 145.227 132.161 145.828C132.161 146.428 131.674 146.915 131.074 146.915H120.364C119.763 146.915 119.276 146.428 119.276 145.828Z" fill="#47C0F5"/>
<path d="M136.63 145.828C136.63 145.066 136.003 144.483 135.286 144.483C134.524 144.483 133.941 145.111 133.941 145.828C133.941 146.589 134.569 147.172 135.286 147.172C136.003 147.172 136.63 146.589 136.63 145.828Z" fill="#47C0F5"/>
<path d="M159.482 297.102H92.3135C83.7998 297.102 76.8545 290.202 76.8545 281.643V294.906C76.8545 303.42 83.755 310.365 92.3135 310.365H159.482C167.995 310.365 174.941 303.465 174.941 294.906V281.643C174.941 290.202 167.995 297.102 159.482 297.102Z" fill="#48C0F6"/>
<path fill-rule="evenodd" clip-rule="evenodd" d="M114.526 304.002C114.526 303.402 115.013 302.915 115.614 302.915H136.181C136.782 302.915 137.269 303.402 137.269 304.002C137.269 304.603 136.782 305.09 136.181 305.09H115.614C115.013 305.09 114.526 304.603 114.526 304.002Z" fill="white"/>
<path d="M183.954 271.035C169.758 274.298 155.675 265.426 152.412 251.284C149.149 237.087 158.021 223.004 172.162 219.74C186.358 216.477 200.441 225.349 203.704 239.492C206.967 253.632 198.152 267.772 183.954 271.035Z" fill="url(#paint7_linear_128_14779)" stroke="#47C0F5" stroke-width="2"/>
<path d="M170.593 258.278C170.266 258.144 170.103 257.787 170.221 257.461L170.593 258.278ZM170.593 258.278L170.593 258.278L170.593 258.278ZM191.988 249.052L191.988 249.052L191.99 249.047C192.018 248.983 191.994 248.887 191.908 248.841L188.764 247.239C188.764 247.239 188.763 247.239 188.762 247.238C188.322 247.017 188.108 246.546 188.132 246.111L188.132 246.109C188.161 245.623 188.161 245.138 188.132 244.668L188.132 244.665C188.108 244.229 188.322 243.759 188.762 243.538C188.763 243.537 188.763 243.537 188.764 243.537L191.908 241.935C191.993 241.889 192.021 241.806 191.987 241.722C191.987 241.722 191.987 241.722 191.987 241.721L190.49 238.118C190.489 238.118 190.489 238.117 190.489 238.117C190.457 238.044 190.367 238.001 190.285 238.026C190.284 238.026 190.284 238.026 190.284 238.026L186.934 239.123C186.469 239.285 185.98 239.113 185.683 238.77C185.366 238.409 185.043 238.073 184.683 237.768L184.68 237.766C184.335 237.47 184.162 236.98 184.324 236.513L185.422 233.16L185.425 233.152L185.427 233.144C185.451 233.079 185.424 232.997 185.336 232.961L185.334 232.96L181.726 231.46C181.726 231.46 181.725 231.46 181.725 231.46C181.642 231.426 181.558 231.454 181.512 231.54L179.911 234.683C179.91 234.684 179.91 234.684 179.91 234.685C179.688 235.125 179.218 235.339 178.782 235.315L178.78 235.315C178.294 235.287 177.809 235.287 177.339 235.315L177.337 235.315C176.901 235.339 176.43 235.125 176.209 234.685C176.209 234.684 176.208 234.684 176.208 234.683L174.607 231.54C174.561 231.454 174.477 231.426 174.394 231.46C174.393 231.46 174.393 231.46 174.393 231.46L170.788 232.958C170.715 232.991 170.672 233.081 170.697 233.162C170.698 233.163 170.698 233.163 170.698 233.164L171.795 236.513C171.956 236.979 171.785 237.468 171.441 237.764C171.081 238.081 170.744 238.404 170.44 238.765L170.438 238.767C170.142 239.112 169.651 239.285 169.185 239.123L165.831 238.025L165.823 238.023L165.816 238.02C165.751 237.996 165.668 238.023 165.632 238.111L165.631 238.113L164.132 241.721C164.131 241.722 164.131 241.722 164.131 241.722C164.098 241.806 164.125 241.889 164.211 241.935L167.354 243.537C167.355 243.537 167.356 243.537 167.356 243.538C167.797 243.759 168.011 244.229 167.987 244.665L167.987 244.667C167.958 245.153 167.958 245.638 167.987 246.108L167.987 246.111C168.011 246.546 167.797 247.017 167.356 247.238C167.356 247.239 167.355 247.239 167.354 247.239L164.211 248.841C164.125 248.886 164.098 248.97 164.131 249.054C164.131 249.054 164.131 249.054 164.132 249.054L165.63 252.659C165.662 252.732 165.752 252.775 165.834 252.75L169.185 251.653C169.65 251.491 170.139 251.663 170.435 252.006C170.753 252.367 171.076 252.703 171.436 253.008L171.436 253.008L171.438 253.01C171.784 253.306 171.956 253.796 171.795 254.263L170.697 257.616L170.694 257.624L170.691 257.631C170.668 257.697 170.695 257.779 170.782 257.815L170.782 257.815L170.785 257.816L174.393 259.316C174.393 259.316 174.393 259.316 174.394 259.316C174.477 259.35 174.561 259.322 174.607 259.236L176.208 256.093C176.208 256.092 176.209 256.091 176.209 256.091C176.43 255.651 176.901 255.436 177.337 255.461L177.338 255.461C177.824 255.489 178.31 255.489 178.779 255.461L178.782 255.461C179.218 255.436 179.689 255.651 179.91 256.091C179.91 256.092 179.91 256.092 179.911 256.093L181.512 259.236C181.558 259.322 181.642 259.35 181.725 259.316C181.725 259.316 181.726 259.316 181.726 259.316L185.33 257.817C185.403 257.785 185.446 257.695 185.421 257.613C185.421 257.613 185.421 257.613 185.421 257.612L184.324 254.263C184.163 253.797 184.334 253.308 184.678 253.012C185.038 252.695 185.374 252.371 185.679 252.011L185.681 252.009C185.977 251.664 186.467 251.491 186.934 251.653L190.288 252.751L190.295 252.753L190.303 252.756C190.368 252.78 190.451 252.753 190.486 252.665L190.487 252.662L191.988 249.052ZM165.17 237.921C165.303 237.595 165.66 237.431 165.987 237.55L165.17 237.921Z" fill="url(#paint8_linear_128_14779)" stroke="#47C0F5"/>
<path d="M181.852 240.882C184.341 242.977 184.66 246.693 182.565 249.181C180.47 251.67 176.755 251.989 174.266 249.894C171.777 247.799 171.458 244.083 173.553 241.595C175.648 239.106 179.364 238.787 181.852 240.882Z" fill="url(#paint9_linear_128_14779)" stroke="#47C0F5"/>
<path d="M127.421 235.252L149.989 208.588C150.936 207.445 150.992 205.801 150.1 204.603C148.986 203.127 146.868 202.876 145.475 204.074L123.854 222.435C123.464 222.825 122.823 222.825 122.433 222.435L111.929 215.832C110.397 214.857 108.391 215.08 107.109 216.361C105.66 217.81 105.577 220.15 106.942 221.683L119.006 235.335C121.263 237.871 125.22 237.815 127.421 235.252Z" fill="white"/>
<g clip-path="url(#clip0_128_14779)">
<path d="M234.948 202.884L230.323 200.243L231.873 197.603L234.948 199.355L238.047 197.603L239.573 200.243L234.948 202.884Z" fill="url(#paint10_linear_128_14779)"/>
<path d="M224.149 196.739L216.715 192.515L218.265 189.85L225.698 194.075L224.149 196.739ZM210.541 188.962L203.108 184.738L204.657 182.074L212.091 186.298L210.541 188.962ZM196.958 181.21L189.524 176.985L191.074 174.321L198.507 178.545L196.958 181.21ZM183.35 173.457L175.916 169.232L177.466 166.568L184.899 170.793L183.35 173.457ZM169.742 165.68L162.309 161.456L163.858 158.792L171.292 163.016L169.742 165.68Z" fill="url(#paint11_linear_128_14779)"/>
<path d="M156.134 157.927L149.96 154.399L156.134 150.871L157.684 153.535L156.159 154.399L157.684 155.263L156.134 157.927Z" fill="url(#paint12_linear_128_14779)"/>
<path d="M163.858 150.006L162.309 147.342L169.742 143.118L171.292 145.782L163.858 150.006ZM177.466 142.254L175.916 139.59L183.35 135.365L184.899 138.029L177.466 142.254ZM191.074 134.501L189.524 131.837L196.958 127.612L198.507 130.277L191.074 134.501ZM204.681 126.724L203.132 124.06L210.565 119.836L212.115 122.5L204.681 126.724ZM218.265 118.972L216.715 116.307L224.149 112.083L225.698 114.747L218.265 118.972Z" fill="url(#paint13_linear_128_14779)"/>
<path d="M231.873 111.219L230.323 108.555L234.948 105.915L239.573 108.555L238.047 111.219L234.948 109.467L231.873 111.219Z" fill="url(#paint14_linear_128_14779)"/>
<path d="M306.038 150.006L298.628 145.782L300.178 143.118L307.612 147.342L306.038 150.006ZM292.454 142.254L285.021 138.029L286.57 135.365L294.004 139.59L292.454 142.254ZM278.846 134.501L271.413 130.277L272.963 127.612L280.396 131.837L278.846 134.501ZM265.239 126.724L257.805 122.5L259.355 119.836L266.788 124.06L265.239 126.724ZM251.631 118.972L244.222 114.747L245.771 112.083L253.205 116.307L251.631 118.972Z" fill="url(#paint15_linear_128_14779)"/>
<path d="M313.761 157.927L312.236 155.263L313.737 154.399L312.236 153.535L313.761 150.871L319.96 154.399L313.761 157.927Z" fill="url(#paint16_linear_128_14779)"/>
<path d="M245.771 196.739L244.222 194.075L251.655 189.85L253.205 192.515L245.771 196.739ZM259.355 188.962L257.805 186.298L265.239 182.074L266.788 184.738L259.355 188.962ZM272.963 181.21L271.413 178.545L278.846 174.321L280.396 176.985L272.963 181.21ZM286.57 173.457L285.021 170.793L292.454 166.568L294.004 169.232L286.57 173.457ZM300.178 165.68L298.628 163.016L306.062 158.792L307.612 161.456L300.178 165.68Z" fill="url(#paint17_linear_128_14779)"/>
<g opacity="0.9">
<path d="M234.948 165.226L153.059 118.494L234.948 71.7856L316.861 118.494L234.948 165.226Z" fill="url(#paint18_linear_128_14779)"/>
</g>
<g opacity="0.89">
<path d="M234.948 131.098L149.96 82.6133L234.948 34.1289L319.936 82.6133L234.948 131.098ZM156.159 82.6133L234.948 127.545L313.737 82.5893L234.948 37.6572L156.159 82.6133Z" fill="url(#paint19_linear_128_14779)"/>
</g>
<g opacity="0.89">
<path d="M234.948 93.4405L153.059 46.7083L234.948 0L316.861 46.7083L234.948 93.4405Z" fill="url(#paint20_linear_128_14779)"/>
</g>
</g>
<path opacity="0.5" d="M342.973 264.291L364.473 270.091C368.473 271.191 372.173 267.491 371.073 263.491L365.273 241.991C364.173 237.991 359.173 236.591 356.173 239.591L340.473 255.291C337.573 258.191 338.973 263.291 342.973 264.291Z" stroke="#31BFBA" stroke-width="4.8555" stroke-miterlimit="10" stroke-linecap="round" stroke-linejoin="round"/>
<defs>
<linearGradient id="paint0_linear_128_14779" x1="180.594" y1="329.244" x2="180.729" y2="449.759" gradientUnits="userSpaceOnUse">
<stop stop-color="#CBCBCB"/>
<stop offset="1" stop-color="white" stop-opacity="0"/>
</linearGradient>
<linearGradient id="paint1_linear_128_14779" x1="180.594" y1="329.244" x2="180.594" y2="418.907" gradientUnits="userSpaceOnUse">
<stop stop-color="#A5A5A5"/>
<stop offset="1" stop-color="white" stop-opacity="0"/>
</linearGradient>
<linearGradient id="paint2_linear_128_14779" x1="179.348" y1="301.847" x2="179.399" y2="375.495" gradientUnits="userSpaceOnUse">
<stop stop-color="#CBCBCB"/>
<stop offset="1" stop-color="white" stop-opacity="0"/>
</linearGradient>
<linearGradient id="paint3_linear_128_14779" x1="179.348" y1="301.847" x2="179.348" y2="356.641" gradientUnits="userSpaceOnUse">
<stop stop-color="#A5A5A5"/>
<stop offset="1" stop-color="white" stop-opacity="0"/>
</linearGradient>
<linearGradient id="paint4_linear_128_14779" x1="125.898" y1="136.687" x2="127.706" y2="370.593" gradientUnits="userSpaceOnUse">
<stop stop-color="#75D4FF"/>
<stop offset="1" stop-color="white" stop-opacity="0"/>
</linearGradient>
<linearGradient id="paint5_linear_128_14779" x1="125.898" y1="136.687" x2="125.898" y2="310.724" gradientUnits="userSpaceOnUse">
<stop stop-color="#47C0F5"/>
<stop offset="1" stop-color="white" stop-opacity="0"/>
</linearGradient>
<linearGradient id="paint6_linear_128_14779" x1="125.898" y1="135.599" x2="125.898" y2="311.812" gradientUnits="userSpaceOnUse">
<stop stop-color="#47C0F5"/>
<stop offset="1" stop-color="white" stop-opacity="0"/>
</linearGradient>
<linearGradient id="paint7_linear_128_14779" x1="150.736" y1="208.49" x2="227.507" y2="233.938" gradientUnits="userSpaceOnUse">
<stop stop-color="white"/>
<stop stop-color="white"/>
<stop offset="1" stop-color="white"/>
</linearGradient>
<linearGradient id="paint8_linear_128_14779" x1="178.059" y1="259.83" x2="178.232" y2="221.008" gradientUnits="userSpaceOnUse">
<stop stop-color="#75D4FF"/>
<stop offset="1" stop-color="white" stop-opacity="0"/>
</linearGradient>
<linearGradient id="paint9_linear_128_14779" x1="167.343" y1="244.719" x2="183.458" y2="234.817" gradientUnits="userSpaceOnUse">
<stop stop-color="white"/>
<stop stop-color="white"/>
<stop offset="1" stop-color="white"/>
</linearGradient>
<linearGradient id="paint10_linear_128_14779" x1="230.323" y1="196.678" x2="241.109" y2="202.94" gradientUnits="userSpaceOnUse">
<stop stop-color="#51C3F6"/>
<stop stop-color="#33B6F0"/>
<stop offset="1" stop-color="#0094BB"/>
</linearGradient>
<linearGradient id="paint11_linear_128_14779" x1="162.309" y1="152.143" x2="237.954" y2="194.029" gradientUnits="userSpaceOnUse">
<stop stop-color="#51C3F6"/>
<stop stop-color="#33B6F0"/>
<stop offset="1" stop-color="#0094BB"/>
</linearGradient>
<linearGradient id="paint12_linear_128_14779" x1="149.96" y1="149.634" x2="160.602" y2="153.496" gradientUnits="userSpaceOnUse">
<stop stop-color="#51C3F6"/>
<stop stop-color="#33B6F0"/>
<stop offset="1" stop-color="#0094BB"/>
</linearGradient>
<linearGradient id="paint13_linear_128_14779" x1="162.309" y1="105.439" x2="237.931" y2="147.339" gradientUnits="userSpaceOnUse">
<stop stop-color="#51C3F6"/>
<stop stop-color="#33B6F0"/>
<stop offset="1" stop-color="#0094BB"/>
</linearGradient>
<linearGradient id="paint14_linear_128_14779" x1="230.323" y1="104.985" x2="241.134" y2="111.234" gradientUnits="userSpaceOnUse">
<stop stop-color="#51C3F6"/>
<stop stop-color="#33B6F0"/>
<stop offset="1" stop-color="#0094BB"/>
</linearGradient>
<linearGradient id="paint15_linear_128_14779" x1="244.222" y1="105.439" x2="319.844" y2="147.339" gradientUnits="userSpaceOnUse">
<stop stop-color="#51C3F6"/>
<stop stop-color="#33B6F0"/>
<stop offset="1" stop-color="#0094BB"/>
</linearGradient>
<linearGradient id="paint16_linear_128_14779" x1="312.236" y1="149.634" x2="322.878" y2="153.496" gradientUnits="userSpaceOnUse">
<stop stop-color="#51C3F6"/>
<stop stop-color="#33B6F0"/>
<stop offset="1" stop-color="#0094BB"/>
</linearGradient>
<linearGradient id="paint17_linear_128_14779" x1="244.222" y1="152.143" x2="319.867" y2="194.029" gradientUnits="userSpaceOnUse">
<stop stop-color="#51C3F6"/>
<stop stop-color="#33B6F0"/>
<stop offset="1" stop-color="#0094BB"/>
</linearGradient>
<linearGradient id="paint18_linear_128_14779" x1="234.96" y1="71.7856" x2="235.278" y2="197.376" gradientUnits="userSpaceOnUse">
<stop stop-color="#75D4FF"/>
<stop offset="1" stop-color="white" stop-opacity="0"/>
</linearGradient>
<linearGradient id="paint19_linear_128_14779" x1="234.948" y1="34.1289" x2="235.279" y2="164.462" gradientUnits="userSpaceOnUse">
<stop stop-color="#75D4FF"/>
<stop offset="1" stop-color="white" stop-opacity="0"/>
</linearGradient>
<linearGradient id="paint20_linear_128_14779" x1="234.96" y1="0" x2="235.278" y2="125.591" gradientUnits="userSpaceOnUse">
<stop stop-color="#75D4FF"/>
<stop offset="1" stop-color="white" stop-opacity="0"/>
</linearGradient>
<clipPath id="clip0_128_14779">
<rect width="170" height="203" fill="white" transform="translate(149.96)"/>
</clipPath>
</defs>
</svg>
