<svg width="417" height="424" viewBox="0 0 417 424" fill="none" xmlns="http://www.w3.org/2000/svg">
<path opacity="0.3" d="M27.3992 400.104V337.319C28.014 337.967 28.8148 338.705 29.8553 339.513C33.4741 342.322 40.0096 345.986 51.767 349.627C75.2742 356.906 119.826 364.142 204.144 364.142C288.461 364.142 332.871 356.906 356.236 349.626C367.923 345.986 374.389 342.321 377.956 339.509C378.95 338.724 379.721 338.005 380.316 337.371V400.991C348.919 416.237 296.325 422.864 204.144 422.864C111.947 422.864 63.3876 416.237 27.3992 400.104Z" fill="url(#paint0_linear_128_14754)" stroke="url(#paint1_linear_128_14754)" stroke-width="2"/>
<path opacity="0.3" d="M379.071 334.201C379.071 335.623 378.136 337.21 375.863 338.925C373.614 340.622 370.233 342.302 365.783 343.926C356.894 347.171 343.975 350.111 327.942 352.586C295.893 357.534 251.582 360.598 202.612 360.598C153.643 360.598 109.332 357.534 77.2828 352.586C61.2504 350.111 48.3312 347.171 39.4423 343.926C34.992 342.302 31.6111 340.622 29.3614 338.925C27.089 337.21 26.1538 335.623 26.1538 334.201C26.1538 332.78 27.089 331.193 29.3614 329.478C31.6111 327.781 34.992 326.101 39.4423 324.477C48.3312 321.232 61.2504 318.292 77.2828 315.817C109.332 310.869 153.643 307.804 202.612 307.804C251.582 307.804 295.893 310.869 327.942 315.817C343.975 318.292 356.894 321.232 365.783 324.477C370.233 326.101 373.614 327.781 375.863 329.478C378.136 331.193 379.071 332.78 379.071 334.201Z" fill="url(#paint2_linear_128_14754)" stroke="url(#paint3_linear_128_14754)" stroke-width="2"/>
<path opacity="0.5" d="M23.5732 94.8535C23.5732 100.654 18.8732 105.354 13.0732 105.354C7.27324 105.354 2.57324 100.654 2.57324 94.8535C2.57324 89.0535 7.27324 84.3535 13.0732 84.3535C18.8732 84.3535 23.5732 89.0535 23.5732 94.8535Z" stroke="#31BFBA" stroke-width="4.8555" stroke-miterlimit="10" stroke-linecap="round" stroke-linejoin="round"/>
<path opacity="0.5" d="M385.973 273.853L407.473 279.653C411.473 280.753 415.173 277.053 414.073 273.053L408.273 251.553C407.173 247.553 402.173 246.153 399.173 249.153L383.473 264.853C380.573 267.753 381.973 272.853 385.973 273.853Z" stroke="#31BFBA" stroke-width="4.8555" stroke-miterlimit="10" stroke-linecap="round" stroke-linejoin="round"/>
<rect x="0.878817" y="1.47716" width="33.6034" height="33.6034" transform="matrix(0.878817 0.477159 0 1 93.3585 109.376)" fill="url(#paint4_linear_128_14754)" stroke="url(#paint5_linear_128_14754)" stroke-width="2"/>
<rect x="-0.878817" y="1.47716" width="33.6034" height="33.6034" transform="matrix(-0.878817 0.477159 0 1 153.991 110.215)" fill="url(#paint6_linear_128_14754)" stroke="url(#paint7_linear_128_14754)" stroke-width="2"/>
<path d="M124.354 126.779L94.0706 110L124.354 93.8354L155.251 110L124.354 126.779Z" fill="url(#paint8_linear_128_14754)" stroke="url(#paint9_linear_128_14754)" stroke-width="2"/>
<rect x="0.878817" y="1.47716" width="29.6005" height="29.6005" transform="matrix(0.878817 0.477159 0 1 278.731 111.658)" fill="url(#paint10_linear_128_14754)" stroke="url(#paint11_linear_128_14754)" stroke-width="2"/>
<rect x="-0.878817" y="1.47716" width="29.6005" height="29.6005" transform="matrix(-0.878817 0.477159 0 1 332.348 112.496)" fill="url(#paint12_linear_128_14754)" stroke="url(#paint13_linear_128_14754)" stroke-width="2"/>
<path d="M306.229 127.151L279.35 112.259L306.229 97.9111L333.652 112.259L306.229 127.151Z" fill="url(#paint14_linear_128_14754)" stroke="url(#paint15_linear_128_14754)" stroke-width="2"/>
<rect x="0.878817" y="1.47716" width="43.2982" height="43.2982" transform="matrix(0.878817 0.477159 0 1 180.338 21.7921)" fill="url(#paint16_linear_128_14754)" stroke="url(#paint17_linear_128_14754)" stroke-width="2"/>
<rect x="-0.878817" y="1.47716" width="43.2982" height="43.2982" transform="matrix(-0.878817 0.477159 0 1 257.959 22.6308)" fill="url(#paint18_linear_128_14754)" stroke="url(#paint19_linear_128_14754)" stroke-width="2"/>
<path d="M219.802 43.8196L181.273 22.4722L219.802 1.90576L259.113 22.4722L219.802 43.8196Z" fill="url(#paint20_linear_128_14754)" stroke="url(#paint21_linear_128_14754)" stroke-width="2"/>
<path d="M290.576 220.786L290.581 220.796C291.058 221.91 290.589 223.276 289.43 223.886C289.428 223.887 289.427 223.888 289.425 223.888L273.181 232.164C273.18 232.164 273.179 232.165 273.178 232.165C271.545 232.983 270.693 234.771 270.789 236.488L270.789 236.492C270.94 239.061 270.94 241.629 270.789 244.119L270.789 244.124C270.693 245.842 271.545 247.63 273.178 248.448C273.179 248.448 273.18 248.449 273.181 248.449L289.425 256.724C289.426 256.725 289.428 256.726 289.429 256.727C290.587 257.336 291.065 258.63 290.575 259.83C290.575 259.831 290.574 259.831 290.574 259.832L282.834 278.455C282.833 278.457 282.832 278.459 282.832 278.46C282.344 279.591 281.038 280.194 279.841 279.815C279.84 279.815 279.839 279.814 279.837 279.814L262.521 274.144C260.79 273.539 258.919 274.164 257.763 275.509C256.094 277.404 254.367 279.204 252.426 280.847L252.421 280.851C251.073 282.007 250.445 283.881 251.051 285.614L256.724 302.938L256.729 302.954L256.734 302.969C257.158 304.133 256.587 305.425 255.378 305.92L255.373 305.922L236.739 313.667C236.738 313.667 236.738 313.668 236.737 313.668C235.537 314.158 234.243 313.679 233.634 312.522C233.633 312.521 233.632 312.519 233.632 312.518L225.356 296.274C225.356 296.273 225.356 296.272 225.355 296.271C224.537 294.638 222.749 293.786 221.032 293.882L221.028 293.882C218.459 294.033 215.891 294.033 213.401 293.882L213.396 293.882C211.678 293.786 209.89 294.638 209.072 296.271C209.072 296.272 209.071 296.273 209.071 296.274L200.796 312.518C200.795 312.519 200.794 312.521 200.793 312.522C200.184 313.68 198.89 314.157 197.69 313.668C197.69 313.668 197.689 313.667 197.688 313.667L179.065 305.926C179.063 305.926 179.062 305.925 179.06 305.924C177.929 305.437 177.326 304.13 177.705 302.933C177.706 302.932 177.706 302.931 177.706 302.93L183.376 285.613C183.981 283.883 183.356 282.012 182.012 280.856C180.116 279.188 178.316 277.46 176.673 275.519L176.669 275.514C175.513 274.165 173.639 273.538 171.907 274.144L154.582 279.816L154.567 279.822L154.551 279.827C153.387 280.25 152.095 279.68 151.6 278.471L151.598 278.465L143.853 259.832C143.853 259.831 143.853 259.83 143.852 259.83C143.363 258.63 143.841 257.336 144.998 256.727C144.999 256.726 145.001 256.725 145.002 256.724L161.246 248.449C161.248 248.449 161.249 248.448 161.25 248.447C162.883 247.629 163.734 245.842 163.639 244.124L163.638 244.121C163.487 241.552 163.487 238.984 163.638 236.494L163.639 236.488C163.734 234.771 162.883 232.984 161.25 232.166C161.249 232.165 161.248 232.164 161.246 232.164L145.002 223.888C145.001 223.888 144.999 223.887 144.998 223.886C143.841 223.277 143.363 221.983 143.852 220.783C143.853 220.782 143.853 220.782 143.853 220.781L151.596 202.153C152.083 201.022 153.39 200.419 154.586 200.798C154.588 200.798 154.589 200.799 154.59 200.799L171.907 206.469C173.637 207.074 175.508 206.449 176.664 205.104C178.333 203.209 180.06 201.409 182.001 199.766L182.006 199.762C183.355 198.606 183.982 196.732 183.376 194.999L177.704 177.675L177.699 177.659L177.693 177.644C177.27 176.48 177.841 175.187 179.05 174.693L179.055 174.691L197.688 166.946C197.689 166.946 197.69 166.945 197.691 166.945C198.89 166.456 200.184 166.933 200.793 168.09C200.794 168.092 200.795 168.094 200.796 168.095L209.071 184.339C209.072 184.34 209.072 184.342 209.073 184.343C209.891 185.975 211.678 186.827 213.396 186.731L213.399 186.731C215.968 186.58 218.536 186.58 221.027 186.731L221.032 186.731C222.749 186.827 224.536 185.975 225.355 184.343C225.355 184.342 225.356 184.34 225.356 184.339L233.632 168.095C233.632 168.094 233.633 168.092 233.634 168.091C234.243 166.933 235.537 166.455 236.737 166.945C236.738 166.945 236.738 166.946 236.739 166.946L255.363 174.687C255.364 174.687 255.366 174.688 255.367 174.688C256.498 175.176 257.101 176.482 256.722 177.679C256.722 177.68 256.722 177.681 256.721 177.683L251.051 194.999C250.446 196.73 251.071 198.601 252.416 199.757C254.312 201.426 256.112 203.153 257.754 205.094L257.759 205.099C258.914 206.448 260.788 207.075 262.521 206.469L279.845 200.796L279.861 200.791L279.876 200.786C281.04 200.362 282.333 200.933 282.827 202.142L282.829 202.147L290.576 220.786ZM255.757 306.846C257.444 306.155 258.288 304.314 257.674 302.627L255.757 306.846Z" fill="url(#paint22_linear_128_14754)" stroke="#47C0F5" stroke-width="2"/>
<path d="M241.783 211.059C257.888 224.617 259.953 248.663 246.396 264.767C232.838 280.872 208.792 282.937 192.687 269.38C176.582 255.822 174.517 231.776 188.075 215.671C201.632 199.566 225.679 197.501 241.783 211.059Z" fill="url(#paint23_linear_128_14754)" stroke="#47C0F5" stroke-width="2"/>
<path d="M208.124 260.134L191.556 243.567C190.866 242.876 190.866 241.803 191.556 241.189L197.002 235.743C197.692 235.053 198.766 235.053 199.38 235.743L208.737 245.101C209.428 245.791 210.501 245.791 211.115 245.101L235.2 221.016C235.89 220.326 236.964 220.326 237.577 221.016L243.023 226.462C243.714 227.152 243.714 228.226 243.023 228.84L211.729 260.134C210.732 261.131 209.121 261.131 208.124 260.134Z" fill="#1EA8DA"/>
<path d="M144 103L194 75" stroke="#75D4FF"/>
<path d="M241 78L291 105" stroke="#75D4FF"/>
<defs>
<linearGradient id="paint0_linear_128_14754" x1="203.858" y1="334.201" x2="203.993" y2="454.716" gradientUnits="userSpaceOnUse">
<stop stop-color="#CBCBCB"/>
<stop offset="1" stop-color="white" stop-opacity="0"/>
</linearGradient>
<linearGradient id="paint1_linear_128_14754" x1="203.858" y1="334.201" x2="203.858" y2="423.864" gradientUnits="userSpaceOnUse">
<stop stop-color="#A5A5A5"/>
<stop offset="1" stop-color="white" stop-opacity="0"/>
</linearGradient>
<linearGradient id="paint2_linear_128_14754" x1="202.612" y1="306.804" x2="202.663" y2="380.452" gradientUnits="userSpaceOnUse">
<stop stop-color="#CBCBCB"/>
<stop offset="1" stop-color="white" stop-opacity="0"/>
</linearGradient>
<linearGradient id="paint3_linear_128_14754" x1="202.612" y1="306.804" x2="202.612" y2="361.598" gradientUnits="userSpaceOnUse">
<stop stop-color="#A5A5A5"/>
<stop offset="1" stop-color="white" stop-opacity="0"/>
</linearGradient>
<linearGradient id="paint4_linear_128_14754" x1="17.8017" y1="0" x2="18.0145" y2="47.8528" gradientUnits="userSpaceOnUse">
<stop stop-color="#75D4FF"/>
<stop offset="1" stop-color="white" stop-opacity="0"/>
</linearGradient>
<linearGradient id="paint5_linear_128_14754" x1="17.8017" y1="0" x2="17.8017" y2="35.6034" gradientUnits="userSpaceOnUse">
<stop stop-color="#47C0F5"/>
<stop offset="1" stop-color="white" stop-opacity="0"/>
</linearGradient>
<linearGradient id="paint6_linear_128_14754" x1="17.8017" y1="0" x2="18.0145" y2="47.8528" gradientUnits="userSpaceOnUse">
<stop stop-color="#75D4FF"/>
<stop offset="1" stop-color="white" stop-opacity="0"/>
</linearGradient>
<linearGradient id="paint7_linear_128_14754" x1="17.8017" y1="0" x2="17.8017" y2="35.6034" gradientUnits="userSpaceOnUse">
<stop stop-color="#47C0F5"/>
<stop offset="1" stop-color="white" stop-opacity="0"/>
</linearGradient>
<linearGradient id="paint8_linear_128_14754" x1="124.661" y1="93.8354" x2="124.767" y2="138.114" gradientUnits="userSpaceOnUse">
<stop stop-color="#75D4FF"/>
<stop offset="1" stop-color="white" stop-opacity="0"/>
</linearGradient>
<linearGradient id="paint9_linear_128_14754" x1="124.661" y1="93.8354" x2="124.661" y2="126.779" gradientUnits="userSpaceOnUse">
<stop stop-color="#47C0F5"/>
<stop offset="1" stop-color="white" stop-opacity="0"/>
</linearGradient>
<linearGradient id="paint10_linear_128_14754" x1="15.8003" y1="0" x2="15.9892" y2="42.4728" gradientUnits="userSpaceOnUse">
<stop stop-color="#75D4FF"/>
<stop offset="1" stop-color="white" stop-opacity="0"/>
</linearGradient>
<linearGradient id="paint11_linear_128_14754" x1="15.8003" y1="0" x2="15.8003" y2="31.6005" gradientUnits="userSpaceOnUse">
<stop stop-color="#47C0F5"/>
<stop offset="1" stop-color="white" stop-opacity="0"/>
</linearGradient>
<linearGradient id="paint12_linear_128_14754" x1="15.8003" y1="0" x2="15.9892" y2="42.4728" gradientUnits="userSpaceOnUse">
<stop stop-color="#75D4FF"/>
<stop offset="1" stop-color="white" stop-opacity="0"/>
</linearGradient>
<linearGradient id="paint13_linear_128_14754" x1="15.8003" y1="0" x2="15.8003" y2="31.6005" gradientUnits="userSpaceOnUse">
<stop stop-color="#47C0F5"/>
<stop offset="1" stop-color="white" stop-opacity="0"/>
</linearGradient>
<linearGradient id="paint14_linear_128_14754" x1="306.501" y1="97.9111" x2="306.595" y2="137.211" gradientUnits="userSpaceOnUse">
<stop stop-color="#75D4FF"/>
<stop offset="1" stop-color="white" stop-opacity="0"/>
</linearGradient>
<linearGradient id="paint15_linear_128_14754" x1="306.501" y1="97.9111" x2="306.501" y2="127.151" gradientUnits="userSpaceOnUse">
<stop stop-color="#47C0F5"/>
<stop offset="1" stop-color="white" stop-opacity="0"/>
</linearGradient>
<linearGradient id="paint16_linear_128_14754" x1="22.6491" y1="0" x2="22.9199" y2="60.8832" gradientUnits="userSpaceOnUse">
<stop stop-color="#75D4FF"/>
<stop offset="1" stop-color="white" stop-opacity="0"/>
</linearGradient>
<linearGradient id="paint17_linear_128_14754" x1="22.6491" y1="0" x2="22.6491" y2="45.2982" gradientUnits="userSpaceOnUse">
<stop stop-color="#47C0F5"/>
<stop offset="1" stop-color="white" stop-opacity="0"/>
</linearGradient>
<linearGradient id="paint18_linear_128_14754" x1="22.6491" y1="0" x2="22.9199" y2="60.8832" gradientUnits="userSpaceOnUse">
<stop stop-color="#75D4FF"/>
<stop offset="1" stop-color="white" stop-opacity="0"/>
</linearGradient>
<linearGradient id="paint19_linear_128_14754" x1="22.6491" y1="0" x2="22.6491" y2="45.2982" gradientUnits="userSpaceOnUse">
<stop stop-color="#47C0F5"/>
<stop offset="1" stop-color="white" stop-opacity="0"/>
</linearGradient>
<linearGradient id="paint20_linear_128_14754" x1="220.193" y1="1.90576" x2="220.328" y2="58.241" gradientUnits="userSpaceOnUse">
<stop stop-color="#75D4FF"/>
<stop offset="1" stop-color="white" stop-opacity="0"/>
</linearGradient>
<linearGradient id="paint21_linear_128_14754" x1="220.193" y1="1.90576" x2="220.193" y2="43.8196" gradientUnits="userSpaceOnUse">
<stop stop-color="#47C0F5"/>
<stop offset="1" stop-color="white" stop-opacity="0"/>
</linearGradient>
<linearGradient id="paint22_linear_128_14754" x1="217.214" y1="165.754" x2="218.105" y2="366.159" gradientUnits="userSpaceOnUse">
<stop stop-color="#75D4FF"/>
<stop offset="1" stop-color="white" stop-opacity="0"/>
</linearGradient>
<linearGradient id="paint23_linear_128_14754" x1="151.632" y1="236.125" x2="250.285" y2="175.507" gradientUnits="userSpaceOnUse">
<stop stop-color="white"/>
<stop stop-color="white"/>
<stop offset="1" stop-color="white"/>
</linearGradient>
</defs>
</svg>
