<svg width="374" height="413" viewBox="0 0 374 413" fill="none" xmlns="http://www.w3.org/2000/svg">
<path opacity="0.3" d="M3.72583 388.563V325.778C4.34064 326.426 5.14145 327.164 6.18195 327.972C9.80075 330.781 16.3362 334.445 28.0936 338.086C51.6008 345.365 96.1532 352.601 180.47 352.601C264.787 352.601 309.198 345.365 332.563 338.085C344.249 334.445 350.715 330.78 354.282 327.967C355.277 327.183 356.047 326.464 356.643 325.83V389.45C325.246 404.696 272.652 411.323 180.47 411.323C88.2735 411.323 39.7142 404.696 3.72583 388.563Z" fill="url(#paint0_linear_128_14860)" stroke="url(#paint1_linear_128_14860)" stroke-width="2"/>
<path opacity="0.3" d="M355.398 322.66C355.398 324.081 354.463 325.669 352.19 327.383C349.94 329.08 346.56 330.76 342.109 332.385C333.22 335.629 320.301 338.569 304.269 341.044C272.219 345.992 227.908 349.057 178.939 349.057C129.97 349.057 85.6588 345.992 53.6095 341.044C37.577 338.569 24.6579 335.629 15.7689 332.385C11.3186 330.76 7.93775 329.08 5.68808 327.383C3.41567 325.669 2.48047 324.081 2.48047 322.66C2.48047 321.239 3.41567 319.651 5.68808 317.937C7.93775 316.239 11.3186 314.559 15.7689 312.935C24.6579 309.69 37.577 306.751 53.6095 304.275C85.6588 299.327 129.97 296.263 178.939 296.263C227.908 296.263 272.219 299.327 304.269 304.275C320.301 306.751 333.22 309.69 342.109 312.935C346.56 314.559 349.94 316.239 352.19 317.937C354.463 319.651 355.398 321.239 355.398 322.66Z" fill="url(#paint2_linear_128_14860)" stroke="url(#paint3_linear_128_14860)" stroke-width="2"/>
<path opacity="0.5" d="M23.7256 67.6709C23.7256 73.4709 19.0256 78.1709 13.2256 78.1709C7.42559 78.1709 2.72559 73.4709 2.72559 67.6709C2.72559 61.8709 7.42559 57.1709 13.2256 57.1709C19.0256 57.1709 23.7256 61.8709 23.7256 67.6709Z" stroke="#F7B7C6" stroke-width="4.8555" stroke-miterlimit="10" stroke-linecap="round" stroke-linejoin="round"/>
<path opacity="0.5" d="M337.643 152.175L341.143 148.675" stroke="#F7B7C6" stroke-width="4.8555" stroke-miterlimit="10" stroke-linecap="round" stroke-linejoin="round"/>
<path opacity="0.5" d="M356.343 133.375L359.843 129.975" stroke="#F7B7C6" stroke-width="4.8555" stroke-miterlimit="10" stroke-linecap="round" stroke-linejoin="round"/>
<path opacity="0.5" d="M359.843 152.175L356.343 148.675" stroke="#F7B7C6" stroke-width="4.8555" stroke-miterlimit="10" stroke-linecap="round" stroke-linejoin="round"/>
<path opacity="0.5" d="M341.143 133.375L337.643 129.975" stroke="#F7B7C6" stroke-width="4.8555" stroke-miterlimit="10" stroke-linecap="round" stroke-linejoin="round"/>
<g clip-path="url(#clip0_128_14860)">
<rect x="79.0945" y="5.68115" width="174.589" height="213.657" rx="12" fill="url(#paint4_linear_128_14860)"/>
<mask id="path-9-inside-1_128_14860" fill="white">
<path fill-rule="evenodd" clip-rule="evenodd" d="M159.552 52.4274C159.552 54.942 159.364 57.182 158.987 59.1474C158.611 61.1129 158.003 62.7893 157.163 64.1766C156.353 65.5351 155.281 66.5756 153.949 67.2982C152.646 68.0208 151.068 68.3821 149.215 68.3821C146.899 68.3821 144.974 67.7462 143.439 66.4744C141.933 65.2027 140.804 63.3818 140.051 61.0117C139.328 58.6127 138.966 55.7513 138.966 52.4274C138.966 49.0746 139.299 46.2132 139.965 43.8431C140.659 41.473 141.76 39.6666 143.265 38.4237C144.771 37.152 146.754 36.5161 149.215 36.5161C151.532 36.5161 153.457 37.152 154.992 38.4237C156.526 39.6666 157.67 41.473 158.423 43.8431C159.176 46.2132 159.552 49.0746 159.552 52.4274ZM142.788 52.4274C142.788 55.2599 142.99 57.6156 143.396 59.4943C143.83 61.373 144.51 62.7893 145.437 63.7431C146.392 64.668 147.652 65.1304 149.215 65.1304C150.779 65.1304 152.024 64.668 152.95 63.7431C153.906 62.8182 154.601 61.4164 155.035 59.5376C155.469 57.63 155.687 55.2599 155.687 52.4274C155.687 49.5949 155.469 47.2537 155.035 45.4039C154.601 43.5252 153.906 42.1234 152.95 41.1985C152.024 40.2446 150.779 39.7677 149.215 39.7677C147.652 39.7677 146.392 40.2446 145.437 41.1985C144.51 42.1234 143.83 43.5252 143.396 45.4039C142.99 47.2537 142.788 49.5949 142.788 52.4274ZM127.401 67.9485H123.666V46.3144V44.19C123.695 43.6119 123.724 43.0772 123.753 42.5858C123.782 42.0656 123.811 41.5308 123.84 40.9817C123.377 41.4441 122.957 41.8343 122.581 42.1523C122.204 42.4702 121.727 42.8748 121.147 43.3662L117.847 46.0542L115.849 43.4963L124.231 36.993H127.401V67.9485ZM173.375 67.9485H177.11V36.993H173.939L165.557 43.4963L167.555 46.0542L170.856 43.3662C171.435 42.8748 171.912 42.4702 172.289 42.1523C172.665 41.8343 173.085 41.4441 173.548 40.9817C173.519 41.5308 173.49 42.0656 173.461 42.5858C173.432 43.0772 173.404 43.6119 173.375 44.19V46.3144V67.9485ZM209.26 52.4274C209.26 54.942 209.072 57.182 208.696 59.1474C208.319 61.1129 207.711 62.7893 206.871 64.1766C206.061 65.5351 204.989 66.5756 203.658 67.2982C202.355 68.0208 200.777 68.3821 198.924 68.3821C196.607 68.3821 194.682 67.7462 193.147 66.4744C191.642 65.2027 190.512 63.3818 189.76 61.0117C189.036 58.6127 188.674 55.7513 188.674 52.4274C188.674 49.0746 189.007 46.2132 189.673 43.8431C190.368 41.473 191.468 39.6666 192.973 38.4237C194.479 37.152 196.462 36.5161 198.924 36.5161C201.24 36.5161 203.165 37.152 204.7 38.4237C206.234 39.6666 207.378 41.473 208.131 43.8431C208.884 46.2132 209.26 49.0746 209.26 52.4274ZM192.496 52.4274C192.496 55.2599 192.698 57.6156 193.104 59.4943C193.538 61.373 194.219 62.7893 195.145 63.7431C196.101 64.668 197.36 65.1304 198.924 65.1304C200.487 65.1304 201.732 64.668 202.659 63.7431C203.614 62.8182 204.309 61.4164 204.743 59.5376C205.178 57.63 205.395 55.2599 205.395 52.4274C205.395 49.5949 205.178 47.2537 204.743 45.4039C204.309 43.5252 203.614 42.1234 202.659 41.1985C201.732 40.2446 200.487 39.7677 198.924 39.7677C197.36 39.7677 196.101 40.2446 195.145 41.1985C194.219 42.1234 193.538 43.5252 193.104 45.4039C192.698 47.2537 192.496 49.5949 192.496 52.4274ZM159.552 109.439C159.552 111.954 159.364 114.194 158.987 116.159C158.611 118.125 158.003 119.801 157.163 121.188C156.352 122.547 155.281 123.587 153.949 124.31C152.646 125.033 151.068 125.394 149.215 125.394C146.899 125.394 144.973 124.758 143.439 123.486C141.933 122.215 140.804 120.394 140.051 118.024C139.327 115.625 138.965 112.763 138.965 109.439C138.965 106.086 139.298 103.225 139.964 100.855C140.659 98.4849 141.76 96.6784 143.265 95.4355C144.771 94.1638 146.754 93.5279 149.215 93.5279C151.531 93.5279 153.457 94.1638 154.992 95.4355C156.526 96.6784 157.67 98.4849 158.423 100.855C159.175 103.225 159.552 106.086 159.552 109.439ZM142.787 109.439C142.787 112.272 142.99 114.627 143.395 116.506C143.83 118.385 144.51 119.801 145.437 120.755C146.392 121.68 147.652 122.142 149.215 122.142C150.779 122.142 152.024 121.68 152.95 120.755C153.906 119.83 154.601 118.428 155.035 116.549C155.469 114.642 155.686 112.272 155.686 109.439C155.686 106.607 155.469 104.266 155.035 102.416C154.601 100.537 153.906 99.1352 152.95 98.2103C152.024 97.2565 150.779 96.7796 149.215 96.7796C147.652 96.7796 146.392 97.2565 145.437 98.2103C144.51 99.1352 143.83 100.537 143.395 102.416C142.99 104.266 142.787 106.607 142.787 109.439ZM127.401 124.96H123.666V103.326V101.202C123.695 100.624 123.724 100.089 123.753 99.5976C123.782 99.0774 123.811 98.5427 123.84 97.9935C123.377 98.4559 122.957 98.8461 122.58 99.1641C122.204 99.482 121.726 99.8867 121.147 100.378L117.846 103.066L115.849 100.508L124.231 94.0048H127.401V124.96ZM173.374 124.96H177.109V94.0048H173.939L165.557 100.508L167.555 103.066L170.855 100.378C171.434 99.8867 171.912 99.482 172.289 99.1641C172.665 98.8461 173.085 98.4559 173.548 97.9935C173.519 98.5427 173.49 99.0774 173.461 99.5976C173.432 100.089 173.403 100.624 173.374 101.202V103.326V124.96ZM209.26 109.439C209.26 111.954 209.072 114.194 208.695 116.159C208.319 118.125 207.711 119.801 206.871 121.188C206.06 122.547 204.989 123.587 203.657 124.31C202.354 125.033 200.776 125.394 198.923 125.394C196.607 125.394 194.682 124.758 193.147 123.486C191.641 122.215 190.512 120.394 189.759 118.024C189.036 115.625 188.674 112.763 188.674 109.439C188.674 106.086 189.007 103.225 189.673 100.855C190.367 98.4849 191.468 96.6784 192.973 95.4355C194.479 94.1638 196.462 93.5279 198.923 93.5279C201.24 93.5279 203.165 94.1638 204.7 95.4355C206.234 96.6784 207.378 98.4849 208.131 100.855C208.883 103.225 209.26 106.086 209.26 109.439ZM192.496 109.439C192.496 112.272 192.698 114.627 193.104 116.506C193.538 118.385 194.218 119.801 195.145 120.755C196.1 121.68 197.36 122.142 198.923 122.142C200.487 122.142 201.732 121.68 202.658 120.755C203.614 119.83 204.309 118.428 204.743 116.549C205.177 114.642 205.395 112.272 205.395 109.439C205.395 106.607 205.177 104.266 204.743 102.416C204.309 100.537 203.614 99.1352 202.658 98.2103C201.732 97.2565 200.487 96.7796 198.923 96.7796C197.36 96.7796 196.1 97.2565 195.145 98.2103C194.218 99.1352 193.538 100.537 193.104 102.416C192.698 104.266 192.496 106.607 192.496 109.439ZM158.987 173.171C159.364 171.206 159.552 168.966 159.552 166.451C159.552 163.098 159.175 160.237 158.423 157.867C157.67 155.497 156.526 153.69 154.992 152.447C153.457 151.176 151.531 150.54 149.215 150.54C146.754 150.54 144.771 151.176 143.265 152.447C141.76 153.69 140.659 155.497 139.964 157.867C139.298 160.237 138.965 163.098 138.965 166.451C138.965 169.775 139.327 172.636 140.051 175.035C140.804 177.405 141.933 179.226 143.439 180.498C144.973 181.77 146.899 182.406 149.215 182.406C151.068 182.406 152.646 182.044 153.949 181.322C155.281 180.599 156.352 179.559 157.163 178.2C158.003 176.813 158.611 175.137 158.987 173.171ZM143.395 173.518C142.99 171.639 142.787 169.284 142.787 166.451C142.787 163.619 142.99 161.277 143.395 159.428C143.83 157.549 144.51 156.147 145.437 155.222C146.392 154.268 147.652 153.791 149.215 153.791C150.779 153.791 152.024 154.268 152.95 155.222C153.906 156.147 154.601 157.549 155.035 159.428C155.469 161.277 155.686 163.619 155.686 166.451C155.686 169.284 155.469 171.654 155.035 173.561C154.601 175.44 153.906 176.842 152.95 177.767C152.024 178.692 150.779 179.154 149.215 179.154C147.652 179.154 146.392 178.692 145.437 177.767C144.51 176.813 143.83 175.397 143.395 173.518ZM123.666 181.972H127.401V151.017H124.231L115.849 157.52L117.846 160.078L121.147 157.39C121.726 156.899 122.204 156.494 122.58 156.176C122.957 155.858 123.377 155.468 123.84 155.005C123.811 155.555 123.782 156.089 123.753 156.609C123.724 157.101 123.695 157.636 123.666 158.214V160.338V181.972ZM177.109 181.972H173.374V160.338V158.214C173.403 157.636 173.432 157.101 173.461 156.609C173.49 156.089 173.519 155.555 173.548 155.005C173.085 155.468 172.665 155.858 172.289 156.176C171.912 156.494 171.434 156.899 170.855 157.39L167.555 160.078L165.557 157.52L173.939 151.017H177.109V181.972ZM208.695 173.171C209.072 171.206 209.26 168.966 209.26 166.451C209.26 163.098 208.883 160.237 208.131 157.867C207.378 155.497 206.234 153.69 204.7 152.447C203.165 151.176 201.24 150.54 198.923 150.54C196.462 150.54 194.479 151.176 192.973 152.447C191.468 153.69 190.367 155.497 189.673 157.867C189.007 160.237 188.674 163.098 188.674 166.451C188.674 169.775 189.036 172.636 189.759 175.035C190.512 177.405 191.641 179.226 193.147 180.498C194.682 181.77 196.607 182.406 198.923 182.406C200.776 182.406 202.354 182.044 203.657 181.322C204.989 180.599 206.06 179.559 206.871 178.2C207.711 176.813 208.319 175.137 208.695 173.171ZM193.104 173.518C192.698 171.639 192.496 169.284 192.496 166.451C192.496 163.619 192.698 161.277 193.104 159.428C193.538 157.549 194.218 156.147 195.145 155.222C196.1 154.268 197.36 153.791 198.923 153.791C200.487 153.791 201.732 154.268 202.658 155.222C203.614 156.147 204.309 157.549 204.743 159.428C205.177 161.277 205.395 163.619 205.395 166.451C205.395 169.284 205.177 171.654 204.743 173.561C204.309 175.44 203.614 176.842 202.658 177.767C201.732 178.692 200.487 179.154 198.923 179.154C197.36 179.154 196.1 178.692 195.145 177.767C194.218 176.813 193.538 175.397 193.104 173.518Z"/>
</mask>
<path fill-rule="evenodd" clip-rule="evenodd" d="M159.552 52.4274C159.552 54.942 159.364 57.182 158.987 59.1474C158.611 61.1129 158.003 62.7893 157.163 64.1766C156.353 65.5351 155.281 66.5756 153.949 67.2982C152.646 68.0208 151.068 68.3821 149.215 68.3821C146.899 68.3821 144.974 67.7462 143.439 66.4744C141.933 65.2027 140.804 63.3818 140.051 61.0117C139.328 58.6127 138.966 55.7513 138.966 52.4274C138.966 49.0746 139.299 46.2132 139.965 43.8431C140.659 41.473 141.76 39.6666 143.265 38.4237C144.771 37.152 146.754 36.5161 149.215 36.5161C151.532 36.5161 153.457 37.152 154.992 38.4237C156.526 39.6666 157.67 41.473 158.423 43.8431C159.176 46.2132 159.552 49.0746 159.552 52.4274ZM142.788 52.4274C142.788 55.2599 142.99 57.6156 143.396 59.4943C143.83 61.373 144.51 62.7893 145.437 63.7431C146.392 64.668 147.652 65.1304 149.215 65.1304C150.779 65.1304 152.024 64.668 152.95 63.7431C153.906 62.8182 154.601 61.4164 155.035 59.5376C155.469 57.63 155.687 55.2599 155.687 52.4274C155.687 49.5949 155.469 47.2537 155.035 45.4039C154.601 43.5252 153.906 42.1234 152.95 41.1985C152.024 40.2446 150.779 39.7677 149.215 39.7677C147.652 39.7677 146.392 40.2446 145.437 41.1985C144.51 42.1234 143.83 43.5252 143.396 45.4039C142.99 47.2537 142.788 49.5949 142.788 52.4274ZM127.401 67.9485H123.666V46.3144V44.19C123.695 43.6119 123.724 43.0772 123.753 42.5858C123.782 42.0656 123.811 41.5308 123.84 40.9817C123.377 41.4441 122.957 41.8343 122.581 42.1523C122.204 42.4702 121.727 42.8748 121.147 43.3662L117.847 46.0542L115.849 43.4963L124.231 36.993H127.401V67.9485ZM173.375 67.9485H177.11V36.993H173.939L165.557 43.4963L167.555 46.0542L170.856 43.3662C171.435 42.8748 171.912 42.4702 172.289 42.1523C172.665 41.8343 173.085 41.4441 173.548 40.9817C173.519 41.5308 173.49 42.0656 173.461 42.5858C173.432 43.0772 173.404 43.6119 173.375 44.19V46.3144V67.9485ZM209.26 52.4274C209.26 54.942 209.072 57.182 208.696 59.1474C208.319 61.1129 207.711 62.7893 206.871 64.1766C206.061 65.5351 204.989 66.5756 203.658 67.2982C202.355 68.0208 200.777 68.3821 198.924 68.3821C196.607 68.3821 194.682 67.7462 193.147 66.4744C191.642 65.2027 190.512 63.3818 189.76 61.0117C189.036 58.6127 188.674 55.7513 188.674 52.4274C188.674 49.0746 189.007 46.2132 189.673 43.8431C190.368 41.473 191.468 39.6666 192.973 38.4237C194.479 37.152 196.462 36.5161 198.924 36.5161C201.24 36.5161 203.165 37.152 204.7 38.4237C206.234 39.6666 207.378 41.473 208.131 43.8431C208.884 46.2132 209.26 49.0746 209.26 52.4274ZM192.496 52.4274C192.496 55.2599 192.698 57.6156 193.104 59.4943C193.538 61.373 194.219 62.7893 195.145 63.7431C196.101 64.668 197.36 65.1304 198.924 65.1304C200.487 65.1304 201.732 64.668 202.659 63.7431C203.614 62.8182 204.309 61.4164 204.743 59.5376C205.178 57.63 205.395 55.2599 205.395 52.4274C205.395 49.5949 205.178 47.2537 204.743 45.4039C204.309 43.5252 203.614 42.1234 202.659 41.1985C201.732 40.2446 200.487 39.7677 198.924 39.7677C197.36 39.7677 196.101 40.2446 195.145 41.1985C194.219 42.1234 193.538 43.5252 193.104 45.4039C192.698 47.2537 192.496 49.5949 192.496 52.4274ZM159.552 109.439C159.552 111.954 159.364 114.194 158.987 116.159C158.611 118.125 158.003 119.801 157.163 121.188C156.352 122.547 155.281 123.587 153.949 124.31C152.646 125.033 151.068 125.394 149.215 125.394C146.899 125.394 144.973 124.758 143.439 123.486C141.933 122.215 140.804 120.394 140.051 118.024C139.327 115.625 138.965 112.763 138.965 109.439C138.965 106.086 139.298 103.225 139.964 100.855C140.659 98.4849 141.76 96.6784 143.265 95.4355C144.771 94.1638 146.754 93.5279 149.215 93.5279C151.531 93.5279 153.457 94.1638 154.992 95.4355C156.526 96.6784 157.67 98.4849 158.423 100.855C159.175 103.225 159.552 106.086 159.552 109.439ZM142.787 109.439C142.787 112.272 142.99 114.627 143.395 116.506C143.83 118.385 144.51 119.801 145.437 120.755C146.392 121.68 147.652 122.142 149.215 122.142C150.779 122.142 152.024 121.68 152.95 120.755C153.906 119.83 154.601 118.428 155.035 116.549C155.469 114.642 155.686 112.272 155.686 109.439C155.686 106.607 155.469 104.266 155.035 102.416C154.601 100.537 153.906 99.1352 152.95 98.2103C152.024 97.2565 150.779 96.7796 149.215 96.7796C147.652 96.7796 146.392 97.2565 145.437 98.2103C144.51 99.1352 143.83 100.537 143.395 102.416C142.99 104.266 142.787 106.607 142.787 109.439ZM127.401 124.96H123.666V103.326V101.202C123.695 100.624 123.724 100.089 123.753 99.5976C123.782 99.0774 123.811 98.5427 123.84 97.9935C123.377 98.4559 122.957 98.8461 122.58 99.1641C122.204 99.482 121.726 99.8867 121.147 100.378L117.846 103.066L115.849 100.508L124.231 94.0048H127.401V124.96ZM173.374 124.96H177.109V94.0048H173.939L165.557 100.508L167.555 103.066L170.855 100.378C171.434 99.8867 171.912 99.482 172.289 99.1641C172.665 98.8461 173.085 98.4559 173.548 97.9935C173.519 98.5427 173.49 99.0774 173.461 99.5976C173.432 100.089 173.403 100.624 173.374 101.202V103.326V124.96ZM209.26 109.439C209.26 111.954 209.072 114.194 208.695 116.159C208.319 118.125 207.711 119.801 206.871 121.188C206.06 122.547 204.989 123.587 203.657 124.31C202.354 125.033 200.776 125.394 198.923 125.394C196.607 125.394 194.682 124.758 193.147 123.486C191.641 122.215 190.512 120.394 189.759 118.024C189.036 115.625 188.674 112.763 188.674 109.439C188.674 106.086 189.007 103.225 189.673 100.855C190.367 98.4849 191.468 96.6784 192.973 95.4355C194.479 94.1638 196.462 93.5279 198.923 93.5279C201.24 93.5279 203.165 94.1638 204.7 95.4355C206.234 96.6784 207.378 98.4849 208.131 100.855C208.883 103.225 209.26 106.086 209.26 109.439ZM192.496 109.439C192.496 112.272 192.698 114.627 193.104 116.506C193.538 118.385 194.218 119.801 195.145 120.755C196.1 121.68 197.36 122.142 198.923 122.142C200.487 122.142 201.732 121.68 202.658 120.755C203.614 119.83 204.309 118.428 204.743 116.549C205.177 114.642 205.395 112.272 205.395 109.439C205.395 106.607 205.177 104.266 204.743 102.416C204.309 100.537 203.614 99.1352 202.658 98.2103C201.732 97.2565 200.487 96.7796 198.923 96.7796C197.36 96.7796 196.1 97.2565 195.145 98.2103C194.218 99.1352 193.538 100.537 193.104 102.416C192.698 104.266 192.496 106.607 192.496 109.439ZM158.987 173.171C159.364 171.206 159.552 168.966 159.552 166.451C159.552 163.098 159.175 160.237 158.423 157.867C157.67 155.497 156.526 153.69 154.992 152.447C153.457 151.176 151.531 150.54 149.215 150.54C146.754 150.54 144.771 151.176 143.265 152.447C141.76 153.69 140.659 155.497 139.964 157.867C139.298 160.237 138.965 163.098 138.965 166.451C138.965 169.775 139.327 172.636 140.051 175.035C140.804 177.405 141.933 179.226 143.439 180.498C144.973 181.77 146.899 182.406 149.215 182.406C151.068 182.406 152.646 182.044 153.949 181.322C155.281 180.599 156.352 179.559 157.163 178.2C158.003 176.813 158.611 175.137 158.987 173.171ZM143.395 173.518C142.99 171.639 142.787 169.284 142.787 166.451C142.787 163.619 142.99 161.277 143.395 159.428C143.83 157.549 144.51 156.147 145.437 155.222C146.392 154.268 147.652 153.791 149.215 153.791C150.779 153.791 152.024 154.268 152.95 155.222C153.906 156.147 154.601 157.549 155.035 159.428C155.469 161.277 155.686 163.619 155.686 166.451C155.686 169.284 155.469 171.654 155.035 173.561C154.601 175.44 153.906 176.842 152.95 177.767C152.024 178.692 150.779 179.154 149.215 179.154C147.652 179.154 146.392 178.692 145.437 177.767C144.51 176.813 143.83 175.397 143.395 173.518ZM123.666 181.972H127.401V151.017H124.231L115.849 157.52L117.846 160.078L121.147 157.39C121.726 156.899 122.204 156.494 122.58 156.176C122.957 155.858 123.377 155.468 123.84 155.005C123.811 155.555 123.782 156.089 123.753 156.609C123.724 157.101 123.695 157.636 123.666 158.214V160.338V181.972ZM177.109 181.972H173.374V160.338V158.214C173.403 157.636 173.432 157.101 173.461 156.609C173.49 156.089 173.519 155.555 173.548 155.005C173.085 155.468 172.665 155.858 172.289 156.176C171.912 156.494 171.434 156.899 170.855 157.39L167.555 160.078L165.557 157.52L173.939 151.017H177.109V181.972ZM208.695 173.171C209.072 171.206 209.26 168.966 209.26 166.451C209.26 163.098 208.883 160.237 208.131 157.867C207.378 155.497 206.234 153.69 204.7 152.447C203.165 151.176 201.24 150.54 198.923 150.54C196.462 150.54 194.479 151.176 192.973 152.447C191.468 153.69 190.367 155.497 189.673 157.867C189.007 160.237 188.674 163.098 188.674 166.451C188.674 169.775 189.036 172.636 189.759 175.035C190.512 177.405 191.641 179.226 193.147 180.498C194.682 181.77 196.607 182.406 198.923 182.406C200.776 182.406 202.354 182.044 203.657 181.322C204.989 180.599 206.06 179.559 206.871 178.2C207.711 176.813 208.319 175.137 208.695 173.171ZM193.104 173.518C192.698 171.639 192.496 169.284 192.496 166.451C192.496 163.619 192.698 161.277 193.104 159.428C193.538 157.549 194.218 156.147 195.145 155.222C196.1 154.268 197.36 153.791 198.923 153.791C200.487 153.791 201.732 154.268 202.658 155.222C203.614 156.147 204.309 157.549 204.743 159.428C205.177 161.277 205.395 163.619 205.395 166.451C205.395 169.284 205.177 171.654 204.743 173.561C204.309 175.44 203.614 176.842 202.658 177.767C201.732 178.692 200.487 179.154 198.923 179.154C197.36 179.154 196.1 178.692 195.145 177.767C194.218 176.813 193.538 175.397 193.104 173.518Z" fill="url(#paint5_linear_128_14860)"/>
<path d="M158.987 59.1474L157.023 58.7713L157.023 58.7713L158.987 59.1474ZM157.163 64.1766L155.452 63.1411L155.446 63.1517L157.163 64.1766ZM153.949 67.2982L152.996 65.5402L152.987 65.5447L152.979 65.5492L153.949 67.2982ZM143.439 66.4744L142.149 68.0023L142.156 68.0084L142.163 68.0144L143.439 66.4744ZM140.051 61.0117L138.137 61.5894L138.141 61.6033L138.145 61.6172L140.051 61.0117ZM139.965 43.8431L138.045 43.2804L138.042 43.2912L138.039 43.3021L139.965 43.8431ZM143.265 38.4237L144.539 39.9661L144.547 39.9589L144.556 39.9516L143.265 38.4237ZM154.992 38.4237L153.716 39.9637L153.724 39.9708L153.733 39.9779L154.992 38.4237ZM158.423 43.8431L160.329 43.2377V43.2377L158.423 43.8431ZM143.396 59.4943L141.441 59.9161L141.444 59.9304L141.447 59.9447L143.396 59.4943ZM145.437 63.7431L144.002 65.1366L144.024 65.1587L144.046 65.1801L145.437 63.7431ZM152.95 63.7431L151.559 62.3061L151.548 62.3168L151.537 62.3276L152.95 63.7431ZM155.035 59.5376L156.984 59.9881L156.985 59.9816L155.035 59.5376ZM155.035 45.4039L153.087 45.8544L153.088 45.861L155.035 45.4039ZM152.95 41.1985L151.516 42.592L151.537 42.6141L151.559 42.6355L152.95 41.1985ZM145.437 41.1985L144.024 39.783L144.024 39.783L145.437 41.1985ZM143.396 45.4039L141.447 44.9534L141.444 44.9646L141.442 44.9758L143.396 45.4039ZM123.666 67.9485H121.666V69.9485H123.666V67.9485ZM127.401 67.9485V69.9485H129.401V67.9485H127.401ZM123.666 44.19L121.669 44.0899L121.666 44.1399V44.19H123.666ZM123.753 42.5858L125.75 42.7035L125.75 42.6969L123.753 42.5858ZM123.84 40.9817L125.837 41.087L126.111 35.8884L122.427 39.5662L123.84 40.9817ZM122.581 42.1523L123.871 43.6802L123.871 43.6802L122.581 42.1523ZM121.147 43.3662L122.41 44.917L122.426 44.9043L122.441 44.8912L121.147 43.3662ZM117.847 46.0542L116.27 47.2853L117.527 48.894L119.11 47.605L117.847 46.0542ZM115.849 43.4963L114.623 41.9161L113.038 43.146L114.273 44.7273L115.849 43.4963ZM124.231 36.993V34.993H123.546L123.005 35.4128L124.231 36.993ZM127.401 36.993H129.401V34.993H127.401V36.993ZM177.11 67.9485V69.9485H179.11V67.9485H177.11ZM173.375 67.9485H171.375V69.9485H173.375V67.9485ZM177.11 36.993H179.11V34.993H177.11V36.993ZM173.939 36.993V34.993H173.254L172.713 35.4128L173.939 36.993ZM165.557 43.4963L164.331 41.9161L162.746 43.146L163.981 44.7273L165.557 43.4963ZM167.555 46.0542L165.979 47.2853L167.235 48.894L168.818 47.605L167.555 46.0542ZM170.856 43.3662L172.118 44.917L172.134 44.9043L172.15 44.8912L170.856 43.3662ZM172.289 42.1523L170.998 40.6244L170.998 40.6244L172.289 42.1523ZM173.548 40.9817L175.546 41.087L175.82 35.8884L172.135 39.5662L173.548 40.9817ZM173.461 42.5858L175.458 42.7035L175.458 42.6969L173.461 42.5858ZM173.375 44.19L171.377 44.0899L171.375 44.1399V44.19H173.375ZM208.696 59.1474L210.66 59.5236L208.696 59.1474ZM206.871 64.1766L205.16 63.141L205.154 63.1517L206.871 64.1766ZM203.658 67.2982L202.704 65.5402L202.696 65.5447L202.688 65.5492L203.658 67.2982ZM193.147 66.4744L191.857 68.0023L191.864 68.0084L191.871 68.0144L193.147 66.4744ZM189.76 61.0117L187.845 61.5894L187.849 61.6033L187.853 61.6172L189.76 61.0117ZM189.673 43.8431L187.754 43.2804L187.75 43.2912L187.747 43.3021L189.673 43.8431ZM192.973 38.4237L194.247 39.9661L194.255 39.9589L194.264 39.9516L192.973 38.4237ZM204.7 38.4237L203.424 39.9637L203.432 39.9708L203.441 39.9779L204.7 38.4237ZM208.131 43.8431L206.225 44.4486V44.4486L208.131 43.8431ZM193.104 59.4943L191.149 59.9161L191.152 59.9304L191.155 59.9447L193.104 59.4943ZM195.145 63.7431L193.71 65.1366L193.732 65.1587L193.754 65.1801L195.145 63.7431ZM202.659 63.7431L201.268 62.3061L201.257 62.3168L201.246 62.3276L202.659 63.7431ZM204.743 59.5376L206.692 59.9881L206.693 59.9816L204.743 59.5376ZM204.743 45.4039L202.795 45.8544L202.796 45.861L204.743 45.4039ZM202.659 41.1985L201.224 42.592L201.245 42.6141L201.268 42.6355L202.659 41.1985ZM195.145 41.1985L196.558 42.6139V42.6139L195.145 41.1985ZM193.104 45.4039L191.155 44.9534L191.153 44.9646L191.15 44.9758L193.104 45.4039ZM158.987 116.159L160.951 116.535V116.535L158.987 116.159ZM157.163 121.188L155.452 120.153L155.446 120.164L157.163 121.188ZM153.949 124.31L152.995 122.552L152.987 122.556L152.979 122.561L153.949 124.31ZM143.439 123.486L142.148 125.014L142.155 125.02L142.163 125.026L143.439 123.486ZM140.051 118.024L138.136 118.601L138.141 118.615L138.145 118.629L140.051 118.024ZM139.964 100.855L138.045 100.292L138.042 100.303L138.039 100.314L139.964 100.855ZM143.265 95.4355L144.538 96.9779L144.547 96.9707L144.556 96.9634L143.265 95.4355ZM154.992 95.4355L153.715 96.9755L153.724 96.9827L153.733 96.9897L154.992 95.4355ZM158.423 100.855L156.516 101.46L158.423 100.855ZM143.395 116.506L141.44 116.928L141.444 116.942L141.447 116.957L143.395 116.506ZM145.437 120.755L144.002 122.148L144.024 122.171L144.046 122.192L145.437 120.755ZM152.95 120.755L151.559 119.318L151.548 119.329L151.537 119.339L152.95 120.755ZM155.035 116.549L156.984 117L156.985 116.993L155.035 116.549ZM155.035 102.416L153.086 102.866L153.088 102.873L155.035 102.416ZM152.95 98.2103L151.516 99.6038L151.537 99.6259L151.559 99.6473L152.95 98.2103ZM145.437 98.2103L146.85 99.6257L145.437 98.2103ZM143.395 102.416L141.447 101.965L141.444 101.976L141.442 101.988L143.395 102.416ZM123.666 124.96H121.666V126.96H123.666V124.96ZM127.401 124.96V126.96H129.401V124.96H127.401ZM123.666 101.202L121.669 101.102L121.666 101.152V101.202H123.666ZM123.753 99.5976L125.75 99.7153L125.75 99.7088L123.753 99.5976ZM123.84 97.9935L125.837 98.0988L126.111 92.9002L122.427 96.578L123.84 97.9935ZM122.58 99.1641L123.871 100.692H123.871L122.58 99.1641ZM121.147 100.378L122.41 101.929L122.426 101.916L122.441 101.903L121.147 100.378ZM117.846 103.066L116.27 104.297L117.527 105.906L119.109 104.617L117.846 103.066ZM115.849 100.508L114.623 98.9279L113.037 100.158L114.272 101.739L115.849 100.508ZM124.231 94.0048V92.0048H123.546L123.005 92.4246L124.231 94.0048ZM127.401 94.0048H129.401V92.0048H127.401V94.0048ZM177.109 124.96V126.96H179.109V124.96H177.109ZM173.374 124.96H171.374V126.96H173.374V124.96ZM177.109 94.0048H179.109V92.0048H177.109V94.0048ZM173.939 94.0048V92.0048H173.254L172.713 92.4246L173.939 94.0048ZM165.557 100.508L164.331 98.9279L162.745 100.158L163.981 101.739L165.557 100.508ZM167.555 103.066L165.978 104.297L167.235 105.906L168.818 104.617L167.555 103.066ZM170.855 100.378L172.118 101.929L172.134 101.916L172.149 101.903L170.855 100.378ZM172.289 99.1641L173.579 100.692H173.579L172.289 99.1641ZM173.548 97.9935L175.545 98.0988L175.819 92.9002L172.135 96.578L173.548 97.9935ZM173.461 99.5976L175.458 99.7153L175.458 99.7088L173.461 99.5976ZM173.374 101.202L171.377 101.102L171.374 101.152V101.202H173.374ZM208.695 116.159L210.66 116.535L208.695 116.159ZM206.871 121.188L205.16 120.153L205.154 120.164L206.871 121.188ZM203.657 124.31L202.704 122.552L202.695 122.556L202.687 122.561L203.657 124.31ZM193.147 123.486L191.856 125.014L191.864 125.02L191.871 125.026L193.147 123.486ZM189.759 118.024L187.845 118.601L187.849 118.615L187.853 118.629L189.759 118.024ZM189.673 100.855L187.753 100.292L187.75 100.303L187.747 100.314L189.673 100.855ZM192.973 95.4355L194.246 96.9779L194.255 96.9707L194.264 96.9634L192.973 95.4355ZM204.7 95.4355L203.423 96.9755L203.432 96.9827L203.441 96.9897L204.7 95.4355ZM208.131 100.855L206.225 101.46V101.46L208.131 100.855ZM193.104 116.506L191.149 116.928L191.152 116.942L191.155 116.957L193.104 116.506ZM195.145 120.755L193.71 122.148L193.732 122.171L193.754 122.192L195.145 120.755ZM202.658 120.755L201.267 119.318L201.256 119.329L201.245 119.339L202.658 120.755ZM204.743 116.549L206.692 117L206.693 116.993L204.743 116.549ZM204.743 102.416L202.794 102.866L202.796 102.873L204.743 102.416ZM202.658 98.2103L201.224 99.6038L201.245 99.6259L201.267 99.6473L202.658 98.2103ZM195.145 98.2103L196.558 99.6257L195.145 98.2103ZM193.104 102.416L191.155 101.965L191.152 101.976L191.15 101.988L193.104 102.416ZM158.987 173.171L160.951 173.547V173.547L158.987 173.171ZM158.423 157.867L160.329 157.261V157.261L158.423 157.867ZM154.992 152.447L153.715 153.987L153.724 153.995L153.733 154.002L154.992 152.447ZM143.265 152.447L144.538 153.99L144.547 153.983L144.556 153.975L143.265 152.447ZM139.964 157.867L138.045 157.304L138.042 157.315L138.039 157.326L139.964 157.867ZM140.051 175.035L138.136 175.613L138.141 175.627L138.145 175.641L140.051 175.035ZM143.439 180.498L142.148 182.026L142.155 182.032L142.163 182.038L143.439 180.498ZM153.949 181.322L152.995 179.564L152.987 179.568L152.979 179.573L153.949 181.322ZM157.163 178.2L155.452 177.165L155.446 177.175L157.163 178.2ZM143.395 173.518L141.44 173.94L141.444 173.954L141.447 173.968L143.395 173.518ZM143.395 159.428L141.447 158.977L141.444 158.988L141.442 158.999L143.395 159.428ZM145.437 155.222L146.85 156.638H146.85L145.437 155.222ZM152.95 155.222L151.516 156.616L151.537 156.638L151.559 156.659L152.95 155.222ZM155.035 159.428L153.086 159.878L153.088 159.885L155.035 159.428ZM155.035 173.561L156.984 174.012L156.985 174.005L155.035 173.561ZM152.95 177.767L151.559 176.33L151.548 176.34L151.537 176.351L152.95 177.767ZM145.437 177.767L144.002 179.16L144.024 179.182L144.046 179.204L145.437 177.767ZM127.401 181.972V183.972H129.401V181.972H127.401ZM123.666 181.972H121.666V183.972H123.666V181.972ZM127.401 151.017H129.401V149.017H127.401V151.017ZM124.231 151.017V149.017H123.546L123.005 149.437L124.231 151.017ZM115.849 157.52L114.623 155.94L113.037 157.17L114.272 158.751L115.849 157.52ZM117.846 160.078L116.27 161.309L117.527 162.918L119.109 161.629L117.846 160.078ZM121.147 157.39L122.41 158.941L122.426 158.928L122.441 158.915L121.147 157.39ZM122.58 156.176L123.871 157.704L123.871 157.704L122.58 156.176ZM123.84 155.005L125.837 155.111L126.111 149.912L122.427 153.59L123.84 155.005ZM123.753 156.609L125.75 156.727L125.75 156.721L123.753 156.609ZM123.666 158.214L121.669 158.114L121.666 158.164V158.214H123.666ZM173.374 181.972H171.374V183.972H173.374V181.972ZM177.109 181.972V183.972H179.109V181.972H177.109ZM173.374 158.214L171.377 158.114L171.374 158.164V158.214H173.374ZM173.461 156.609L175.458 156.727L175.458 156.721L173.461 156.609ZM173.548 155.005L175.545 155.111L175.819 149.912L172.135 153.59L173.548 155.005ZM172.289 156.176L173.579 157.704L173.579 157.704L172.289 156.176ZM170.855 157.39L172.118 158.941L172.134 158.928L172.149 158.915L170.855 157.39ZM167.555 160.078L165.978 161.309L167.235 162.918L168.818 161.629L167.555 160.078ZM165.557 157.52L164.331 155.94L162.745 157.17L163.981 158.751L165.557 157.52ZM173.939 151.017V149.017H173.254L172.713 149.437L173.939 151.017ZM177.109 151.017H179.109V149.017H177.109V151.017ZM208.695 173.171L210.66 173.547L208.695 173.171ZM208.131 157.867L206.225 158.472V158.472L208.131 157.867ZM204.7 152.447L203.423 153.987L203.432 153.995L203.441 154.002L204.7 152.447ZM192.973 152.447L194.246 153.99L194.255 153.983L194.264 153.975L192.973 152.447ZM189.673 157.867L187.753 157.304L187.75 157.315L187.747 157.326L189.673 157.867ZM189.759 175.035L187.845 175.613L187.849 175.627L187.853 175.641L189.759 175.035ZM193.147 180.498L191.856 182.026L191.864 182.032L191.871 182.038L193.147 180.498ZM203.657 181.322L202.704 179.564L202.695 179.568L202.687 179.573L203.657 181.322ZM206.871 178.2L205.16 177.165L205.154 177.175L206.871 178.2ZM193.104 173.518L191.149 173.94L191.152 173.954L191.155 173.968L193.104 173.518ZM193.104 159.428L191.155 158.977L191.152 158.988L191.15 158.999L193.104 159.428ZM195.145 155.222L196.558 156.638L195.145 155.222ZM202.658 155.222L201.224 156.616L201.245 156.638L201.267 156.659L202.658 155.222ZM204.743 159.428L202.794 159.878L202.796 159.885L204.743 159.428ZM204.743 173.561L206.692 174.012L206.693 174.005L204.743 173.561ZM202.658 177.767L201.267 176.33L201.256 176.34L201.245 176.351L202.658 177.767ZM195.145 177.767L193.71 179.16L193.732 179.182L193.754 179.204L195.145 177.767ZM160.952 59.5236C161.357 57.4074 161.552 55.0377 161.552 52.4274H157.552C157.552 54.8463 157.371 56.9566 157.023 58.7713L160.952 59.5236ZM158.874 65.2122C159.862 63.5805 160.541 61.6695 160.952 59.5236L157.023 58.7713C156.681 60.5562 156.144 61.998 155.452 63.1411L158.874 65.2122ZM154.903 69.0561C156.565 68.1545 157.894 66.8543 158.881 65.2016L155.446 63.1517C154.811 64.2158 153.998 64.9967 152.996 65.5402L154.903 69.0561ZM149.215 70.3821C151.326 70.3821 153.256 69.9699 154.919 69.0472L152.979 65.5492C152.037 66.0716 150.811 66.3821 149.215 66.3821V70.3821ZM142.163 68.0144C144.113 69.6305 146.513 70.3821 149.215 70.3821V66.3821C147.286 66.3821 145.834 65.8618 144.715 64.9345L142.163 68.0144ZM138.145 61.6172C138.983 64.2532 140.288 66.431 142.149 68.0023L144.73 64.9466C143.579 63.9744 142.626 62.5104 141.958 60.4063L138.145 61.6172ZM136.966 52.4274C136.966 55.8873 137.341 58.9534 138.137 61.5894L141.966 60.434C141.314 58.272 140.966 55.6153 140.966 52.4274H136.966ZM138.039 43.3021C137.31 45.8988 136.966 48.9529 136.966 52.4274H140.966C140.966 49.1963 141.288 46.5276 141.89 44.3841L138.039 43.3021ZM141.992 36.8813C140.105 38.4388 138.823 40.6282 138.045 43.2804L141.884 44.4058C142.496 42.3179 143.414 40.8943 144.539 39.9661L141.992 36.8813ZM149.215 34.5161C146.403 34.5161 143.924 35.2492 141.975 36.8958L144.556 39.9516C145.618 39.0547 147.106 38.5161 149.215 38.5161V34.5161ZM156.268 36.8838C154.318 35.2676 151.918 34.5161 149.215 34.5161V38.5161C151.145 38.5161 152.597 39.0363 153.716 39.9637L156.268 36.8838ZM160.329 43.2377C159.488 40.5913 158.159 38.4153 156.25 36.8695L153.733 39.9779C154.893 40.9178 155.852 42.3548 156.517 44.4486L160.329 43.2377ZM161.552 52.4274C161.552 48.9358 161.161 45.8583 160.329 43.2377L156.517 44.4486C157.19 46.5681 157.552 49.2134 157.552 52.4274H161.552ZM145.351 59.0725C144.986 57.3808 144.788 55.1782 144.788 52.4274H140.788C140.788 55.3417 140.995 57.8504 141.441 59.9161L145.351 59.0725ZM146.871 62.3495C146.289 61.7496 145.731 60.7178 145.344 59.0438L141.447 59.9447C141.929 62.0282 142.732 63.829 144.002 65.1366L146.871 62.3495ZM149.215 63.1304C148.073 63.1304 147.346 62.8071 146.828 62.3061L144.046 65.1801C145.439 66.5288 147.23 67.1304 149.215 67.1304V63.1304ZM151.537 62.3276C151.057 62.8069 150.359 63.1304 149.215 63.1304V67.1304C151.198 67.1304 152.99 66.5291 154.363 65.1585L151.537 62.3276ZM153.087 59.0872C152.702 60.7504 152.14 61.7445 151.559 62.3061L154.341 65.1801C155.672 63.8918 156.5 62.0823 156.984 59.9881L153.087 59.0872ZM153.687 52.4274C153.687 55.1708 153.475 57.3806 153.085 59.0937L156.985 59.9816C157.464 57.8795 157.687 55.3491 157.687 52.4274H153.687ZM153.088 45.861C153.475 47.5073 153.687 49.6815 153.687 52.4274H157.687C157.687 49.5082 157.464 47.0002 156.982 44.9468L153.088 45.861ZM151.559 42.6355C152.14 43.197 152.702 44.1911 153.087 45.8544L156.984 44.9534C156.5 42.8592 155.672 41.0497 154.341 39.7614L151.559 42.6355ZM149.215 41.7677C150.341 41.7677 151.032 42.0939 151.516 42.592L154.385 39.8049C153.016 38.3954 151.217 37.7677 149.215 37.7677V41.7677ZM146.85 42.6139C147.371 42.0939 148.091 41.7677 149.215 41.7677V37.7677C147.213 37.7677 145.414 38.3954 144.024 39.783L146.85 42.6139ZM145.344 45.8544C145.732 44.1789 146.286 43.1766 146.85 42.6139L144.024 39.783C142.735 41.0701 141.928 42.8715 141.447 44.9534L145.344 45.8544ZM144.788 52.4274C144.788 49.6754 144.986 47.4904 145.349 45.832L141.442 44.9758C140.995 47.017 140.788 49.5143 140.788 52.4274H144.788ZM123.666 69.9485H127.401V65.9485H123.666V69.9485ZM121.666 46.3144V67.9485H125.666V46.3144H121.666ZM121.666 44.19V46.3144H125.666V44.19H121.666ZM121.757 42.4682C121.727 42.9663 121.698 43.507 121.669 44.0899L125.664 44.29C125.693 43.7168 125.721 43.1881 125.75 42.7035L121.757 42.4682ZM121.843 40.8764C121.814 41.4237 121.785 41.9565 121.756 42.4747L125.75 42.6969C125.779 42.1746 125.808 41.638 125.837 41.087L121.843 40.8764ZM123.871 43.6802C124.301 43.3171 124.763 42.8869 125.253 42.3971L122.427 39.5662C121.991 40.0014 121.613 40.3516 121.29 40.6244L123.871 43.6802ZM122.441 44.8912C123.02 44.4004 123.496 43.9968 123.871 43.6802L121.29 40.6244C120.912 40.9436 120.433 41.3493 119.853 41.8412L122.441 44.8912ZM119.11 47.605L122.41 44.917L119.885 41.8154L116.584 44.5034L119.11 47.605ZM114.273 44.7273L116.27 47.2853L119.423 44.8232L117.425 42.2652L114.273 44.7273ZM123.005 35.4128L114.623 41.9161L117.075 45.0765L125.457 38.5732L123.005 35.4128ZM127.401 34.993H124.231V38.993H127.401V34.993ZM129.401 67.9485V36.993H125.401V67.9485H129.401ZM177.11 65.9485H173.375V69.9485H177.11V65.9485ZM175.11 36.993V67.9485H179.11V36.993H175.11ZM173.939 38.993H177.11V34.993H173.939V38.993ZM166.783 45.0765L175.165 38.5732L172.713 35.4128L164.331 41.9161L166.783 45.0765ZM169.131 44.8232L167.133 42.2652L163.981 44.7273L165.979 47.2853L169.131 44.8232ZM169.593 41.8154L166.292 44.5034L168.818 47.605L172.118 44.917L169.593 41.8154ZM170.998 40.6244C170.62 40.9436 170.141 41.3493 169.562 41.8412L172.15 44.8912C172.728 44.4004 173.205 43.9968 173.579 43.6802L170.998 40.6244ZM172.135 39.5662C171.699 40.0014 171.321 40.3516 170.998 40.6244L173.579 43.6802C174.009 43.3171 174.471 42.8869 174.961 42.3971L172.135 39.5662ZM175.458 42.6969C175.487 42.1746 175.516 41.638 175.546 41.087L171.551 40.8764C171.522 41.4237 171.493 41.9565 171.465 42.4747L175.458 42.6969ZM175.372 44.29C175.401 43.7168 175.429 43.188 175.458 42.7035L171.465 42.4682C171.436 42.9663 171.406 43.507 171.377 44.0899L175.372 44.29ZM175.375 46.3144V44.19H171.375V46.3144H175.375ZM175.375 67.9485V46.3144H171.375V67.9485H175.375ZM210.66 59.5236C211.065 57.4074 211.26 55.0377 211.26 52.4274H207.26C207.26 54.8463 207.079 56.9566 206.731 58.7713L210.66 59.5236ZM208.582 65.2122C209.57 63.5805 210.249 61.6695 210.66 59.5236L206.731 58.7713C206.389 60.5562 205.852 61.998 205.16 63.1411L208.582 65.2122ZM204.611 69.0561C206.273 68.1545 207.602 66.8543 208.589 65.2016L205.154 63.1517C204.519 64.2158 203.706 64.9967 202.704 65.5402L204.611 69.0561ZM198.924 70.3821C201.034 70.3821 202.964 69.9699 204.628 69.0472L202.688 65.5492C201.745 66.0716 200.519 66.3821 198.924 66.3821V70.3821ZM191.871 68.0144C193.821 69.6305 196.221 70.3821 198.924 70.3821V66.3821C196.994 66.3821 195.542 65.8618 194.423 64.9345L191.871 68.0144ZM187.853 61.6172C188.691 64.2532 189.996 66.431 191.857 68.0023L194.438 64.9466C193.287 63.9744 192.334 62.5104 191.666 60.4063L187.853 61.6172ZM186.674 52.4274C186.674 55.8873 187.049 58.9534 187.845 61.5894L191.674 60.434C191.022 58.272 190.674 55.6153 190.674 52.4274H186.674ZM187.747 43.3021C187.018 45.8988 186.674 48.9529 186.674 52.4274H190.674C190.674 49.1963 190.996 46.5276 191.598 44.3841L187.747 43.3021ZM191.7 36.8813C189.814 38.4388 188.531 40.6282 187.754 43.2804L191.592 44.4058C192.204 42.3179 193.122 40.8943 194.247 39.9661L191.7 36.8813ZM198.924 34.5161C196.111 34.5161 193.632 35.2492 191.683 36.8958L194.264 39.9516C195.326 39.0547 196.814 38.5161 198.924 38.5161V34.5161ZM205.976 36.8838C204.026 35.2676 201.626 34.5161 198.924 34.5161V38.5161C200.853 38.5161 202.305 39.0363 203.424 39.9637L205.976 36.8838ZM210.037 43.2377C209.197 40.5913 207.867 38.4153 205.959 36.8695L203.441 39.9779C204.602 40.9178 205.56 42.3548 206.225 44.4486L210.037 43.2377ZM211.26 52.4274C211.26 48.9358 210.869 45.8583 210.037 43.2377L206.225 44.4486C206.898 46.5681 207.26 49.2134 207.26 52.4274H211.26ZM195.059 59.0725C194.694 57.3808 194.496 55.1781 194.496 52.4274H190.496C190.496 55.3417 190.703 57.8504 191.149 59.9161L195.059 59.0725ZM196.58 62.3495C195.997 61.7496 195.439 60.7178 195.052 59.0438L191.155 59.9447C191.637 62.0282 192.44 63.829 193.71 65.1366L196.58 62.3495ZM198.924 63.1304C197.781 63.1304 197.054 62.8071 196.536 62.3061L193.754 65.1801C195.147 66.5288 196.939 67.1304 198.924 67.1304V63.1304ZM201.246 62.3276C200.766 62.8069 200.068 63.1304 198.924 63.1304V67.1304C200.907 67.1304 202.699 66.5291 204.072 65.1585L201.246 62.3276ZM202.795 59.0872C202.41 60.7504 201.848 61.7445 201.268 62.3061L204.05 65.1801C205.381 63.8918 206.208 62.0823 206.692 59.9881L202.795 59.0872ZM203.395 52.4274C203.395 55.1708 203.183 57.3806 202.793 59.0937L206.693 59.9816C207.172 57.8795 207.395 55.3491 207.395 52.4274H203.395ZM202.796 45.861C203.183 47.5073 203.395 49.6815 203.395 52.4274H207.395C207.395 49.5082 207.172 47.0002 206.69 44.9468L202.796 45.861ZM201.268 42.6355C201.848 43.197 202.41 44.1911 202.795 45.8544L206.692 44.9534C206.208 42.8592 205.381 41.0497 204.05 39.7614L201.268 42.6355ZM198.924 41.7677C200.049 41.7677 200.74 42.0939 201.224 42.592L204.093 39.8049C202.724 38.3954 200.925 37.7677 198.924 37.7677V41.7677ZM196.558 42.6139C197.079 42.0939 197.799 41.7677 198.924 41.7677V37.7677C196.921 37.7677 195.122 38.3954 193.732 39.783L196.558 42.6139ZM195.052 45.8544C195.44 44.1789 195.994 43.1766 196.558 42.6139L193.732 39.783C192.443 41.0701 191.636 42.8715 191.155 44.9534L195.052 45.8544ZM194.496 52.4274C194.496 49.6754 194.694 47.4905 195.057 45.832L191.15 44.9758C190.703 47.017 190.496 49.5143 190.496 52.4274H194.496ZM160.951 116.535C161.357 114.419 161.552 112.05 161.552 109.439H157.552C157.552 111.858 157.37 113.968 157.023 115.783L160.951 116.535ZM158.874 122.224C159.862 120.592 160.54 118.681 160.951 116.535L157.023 115.783C156.681 117.568 156.144 119.01 155.452 120.153L158.874 122.224ZM154.903 126.068C156.565 125.166 157.894 123.866 158.88 122.213L155.446 120.164C154.811 121.228 153.997 122.008 152.995 122.552L154.903 126.068ZM149.215 127.394C151.326 127.394 153.255 126.982 154.919 126.059L152.979 122.561C152.037 123.083 150.81 123.394 149.215 123.394V127.394ZM142.163 125.026C144.113 126.642 146.512 127.394 149.215 127.394V123.394C147.285 123.394 145.834 122.874 144.715 121.946L142.163 125.026ZM138.145 118.629C138.982 121.265 140.288 123.443 142.148 125.014L144.729 121.958C143.579 120.986 142.626 119.522 141.957 117.418L138.145 118.629ZM136.965 109.439C136.965 112.899 137.341 115.965 138.136 118.601L141.966 117.446C141.314 115.284 140.965 112.627 140.965 109.439H136.965ZM138.039 100.314C137.309 102.911 136.965 105.965 136.965 109.439H140.965C140.965 106.208 141.288 103.539 141.89 101.396L138.039 100.314ZM141.992 93.8932C140.105 95.4506 138.823 97.64 138.045 100.292L141.884 101.418C142.496 99.3297 143.414 97.9062 144.538 96.9779L141.992 93.8932ZM149.215 91.5279C146.403 91.5279 143.924 92.2611 141.975 93.9077L144.556 96.9634C145.618 96.0665 147.105 95.5279 149.215 95.5279V91.5279ZM156.268 93.8956C154.318 92.2795 151.918 91.5279 149.215 91.5279V95.5279C151.145 95.5279 152.596 96.0481 153.715 96.9755L156.268 93.8956ZM160.329 100.249C159.488 97.6031 158.159 95.4271 156.25 93.8813L153.733 96.9897C154.893 97.9297 155.851 99.3666 156.516 101.46L160.329 100.249ZM161.552 109.439C161.552 105.948 161.161 102.87 160.329 100.249L156.516 101.46C157.19 103.58 157.552 106.225 157.552 109.439H161.552ZM145.35 116.084C144.985 114.393 144.787 112.19 144.787 109.439H140.787C140.787 112.354 140.995 114.862 141.44 116.928L145.35 116.084ZM146.871 119.361C146.288 118.761 145.731 117.73 145.344 116.056L141.447 116.957C141.928 119.04 142.732 120.841 144.002 122.148L146.871 119.361ZM149.215 120.142C148.073 120.142 147.345 119.819 146.828 119.318L144.046 122.192C145.439 123.541 147.23 124.142 149.215 124.142V120.142ZM151.537 119.339C151.057 119.819 150.359 120.142 149.215 120.142V124.142C151.198 124.142 152.99 123.541 154.363 122.17L151.537 119.339ZM153.086 116.099C152.702 117.762 152.139 118.756 151.559 119.318L154.341 122.192C155.672 120.904 156.499 119.094 156.984 117L153.086 116.099ZM153.686 109.439C153.686 112.183 153.475 114.392 153.085 116.105L156.985 116.993C157.464 114.891 157.686 112.361 157.686 109.439H153.686ZM153.088 102.873C153.474 104.519 153.686 106.693 153.686 109.439H157.686C157.686 106.52 157.464 104.012 156.982 101.959L153.088 102.873ZM151.559 99.6473C152.139 100.209 152.702 101.203 153.086 102.866L156.984 101.965C156.499 99.871 155.672 98.0615 154.341 96.7733L151.559 99.6473ZM149.215 98.7796C150.341 98.7796 151.032 99.1057 151.516 99.6038L154.385 96.8167C153.016 95.4072 151.216 94.7796 149.215 94.7796V98.7796ZM146.85 99.6257C147.371 99.1057 148.091 98.7796 149.215 98.7796V94.7796C147.212 94.7796 145.414 95.4072 144.024 96.7948L146.85 99.6257ZM145.344 102.866C145.731 101.191 146.286 100.188 146.85 99.6257L144.024 96.7948C142.734 98.082 141.928 99.8833 141.447 101.965L145.344 102.866ZM144.787 109.439C144.787 106.687 144.986 104.502 145.349 102.844L141.442 101.988C140.994 104.029 140.787 106.526 140.787 109.439H144.787ZM123.666 126.96H127.401V122.96H123.666V126.96ZM121.666 103.326V124.96H125.666V103.326H121.666ZM121.666 101.202V103.326H125.666V101.202H121.666ZM121.757 99.48C121.727 99.9781 121.698 100.519 121.669 101.102L125.664 101.302C125.692 100.729 125.721 100.2 125.75 99.7153L121.757 99.48ZM121.843 97.8882C121.814 98.4355 121.785 98.9683 121.756 99.4865L125.75 99.7088C125.779 99.1865 125.808 98.6498 125.837 98.0988L121.843 97.8882ZM123.871 100.692C124.301 100.329 124.762 99.8987 125.253 99.409L122.427 96.578C121.991 97.0132 121.613 97.3634 121.29 97.6362L123.871 100.692ZM122.441 101.903C123.02 101.412 123.496 101.009 123.871 100.692L121.29 97.6362C120.912 97.9555 120.433 98.3612 119.853 98.853L122.441 101.903ZM119.109 104.617L122.41 101.929L119.884 98.8272L116.584 101.515L119.109 104.617ZM114.272 101.739L116.27 104.297L119.423 101.835L117.425 99.277L114.272 101.739ZM123.005 92.4246L114.623 98.9279L117.075 102.088L125.457 95.585L123.005 92.4246ZM127.401 92.0048H124.231V96.0048H127.401V92.0048ZM129.401 124.96V94.0048H125.401V124.96H129.401ZM177.109 122.96H173.374V126.96H177.109V122.96ZM175.109 94.0048V124.96H179.109V94.0048H175.109ZM173.939 96.0048H177.109V92.0048H173.939V96.0048ZM166.783 102.088L175.165 95.585L172.713 92.4246L164.331 98.9279L166.783 102.088ZM169.131 101.835L167.133 99.277L163.981 101.739L165.978 104.297L169.131 101.835ZM169.592 98.8272L166.292 101.515L168.818 104.617L172.118 101.929L169.592 98.8272ZM170.998 97.6362C170.62 97.9555 170.141 98.3612 169.561 98.853L172.149 101.903C172.728 101.412 173.204 101.009 173.579 100.692L170.998 97.6362ZM172.135 96.578C171.699 97.0132 171.321 97.3634 170.998 97.6362L173.579 100.692C174.009 100.329 174.47 99.8987 174.961 99.409L172.135 96.578ZM175.458 99.7088C175.487 99.1865 175.516 98.6498 175.545 98.0988L171.551 97.8882C171.522 98.4355 171.493 98.9683 171.464 99.4865L175.458 99.7088ZM175.372 101.302C175.401 100.729 175.429 100.2 175.458 99.7153L171.465 99.48C171.435 99.9781 171.406 100.519 171.377 101.102L175.372 101.302ZM175.374 103.326V101.202H171.374V103.326H175.374ZM175.374 124.96V103.326H171.374V124.96H175.374ZM210.66 116.535C211.065 114.419 211.26 112.05 211.26 109.439H207.26C207.26 111.858 207.079 113.968 206.731 115.783L210.66 116.535ZM208.582 122.224C209.57 120.592 210.249 118.681 210.66 116.535L206.731 115.783C206.389 117.568 205.852 119.01 205.16 120.153L208.582 122.224ZM204.611 126.068C206.273 125.166 207.602 123.866 208.589 122.213L205.154 120.164C204.519 121.228 203.705 122.008 202.704 122.552L204.611 126.068ZM198.923 127.394C201.034 127.394 202.964 126.982 204.627 126.059L202.687 122.561C201.745 123.083 200.519 123.394 198.923 123.394V127.394ZM191.871 125.026C193.821 126.642 196.22 127.394 198.923 127.394V123.394C196.993 123.394 195.542 122.874 194.423 121.946L191.871 125.026ZM187.853 118.629C188.69 121.265 189.996 123.443 191.856 125.014L194.438 121.958C193.287 120.986 192.334 119.522 191.666 117.418L187.853 118.629ZM186.674 109.439C186.674 112.899 187.049 115.965 187.845 118.601L191.674 117.446C191.022 115.284 190.674 112.627 190.674 109.439H186.674ZM187.747 100.314C187.017 102.911 186.674 105.965 186.674 109.439H190.674C190.674 106.208 190.996 103.539 191.598 101.396L187.747 100.314ZM191.7 93.8932C189.813 95.4506 188.531 97.64 187.753 100.292L191.592 101.418C192.204 99.3297 193.122 97.9062 194.246 96.9779L191.7 93.8932ZM198.923 91.5279C196.111 91.5279 193.632 92.2611 191.683 93.9077L194.264 96.9634C195.326 96.0665 196.814 95.5279 198.923 95.5279V91.5279ZM205.976 93.8956C204.026 92.2795 201.626 91.5279 198.923 91.5279V95.5279C200.853 95.5279 202.304 96.0481 203.423 96.9755L205.976 93.8956ZM210.037 100.249C209.196 97.6031 207.867 95.4271 205.958 93.8813L203.441 96.9897C204.601 97.9297 205.559 99.3666 206.225 101.46L210.037 100.249ZM211.26 109.439C211.26 105.948 210.869 102.87 210.037 100.249L206.225 101.46C206.898 103.58 207.26 106.225 207.26 109.439H211.26ZM195.059 116.084C194.694 114.393 194.496 112.19 194.496 109.439H190.496C190.496 112.354 190.703 114.862 191.149 116.928L195.059 116.084ZM196.579 119.361C195.997 118.761 195.439 117.73 195.052 116.056L191.155 116.957C191.637 119.04 192.44 120.841 193.71 122.148L196.579 119.361ZM198.923 120.142C197.781 120.142 197.053 119.819 196.536 119.318L193.754 122.192C195.147 123.541 196.938 124.142 198.923 124.142V120.142ZM201.245 119.339C200.765 119.819 200.067 120.142 198.923 120.142V124.142C200.906 124.142 202.698 123.541 204.071 122.17L201.245 119.339ZM202.794 116.099C202.41 117.762 201.847 118.756 201.267 119.318L204.049 122.192C205.38 120.904 206.208 119.094 206.692 117L202.794 116.099ZM203.395 109.439C203.395 112.183 203.183 114.392 202.793 116.105L206.693 116.993C207.172 114.891 207.395 112.361 207.395 109.439H203.395ZM202.796 102.873C203.183 104.519 203.395 106.693 203.395 109.439H207.395C207.395 106.52 207.172 104.012 206.69 101.959L202.796 102.873ZM201.267 99.6473C201.847 100.209 202.41 101.203 202.794 102.866L206.692 101.965C206.208 99.871 205.38 98.0615 204.049 96.7733L201.267 99.6473ZM198.923 98.7796C200.049 98.7796 200.74 99.1057 201.224 99.6038L204.093 96.8167C202.724 95.4072 200.924 94.7796 198.923 94.7796V98.7796ZM196.558 99.6257C197.079 99.1057 197.799 98.7796 198.923 98.7796V94.7796C196.921 94.7796 195.122 95.4072 193.732 96.7948L196.558 99.6257ZM195.052 102.866C195.439 101.191 195.994 100.188 196.558 99.6257L193.732 96.7948C192.442 98.082 191.636 99.8833 191.155 101.965L195.052 102.866ZM194.496 109.439C194.496 106.687 194.694 104.502 195.057 102.844L191.15 101.988C190.703 104.029 190.496 106.526 190.496 109.439H194.496ZM157.552 166.451C157.552 168.87 157.37 170.98 157.023 172.795L160.951 173.547C161.357 171.431 161.552 169.061 161.552 166.451H157.552ZM156.516 158.472C157.19 160.592 157.552 163.237 157.552 166.451H161.552C161.552 162.959 161.161 159.882 160.329 157.261L156.516 158.472ZM153.733 154.002C154.893 154.942 155.851 156.378 156.516 158.472L160.329 157.261C159.488 154.615 158.159 152.439 156.25 150.893L153.733 154.002ZM149.215 152.54C151.145 152.54 152.596 153.06 153.715 153.987L156.268 150.908C154.318 149.291 151.918 148.54 149.215 148.54V152.54ZM144.556 153.975C145.618 153.078 147.105 152.54 149.215 152.54V148.54C146.403 148.54 143.924 149.273 141.975 150.92L144.556 153.975ZM141.884 158.429C142.496 156.342 143.414 154.918 144.538 153.99L141.992 150.905C140.105 152.463 138.823 154.652 138.045 157.304L141.884 158.429ZM140.965 166.451C140.965 163.22 141.288 160.551 141.89 158.408L138.039 157.326C137.309 159.922 136.965 162.977 136.965 166.451H140.965ZM141.966 174.458C141.314 172.296 140.965 169.639 140.965 166.451H136.965C136.965 169.911 137.341 172.977 138.136 175.613L141.966 174.458ZM144.729 178.97C143.579 177.998 142.626 176.534 141.957 174.43L138.145 175.641C138.982 178.277 140.288 180.455 142.148 182.026L144.729 178.97ZM149.215 180.406C147.285 180.406 145.834 179.886 144.715 178.958L142.163 182.038C144.113 183.654 146.512 184.406 149.215 184.406V180.406ZM152.979 179.573C152.037 180.095 150.81 180.406 149.215 180.406V184.406C151.326 184.406 153.255 183.994 154.919 183.071L152.979 179.573ZM155.446 177.175C154.811 178.24 153.997 179.02 152.995 179.564L154.903 183.08C156.565 182.178 157.894 180.878 158.88 179.225L155.446 177.175ZM157.023 172.795C156.681 174.58 156.144 176.022 155.452 177.165L158.874 179.236C159.862 177.604 160.54 175.693 160.951 173.547L157.023 172.795ZM140.787 166.451C140.787 169.365 140.995 171.874 141.44 173.94L145.35 173.096C144.985 171.404 144.787 169.202 144.787 166.451H140.787ZM141.442 158.999C140.994 161.041 140.787 163.538 140.787 166.451H144.787C144.787 163.699 144.986 161.514 145.349 159.856L141.442 158.999ZM144.024 153.807C142.734 155.094 141.928 156.895 141.447 158.977L145.344 159.878C145.731 158.203 146.286 157.2 146.85 156.638L144.024 153.807ZM149.215 151.791C147.212 151.791 145.414 152.419 144.024 153.807L146.85 156.638C147.371 156.118 148.091 155.791 149.215 155.791V151.791ZM154.385 153.829C153.016 152.419 151.216 151.791 149.215 151.791V155.791C150.341 155.791 151.032 156.118 151.516 156.616L154.385 153.829ZM156.984 158.977C156.499 156.883 155.672 155.073 154.341 153.785L151.559 156.659C152.139 157.221 152.702 158.215 153.086 159.878L156.984 158.977ZM157.686 166.451C157.686 163.532 157.464 161.024 156.982 158.97L153.088 159.885C153.474 161.531 153.686 163.705 153.686 166.451H157.686ZM156.985 174.005C157.464 171.903 157.686 169.373 157.686 166.451H153.686C153.686 169.194 153.475 171.404 153.085 173.117L156.985 174.005ZM154.341 179.204C155.672 177.915 156.499 176.106 156.984 174.012L153.086 173.111C152.702 174.774 152.139 175.768 151.559 176.33L154.341 179.204ZM149.215 181.154C151.198 181.154 152.99 180.553 154.363 179.182L151.537 176.351C151.057 176.831 150.359 177.154 149.215 177.154V181.154ZM144.046 179.204C145.439 180.553 147.23 181.154 149.215 181.154V177.154C148.073 177.154 147.345 176.831 146.828 176.33L144.046 179.204ZM141.447 173.968C141.928 176.052 142.732 177.853 144.002 179.16L146.871 176.373C146.288 175.773 145.731 174.741 145.344 173.067L141.447 173.968ZM127.401 179.972H123.666V183.972H127.401V179.972ZM125.401 151.017V181.972H129.401V151.017H125.401ZM124.231 153.017H127.401V149.017H124.231V153.017ZM117.075 159.1L125.457 152.597L123.005 149.437L114.623 155.94L117.075 159.1ZM119.423 158.847L117.425 156.289L114.272 158.751L116.27 161.309L119.423 158.847ZM119.884 155.839L116.584 158.527L119.109 161.629L122.41 158.941L119.884 155.839ZM121.29 154.648C120.912 154.967 120.433 155.373 119.853 155.865L122.441 158.915C123.02 158.424 123.496 158.02 123.871 157.704L121.29 154.648ZM122.427 153.59C121.991 154.025 121.613 154.375 121.29 154.648L123.871 157.704C124.301 157.341 124.762 156.911 125.253 156.421L122.427 153.59ZM125.75 156.721C125.779 156.198 125.808 155.662 125.837 155.111L121.843 154.9C121.814 155.447 121.785 155.98 121.756 156.498L125.75 156.721ZM125.664 158.314C125.692 157.74 125.721 157.212 125.75 156.727L121.757 156.492C121.727 156.99 121.698 157.531 121.669 158.114L125.664 158.314ZM125.666 160.338V158.214H121.666V160.338H125.666ZM125.666 181.972V160.338H121.666V181.972H125.666ZM173.374 183.972H177.109V179.972H173.374V183.972ZM171.374 160.338V181.972H175.374V160.338H171.374ZM171.374 158.214V160.338H175.374V158.214H171.374ZM171.465 156.492C171.435 156.99 171.406 157.531 171.377 158.114L175.372 158.314C175.401 157.74 175.429 157.212 175.458 156.727L171.465 156.492ZM171.551 154.9C171.522 155.447 171.493 155.98 171.464 156.498L175.458 156.721C175.487 156.198 175.516 155.662 175.545 155.111L171.551 154.9ZM173.579 157.704C174.009 157.341 174.47 156.911 174.961 156.421L172.135 153.59C171.699 154.025 171.321 154.375 170.998 154.648L173.579 157.704ZM172.149 158.915C172.728 158.424 173.204 158.02 173.579 157.704L170.998 154.648C170.62 154.967 170.141 155.373 169.561 155.865L172.149 158.915ZM168.818 161.629L172.118 158.941L169.592 155.839L166.292 158.527L168.818 161.629ZM163.981 158.751L165.978 161.309L169.131 158.847L167.133 156.289L163.981 158.751ZM172.713 149.437L164.331 155.94L166.783 159.1L175.165 152.597L172.713 149.437ZM177.109 149.017H173.939V153.017H177.109V149.017ZM179.109 181.972V151.017H175.109V181.972H179.109ZM207.26 166.451C207.26 168.87 207.079 170.98 206.731 172.795L210.66 173.547C211.065 171.431 211.26 169.061 211.26 166.451H207.26ZM206.225 158.472C206.898 160.592 207.26 163.237 207.26 166.451H211.26C211.26 162.959 210.869 159.882 210.037 157.261L206.225 158.472ZM203.441 154.002C204.601 154.942 205.559 156.378 206.225 158.472L210.037 157.261C209.196 154.615 207.867 152.439 205.958 150.893L203.441 154.002ZM198.923 152.54C200.853 152.54 202.304 153.06 203.423 153.987L205.976 150.908C204.026 149.291 201.626 148.54 198.923 148.54V152.54ZM194.264 153.975C195.326 153.078 196.814 152.54 198.923 152.54V148.54C196.111 148.54 193.632 149.273 191.683 150.92L194.264 153.975ZM191.592 158.429C192.204 156.342 193.122 154.918 194.246 153.99L191.7 150.905C189.813 152.463 188.531 154.652 187.753 157.304L191.592 158.429ZM190.674 166.451C190.674 163.22 190.996 160.551 191.598 158.408L187.747 157.326C187.017 159.922 186.674 162.977 186.674 166.451H190.674ZM191.674 174.458C191.022 172.296 190.674 169.639 190.674 166.451H186.674C186.674 169.911 187.049 172.977 187.845 175.613L191.674 174.458ZM194.438 178.97C193.287 177.998 192.334 176.534 191.666 174.43L187.853 175.641C188.69 178.277 189.996 180.455 191.856 182.026L194.438 178.97ZM198.923 180.406C196.993 180.406 195.542 179.886 194.423 178.958L191.871 182.038C193.821 183.654 196.22 184.406 198.923 184.406V180.406ZM202.687 179.573C201.745 180.095 200.519 180.406 198.923 180.406V184.406C201.034 184.406 202.964 183.994 204.627 183.071L202.687 179.573ZM205.154 177.175C204.519 178.24 203.705 179.02 202.704 179.564L204.611 183.08C206.273 182.178 207.602 180.878 208.589 179.225L205.154 177.175ZM206.731 172.795C206.389 174.58 205.852 176.022 205.16 177.165L208.582 179.236C209.57 177.604 210.249 175.693 210.66 173.547L206.731 172.795ZM190.496 166.451C190.496 169.365 190.703 171.874 191.149 173.94L195.059 173.096C194.694 171.404 194.496 169.202 194.496 166.451H190.496ZM191.15 158.999C190.703 161.041 190.496 163.538 190.496 166.451H194.496C194.496 163.699 194.694 161.514 195.057 159.856L191.15 158.999ZM193.732 153.807C192.442 155.094 191.636 156.895 191.155 158.977L195.052 159.878C195.44 158.203 195.994 157.2 196.558 156.638L193.732 153.807ZM198.923 151.791C196.921 151.791 195.122 152.419 193.732 153.807L196.558 156.638C197.079 156.118 197.799 155.791 198.923 155.791V151.791ZM204.093 153.829C202.724 152.419 200.924 151.791 198.923 151.791V155.791C200.049 155.791 200.74 156.118 201.224 156.616L204.093 153.829ZM206.692 158.977C206.208 156.883 205.38 155.073 204.049 153.785L201.267 156.659C201.847 157.221 202.41 158.215 202.794 159.878L206.692 158.977ZM207.395 166.451C207.395 163.532 207.172 161.024 206.69 158.97L202.796 159.885C203.183 161.531 203.395 163.705 203.395 166.451H207.395ZM206.693 174.005C207.172 171.903 207.395 169.373 207.395 166.451H203.395C203.395 169.194 203.183 171.404 202.793 173.117L206.693 174.005ZM204.049 179.204C205.38 177.915 206.208 176.106 206.692 174.012L202.794 173.111C202.41 174.774 201.847 175.768 201.267 176.33L204.049 179.204ZM198.923 181.154C200.906 181.154 202.698 180.553 204.071 179.182L201.245 176.351C200.765 176.831 200.067 177.154 198.923 177.154V181.154ZM193.754 179.204C195.147 180.553 196.938 181.154 198.923 181.154V177.154C197.781 177.154 197.053 176.831 196.536 176.33L193.754 179.204ZM191.155 173.968C191.637 176.052 192.44 177.853 193.71 179.16L196.579 176.373C195.997 175.773 195.439 174.741 195.052 173.067L191.155 173.968Z" fill="#47C0F5" mask="url(#path-9-inside-1_128_14860)"/>
<path d="M286.577 238.748L286.167 239.418L286.722 239.975L311.957 265.299C316.635 269.995 317.355 277.606 313.241 282.647C308.421 288.492 299.831 288.796 294.62 283.566L268.958 257.812L268.399 257.252L267.725 257.667C245.705 271.231 216.508 268.471 197.432 249.327C175.119 226.935 175.119 190.587 197.432 168.196C219.742 145.806 255.956 145.806 278.266 168.196C297.344 187.341 300.095 216.646 286.577 238.748ZM271.063 242.088L271.064 242.088C289.383 223.67 289.383 193.82 271.064 175.402L271.063 175.401C252.709 156.982 222.957 156.982 204.602 175.401C186.249 193.819 186.249 223.671 204.602 242.088C222.957 260.508 252.709 260.508 271.063 242.088Z" fill="url(#paint6_linear_128_14860)" stroke="#47C0F5" stroke-width="2"/>
<path d="M284.668 208.499C284.668 234.292 263.914 255.189 238.329 255.189C212.743 255.189 191.989 234.292 191.989 208.499C191.989 182.705 212.743 161.808 238.329 161.808C263.914 161.808 284.668 182.705 284.668 208.499Z" fill="url(#paint7_linear_128_14860)" stroke="#47C0F5" stroke-width="2"/>
<path d="M228.396 230.276L209.84 211.72C209.067 210.947 209.067 209.744 209.84 209.057L215.94 202.957C216.713 202.184 217.915 202.184 218.603 202.957L229.083 213.438C229.857 214.211 231.059 214.211 231.747 213.438L258.722 186.463C259.495 185.69 260.697 185.69 261.385 186.463L267.484 192.563C268.257 193.336 268.257 194.538 267.484 195.226L232.434 230.276C231.317 231.393 229.513 231.393 228.396 230.276Z" fill="#1EA8DA"/>
</g>
<path opacity="0.5" d="M342.564 257.707L364.064 263.507C368.064 264.607 371.764 260.907 370.664 256.907L364.864 235.407C363.764 231.407 358.764 230.007 355.764 233.007L340.064 248.707C337.164 251.607 338.564 256.707 342.564 257.707Z" stroke="#31BFBA" stroke-width="4.8555" stroke-miterlimit="10" stroke-linecap="round" stroke-linejoin="round"/>
<defs>
<linearGradient id="paint0_linear_128_14860" x1="180.184" y1="322.66" x2="180.32" y2="443.175" gradientUnits="userSpaceOnUse">
<stop stop-color="#CBCBCB"/>
<stop offset="1" stop-color="white" stop-opacity="0"/>
</linearGradient>
<linearGradient id="paint1_linear_128_14860" x1="180.184" y1="322.66" x2="180.184" y2="412.323" gradientUnits="userSpaceOnUse">
<stop stop-color="#A5A5A5"/>
<stop offset="1" stop-color="white" stop-opacity="0"/>
</linearGradient>
<linearGradient id="paint2_linear_128_14860" x1="178.939" y1="295.263" x2="178.99" y2="368.911" gradientUnits="userSpaceOnUse">
<stop stop-color="#CBCBCB"/>
<stop offset="1" stop-color="white" stop-opacity="0"/>
</linearGradient>
<linearGradient id="paint3_linear_128_14860" x1="178.939" y1="295.263" x2="178.939" y2="350.057" gradientUnits="userSpaceOnUse">
<stop stop-color="#A5A5A5"/>
<stop offset="1" stop-color="white" stop-opacity="0"/>
</linearGradient>
<linearGradient id="paint4_linear_128_14860" x1="166.389" y1="5.68115" x2="167.952" y2="292.845" gradientUnits="userSpaceOnUse">
<stop stop-color="#75D4FF"/>
<stop offset="1" stop-color="white" stop-opacity="0"/>
</linearGradient>
<linearGradient id="paint5_linear_128_14860" x1="162.554" y1="36.5161" x2="163.916" y2="232.594" gradientUnits="userSpaceOnUse">
<stop stop-color="#75D4FF"/>
<stop offset="1" stop-color="white" stop-opacity="0"/>
</linearGradient>
<linearGradient id="paint6_linear_128_14860" x1="248.318" y1="150.403" x2="249.146" y2="335.707" gradientUnits="userSpaceOnUse">
<stop stop-color="#75D4FF"/>
<stop offset="1" stop-color="white" stop-opacity="0"/>
</linearGradient>
<linearGradient id="paint7_linear_128_14860" x1="190.989" y1="144.097" x2="324.193" y2="187.927" gradientUnits="userSpaceOnUse">
<stop stop-color="white"/>
<stop stop-color="white"/>
<stop offset="1" stop-color="white"/>
</linearGradient>
<clipPath id="clip0_128_14860">
<rect width="276" height="329" fill="white" transform="translate(40.9395 0.169922)"/>
</clipPath>
</defs>
</svg>
