<svg width="417" height="424" viewBox="0 0 417 424" fill="none" xmlns="http://www.w3.org/2000/svg">
<path opacity="0.3" d="M27.3992 399.542V336.757C28.014 337.405 28.8148 338.143 29.8553 338.951C33.4741 341.76 40.0096 345.424 51.767 349.064C75.2742 356.343 119.826 363.58 204.144 363.58C288.461 363.58 332.871 356.343 356.236 349.064C367.923 345.423 374.389 341.758 377.956 338.946C378.95 338.162 379.721 337.443 380.316 336.808V400.428C348.919 415.675 296.325 422.302 204.144 422.302C111.947 422.302 63.3876 415.675 27.3992 399.542Z" fill="url(#paint0_linear_128_14620)" stroke="url(#paint1_linear_128_14620)" stroke-width="2"/>
<path opacity="0.3" d="M379.071 333.639C379.071 335.06 378.136 336.647 375.863 338.362C373.614 340.059 370.233 341.739 365.783 343.363C356.894 346.608 343.975 349.548 327.942 352.023C295.893 356.971 251.582 360.036 202.612 360.036C153.643 360.036 109.332 356.971 77.2828 352.023C61.2504 349.548 48.3312 346.608 39.4423 343.363C34.992 341.739 31.6111 340.059 29.3614 338.362C27.089 336.647 26.1538 335.06 26.1538 333.639C26.1538 332.217 27.089 330.63 29.3614 328.915C31.6111 327.218 34.992 325.538 39.4423 323.914C48.3312 320.669 61.2504 317.729 77.2828 315.254C109.332 310.306 153.643 307.241 202.612 307.241C251.582 307.241 295.893 310.306 327.942 315.254C343.975 317.729 356.894 320.669 365.783 323.914C370.233 325.538 373.614 327.218 375.863 328.915C378.136 330.63 379.071 332.217 379.071 333.639Z" fill="url(#paint2_linear_128_14620)" stroke="url(#paint3_linear_128_14620)" stroke-width="2"/>
<path d="M253.458 248.805L239.592 322.193L259.411 315.24L274.096 330.185L288.416 254.459L253.458 248.805Z" fill="#1EA8DA"/>
<path d="M289.035 248.7L265.253 254.613L284.104 313.356L293.136 302.114L307.171 305.558L289.035 248.7Z" fill="#1EA8DA"/>
<path d="M134.342 1.97675L134.381 1.93759L134.416 1.89434C134.539 1.74039 134.83 1.58398 135.178 1.58398H268.45C276.725 1.58398 283.391 8.24984 283.391 16.5252V257.921H105.438C97.1624 257.921 90.4966 251.255 90.4966 242.98V46.2651C90.4966 46.0468 90.6255 45.6934 90.8894 45.4295L134.342 1.97675Z" fill="url(#paint4_linear_128_14620)" stroke="url(#paint5_linear_128_14620)" stroke-width="2"/>
<path d="M124.379 44.3223H91.9141L133.321 2.99493V35.3805C133.321 40.3134 129.312 44.3223 124.379 44.3223Z" fill="url(#paint6_linear_128_14620)" stroke="url(#paint7_linear_128_14620)" stroke-width="2"/>
<path d="M171.002 67.606H251.908" stroke="#4FC3F6" stroke-width="4.8555" stroke-miterlimit="10" stroke-linecap="round" stroke-linejoin="round"/>
<path d="M121.98 67.606H156.433" stroke="#4FC3F6" stroke-width="4.8555" stroke-miterlimit="10" stroke-linecap="round" stroke-linejoin="round"/>
<path d="M121.98 164.968H190.887" stroke="#4FC3F6" stroke-width="4.8555" stroke-miterlimit="10" stroke-linecap="round" stroke-linejoin="round"/>
<path d="M157.717 107.545H251.908" stroke="#4FC3F6" stroke-width="4.8555" stroke-miterlimit="10" stroke-linecap="round" stroke-linejoin="round"/>
<path d="M121.98 107.545H143.149" stroke="#4FC3F6" stroke-width="4.8555" stroke-miterlimit="10" stroke-linecap="round" stroke-linejoin="round"/>
<path d="M215.398 91.6892H251.909" stroke="#4FC3F6" stroke-width="4.8555" stroke-miterlimit="10" stroke-linecap="round" stroke-linejoin="round"/>
<path d="M121.98 87.5752H200.572" stroke="#4FC3F6" stroke-width="4.8555" stroke-miterlimit="10" stroke-linecap="round" stroke-linejoin="round"/>
<path d="M186.943 125.8H251.908" stroke="#4FC3F6" stroke-width="4.8555" stroke-miterlimit="10" stroke-linecap="round" stroke-linejoin="round"/>
<path d="M121.98 125.8H171.775" stroke="#4FC3F6" stroke-width="4.8555" stroke-miterlimit="10" stroke-linecap="round" stroke-linejoin="round"/>
<path d="M226.796 149.969H251.908" stroke="#4FC3F6" stroke-width="4.8555" stroke-miterlimit="10" stroke-linecap="round" stroke-linejoin="round"/>
<path d="M164.489 145.77H211.798" stroke="#4FC3F6" stroke-width="4.8555" stroke-miterlimit="10" stroke-linecap="round" stroke-linejoin="round"/>
<path d="M121.98 145.77H149.406" stroke="#4FC3F6" stroke-width="4.8555" stroke-miterlimit="10" stroke-linecap="round" stroke-linejoin="round"/>
<path d="M130.292 215.791C132.949 213.906 136.463 210.392 138.948 210.649C140.662 210.82 140.405 213.82 142.034 214.42C142.976 214.763 143.919 213.991 144.691 213.391C145.976 212.191 147.262 211.077 148.462 209.877C149.662 208.763 150.861 207.649 152.318 207.049C153.775 206.449 155.661 206.449 156.947 207.392C158.061 208.249 158.489 209.706 159.175 210.906C159.861 212.106 161.146 213.306 162.517 212.963C163.117 212.791 163.631 212.363 164.146 211.849C167.66 208.678 177.944 203.535 183.344 201.735" stroke="#4FC3F6" stroke-width="4.8555" stroke-miterlimit="10" stroke-linecap="round" stroke-linejoin="round"/>
<path opacity="0.15" d="M260.394 357.607L272.307 369.691L286.62 307.555L272.907 305.326L260.394 357.607Z" fill="white"/>
<path opacity="0.15" d="M302.303 295.384L293.476 297.613L306.246 334.809L315.931 337.209L302.303 295.384Z" fill="white"/>
<path d="M309.721 226.877L309.158 228.003L310.382 228.296C313.267 228.989 315.707 231.302 316.465 234.506C317.16 237.461 316.176 240.473 314.033 242.442L313.171 243.234L314.087 243.961C316.352 245.762 317.623 248.719 317.102 251.783L317.101 251.789C316.578 254.986 314.311 257.482 311.475 258.408L310.282 258.797L310.928 259.873C312.502 262.497 312.607 265.856 310.878 268.566C309.185 271.191 306.402 272.575 303.508 272.459L302.356 272.413L302.473 273.56C302.765 276.419 301.594 279.431 299.058 281.218L299.05 281.224L299.043 281.229C296.442 283.136 293.077 283.26 290.4 281.921L289.274 281.358L288.98 282.582C288.288 285.466 285.975 287.907 282.772 288.665C279.763 289.358 276.806 288.32 274.825 286.223L274.033 285.384L273.315 286.287C271.514 288.552 268.558 289.823 265.493 289.302L265.487 289.301C262.29 288.778 259.795 286.511 258.869 283.675L258.479 282.482L257.403 283.128C254.779 284.702 251.42 284.807 248.71 283.078C246.088 281.387 244.701 278.54 244.817 275.709L244.864 274.556L243.716 274.673C240.857 274.965 237.845 273.794 236.058 271.258L236.052 271.25L236.047 271.243C234.14 268.642 234.016 265.277 235.355 262.6L235.918 261.474L234.694 261.18C231.81 260.488 229.37 258.175 228.612 254.972C227.918 251.963 228.956 249.006 231.054 247.025L231.892 246.233L230.989 245.515C228.724 243.714 227.454 240.758 227.974 237.693L227.975 237.687C228.498 234.49 230.765 231.995 233.601 231.069L234.794 230.679L234.149 229.603C232.574 226.98 232.469 223.621 234.198 220.911C235.889 218.288 238.736 216.901 241.568 217.017L242.72 217.064L242.603 215.916C242.311 213.057 243.482 210.045 246.018 208.258L246.026 208.252L246.033 208.247C248.634 206.34 251.999 206.216 254.677 207.555L255.802 208.118L256.096 206.894C256.788 204.01 259.101 201.57 262.304 200.812C265.313 200.118 268.27 201.156 270.252 203.254L271.044 204.092L271.761 203.189C273.562 200.924 276.519 199.654 279.583 200.174L279.589 200.175C282.786 200.698 285.282 202.965 286.208 205.801L286.597 206.994L287.673 206.349C290.296 204.774 293.655 204.669 296.365 206.398C298.988 208.089 300.375 210.936 300.259 213.768L300.212 214.92L301.36 214.803C304.219 214.511 307.231 215.682 309.018 218.218L309.024 218.226L309.029 218.233C310.937 220.834 311.06 224.199 309.721 226.877Z" fill="url(#paint8_linear_128_14620)" stroke="url(#paint9_linear_128_14620)" stroke-width="2"/>
<path d="M276.566 264.07C265.882 266.526 255.282 259.849 252.826 249.205C250.37 238.52 257.047 227.92 267.69 225.463C278.375 223.007 288.975 229.685 291.431 240.329C293.887 250.972 287.252 261.614 276.566 264.07Z" fill="url(#paint10_linear_128_14620)" stroke="#47C0F5" stroke-width="2"/>
<path opacity="0.5" d="M23.5732 94.2905C23.5732 100.091 18.8732 104.791 13.0732 104.791C7.27324 104.791 2.57324 100.091 2.57324 94.2905C2.57324 88.4905 7.27324 83.7905 13.0732 83.7905C18.8732 83.7905 23.5732 88.4905 23.5732 94.2905Z" stroke="#31BFBA" stroke-width="4.8555" stroke-miterlimit="10" stroke-linecap="round" stroke-linejoin="round"/>
<path opacity="0.5" d="M385.973 273.29L407.473 279.09C411.473 280.19 415.173 276.49 414.073 272.49L408.273 250.99C407.173 246.99 402.173 245.59 399.173 248.59L383.473 264.29C380.573 267.19 381.973 272.29 385.973 273.29Z" stroke="#31BFBA" stroke-width="4.8555" stroke-miterlimit="10" stroke-linecap="round" stroke-linejoin="round"/>
<defs>
<linearGradient id="paint0_linear_128_14620" x1="203.858" y1="333.639" x2="203.993" y2="454.153" gradientUnits="userSpaceOnUse">
<stop stop-color="#CBCBCB"/>
<stop offset="1" stop-color="white" stop-opacity="0"/>
</linearGradient>
<linearGradient id="paint1_linear_128_14620" x1="203.858" y1="333.639" x2="203.858" y2="423.302" gradientUnits="userSpaceOnUse">
<stop stop-color="#A5A5A5"/>
<stop offset="1" stop-color="white" stop-opacity="0"/>
</linearGradient>
<linearGradient id="paint2_linear_128_14620" x1="202.612" y1="306.241" x2="202.663" y2="379.889" gradientUnits="userSpaceOnUse">
<stop stop-color="#CBCBCB"/>
<stop offset="1" stop-color="white" stop-opacity="0"/>
</linearGradient>
<linearGradient id="paint3_linear_128_14620" x1="202.612" y1="306.241" x2="202.612" y2="361.036" gradientUnits="userSpaceOnUse">
<stop stop-color="#A5A5A5"/>
<stop offset="1" stop-color="white" stop-opacity="0"/>
</linearGradient>
<linearGradient id="paint4_linear_128_14620" x1="186.944" y1="0.583984" x2="188.991" y2="347.797" gradientUnits="userSpaceOnUse">
<stop stop-color="#75D4FF"/>
<stop offset="1" stop-color="white" stop-opacity="0"/>
</linearGradient>
<linearGradient id="paint5_linear_128_14620" x1="186.944" y1="0.583984" x2="186.944" y2="258.921" gradientUnits="userSpaceOnUse">
<stop stop-color="#47C0F5"/>
<stop offset="1" stop-color="white" stop-opacity="0"/>
</linearGradient>
<linearGradient id="paint6_linear_128_14620" x1="111.909" y1="0.583984" x2="112.176" y2="60.7147" gradientUnits="userSpaceOnUse">
<stop stop-color="#75D4FF"/>
<stop offset="1" stop-color="white" stop-opacity="0"/>
</linearGradient>
<linearGradient id="paint7_linear_128_14620" x1="111.909" y1="0.583984" x2="111.909" y2="45.3223" gradientUnits="userSpaceOnUse">
<stop stop-color="#47C0F5"/>
<stop offset="1" stop-color="white" stop-opacity="0"/>
</linearGradient>
<linearGradient id="paint8_linear_128_14620" x1="272.538" y1="199.058" x2="273.084" y2="321.851" gradientUnits="userSpaceOnUse">
<stop stop-color="#75D4FF"/>
<stop offset="1" stop-color="white" stop-opacity="0"/>
</linearGradient>
<linearGradient id="paint9_linear_128_14620" x1="272.538" y1="199.058" x2="272.538" y2="290.418" gradientUnits="userSpaceOnUse">
<stop stop-color="#47C0F5"/>
<stop offset="1" stop-color="white" stop-opacity="0"/>
</linearGradient>
<linearGradient id="paint10_linear_128_14620" x1="251.317" y1="216.661" x2="309.794" y2="236.045" gradientUnits="userSpaceOnUse">
<stop stop-color="white"/>
<stop stop-color="white"/>
<stop offset="1" stop-color="white"/>
</linearGradient>
</defs>
</svg>
