<svg width="145" height="162" viewBox="0 0 145 162" fill="none" xmlns="http://www.w3.org/2000/svg">
<path opacity="0.3" d="M4.0625 152.603V130.621C5.52127 131.734 8.05875 133.126 12.4802 134.495C21.465 137.277 38.4 140.017 70.3378 140.017C102.275 140.017 119.157 137.277 128.089 134.495C132.443 133.138 134.95 131.759 136.397 130.648V152.951C124.617 158.533 104.896 161 70.3378 161C35.7634 161 17.5175 158.533 4.0625 152.603Z" fill="url(#paint0_linear_937_11539)" stroke="url(#paint1_linear_937_11539)" stroke-width="2"/>
<path opacity="0.3" d="M135.925 128.063C135.925 128.309 135.762 128.749 134.959 129.355C134.178 129.943 132.964 130.554 131.304 131.16C127.996 132.367 123.153 133.473 117.1 134.407C105.01 136.274 88.2713 137.433 69.7583 137.433C51.2454 137.433 34.5071 136.274 22.4167 134.407C16.3636 133.473 11.5204 132.367 8.21251 131.16C6.55273 130.554 5.33868 129.943 4.55818 129.355C3.75496 128.749 3.59131 128.309 3.59131 128.063C3.59131 127.817 3.75496 127.377 4.55818 126.771C5.33868 126.183 6.55273 125.572 8.21251 124.966C11.5204 123.759 16.3636 122.653 22.4167 121.719C34.5071 119.852 51.2454 118.693 69.7583 118.693C88.2713 118.693 105.01 119.852 117.1 121.719C123.153 122.653 127.996 123.759 131.304 124.966C132.964 125.572 134.178 126.183 134.959 126.771C135.762 127.377 135.925 127.817 135.925 128.063Z" fill="url(#paint2_linear_937_11539)" stroke="url(#paint3_linear_937_11539)" stroke-width="2"/>
<path opacity="0.5" d="M11.0109 31.5513C11.0109 33.7466 9.23195 35.5255 7.03669 35.5255C4.84142 35.5255 3.0625 33.7466 3.0625 31.5513C3.0625 29.3561 4.84142 27.5771 7.03669 27.5771C9.23195 27.5771 11.0109 29.3561 11.0109 31.5513Z" stroke="#F7B7C6" stroke-width="4.8555" stroke-miterlimit="10" stroke-linecap="round" stroke-linejoin="round"/>
<path opacity="0.5" d="M133.612 101.385L134.937 100.06" stroke="#F7B7C6" stroke-width="4.8555" stroke-miterlimit="10" stroke-linecap="round" stroke-linejoin="round"/>
<path opacity="0.5" d="M140.689 94.2688L142.014 92.9819" stroke="#F7B7C6" stroke-width="4.8555" stroke-miterlimit="10" stroke-linecap="round" stroke-linejoin="round"/>
<path opacity="0.5" d="M142.014 101.385L140.689 100.06" stroke="#F7B7C6" stroke-width="4.8555" stroke-miterlimit="10" stroke-linecap="round" stroke-linejoin="round"/>
<path opacity="0.5" d="M134.937 94.2688L133.612 92.9819" stroke="#F7B7C6" stroke-width="4.8555" stroke-miterlimit="10" stroke-linecap="round" stroke-linejoin="round"/>
<rect x="0.878817" y="1.47716" width="14.6845" height="14.6845" transform="matrix(0.878817 0.477159 0 1 40.2945 33.7062)" fill="url(#paint4_linear_937_11539)" stroke="url(#paint5_linear_937_11539)" stroke-width="2"/>
<rect x="-0.878817" y="1.47716" width="14.6845" height="14.6845" transform="matrix(-0.878817 0.477159 0 1 67.7746 34.5448)" fill="url(#paint6_linear_937_11539)" stroke="url(#paint7_linear_937_11539)" stroke-width="2"/>
<path d="M54.4581 42.5427L54.6993 42.6773L54.9417 42.5448L69.3401 34.6707L70.1573 34.2238L69.3333 33.7897L54.9348 26.2036L54.6994 26.0796L54.465 26.2056L40.3526 33.7916L39.5485 34.2238L40.3457 34.6686L54.4581 42.5427Z" fill="url(#paint8_linear_937_11539)" stroke="url(#paint9_linear_937_11539)"/>
<rect x="0.878817" y="1.47716" width="14.6845" height="14.6845" transform="matrix(0.878817 0.477159 0 1 53.3975 9.06016)" fill="url(#paint10_linear_937_11539)" stroke="url(#paint11_linear_937_11539)" stroke-width="2"/>
<rect x="-0.878817" y="1.47716" width="14.6845" height="14.6845" transform="matrix(-0.878817 0.477159 0 1 80.8777 9.89883)" fill="url(#paint12_linear_937_11539)" stroke="url(#paint13_linear_937_11539)" stroke-width="2"/>
<path d="M67.5617 17.8968L67.8028 18.0313L68.0452 17.8988L82.4436 10.0247L83.2608 9.57781L82.4368 9.14366L68.0383 1.55764L67.8029 1.43361L67.5685 1.5596L53.4561 9.14562L52.652 9.57785L53.4492 10.0227L67.5617 17.8968Z" fill="url(#paint14_linear_937_11539)" stroke="url(#paint15_linear_937_11539)"/>
<rect x="0.878817" y="1.47716" width="14.6845" height="14.6845" transform="matrix(0.878817 0.477159 0 1 71.1397 33.8087)" fill="url(#paint16_linear_937_11539)" stroke="url(#paint17_linear_937_11539)" stroke-width="2"/>
<rect x="-0.878817" y="1.47716" width="14.6845" height="14.6845" transform="matrix(-0.878817 0.477159 0 1 98.6199 34.6474)" fill="url(#paint18_linear_937_11539)" stroke="url(#paint19_linear_937_11539)" stroke-width="2"/>
<path d="M85.3033 42.6453L85.5445 42.7799L85.7869 42.6473L100.185 34.7732L101.003 34.3263L100.178 33.8922L85.78 26.3062L85.5446 26.1821L85.3102 26.3081L71.1978 33.8942L70.3937 34.3264L71.1909 34.7712L85.3033 42.6453Z" fill="url(#paint20_linear_937_11539)" stroke="url(#paint21_linear_937_11539)"/>
<circle cx="84.3345" cy="96.5796" r="1.90137" fill="#1EA8DA"/>
<circle cx="91.3091" cy="96.5796" r="1.90137" fill="#1EA8DA"/>
<path d="M45.5188 102.771L45.6452 102.292L45.34 101.901C42.6771 98.4908 41.1132 94.1685 41.1907 89.4988C41.3796 78.7115 50.2439 70.1258 60.9869 70.3151C71.7171 70.5044 80.2724 79.4014 80.0837 90.2021C79.8951 100.989 71.0313 109.575 60.2885 109.386C56.6942 109.319 53.3582 108.284 50.4978 106.525L50.013 106.226L49.5091 106.491C47.1628 107.722 44.8738 108.361 43.1685 108.69C42.9861 108.725 42.8107 108.757 42.6427 108.785C42.7308 108.657 42.8209 108.523 42.9123 108.384C43.8394 106.975 44.9328 104.994 45.5188 102.771Z" fill="url(#paint22_linear_937_11539)" stroke="url(#paint23_linear_937_11539)" stroke-width="2"/>
<circle cx="53.397" cy="89.7549" r="1.90137" fill="#1EA8DA"/>
<circle cx="60.0249" cy="89.7549" r="1.90137" fill="#1EA8DA"/>
<circle cx="66.6538" cy="89.7549" r="1.90137" fill="#1EA8DA"/>
<mask id="path-23-inside-1_937_11539" fill="white">
<path fill-rule="evenodd" clip-rule="evenodd" d="M70.4718 107.711C76.5686 104.144 80.6638 97.5269 80.6638 89.9534C80.6638 82.2349 76.4104 75.5099 70.1196 71.9943C72.8881 70.4706 76.0546 69.5803 79.4295 69.5208C90.5652 69.3245 99.7472 78.2234 99.9426 89.3961C100.023 94.2322 98.4027 98.7105 95.6446 102.242C96.7249 106.34 99.7128 109.652 99.7128 109.652C99.7128 109.652 95.139 109.572 90.3009 107.032C87.336 108.856 83.8769 109.929 80.1535 109.999C76.6619 110.06 73.3624 109.228 70.4718 107.711Z"/>
</mask>
<path fill-rule="evenodd" clip-rule="evenodd" d="M70.4718 107.711C76.5686 104.144 80.6638 97.5269 80.6638 89.9534C80.6638 82.2349 76.4104 75.5099 70.1196 71.9943C72.8881 70.4706 76.0546 69.5803 79.4295 69.5208C90.5652 69.3245 99.7472 78.2234 99.9426 89.3961C100.023 94.2322 98.4027 98.7105 95.6446 102.242C96.7249 106.34 99.7128 109.652 99.7128 109.652C99.7128 109.652 95.139 109.572 90.3009 107.032C87.336 108.856 83.8769 109.929 80.1535 109.999C76.6619 110.06 73.3624 109.228 70.4718 107.711Z" fill="url(#paint24_linear_937_11539)"/>
<path d="M70.4718 107.711L69.4618 105.985L66.3484 107.806L69.5426 109.482L70.4718 107.711ZM70.1196 71.9943L69.1553 70.2422L65.996 71.9811L69.144 73.7402L70.1196 71.9943ZM79.4295 69.5208L79.3943 67.5211L79.3942 67.5211L79.4295 69.5208ZM99.9426 89.3961L101.942 89.3629L101.942 89.3612L99.9426 89.3961ZM95.6446 102.242L94.0683 101.011L93.4579 101.793L93.7107 102.752L95.6446 102.242ZM99.7128 109.652L99.6774 111.652L104.283 111.733L101.198 108.313L99.7128 109.652ZM90.3009 107.032L91.2303 105.261L90.2225 104.732L89.2531 105.329L90.3009 107.032ZM80.1535 109.999L80.1887 111.998L80.1907 111.998L80.1535 109.999ZM78.6638 89.9534C78.6638 96.7877 74.9708 102.762 69.4618 105.985L71.4818 109.437C78.1665 105.526 82.6638 98.2662 82.6638 89.9534H78.6638ZM69.144 73.7402C74.828 76.9166 78.6638 82.9884 78.6638 89.9534H82.6638C82.6638 81.4814 77.9929 74.1031 71.0953 70.2485L69.144 73.7402ZM79.3942 67.5211C75.686 67.5865 72.2015 68.5655 69.1553 70.2422L71.084 73.7465C73.5747 72.3756 76.4232 71.5741 79.4648 71.5205L79.3942 67.5211ZM101.942 89.3612C101.728 77.0908 91.6413 67.3053 79.3943 67.5211L79.4648 71.5205C89.4891 71.3438 97.7667 79.3561 97.9429 89.4311L101.942 89.3612ZM97.2209 103.473C100.25 99.5944 102.031 94.6732 101.942 89.3629L97.9429 89.4294C98.0154 93.7912 96.5554 97.8267 94.0683 101.011L97.2209 103.473ZM99.7128 109.652C101.198 108.313 101.198 108.313 101.198 108.313C101.198 108.313 101.199 108.314 101.199 108.314C101.199 108.314 101.199 108.315 101.2 108.315C101.2 108.315 101.2 108.315 101.2 108.316C101.2 108.316 101.2 108.315 101.199 108.314C101.196 108.311 101.191 108.305 101.183 108.296C101.167 108.278 101.141 108.248 101.106 108.207C101.036 108.124 100.929 107.996 100.796 107.828C100.529 107.491 100.158 106.997 99.7545 106.384C98.9368 105.142 98.0428 103.493 97.5786 101.733L93.7107 102.752C94.3267 105.089 95.4668 107.145 96.4131 108.583C96.8919 109.311 97.335 109.901 97.6619 110.313C97.8256 110.52 97.9611 110.683 98.0585 110.797C98.1072 110.855 98.1465 110.9 98.1751 110.933C98.1894 110.949 98.201 110.962 98.2098 110.972C98.2142 110.977 98.2179 110.981 98.2209 110.984C98.2224 110.986 98.2237 110.988 98.2248 110.989C98.2254 110.989 98.2259 110.99 98.2264 110.991C98.2266 110.991 98.2269 110.991 98.227 110.991C98.2273 110.992 98.2276 110.992 99.7128 109.652ZM89.3714 108.803C92.0068 110.186 94.5566 110.894 96.4419 111.258C97.3877 111.441 98.1756 111.539 98.736 111.591C99.0164 111.618 99.2408 111.633 99.4004 111.641C99.4802 111.645 99.5439 111.648 99.5904 111.65C99.6136 111.65 99.6326 111.651 99.6472 111.651C99.6544 111.652 99.6606 111.652 99.6657 111.652C99.6682 111.652 99.6704 111.652 99.6724 111.652C99.6734 111.652 99.6743 111.652 99.6751 111.652C99.6756 111.652 99.6761 111.652 99.6763 111.652C99.6769 111.652 99.6774 111.652 99.7128 109.652C99.7481 107.653 99.7486 107.653 99.7491 107.653C99.7492 107.653 99.7497 107.653 99.75 107.653C99.7505 107.653 99.751 107.653 99.7515 107.653C99.7523 107.653 99.7529 107.653 99.7532 107.653C99.7538 107.653 99.7534 107.653 99.7518 107.653C99.7488 107.653 99.7415 107.652 99.7301 107.652C99.7072 107.651 99.6679 107.65 99.6132 107.647C99.5038 107.641 99.333 107.63 99.1091 107.609C98.6607 107.567 98.0027 107.486 97.2003 107.331C95.5892 107.02 93.4331 106.418 91.2303 105.261L89.3714 108.803ZM80.1907 111.998C84.2812 111.922 88.0879 110.741 91.3487 108.736L89.2531 105.329C86.584 106.97 83.4726 107.937 80.1163 107.999L80.1907 111.998ZM69.5426 109.482C72.7228 111.15 76.3531 112.066 80.1887 111.998L80.1183 107.999C76.9708 108.054 74.0021 107.305 71.401 105.94L69.5426 109.482Z" fill="#47C0F5" mask="url(#path-23-inside-1_937_11539)"/>
<defs>
<linearGradient id="paint0_linear_937_11539" x1="70.2295" y1="128.063" x2="70.2808" y2="173.677" gradientUnits="userSpaceOnUse">
<stop stop-color="#CBCBCB"/>
<stop offset="1" stop-color="white" stop-opacity="0"/>
</linearGradient>
<linearGradient id="paint1_linear_937_11539" x1="70.2295" y1="128.063" x2="70.2295" y2="162" gradientUnits="userSpaceOnUse">
<stop stop-color="#A5A5A5"/>
<stop offset="1" stop-color="white" stop-opacity="0"/>
</linearGradient>
<linearGradient id="paint2_linear_937_11539" x1="69.7583" y1="117.693" x2="69.7775" y2="145.569" gradientUnits="userSpaceOnUse">
<stop stop-color="#CBCBCB"/>
<stop offset="1" stop-color="white" stop-opacity="0"/>
</linearGradient>
<linearGradient id="paint3_linear_937_11539" x1="69.7583" y1="117.693" x2="69.7583" y2="138.433" gradientUnits="userSpaceOnUse">
<stop stop-color="#A5A5A5"/>
<stop offset="1" stop-color="white" stop-opacity="0"/>
</linearGradient>
<linearGradient id="paint4_linear_937_11539" x1="8.34225" y1="0" x2="8.44199" y2="22.4249" gradientUnits="userSpaceOnUse">
<stop stop-color="#75D4FF"/>
<stop offset="1" stop-color="white" stop-opacity="0"/>
</linearGradient>
<linearGradient id="paint5_linear_937_11539" x1="8.34225" y1="0" x2="8.34225" y2="16.6845" gradientUnits="userSpaceOnUse">
<stop stop-color="#47C0F5"/>
<stop offset="1" stop-color="white" stop-opacity="0"/>
</linearGradient>
<linearGradient id="paint6_linear_937_11539" x1="8.34224" y1="0" x2="8.44199" y2="22.4249" gradientUnits="userSpaceOnUse">
<stop stop-color="#75D4FF"/>
<stop offset="1" stop-color="white" stop-opacity="0"/>
</linearGradient>
<linearGradient id="paint7_linear_937_11539" x1="8.34224" y1="0" x2="8.34224" y2="16.6845" gradientUnits="userSpaceOnUse">
<stop stop-color="#47C0F5"/>
<stop offset="1" stop-color="white" stop-opacity="0"/>
</linearGradient>
<linearGradient id="paint8_linear_937_11539" x1="54.8448" y1="26.646" x2="54.8949" y2="47.4255" gradientUnits="userSpaceOnUse">
<stop stop-color="#75D4FF"/>
<stop offset="1" stop-color="white" stop-opacity="0"/>
</linearGradient>
<linearGradient id="paint9_linear_937_11539" x1="54.8448" y1="26.646" x2="54.8448" y2="42.1061" gradientUnits="userSpaceOnUse">
<stop stop-color="#47C0F5"/>
<stop offset="1" stop-color="white" stop-opacity="0"/>
</linearGradient>
<linearGradient id="paint10_linear_937_11539" x1="8.34225" y1="0" x2="8.44199" y2="22.4249" gradientUnits="userSpaceOnUse">
<stop stop-color="#75D4FF"/>
<stop offset="1" stop-color="white" stop-opacity="0"/>
</linearGradient>
<linearGradient id="paint11_linear_937_11539" x1="8.34225" y1="0" x2="8.34225" y2="16.6845" gradientUnits="userSpaceOnUse">
<stop stop-color="#47C0F5"/>
<stop offset="1" stop-color="white" stop-opacity="0"/>
</linearGradient>
<linearGradient id="paint12_linear_937_11539" x1="8.34224" y1="0" x2="8.44199" y2="22.4249" gradientUnits="userSpaceOnUse">
<stop stop-color="#75D4FF"/>
<stop offset="1" stop-color="white" stop-opacity="0"/>
</linearGradient>
<linearGradient id="paint13_linear_937_11539" x1="8.34224" y1="0" x2="8.34224" y2="16.6845" gradientUnits="userSpaceOnUse">
<stop stop-color="#47C0F5"/>
<stop offset="1" stop-color="white" stop-opacity="0"/>
</linearGradient>
<linearGradient id="paint14_linear_937_11539" x1="67.9483" y1="2" x2="67.9984" y2="22.7795" gradientUnits="userSpaceOnUse">
<stop stop-color="#75D4FF"/>
<stop offset="1" stop-color="white" stop-opacity="0"/>
</linearGradient>
<linearGradient id="paint15_linear_937_11539" x1="67.9483" y1="2" x2="67.9483" y2="17.4601" gradientUnits="userSpaceOnUse">
<stop stop-color="#47C0F5"/>
<stop offset="1" stop-color="white" stop-opacity="0"/>
</linearGradient>
<linearGradient id="paint16_linear_937_11539" x1="8.34224" y1="0" x2="8.44199" y2="22.4249" gradientUnits="userSpaceOnUse">
<stop stop-color="#75D4FF"/>
<stop offset="1" stop-color="white" stop-opacity="0"/>
</linearGradient>
<linearGradient id="paint17_linear_937_11539" x1="8.34224" y1="0" x2="8.34224" y2="16.6845" gradientUnits="userSpaceOnUse">
<stop stop-color="#47C0F5"/>
<stop offset="1" stop-color="white" stop-opacity="0"/>
</linearGradient>
<linearGradient id="paint18_linear_937_11539" x1="8.34225" y1="0" x2="8.44199" y2="22.4249" gradientUnits="userSpaceOnUse">
<stop stop-color="#75D4FF"/>
<stop offset="1" stop-color="white" stop-opacity="0"/>
</linearGradient>
<linearGradient id="paint19_linear_937_11539" x1="8.34225" y1="0" x2="8.34225" y2="16.6845" gradientUnits="userSpaceOnUse">
<stop stop-color="#47C0F5"/>
<stop offset="1" stop-color="white" stop-opacity="0"/>
</linearGradient>
<linearGradient id="paint20_linear_937_11539" x1="85.69" y1="26.7485" x2="85.7401" y2="47.5281" gradientUnits="userSpaceOnUse">
<stop stop-color="#75D4FF"/>
<stop offset="1" stop-color="white" stop-opacity="0"/>
</linearGradient>
<linearGradient id="paint21_linear_937_11539" x1="85.69" y1="26.7485" x2="85.69" y2="42.2087" gradientUnits="userSpaceOnUse">
<stop stop-color="#47C0F5"/>
<stop offset="1" stop-color="white" stop-opacity="0"/>
</linearGradient>
<linearGradient id="paint22_linear_937_11539" x1="60.6374" y1="69.312" x2="60.884" y2="124.522" gradientUnits="userSpaceOnUse">
<stop stop-color="#75D4FF"/>
<stop offset="1" stop-color="white" stop-opacity="0"/>
</linearGradient>
<linearGradient id="paint23_linear_937_11539" x1="60.6374" y1="69.312" x2="60.6374" y2="110.389" gradientUnits="userSpaceOnUse">
<stop stop-color="#47C0F5"/>
<stop offset="1" stop-color="white" stop-opacity="0"/>
</linearGradient>
<linearGradient id="paint24_linear_937_11539" x1="99.9456" y1="62.4247" x2="43.2695" y2="81.13" gradientUnits="userSpaceOnUse">
<stop stop-color="white"/>
<stop stop-color="white"/>
<stop offset="1" stop-color="white"/>
</linearGradient>
</defs>
</svg>
