<svg width="417" height="452" viewBox="0 0 417 452" fill="none" xmlns="http://www.w3.org/2000/svg">
<path opacity="0.3" d="M27.3992 427.521V364.736C28.014 365.384 28.8148 366.122 29.8553 366.93C33.4741 369.739 40.0096 373.403 51.767 377.044C75.2742 384.323 119.826 391.559 204.144 391.559C288.461 391.559 332.871 384.323 356.236 377.043C367.923 373.403 374.389 369.738 377.956 366.926C378.95 366.141 379.721 365.422 380.316 364.788V428.408C348.919 443.654 296.325 450.281 204.144 450.281C111.947 450.281 63.3876 443.654 27.3992 427.521Z" fill="url(#paint0_linear_128_14830)" stroke="url(#paint1_linear_128_14830)" stroke-width="2"/>
<path opacity="0.3" d="M379.071 361.618C379.071 363.04 378.136 364.627 375.863 366.342C373.614 368.039 370.233 369.719 365.783 371.343C356.894 374.588 343.975 377.528 327.942 380.003C295.893 384.951 251.582 388.015 202.612 388.015C153.643 388.015 109.332 384.951 77.2828 380.003C61.2504 377.528 48.3312 374.588 39.4423 371.343C34.992 369.719 31.6111 368.039 29.3614 366.342C27.089 364.627 26.1538 363.04 26.1538 361.618C26.1538 360.197 27.089 358.61 29.3614 356.895C31.6111 355.198 34.992 353.518 39.4423 351.893C48.3312 348.649 61.2504 345.709 77.2828 343.234C109.332 338.286 153.643 335.221 202.612 335.221C251.582 335.221 295.893 338.286 327.942 343.234C343.975 345.709 356.894 348.649 365.783 351.893C370.233 353.518 373.614 355.198 375.863 356.895C378.136 358.61 379.071 360.197 379.071 361.618Z" fill="url(#paint2_linear_128_14830)" stroke="url(#paint3_linear_128_14830)" stroke-width="2"/>
<path d="M150.087 29.9562L150.127 29.9171L150.161 29.8738C150.284 29.7199 150.576 29.5635 150.923 29.5635H284.195C292.471 29.5635 299.137 36.2293 299.137 44.5047V295.9H121.183C112.908 295.9 106.242 289.235 106.242 280.959V74.2446C106.242 74.0263 106.371 73.6729 106.635 73.409L150.087 29.9562Z" fill="url(#paint4_linear_128_14830)" stroke="url(#paint5_linear_128_14830)" stroke-width="2"/>
<path d="M140.124 72.3018H107.659L149.066 30.9744V63.36C149.066 68.2929 145.057 72.3018 140.124 72.3018Z" fill="url(#paint6_linear_128_14830)" stroke="url(#paint7_linear_128_14830)" stroke-width="2"/>
<path d="M137.725 196.631H206.632" stroke="#4FC3F6" stroke-width="4.8555" stroke-miterlimit="10" stroke-linecap="round" stroke-linejoin="round"/>
<path d="M173.462 139.208H267.653" stroke="#4FC3F6" stroke-width="4.8555" stroke-miterlimit="10" stroke-linecap="round" stroke-linejoin="round"/>
<path d="M137.725 139.208H158.894" stroke="#4FC3F6" stroke-width="4.8555" stroke-miterlimit="10" stroke-linecap="round" stroke-linejoin="round"/>
<path d="M231.144 123.353H267.654" stroke="#4FC3F6" stroke-width="4.8555" stroke-miterlimit="10" stroke-linecap="round" stroke-linejoin="round"/>
<path d="M137.725 119.239H216.317" stroke="#4FC3F6" stroke-width="4.8555" stroke-miterlimit="10" stroke-linecap="round" stroke-linejoin="round"/>
<path d="M202.13 157.464H267.095" stroke="#4FC3F6" stroke-width="4.8555" stroke-miterlimit="10" stroke-linecap="round" stroke-linejoin="round"/>
<path d="M137.725 157.464H187.52" stroke="#4FC3F6" stroke-width="4.8555" stroke-miterlimit="10" stroke-linecap="round" stroke-linejoin="round"/>
<path d="M180.234 177.434H227.543" stroke="#4FC3F6" stroke-width="4.8555" stroke-miterlimit="10" stroke-linecap="round" stroke-linejoin="round"/>
<path d="M137.725 177.434H165.151" stroke="#4FC3F6" stroke-width="4.8555" stroke-miterlimit="10" stroke-linecap="round" stroke-linejoin="round"/>
<path d="M146.037 247.455C148.694 245.57 152.208 242.056 154.694 242.313C156.408 242.484 156.151 245.484 157.779 246.084C158.722 246.427 159.665 245.655 160.436 245.055C161.722 243.856 163.007 242.741 164.207 241.541C165.407 240.427 166.607 239.313 168.064 238.713C169.521 238.113 171.406 238.113 172.692 239.056C173.806 239.913 174.235 241.37 174.92 242.57C175.606 243.77 176.891 244.97 178.263 244.627C178.863 244.455 179.377 244.027 179.891 243.513C183.405 240.342 193.69 235.199 199.089 233.399" stroke="#4FC3F6" stroke-width="4.8555" stroke-miterlimit="10" stroke-linecap="round" stroke-linejoin="round"/>
<path d="M278.215 44.0024L266.152 107.851L283.395 101.802L296.171 114.804L308.63 48.9208L278.215 44.0024Z" fill="#1EA8DA"/>
<path d="M309.168 43.9111L288.478 49.0556L304.878 100.163L312.736 90.3825L324.947 93.3787L309.168 43.9111Z" fill="#1EA8DA"/>
<path d="M327.049 24.8664L326.486 25.9923L327.71 26.286C330.172 26.8769 332.258 28.8527 332.906 31.5916C333.5 34.1165 332.659 36.6891 330.829 38.3712L329.967 39.1626L330.883 39.8904C332.819 41.4289 333.903 43.955 333.459 46.572L333.458 46.5779C333.011 49.3106 331.073 51.4425 328.651 52.2336L327.458 52.623L328.104 53.6987C329.45 55.9426 329.538 58.8122 328.062 61.1251C326.614 63.3701 324.236 64.5514 321.765 64.4525L320.613 64.4065L320.73 65.5533C320.98 67.9985 319.978 70.5714 317.814 72.0965L317.806 72.102L317.798 72.1076C315.578 73.736 312.703 73.8426 310.414 72.698L309.288 72.135L308.994 73.359C308.403 75.8206 306.428 77.9064 303.69 78.5546C301.12 79.1466 298.594 78.2612 296.899 76.4673L296.107 75.6287L295.39 76.5317C293.851 78.4673 291.325 79.5521 288.708 79.1077L288.702 79.1068C285.969 78.6596 283.837 76.7221 283.046 74.2996L282.657 73.107L281.581 73.7525C279.337 75.0988 276.468 75.1869 274.155 73.7111C271.913 72.2647 270.729 69.8321 270.827 67.4146L270.874 66.2619L269.727 66.379C267.282 66.6285 264.708 65.6271 263.183 63.4625L263.178 63.4547L263.172 63.4471C261.544 61.2266 261.437 58.3516 262.582 56.0623L263.145 54.9364L261.921 54.6427C259.459 54.0519 257.374 52.0768 256.725 49.3387C256.133 46.7684 257.019 44.2423 258.813 42.5481L259.651 41.7561L258.748 41.0383C256.813 39.4998 255.728 36.9736 256.172 34.3566L256.173 34.3507C256.62 31.6181 258.558 29.4862 260.98 28.6951L262.173 28.3057L261.527 27.23C260.181 24.9864 260.093 22.1172 261.568 19.8045C263.015 17.5617 265.448 16.3774 267.865 16.4761L269.018 16.5232L268.901 15.3754C268.651 12.9302 269.653 10.3572 271.818 8.83213L271.825 8.82667L271.833 8.82106C274.053 7.19269 276.928 7.08604 279.218 8.23068L280.344 8.79361L280.637 7.56963C281.228 5.10806 283.203 3.02232 285.941 2.37412C288.512 1.78199 291.038 2.66746 292.732 4.46134L293.524 5.29998L294.242 4.39696C295.78 2.46139 298.306 1.3765 300.923 1.82092L300.929 1.82189C303.662 2.26904 305.794 4.20652 306.585 6.62908L306.974 7.82159L308.05 7.17617C310.294 5.83001 313.163 5.74177 315.475 7.21699C317.718 8.66329 318.903 11.0963 318.804 13.5141L318.757 14.6668L319.905 14.5497C322.35 14.3002 324.923 15.3016 326.448 17.4662L326.453 17.474L326.459 17.4816C328.087 19.7021 328.194 22.5771 327.049 24.8664Z" fill="url(#paint8_linear_128_14830)" stroke="url(#paint9_linear_128_14830)" stroke-width="2"/>
<path d="M298.291 57.1571C289.066 59.2775 279.913 53.5123 277.792 44.3211C275.672 35.0951 281.437 25.9425 290.627 23.8212C299.853 21.7009 309.005 27.4664 311.126 36.6578C313.247 45.8468 307.518 55.0363 298.291 57.1571Z" fill="url(#paint10_linear_128_14830)" stroke="#47C0F5" stroke-width="2"/>
<path d="M136.278 321.64H80.9414C75.8221 321.64 71.6665 317.485 71.6665 312.366V274.043C71.6665 268.924 75.8221 264.769 80.9414 264.769H136.278C141.398 264.769 145.553 268.924 145.553 274.043V312.366C145.553 317.485 141.398 321.64 136.278 321.64Z" fill="url(#paint11_linear_128_14830)" stroke="url(#paint12_linear_128_14830)" stroke-width="2"/>
<mask id="path-20-inside-1_128_14830" fill="white">
<path d="M84.9233 263.768V250.949C84.9233 237.897 95.5479 227.272 108.6 227.272C121.653 227.272 132.277 237.897 132.277 250.949V263.768"/>
</mask>
<path d="M84.9233 263.768V250.949C84.9233 237.897 95.5479 227.272 108.6 227.272C121.653 227.272 132.277 237.897 132.277 250.949V263.768" fill="url(#paint13_linear_128_14830)"/>
<path d="M86.9233 263.768V250.949H82.9233V263.768H86.9233ZM86.9233 250.949C86.9233 239.001 96.6524 229.272 108.6 229.272V225.272C94.4433 225.272 82.9233 236.792 82.9233 250.949H86.9233ZM108.6 229.272C120.548 229.272 130.277 239.001 130.277 250.949H134.277C134.277 236.792 122.757 225.272 108.6 225.272V229.272ZM130.277 250.949V263.768H134.277V250.949H130.277Z" fill="url(#paint14_linear_128_14830)" mask="url(#path-20-inside-1_128_14830)"/>
<mask id="path-22-inside-2_128_14830" fill="white">
<path d="M122.876 263.768V250.949C122.876 243.083 116.486 236.692 108.619 236.692C100.753 236.692 94.3628 243.083 94.3628 250.949V263.768"/>
</mask>
<path d="M122.876 263.768V250.949C122.876 243.083 116.486 236.692 108.619 236.692C100.753 236.692 94.3628 243.083 94.3628 250.949V263.768" fill="url(#paint15_linear_128_14830)"/>
<path d="M124.876 263.768V250.949H120.876V263.768H124.876ZM124.876 250.949C124.876 241.978 117.59 234.692 108.619 234.692V238.692C115.381 238.692 120.876 244.187 120.876 250.949H124.876ZM108.619 234.692C99.6485 234.692 92.3628 241.978 92.3628 250.949H96.3628C96.3628 244.187 101.858 238.692 108.619 238.692V234.692ZM92.3628 250.949V263.768H96.3628V250.949H92.3628Z" fill="#47C0F5" mask="url(#path-22-inside-2_128_14830)"/>
<path d="M104.668 293.683L104.668 293.683L104.66 293.678C101.807 291.816 100.477 288.081 102.016 284.608C102.935 282.55 104.829 281.014 107.023 280.537C111.71 279.547 115.855 283.098 115.855 287.62C115.855 290.076 114.591 292.363 112.563 293.676L112.563 293.676L112.551 293.683C112.07 294.004 111.737 294.535 111.737 295.176V303.508C111.737 304.902 110.608 306.043 109.202 306.043H108.017C106.624 306.043 105.482 304.914 105.482 303.508V295.176C105.482 294.535 105.149 294.004 104.668 293.683Z" fill="url(#paint16_linear_128_14830)" stroke="#47C0F5" stroke-width="2"/>
<path opacity="0.5" d="M23.5732 122.27C23.5732 128.07 18.8732 132.77 13.0732 132.77C7.27324 132.77 2.57324 128.07 2.57324 122.27C2.57324 116.47 7.27324 111.77 13.0732 111.77C18.8732 111.77 23.5732 116.47 23.5732 122.27Z" stroke="#31BFBA" stroke-width="4.8555" stroke-miterlimit="10" stroke-linecap="round" stroke-linejoin="round"/>
<path opacity="0.5" d="M385.973 301.27L407.473 307.07C411.473 308.17 415.173 304.47 414.073 300.47L408.273 278.97C407.173 274.97 402.173 273.57 399.173 276.57L383.473 292.27C380.573 295.17 381.973 300.27 385.973 301.27Z" stroke="#31BFBA" stroke-width="4.8555" stroke-miterlimit="10" stroke-linecap="round" stroke-linejoin="round"/>
<defs>
<linearGradient id="paint0_linear_128_14830" x1="203.858" y1="361.618" x2="203.993" y2="482.133" gradientUnits="userSpaceOnUse">
<stop stop-color="#CBCBCB"/>
<stop offset="1" stop-color="white" stop-opacity="0"/>
</linearGradient>
<linearGradient id="paint1_linear_128_14830" x1="203.858" y1="361.618" x2="203.858" y2="451.281" gradientUnits="userSpaceOnUse">
<stop stop-color="#A5A5A5"/>
<stop offset="1" stop-color="white" stop-opacity="0"/>
</linearGradient>
<linearGradient id="paint2_linear_128_14830" x1="202.612" y1="334.221" x2="202.663" y2="407.869" gradientUnits="userSpaceOnUse">
<stop stop-color="#CBCBCB"/>
<stop offset="1" stop-color="white" stop-opacity="0"/>
</linearGradient>
<linearGradient id="paint3_linear_128_14830" x1="202.612" y1="334.221" x2="202.612" y2="389.015" gradientUnits="userSpaceOnUse">
<stop stop-color="#A5A5A5"/>
<stop offset="1" stop-color="white" stop-opacity="0"/>
</linearGradient>
<linearGradient id="paint4_linear_128_14830" x1="202.689" y1="28.5635" x2="204.898" y2="389.216" gradientUnits="userSpaceOnUse">
<stop stop-color="#75D4FF"/>
<stop offset="1" stop-color="white" stop-opacity="0"/>
</linearGradient>
<linearGradient id="paint5_linear_128_14830" x1="202.689" y1="28.5635" x2="202.689" y2="296.9" gradientUnits="userSpaceOnUse">
<stop stop-color="#47C0F5"/>
<stop offset="1" stop-color="white" stop-opacity="0"/>
</linearGradient>
<linearGradient id="paint6_linear_128_14830" x1="127.654" y1="28.5635" x2="127.921" y2="88.6942" gradientUnits="userSpaceOnUse">
<stop stop-color="#75D4FF"/>
<stop offset="1" stop-color="white" stop-opacity="0"/>
</linearGradient>
<linearGradient id="paint7_linear_128_14830" x1="127.654" y1="28.5635" x2="127.654" y2="73.3018" gradientUnits="userSpaceOnUse">
<stop stop-color="#47C0F5"/>
<stop offset="1" stop-color="white" stop-opacity="0"/>
</linearGradient>
<linearGradient id="paint8_linear_128_14830" x1="294.816" y1="0.72168" x2="295.291" y2="107.554" gradientUnits="userSpaceOnUse">
<stop stop-color="#75D4FF"/>
<stop offset="1" stop-color="white" stop-opacity="0"/>
</linearGradient>
<linearGradient id="paint9_linear_128_14830" x1="294.816" y1="0.72168" x2="294.816" y2="80.207" gradientUnits="userSpaceOnUse">
<stop stop-color="#47C0F5"/>
<stop offset="1" stop-color="white" stop-opacity="0"/>
</linearGradient>
<linearGradient id="paint10_linear_128_14830" x1="276.353" y1="16.037" x2="327.229" y2="32.9013" gradientUnits="userSpaceOnUse">
<stop stop-color="white"/>
<stop stop-color="white"/>
<stop offset="1" stop-color="white"/>
</linearGradient>
<linearGradient id="paint11_linear_128_14830" x1="108.61" y1="263.769" x2="108.883" y2="342.896" gradientUnits="userSpaceOnUse">
<stop stop-color="#75D4FF"/>
<stop offset="1" stop-color="white" stop-opacity="0"/>
</linearGradient>
<linearGradient id="paint12_linear_128_14830" x1="108.61" y1="263.769" x2="108.61" y2="322.64" gradientUnits="userSpaceOnUse">
<stop stop-color="#47C0F5"/>
<stop offset="1" stop-color="white" stop-opacity="0"/>
</linearGradient>
<linearGradient id="paint13_linear_128_14830" x1="108.6" y1="227.272" x2="108.768" y2="276.325" gradientUnits="userSpaceOnUse">
<stop stop-color="#75D4FF"/>
<stop offset="1" stop-color="white" stop-opacity="0"/>
</linearGradient>
<linearGradient id="paint14_linear_128_14830" x1="108.6" y1="227.272" x2="108.6" y2="263.768" gradientUnits="userSpaceOnUse">
<stop stop-color="#47C0F5"/>
<stop offset="1" stop-color="white" stop-opacity="0"/>
</linearGradient>
<linearGradient id="paint15_linear_128_14830" x1="94.3628" y1="231.949" x2="133.992" y2="245.782" gradientUnits="userSpaceOnUse">
<stop stop-color="white"/>
<stop stop-color="white"/>
<stop offset="1" stop-color="white"/>
</linearGradient>
<linearGradient id="paint16_linear_128_14830" x1="100.367" y1="274.521" x2="125.11" y2="279.407" gradientUnits="userSpaceOnUse">
<stop stop-color="white"/>
<stop stop-color="white"/>
<stop offset="1" stop-color="white"/>
</linearGradient>
</defs>
</svg>
