<svg width="373" height="425" viewBox="0 0 373 425" fill="none" xmlns="http://www.w3.org/2000/svg">
<path opacity="0.3" d="M3.625 400.59V337.805C4.23981 338.453 5.04062 339.191 6.08112 339.998C9.69992 342.808 16.2354 346.472 27.9928 350.112C51.5 357.391 96.0523 364.628 180.37 364.628C264.686 364.628 309.097 357.391 332.462 350.112C344.149 346.471 350.615 342.806 354.181 339.994C355.176 339.21 355.947 338.491 356.542 337.856V401.476C325.145 416.723 272.551 423.35 180.37 423.35C88.1727 423.35 39.6134 416.723 3.625 400.59Z" fill="url(#paint0_linear_128_14690)" stroke="url(#paint1_linear_128_14690)" stroke-width="2"/>
<path opacity="0.3" d="M355.297 334.687C355.297 336.108 354.362 337.695 352.09 339.41C349.84 341.107 346.459 342.787 342.009 344.411C333.12 347.656 320.201 350.596 304.168 353.071C272.119 358.019 227.808 361.084 178.839 361.084C129.869 361.084 85.5582 358.019 53.5089 353.071C37.4764 350.596 24.5573 347.656 15.6683 344.411C11.218 342.787 7.83717 341.107 5.58749 339.41C3.31508 337.695 2.37988 336.108 2.37988 334.687C2.37988 333.265 3.31508 331.678 5.58749 329.963C7.83717 328.266 11.218 326.586 15.6683 324.962C24.5573 321.717 37.4764 318.777 53.5089 316.302C85.5582 311.354 129.869 308.29 178.839 308.29C227.808 308.29 272.119 311.354 304.168 316.302C320.201 318.777 333.12 321.717 342.009 324.962C346.459 326.586 349.84 328.266 352.09 329.963C354.362 331.678 355.297 333.265 355.297 334.687Z" fill="url(#paint2_linear_128_14690)" stroke="url(#paint3_linear_128_14690)" stroke-width="2"/>
<path opacity="0.5" d="M23.625 79.6978C23.625 85.4978 18.925 90.1978 13.125 90.1978C7.325 90.1978 2.625 85.4978 2.625 79.6978C2.625 73.8978 7.325 69.1978 13.125 69.1978C18.925 69.1978 23.625 73.8978 23.625 79.6978Z" stroke="#F7B7C6" stroke-width="4.8555" stroke-miterlimit="10" stroke-linecap="round" stroke-linejoin="round"/>
<path opacity="0.5" d="M347.542 264.201L351.042 260.701" stroke="#F7B7C6" stroke-width="4.8555" stroke-miterlimit="10" stroke-linecap="round" stroke-linejoin="round"/>
<path opacity="0.5" d="M366.242 245.401L369.742 242.001" stroke="#F7B7C6" stroke-width="4.8555" stroke-miterlimit="10" stroke-linecap="round" stroke-linejoin="round"/>
<path opacity="0.5" d="M369.742 264.201L366.242 260.701" stroke="#F7B7C6" stroke-width="4.8555" stroke-miterlimit="10" stroke-linecap="round" stroke-linejoin="round"/>
<path opacity="0.5" d="M351.042 245.401L347.542 242.001" stroke="#F7B7C6" stroke-width="4.8555" stroke-miterlimit="10" stroke-linecap="round" stroke-linejoin="round"/>
<rect x="0.878817" y="1.47716" width="42.0812" height="42.0812" transform="matrix(0.878817 0.477159 0 1 100.819 86.079)" fill="url(#paint4_linear_128_14690)" stroke="url(#paint5_linear_128_14690)" stroke-width="2"/>
<rect x="-0.878817" y="1.47716" width="42.0812" height="42.0812" transform="matrix(-0.878817 0.477159 0 1 176.309 86.9176)" fill="url(#paint6_linear_128_14690)" stroke="url(#paint7_linear_128_14690)" stroke-width="2"/>
<path d="M138.816 108.02L139.057 108.155L139.299 108.022L177.341 87.2186L178.158 86.7717L177.334 86.3376L139.293 66.2949L139.057 66.1709L138.823 66.2969L101.537 86.3395L100.733 86.7718L101.53 87.2166L138.816 108.02Z" fill="url(#paint8_linear_128_14690)" stroke="url(#paint9_linear_128_14690)"/>
<rect x="0.878817" y="1.47716" width="42.0812" height="42.0812" transform="matrix(0.878817 0.477159 0 1 135.439 20.9637)" fill="url(#paint10_linear_128_14690)" stroke="url(#paint11_linear_128_14690)" stroke-width="2"/>
<rect x="-0.878817" y="1.47716" width="42.0812" height="42.0812" transform="matrix(-0.878817 0.477159 0 1 210.928 21.8024)" fill="url(#paint12_linear_128_14690)" stroke="url(#paint13_linear_128_14690)" stroke-width="2"/>
<path d="M173.435 42.9051L173.676 43.0397L173.919 42.9071L211.96 22.1034L212.777 21.6565L211.953 21.2223L173.912 1.17971L173.676 1.05568L173.442 1.18167L136.156 21.2243L135.352 21.6565L136.149 22.1013L173.435 42.9051Z" fill="url(#paint14_linear_128_14690)" stroke="url(#paint15_linear_128_14690)"/>
<rect x="0.878817" y="1.47716" width="42.0812" height="42.0812" transform="matrix(0.878817 0.477159 0 1 182.314 86.3502)" fill="url(#paint16_linear_128_14690)" stroke="url(#paint17_linear_128_14690)" stroke-width="2"/>
<rect x="-0.878817" y="1.47716" width="42.0812" height="42.0812" transform="matrix(-0.878817 0.477159 0 1 257.803 87.1891)" fill="url(#paint18_linear_128_14690)" stroke="url(#paint19_linear_128_14690)" stroke-width="2"/>
<path d="M220.31 108.292L220.551 108.426L220.794 108.294L258.835 87.4901L259.652 87.0432L258.828 86.6091L220.787 66.5664L220.551 66.4424L220.317 66.5684L183.031 86.611L182.227 87.0433L183.024 87.4881L220.31 108.292Z" fill="url(#paint20_linear_128_14690)" stroke="url(#paint21_linear_128_14690)"/>
<circle cx="217.351" cy="251.506" r="5.02351" fill="#1EA8DA"/>
<circle cx="235.777" cy="251.506" r="5.02351" fill="#1EA8DA"/>
<path d="M113.209 267.446L113.336 266.966L113.031 266.575C105.772 257.281 101.509 245.497 101.72 232.77C102.235 203.368 126.397 179.956 155.694 180.472C184.958 180.988 208.275 205.25 207.761 234.685C207.247 264.087 183.084 287.5 153.788 286.983C143.99 286.801 134.892 283.977 127.092 279.18L126.607 278.881L126.103 279.146C119.726 282.493 113.517 284.222 108.899 285.114C106.721 285.535 104.901 285.768 103.591 285.897C104.383 284.887 105.421 283.49 106.539 281.792C108.936 278.15 111.723 273.082 113.209 267.446Z" fill="url(#paint22_linear_128_14690)" stroke="url(#paint23_linear_128_14690)" stroke-width="2"/>
<circle cx="135.611" cy="233.475" r="5.02351" fill="#1EA8DA"/>
<circle cx="153.123" cy="233.475" r="5.02351" fill="#1EA8DA"/>
<circle cx="170.636" cy="233.475" r="5.02351" fill="#1EA8DA"/>
<mask id="path-23-inside-1_128_14690" fill="white">
<path fill-rule="evenodd" clip-rule="evenodd" d="M180.724 280.915C196.832 271.491 207.652 254.009 207.652 233.999C207.652 213.606 196.414 195.839 179.793 186.55C187.108 182.524 195.474 180.172 204.391 180.015C233.812 179.497 258.071 203.008 258.587 232.527C258.8 245.304 254.519 257.136 247.232 266.467C250.086 277.293 257.98 286.045 257.98 286.045C257.98 286.045 245.896 285.831 233.113 279.122C225.28 283.941 216.141 286.777 206.303 286.96C197.079 287.122 188.361 284.922 180.724 280.915Z"/>
</mask>
<path fill-rule="evenodd" clip-rule="evenodd" d="M180.724 280.915C196.832 271.491 207.652 254.009 207.652 233.999C207.652 213.606 196.414 195.839 179.793 186.55C187.108 182.524 195.474 180.172 204.391 180.015C233.812 179.497 258.071 203.008 258.587 232.527C258.8 245.304 254.519 257.136 247.232 266.467C250.086 277.293 257.98 286.045 257.98 286.045C257.98 286.045 245.896 285.831 233.113 279.122C225.28 283.941 216.141 286.777 206.303 286.96C197.079 287.122 188.361 284.922 180.724 280.915Z" fill="url(#paint24_linear_128_14690)"/>
<path d="M180.724 280.915L179.714 279.189L176.601 281.011L179.795 282.687L180.724 280.915ZM179.793 186.55L178.829 184.798L175.67 186.537L178.818 188.296L179.793 186.55ZM204.391 180.015L204.355 178.015L204.355 178.015L204.391 180.015ZM258.587 232.527L260.587 232.493L260.587 232.492L258.587 232.527ZM247.232 266.467L245.655 265.236L245.045 266.018L245.298 266.977L247.232 266.467ZM257.98 286.045L257.945 288.044L262.55 288.126L259.465 284.705L257.98 286.045ZM233.113 279.122L234.043 277.351L233.035 276.823L232.066 277.419L233.113 279.122ZM206.303 286.96L206.339 288.959L206.341 288.959L206.303 286.96ZM205.652 233.999C205.652 253.269 195.234 270.109 179.714 279.189L181.734 282.642C198.43 272.874 209.652 254.748 209.652 233.999H205.652ZM178.818 188.296C194.832 197.245 205.652 214.36 205.652 233.999H209.652C209.652 212.853 197.996 194.432 180.769 184.804L178.818 188.296ZM204.355 178.015C195.105 178.178 186.421 180.619 178.829 184.798L180.758 188.302C187.795 184.429 195.843 182.166 204.426 182.015L204.355 178.015ZM260.587 232.492C260.052 201.875 234.888 177.477 204.355 178.015L204.426 182.015C232.736 181.516 256.091 204.141 256.588 232.562L260.587 232.492ZM248.808 267.698C256.366 258.02 260.807 245.745 260.587 232.493L256.588 232.56C256.792 244.863 252.671 256.252 245.655 265.236L248.808 267.698ZM257.98 286.045C259.465 284.705 259.465 284.705 259.466 284.706C259.466 284.706 259.466 284.706 259.466 284.706C259.466 284.706 259.466 284.706 259.466 284.706C259.466 284.706 259.465 284.705 259.464 284.704C259.462 284.701 259.458 284.697 259.452 284.69C259.44 284.677 259.421 284.655 259.395 284.625C259.342 284.566 259.263 284.474 259.159 284.352C258.951 284.108 258.646 283.741 258.269 283.265C257.514 282.314 256.474 280.929 255.347 279.216C253.081 275.773 250.517 271.082 249.166 265.957L245.298 266.977C246.801 272.678 249.611 277.776 252.005 281.415C253.208 283.243 254.32 284.723 255.135 285.751C255.542 286.265 255.876 286.666 256.111 286.943C256.229 287.081 256.322 287.188 256.387 287.262C256.419 287.299 256.445 287.328 256.463 287.348C256.472 287.359 256.479 287.367 256.485 287.373C256.487 287.376 256.489 287.378 256.491 287.38C256.492 287.381 256.493 287.382 256.493 287.383C256.494 287.383 256.494 287.383 256.494 287.383C256.495 287.384 256.495 287.384 257.98 286.045ZM232.184 280.893C238.791 284.361 245.205 286.145 249.961 287.063C252.342 287.523 254.317 287.768 255.706 287.898C256.4 287.963 256.949 287.999 257.329 288.02C257.52 288.03 257.668 288.036 257.771 288.039C257.823 288.041 257.864 288.042 257.893 288.043C257.907 288.044 257.919 288.044 257.927 288.044C257.932 288.044 257.935 288.044 257.938 288.044C257.94 288.044 257.941 288.044 257.942 288.044C257.943 288.044 257.943 288.044 257.943 288.044C257.944 288.044 257.945 288.044 257.98 286.045C258.015 284.045 258.016 284.045 258.016 284.045C258.016 284.045 258.017 284.045 258.017 284.045C258.017 284.045 258.017 284.045 258.017 284.045C258.017 284.045 258.016 284.045 258.015 284.045C258.012 284.045 258.006 284.045 257.997 284.045C257.98 284.044 257.951 284.043 257.911 284.042C257.831 284.039 257.707 284.034 257.542 284.025C257.212 284.008 256.717 283.975 256.079 283.915C254.802 283.796 252.957 283.568 250.719 283.136C246.238 282.27 240.218 280.592 234.043 277.351L232.184 280.893ZM206.341 288.959C216.545 288.769 226.032 285.826 234.161 280.826L232.066 277.419C224.528 282.055 215.737 284.784 206.266 284.96L206.341 288.959ZM179.795 282.687C187.722 286.845 196.77 289.128 206.339 288.959L206.268 284.96C197.387 285.116 189.001 282.999 181.653 279.144L179.795 282.687Z" fill="#47C0F5" mask="url(#path-23-inside-1_128_14690)"/>
<defs>
<linearGradient id="paint0_linear_128_14690" x1="180.084" y1="334.687" x2="180.219" y2="455.201" gradientUnits="userSpaceOnUse">
<stop stop-color="#CBCBCB"/>
<stop offset="1" stop-color="white" stop-opacity="0"/>
</linearGradient>
<linearGradient id="paint1_linear_128_14690" x1="180.084" y1="334.687" x2="180.084" y2="424.35" gradientUnits="userSpaceOnUse">
<stop stop-color="#A5A5A5"/>
<stop offset="1" stop-color="white" stop-opacity="0"/>
</linearGradient>
<linearGradient id="paint2_linear_128_14690" x1="178.839" y1="307.29" x2="178.889" y2="380.937" gradientUnits="userSpaceOnUse">
<stop stop-color="#CBCBCB"/>
<stop offset="1" stop-color="white" stop-opacity="0"/>
</linearGradient>
<linearGradient id="paint3_linear_128_14690" x1="178.839" y1="307.29" x2="178.839" y2="362.084" gradientUnits="userSpaceOnUse">
<stop stop-color="#A5A5A5"/>
<stop offset="1" stop-color="white" stop-opacity="0"/>
</linearGradient>
<linearGradient id="paint4_linear_128_14690" x1="22.0406" y1="0" x2="22.3042" y2="59.2476" gradientUnits="userSpaceOnUse">
<stop stop-color="#75D4FF"/>
<stop offset="1" stop-color="white" stop-opacity="0"/>
</linearGradient>
<linearGradient id="paint5_linear_128_14690" x1="22.0406" y1="0" x2="22.0406" y2="44.0812" gradientUnits="userSpaceOnUse">
<stop stop-color="#47C0F5"/>
<stop offset="1" stop-color="white" stop-opacity="0"/>
</linearGradient>
<linearGradient id="paint6_linear_128_14690" x1="22.0406" y1="0" x2="22.3042" y2="59.2476" gradientUnits="userSpaceOnUse">
<stop stop-color="#75D4FF"/>
<stop offset="1" stop-color="white" stop-opacity="0"/>
</linearGradient>
<linearGradient id="paint7_linear_128_14690" x1="22.0406" y1="0" x2="22.0406" y2="44.0812" gradientUnits="userSpaceOnUse">
<stop stop-color="#47C0F5"/>
<stop offset="1" stop-color="white" stop-opacity="0"/>
</linearGradient>
<linearGradient id="paint8_linear_128_14690" x1="139.437" y1="66.7373" x2="139.57" y2="121.638" gradientUnits="userSpaceOnUse">
<stop stop-color="#75D4FF"/>
<stop offset="1" stop-color="white" stop-opacity="0"/>
</linearGradient>
<linearGradient id="paint9_linear_128_14690" x1="139.437" y1="66.7373" x2="139.437" y2="107.584" gradientUnits="userSpaceOnUse">
<stop stop-color="#47C0F5"/>
<stop offset="1" stop-color="white" stop-opacity="0"/>
</linearGradient>
<linearGradient id="paint10_linear_128_14690" x1="22.0406" y1="0" x2="22.3042" y2="59.2476" gradientUnits="userSpaceOnUse">
<stop stop-color="#75D4FF"/>
<stop offset="1" stop-color="white" stop-opacity="0"/>
</linearGradient>
<linearGradient id="paint11_linear_128_14690" x1="22.0406" y1="0" x2="22.0406" y2="44.0812" gradientUnits="userSpaceOnUse">
<stop stop-color="#47C0F5"/>
<stop offset="1" stop-color="white" stop-opacity="0"/>
</linearGradient>
<linearGradient id="paint12_linear_128_14690" x1="22.0406" y1="0" x2="22.3042" y2="59.2476" gradientUnits="userSpaceOnUse">
<stop stop-color="#75D4FF"/>
<stop offset="1" stop-color="white" stop-opacity="0"/>
</linearGradient>
<linearGradient id="paint13_linear_128_14690" x1="22.0406" y1="0" x2="22.0406" y2="44.0812" gradientUnits="userSpaceOnUse">
<stop stop-color="#47C0F5"/>
<stop offset="1" stop-color="white" stop-opacity="0"/>
</linearGradient>
<linearGradient id="paint14_linear_128_14690" x1="174.057" y1="1.62207" x2="174.189" y2="56.5226" gradientUnits="userSpaceOnUse">
<stop stop-color="#75D4FF"/>
<stop offset="1" stop-color="white" stop-opacity="0"/>
</linearGradient>
<linearGradient id="paint15_linear_128_14690" x1="174.057" y1="1.62207" x2="174.057" y2="42.4685" gradientUnits="userSpaceOnUse">
<stop stop-color="#47C0F5"/>
<stop offset="1" stop-color="white" stop-opacity="0"/>
</linearGradient>
<linearGradient id="paint16_linear_128_14690" x1="22.0406" y1="0" x2="22.3042" y2="59.2476" gradientUnits="userSpaceOnUse">
<stop stop-color="#75D4FF"/>
<stop offset="1" stop-color="white" stop-opacity="0"/>
</linearGradient>
<linearGradient id="paint17_linear_128_14690" x1="22.0406" y1="0" x2="22.0406" y2="44.0812" gradientUnits="userSpaceOnUse">
<stop stop-color="#47C0F5"/>
<stop offset="1" stop-color="white" stop-opacity="0"/>
</linearGradient>
<linearGradient id="paint18_linear_128_14690" x1="22.0406" y1="0" x2="22.3042" y2="59.2476" gradientUnits="userSpaceOnUse">
<stop stop-color="#75D4FF"/>
<stop offset="1" stop-color="white" stop-opacity="0"/>
</linearGradient>
<linearGradient id="paint19_linear_128_14690" x1="22.0406" y1="0" x2="22.0406" y2="44.0812" gradientUnits="userSpaceOnUse">
<stop stop-color="#47C0F5"/>
<stop offset="1" stop-color="white" stop-opacity="0"/>
</linearGradient>
<linearGradient id="paint20_linear_128_14690" x1="220.932" y1="67.0088" x2="221.064" y2="121.909" gradientUnits="userSpaceOnUse">
<stop stop-color="#75D4FF"/>
<stop offset="1" stop-color="white" stop-opacity="0"/>
</linearGradient>
<linearGradient id="paint21_linear_128_14690" x1="220.932" y1="67.0088" x2="220.932" y2="107.855" gradientUnits="userSpaceOnUse">
<stop stop-color="#47C0F5"/>
<stop offset="1" stop-color="white" stop-opacity="0"/>
</linearGradient>
<linearGradient id="paint22_linear_128_14690" x1="154.741" y1="179.463" x2="155.393" y2="325.331" gradientUnits="userSpaceOnUse">
<stop stop-color="#75D4FF"/>
<stop offset="1" stop-color="white" stop-opacity="0"/>
</linearGradient>
<linearGradient id="paint23_linear_128_14690" x1="154.741" y1="179.463" x2="154.741" y2="287.992" gradientUnits="userSpaceOnUse">
<stop stop-color="#47C0F5"/>
<stop offset="1" stop-color="white" stop-opacity="0"/>
</linearGradient>
<linearGradient id="paint24_linear_128_14690" x1="258.595" y1="161.267" x2="108.854" y2="210.687" gradientUnits="userSpaceOnUse">
<stop stop-color="white"/>
<stop stop-color="white"/>
<stop offset="1" stop-color="white"/>
</linearGradient>
</defs>
</svg>
