<svg width="382" height="430" viewBox="0 0 382 430" fill="none" xmlns="http://www.w3.org/2000/svg">
<path opacity="0.3" d="M3.72583 405.551V342.766C4.34064 343.414 5.14145 344.152 6.18195 344.96C9.80075 347.769 16.3362 351.433 28.0936 355.074C51.6008 362.353 96.1532 369.589 180.47 369.589C264.787 369.589 309.198 362.353 332.563 355.073C344.249 351.432 350.715 347.767 354.282 344.955C355.277 344.171 356.047 343.452 356.643 342.818V406.438C325.246 421.684 272.652 428.311 180.47 428.311C88.2735 428.311 39.7142 421.684 3.72583 405.551Z" fill="url(#paint0_linear_128_14920)" stroke="url(#paint1_linear_128_14920)" stroke-width="2"/>
<path opacity="0.3" d="M355.398 339.648C355.398 341.069 354.463 342.657 352.19 344.371C349.94 346.069 346.56 347.749 342.109 349.373C333.22 352.617 320.301 355.557 304.269 358.033C272.219 362.98 227.908 366.045 178.939 366.045C129.97 366.045 85.6588 362.98 53.6095 358.033C37.577 355.557 24.6579 352.617 15.7689 349.373C11.3186 347.749 7.93775 346.069 5.68808 344.371C3.41567 342.657 2.48047 341.069 2.48047 339.648C2.48047 338.227 3.41567 336.639 5.68808 334.925C7.93775 333.228 11.3186 331.548 15.7689 329.923C24.6579 326.679 37.577 323.739 53.6095 321.264C85.6588 316.316 129.97 313.251 178.939 313.251C227.908 313.251 272.219 316.316 304.269 321.264C320.301 323.739 333.22 326.679 342.109 329.923C346.56 331.548 349.94 333.228 352.19 334.925C354.463 336.639 355.398 338.227 355.398 339.648Z" fill="url(#paint2_linear_128_14920)" stroke="url(#paint3_linear_128_14920)" stroke-width="2"/>
<path opacity="0.5" d="M23.7256 84.6592C23.7256 90.4592 19.0256 95.1592 13.2256 95.1592C7.42559 95.1592 2.72559 90.4592 2.72559 84.6592C2.72559 78.8592 7.42559 74.1592 13.2256 74.1592C19.0256 74.1592 23.7256 78.8592 23.7256 84.6592Z" stroke="#F7B7C6" stroke-width="4.8555" stroke-miterlimit="10" stroke-linecap="round" stroke-linejoin="round"/>
<path opacity="0.5" d="M356.398 69.248L359.898 65.748" stroke="#F7B7C6" stroke-width="4.8555" stroke-miterlimit="10" stroke-linecap="round" stroke-linejoin="round"/>
<path opacity="0.5" d="M375.098 50.4478L378.598 47.0479" stroke="#F7B7C6" stroke-width="4.8555" stroke-miterlimit="10" stroke-linecap="round" stroke-linejoin="round"/>
<path opacity="0.5" d="M378.598 69.248L375.098 65.748" stroke="#F7B7C6" stroke-width="4.8555" stroke-miterlimit="10" stroke-linecap="round" stroke-linejoin="round"/>
<path opacity="0.5" d="M359.898 50.4478L356.398 47.0479" stroke="#F7B7C6" stroke-width="4.8555" stroke-miterlimit="10" stroke-linecap="round" stroke-linejoin="round"/>
<path opacity="0.5" d="M328.102 257.727L349.602 263.527C353.602 264.627 357.302 260.927 356.202 256.927L350.402 235.427C349.302 231.427 344.302 230.027 341.302 233.027L325.602 248.727C322.702 251.627 324.102 256.727 328.102 257.727Z" stroke="#31BFBA" stroke-width="4.8555" stroke-miterlimit="10" stroke-linecap="round" stroke-linejoin="round"/>
<path d="M121.37 42.7686H223.586C236.539 42.7686 247.087 53.3173 247.087 66.2696V278.58C247.087 291.532 236.539 302.081 223.586 302.081H121.37C108.418 302.081 97.8691 291.532 97.8691 278.58V66.2696C97.8691 53.3173 108.351 42.7686 121.37 42.7686Z" fill="url(#paint4_linear_128_14920)"/>
<path fill-rule="evenodd" clip-rule="evenodd" d="M223.586 44.1038H121.37C109.091 44.1038 99.2044 54.0523 99.2044 66.2696V278.58C99.2044 290.795 109.155 300.746 121.37 300.746H223.586C235.801 300.746 245.752 290.795 245.752 278.58V66.2696C245.752 54.0548 235.801 44.1038 223.586 44.1038ZM223.586 42.7686H121.37C108.351 42.7686 97.8691 53.3173 97.8691 66.2696V278.58C97.8691 291.532 108.418 302.081 121.37 302.081H223.586C236.539 302.081 247.087 291.532 247.087 278.58V66.2696C247.087 53.3173 236.539 42.7686 223.586 42.7686Z" fill="url(#paint5_linear_128_14920)"/>
<path fill-rule="evenodd" clip-rule="evenodd" d="M121.371 44.3897C109.25 44.3897 99.4908 54.2098 99.4908 66.2699V278.58C99.4908 290.638 109.314 300.461 121.371 300.461H223.587C235.644 300.461 245.467 290.638 245.467 278.58V66.2699C245.467 54.2128 235.644 44.3897 223.587 44.3897H121.371ZM96.249 66.2699C96.249 52.4254 107.454 41.1479 121.371 41.1479H223.587C237.435 41.1479 248.709 52.4224 248.709 66.2699V278.58C248.709 292.428 237.435 303.702 223.587 303.702H121.371C107.523 303.702 96.249 292.428 96.249 278.58V66.2699Z" fill="url(#paint6_linear_128_14920)"/>
<path fill-rule="evenodd" clip-rule="evenodd" d="M162.612 56.3875C162.612 55.4923 163.338 54.7666 164.233 54.7666H180.19C181.085 54.7666 181.811 55.4923 181.811 56.3875C181.811 57.2827 181.085 58.0083 180.19 58.0083H164.233C163.338 58.0083 162.612 57.2827 162.612 56.3875Z" fill="#47C0F5"/>
<path d="M188.469 56.3877C188.469 55.2527 187.534 54.3848 186.466 54.3848C185.331 54.3848 184.463 55.3195 184.463 56.3877C184.463 57.5227 185.398 58.3906 186.466 58.3906C187.534 58.3906 188.469 57.5227 188.469 56.3877Z" fill="#47C0F5"/>
<path d="M222.518 281.784H122.438C109.753 281.784 99.4048 271.502 99.4048 258.75V278.513C99.4048 291.198 109.686 301.546 122.438 301.546H222.518C235.203 301.546 245.552 291.265 245.552 278.513V258.75C245.552 271.502 235.203 281.784 222.518 281.784Z" fill="#48C0F6"/>
<path fill-rule="evenodd" clip-rule="evenodd" d="M155.535 292.066C155.535 291.171 156.26 290.445 157.156 290.445H187.8C188.695 290.445 189.421 291.171 189.421 292.066C189.421 292.961 188.695 293.687 187.8 293.687H157.156C156.26 293.687 155.535 292.961 155.535 292.066Z" fill="white"/>
<path d="M175.206 182.251L197.726 155.644C198.671 154.504 198.727 152.864 197.837 151.668C196.725 150.195 194.612 149.944 193.222 151.14L171.647 169.462C171.258 169.851 170.618 169.851 170.229 169.462L159.748 162.872C158.219 161.899 156.217 162.122 154.938 163.401C153.492 164.846 153.409 167.182 154.771 168.711L166.809 182.334C169.062 184.864 173.009 184.809 175.206 182.251Z" fill="white"/>
<path d="M55.4009 181.345H130.783C136.582 181.345 141.283 186.046 141.283 191.845V236.98C141.283 242.779 136.582 247.48 130.783 247.48H55.4009C49.6019 247.48 44.9009 242.779 44.9009 236.98V191.845C44.9009 186.046 49.6019 181.345 55.4009 181.345Z" fill="white" stroke="#47C0F5" stroke-width="3"/>
<mask id="path-18-inside-1_128_14920" fill="white">
<path d="M75.8086 226.079L62.8457 214.413L75.8086 202.746"/>
</mask>
<path d="M62.8457 214.413L61.5078 212.926L59.856 214.413L61.5078 215.899L62.8457 214.413ZM77.1466 224.593L64.1836 212.926L61.5078 215.899L74.4707 227.566L77.1466 224.593ZM64.1836 215.899L77.1466 204.233L74.4707 201.26L61.5078 212.926L64.1836 215.899Z" fill="#47C0F5" mask="url(#path-18-inside-1_128_14920)"/>
<mask id="path-20-inside-2_128_14920" fill="white">
<path d="M110.376 226.079L123.339 214.413L110.376 202.746"/>
</mask>
<path d="M123.339 214.413L124.677 215.899L126.329 214.413L124.677 212.926L123.339 214.413ZM111.714 227.566L124.677 215.899L122.001 212.926L109.039 224.593L111.714 227.566ZM124.677 212.926L111.714 201.26L109.039 204.233L122.001 215.899L124.677 212.926Z" fill="#47C0F5" mask="url(#path-20-inside-2_128_14920)"/>
<path d="M99.5738 194.968L86.6108 233.857" stroke="#47C0F5" stroke-width="2"/>
<path d="M201.421 1.65771H313.108C318.907 1.65771 323.608 6.35873 323.608 12.1577V82.5485C323.608 88.3475 318.907 93.0485 313.108 93.0485H201.421C195.622 93.0485 190.921 88.3475 190.921 82.5485V12.1577C190.921 6.35872 195.622 1.65771 201.421 1.65771Z" fill="white" stroke="#47C0F5" stroke-width="3"/>
<mask id="path-24-inside-3_128_14920" fill="white">
<path d="M189.421 82.7496L236.617 35.5542L273.636 72.5731"/>
</mask>
<path d="M236.617 35.5542L238.031 34.14L236.617 32.7258L235.203 34.14L236.617 35.5542ZM190.836 84.1638L238.031 36.9684L235.203 34.14L188.007 81.3354L190.836 84.1638ZM235.203 36.9684L272.221 73.9873L275.05 71.1589L238.031 34.14L235.203 36.9684Z" fill="#47C0F5" mask="url(#path-24-inside-3_128_14920)"/>
<mask id="path-26-inside-4_128_14920" fill="white">
<path d="M260.215 59.1524L277.913 41.4541L325.109 88.6495"/>
</mask>
<path d="M277.913 41.4541L279.327 40.0399L277.913 38.6257L276.499 40.0399L277.913 41.4541ZM261.629 60.5666L279.327 42.8683L276.499 40.0399L258.801 57.7382L261.629 60.5666ZM276.499 42.8683L323.694 90.0637L326.523 87.2353L279.327 40.0399L276.499 42.8683Z" fill="#47C0F5" mask="url(#path-26-inside-4_128_14920)"/>
<path d="M289.72 23.7549L301.51 23.7549" stroke="#47C0F5" stroke-width="2"/>
<defs>
<linearGradient id="paint0_linear_128_14920" x1="180.184" y1="339.648" x2="180.32" y2="460.162" gradientUnits="userSpaceOnUse">
<stop stop-color="#CBCBCB"/>
<stop offset="1" stop-color="white" stop-opacity="0"/>
</linearGradient>
<linearGradient id="paint1_linear_128_14920" x1="180.184" y1="339.648" x2="180.184" y2="429.311" gradientUnits="userSpaceOnUse">
<stop stop-color="#A5A5A5"/>
<stop offset="1" stop-color="white" stop-opacity="0"/>
</linearGradient>
<linearGradient id="paint2_linear_128_14920" x1="178.939" y1="312.251" x2="178.99" y2="385.899" gradientUnits="userSpaceOnUse">
<stop stop-color="#CBCBCB"/>
<stop offset="1" stop-color="white" stop-opacity="0"/>
</linearGradient>
<linearGradient id="paint3_linear_128_14920" x1="178.939" y1="312.251" x2="178.939" y2="367.045" gradientUnits="userSpaceOnUse">
<stop stop-color="#A5A5A5"/>
<stop offset="1" stop-color="white" stop-opacity="0"/>
</linearGradient>
<linearGradient id="paint4_linear_128_14920" x1="172.478" y1="42.7686" x2="175.172" y2="391.285" gradientUnits="userSpaceOnUse">
<stop stop-color="#75D4FF"/>
<stop offset="1" stop-color="white" stop-opacity="0"/>
</linearGradient>
<linearGradient id="paint5_linear_128_14920" x1="172.478" y1="42.7686" x2="172.478" y2="302.081" gradientUnits="userSpaceOnUse">
<stop stop-color="#47C0F5"/>
<stop offset="1" stop-color="white" stop-opacity="0"/>
</linearGradient>
<linearGradient id="paint6_linear_128_14920" x1="172.479" y1="41.1479" x2="172.479" y2="303.702" gradientUnits="userSpaceOnUse">
<stop stop-color="#47C0F5"/>
<stop offset="1" stop-color="white" stop-opacity="0"/>
</linearGradient>
</defs>
</svg>
